<svg width="120" height="120" viewBox="0 0 120 120" fill="none" xmlns="http://www.w3.org/2000/svg">
<g clip-path="url(#clip0_32_99)">
<path d="M48.7013 41.0552H48.5235C47.6202 44.6898 46.7169 49.306 45.714 52.8411L42.0864 65.7935H55.5865L51.7812 52.8411C50.7 49.2136 49.6118 44.6898 48.7013 41.0552Z" fill="#3F5A4E"/>
<path d="M112.645 0H7.34752C3.28611 0 0 3.28611 0 7.34752V112.652C0 116.707 3.28611 120 7.34752 120H112.652C116.707 120 120 116.707 120 112.652V7.34752C120 3.29322 116.707 0 112.645 0ZM62.2939 91.7906L57.5781 76.1211H40.1019L35.7489 91.7906H21.438L40.1019 30.7415H58.2111L77.1525 91.7906H62.2939ZM98.1068 91.7906H84.3293V47.4993H98.1068V91.7906ZM91.1363 42.0651C86.7903 42.0651 83.8883 38.9781 83.9737 35.1728C83.8883 31.1825 86.7903 28.2094 91.2358 28.2094C95.6671 28.2094 98.4767 31.1896 98.562 35.1728C98.562 38.9781 95.6671 42.0651 91.1363 42.0651Z" fill="#3F5A4E"/>
</g>
<defs>
<clipPath id="clip0_32_99">
<rect width="120" height="120" rx="20" fill="white"/>
</clipPath>
</defs>
</svg>
