<svg width="120" height="120" viewBox="0 0 120 120" fill="none" xmlns="http://www.w3.org/2000/svg">
<path d="M94.8637 81.4236C90.2738 85.9161 83.985 88.6874 77.0475 88.6874C70.14 88.6874 63.8737 85.9386 59.28 81.4761L59.2875 81.4836C57.1987 79.3874 55.545 76.8524 54.48 74.0286L54.4312 73.8824C53.6812 71.8649 53.25 69.5324 53.25 67.0986C53.25 63.5361 54.1762 60.1911 55.8037 57.2924L55.7512 57.3936C57.1725 54.8699 58.9762 52.7399 61.1138 50.9999L61.155 50.9699C65.4937 47.5086 71.055 45.4161 77.1038 45.4161C83.1263 45.4161 88.665 47.4899 93.045 50.9624L92.9925 50.9211C95.1712 52.6836 96.975 54.8099 98.3325 57.2174L98.3887 57.3261C99.6937 59.6324 100.567 62.3511 100.83 65.2424L100.837 65.3211C100.882 65.8311 100.912 66.4274 100.912 67.0274C100.912 69.4611 100.474 71.7899 99.675 73.9424L99.72 73.8036C98.6062 76.7774 96.9525 79.3199 94.8637 81.4236ZM38.2087 73.2674C38.3587 75.6599 38.7862 77.8911 39.4612 80.0174L39.4087 79.8186C41.025 84.8361 43.5825 89.1524 46.8975 92.7636L46.875 92.7374C50.46 96.6674 54.8062 99.8361 59.6887 102.015L59.9325 102.112C64.9612 104.362 70.8337 105.675 77.0137 105.675C83.2425 105.675 89.1562 104.344 94.4925 101.947L94.2225 102.056C99.345 99.7574 103.688 96.5774 107.246 92.6699L107.276 92.6399C110.561 89.0436 113.119 84.7199 114.667 79.9424L114.735 79.6949C115.688 76.7699 116.235 73.4061 116.235 69.9111C116.235 68.2799 116.115 66.6786 115.886 65.1111L115.909 65.2874C115.196 60.3861 113.516 55.9874 111.067 52.1286L111.15 52.2636C108.791 48.5174 105.904 45.3486 102.555 42.7536L102.472 42.6899H102.484L67.2525 15.6411C66.03 14.8124 64.5225 14.3174 62.9025 14.3174C61.275 14.3174 59.76 14.8161 58.5112 15.6674L58.5375 15.6486C57.2737 16.3274 56.4262 17.6399 56.4262 19.1511C56.4262 20.4186 57.0225 21.5474 57.9487 22.2749L57.9562 22.2824L57.9525 22.2861L72.6 34.2036L27.8812 34.2486C27.81 34.2449 27.7237 34.2449 27.6375 34.2449C24.09 34.2449 21.0675 36.5174 19.9537 39.6824L19.935 39.7386C19.215 42.8549 21.7162 45.4424 25.56 45.4574V45.4649L48.195 45.4199L7.6425 76.5449C5.36625 77.9661 3.87 80.4599 3.87 83.2986C3.87 84.8061 4.29 86.2161 5.02125 87.4199L5.0025 87.3861C6.47625 88.8486 8.505 89.7524 10.7437 89.7524C12.975 89.7524 14.9962 88.8561 16.47 87.4049L38.5125 69.3674C38.3512 70.5149 38.2425 71.8611 38.2162 73.2299V73.2636L38.2087 73.2674ZM62.3887 65.6886C62.6475 61.8936 64.4625 58.5636 67.1925 56.3061L67.215 56.2874C70.0125 53.9811 73.6312 52.5861 77.58 52.5861C81.5287 52.5861 85.1475 53.9849 87.9712 56.3099L87.9412 56.2874C90.6937 58.5599 92.505 61.8899 92.7562 65.6436L92.76 65.6849C92.7712 65.8724 92.775 66.0899 92.775 66.3074C92.775 70.0311 91.215 73.3911 88.7137 75.7686L88.7063 75.7724C85.8037 78.4949 81.885 80.1674 77.5762 80.1674C73.2675 80.1674 69.3487 78.4949 66.4387 75.7649L66.4462 75.7724C63.9375 73.3911 62.3775 70.0311 62.3775 66.3074C62.3775 66.0899 62.3812 65.8724 62.3925 65.6549V65.6849L62.3887 65.6886Z" fill="#3F5A4E"/>
</svg>
