<svg width="120" height="120" viewBox="0 0 120 120" fill="none" xmlns="http://www.w3.org/2000/svg">
<g clip-path="url(#clip0_32_123)">
<path d="M60 0C26.8538 0 0 26.8538 0 60C0 93.1462 26.8538 120 60 120C93.1462 120 120 93.1462 120 60C120 26.8538 93.1462 0 60 0ZM34.8037 38.4C38.5725 38.4 41.505 41.1488 41.835 44.3962C42.1912 47.325 40.9762 49.8862 37.7362 51.4275C36.015 52.2862 35.3325 52.2863 34.98 51.7762C34.8037 51.4275 34.98 51.0975 35.3287 50.7412C38.4187 48.1875 38.4187 46.1175 38.0625 43.2075C37.8862 41.3138 36.5212 40.1175 35.1525 40.1175C29.1375 40.1175 20.5838 53.4788 21.7725 63.2625C22.3013 67.0312 24.5287 71.4863 29.3137 71.4863C30.8587 71.4863 32.58 70.9762 34.1175 70.2975C36.6187 68.9662 38.1225 67.9538 39.6075 66.2925C39.2363 61.8562 43.1213 56.0588 48.8625 56.0588C51.4425 56.0588 53.4937 57.0938 53.6662 58.9875C54 61.5487 51.7725 61.8975 51.09 61.8975C50.4037 61.8975 49.1963 61.7213 49.1963 61.0387C49.0425 60.3525 50.7375 60.69 50.58 59.145C50.4038 58.11 49.3688 57.78 48.3563 57.78C44.7413 57.78 42.69 62.76 43.2 65.8237C43.3763 67.2075 44.055 68.58 45.4463 68.58C46.4625 68.58 48.0075 67.035 48.51 64.8113C48.8587 63.2663 50.2313 62.2312 51.4388 62.2312C51.9487 62.2312 52.2788 62.4075 52.455 63.09V63.7762C52.3013 64.4625 51.7687 66.5325 51.9487 67.035C51.9487 67.3913 52.125 67.8937 52.8038 67.8937C53.2537 67.8937 54.975 66.9938 56.6925 65.5875C57.2588 62.6362 57.9412 59.1037 57.9412 58.8112C58.1175 57.6 58.6275 56.4075 61.0275 56.4075C61.5525 56.4075 61.8862 56.5837 62.0625 57.2663V57.9525L61.3763 61.0387C63.6075 58.1287 66.8662 56.0775 68.9175 56.0775C69.7763 56.0775 70.4625 56.5837 70.4625 57.4425C70.4625 57.9525 70.4625 58.8112 70.1062 59.6738C69.4275 61.5488 68.565 64.4775 68.055 67.035C68.055 67.7212 68.2312 68.4037 69.09 68.4037C69.9487 68.4037 72.51 67.3875 74.5612 64.635L74.6025 64.6163C74.6025 64.2825 74.5612 63.9525 74.5612 63.6225C74.5612 61.5525 74.7375 59.8537 75.09 58.6425C75.4388 57.2737 77.1413 56.0812 78.1763 56.0812C78.6825 56.0812 79.2113 56.4113 79.2113 56.9212C79.2113 57.0975 79.2113 57.4463 79.035 57.6075C78.3487 59.8538 77.82 61.9013 77.82 63.9525C77.82 65.1637 78 66.8625 78.3487 67.8975C78.3487 68.0738 78.5025 68.2462 78.6788 68.2462C79.035 68.2462 81.435 66.0225 83.1338 63.09C81.5888 62.0737 80.73 60.3563 80.73 58.305C80.73 54.6938 82.98 52.815 85.0312 52.815C86.7525 52.815 88.1175 54.0112 88.1175 56.4113C88.1175 57.9562 87.6075 59.6775 86.7525 61.215H87.2587C88.3537 61.2562 89.43 60.8063 90.1687 60.0262C90.345 59.7525 90.5775 59.5575 90.855 59.4412C92.535 57.3112 94.995 55.7325 97.905 55.7325C100.305 55.7325 102.514 56.7675 102.69 58.6425C103.039 61.2188 100.796 61.7288 100.11 61.7288C99.4312 61.7288 98.22 61.5525 98.22 60.87C98.22 60.1875 99.7613 60.5213 99.6038 58.995C99.4275 57.96 98.3925 57.6112 97.3575 57.6112C93.9375 57.6112 91.7137 62.0625 92.2162 65.6775C92.3925 67.0425 93.075 68.5875 94.4475 68.5875C95.4825 68.5875 97.0238 67.0425 97.7063 64.8187C98.0363 63.4538 99.4275 62.2388 100.616 62.2388C101.141 62.2388 101.475 62.415 101.651 63.0975C101.651 63.4538 101.651 64.1325 100.965 66.3638C100.106 67.905 100.106 68.7637 100.286 69.45C100.44 70.815 101.126 71.85 101.827 72.36C101.981 72.5362 102.161 72.8662 102.161 72.8662C102.161 73.2225 101.981 73.5713 101.475 73.5713C101.299 73.5713 101.141 73.5713 100.965 73.395C98.3887 72.36 97.3538 70.6387 97.02 68.9212C95.985 70.1325 94.7962 70.815 93.4088 70.815C91.1775 70.815 88.9725 68.7637 88.6237 66.1838C88.5225 65.0925 88.6387 63.9787 88.995 62.9437C87.9788 63.5887 86.8838 63.96 85.8713 63.96H85.0312C82.785 67.2188 80.3812 69.45 78.6825 70.4662C78.0975 70.7775 77.4525 70.9575 76.7887 70.9912C76.4587 70.9912 75.9337 70.815 75.7725 70.4662C75.2887 69.705 74.9925 68.5125 74.7975 67.1475C72.3937 69.7613 69.0713 71.1675 67.5338 71.1675C65.8125 71.1675 64.8 70.1325 64.6237 68.4188V66.5438C65.13 62.775 66.5175 60.5288 66.5175 59.8425C66.4988 59.6663 66.3562 59.5088 66.1612 59.4937C64.9725 59.4937 61.0275 63.615 60.3412 66.3675L59.8162 68.5912C59.4825 70.1325 57.9412 71.1675 56.9062 71.1675C56.3963 71.1675 56.0475 70.9912 55.89 70.3125V69.6263L56.1038 68.4562C53.9325 69.9975 51.765 70.9912 50.73 70.9912C49.1888 70.9912 48.33 70.1325 48.1763 68.9212C47.1413 70.3125 45.945 70.9912 44.4075 70.9912C42.6263 70.9912 40.9125 69.78 40.0913 68.025C38.8575 69.4087 37.47 70.7962 35.8313 71.85C33.4313 73.395 30.6975 74.5837 27.4312 74.5837C24.5212 74.5837 21.945 73.0387 20.5763 71.6738C18.5063 69.78 17.3175 66.87 17.1413 64.1325C16.125 55.7362 21.2625 44.9325 29.13 40.1287C31.0238 39.0938 32.9212 38.415 34.7962 38.415L34.8037 38.4ZM83.6512 54.8662C83.145 54.8662 82.7962 55.725 82.7962 56.5612C82.7962 57.9525 83.475 59.49 84.3375 60.3525C84.6937 59.4188 84.8475 58.4212 84.8662 57.4237C84.8662 55.7287 84.18 54.87 83.6512 54.87V54.8662Z" fill="#3F5A4E"/>
</g>
<defs>
<clipPath id="clip0_32_123">
<rect width="120" height="120" fill="white"/>
</clipPath>
</defs>
</svg>
