<svg width="120" height="120" viewBox="0 0 120 120" fill="none" xmlns="http://www.w3.org/2000/svg">
<path opacity="0.6" d="M58.3335 10H41.6666C32.4619 10 25 17.4619 25 26.6666C25 35.8714 32.4619 43.3333 41.6666 43.3333H58.3335V10Z" fill="#3F5A4E"/>
<path opacity="0.4" d="M58.3335 43.3325H41.6666C32.4619 43.3325 25 50.7945 25 59.999C25 69.204 32.4619 76.666 41.6666 76.666H58.3335V43.3325Z" fill="#3F5A4E"/>
<path d="M91.6635 59.999C91.6635 69.204 84.2015 76.666 74.9965 76.666C65.792 76.666 58.33 69.204 58.33 59.999C58.33 50.7945 65.792 43.3325 74.9965 43.3325C84.2015 43.3325 91.6635 50.7945 91.6635 59.999Z" fill="#3F5A4E"/>
<path opacity="0.2" d="M41.6666 76.6675H58.3335V93.334C58.3335 102.539 50.8715 110.001 41.6666 110.001C32.4619 110.001 25 102.539 25 93.334C25 84.1295 32.4619 76.6675 41.6666 76.6675Z" fill="#3F5A4E"/>
<path opacity="0.8" d="M58.33 10H74.9965C84.2015 10 91.6635 17.4619 91.6635 26.6666C91.6635 35.8714 84.2015 43.3333 74.9965 43.3333H58.33V10Z" fill="#3F5A4E"/>
</svg>
