<svg width="120" height="120" viewBox="0 0 120 120" fill="none" xmlns="http://www.w3.org/2000/svg">
<g clip-path="url(#clip0_32_104)">
<path d="M79.1726 62.842C79.3432 63.69 79.4269 64.7086 79.4269 65.5575V71.7504C79.4269 72.8538 79.3432 73.8715 79.0877 74.805C78.0703 79.3022 74.3372 82.1859 70.0948 82.1859C63.4779 82.1859 59.7443 76.6716 59.7443 69.1207C59.7443 61.3997 63.4779 55.4611 70.1794 55.4611C74.9306 55.4611 78.2395 58.77 79.1726 62.842ZM119.883 20.0782V99.922C119.883 110.901 110.9 119.883 99.9218 119.883H20.0782C9.09961 119.883 0.117188 110.9 0.117188 99.9218V20.0782C0.117188 9.09961 9.09961 0.117188 20.0782 0.117188H99.922C110.9 0.117188 119.883 9.09961 119.883 20.0782ZM40.233 32.4694H29.798V89.652H40.233V32.4694ZM90.2025 89.652C90.0319 86.8519 89.8624 82.271 89.8624 78.0293V29.4148H79.4269V52.8309H79.2572C77.3918 49.7768 73.3186 47.4012 67.6345 47.4012C57.708 47.4012 49.0542 55.6308 49.1388 69.4601C49.1388 82.1862 56.9442 90.5848 66.7854 90.5848C72.8086 90.5848 77.8146 87.7008 80.2756 83.119H80.4452L80.8692 89.652H90.2025Z" fill="#3F5A4E"/>
</g>
<defs>
<clipPath id="clip0_32_104">
<rect width="120" height="120" fill="white"/>
</clipPath>
</defs>
</svg>
