<svg width="120" height="120" viewBox="0 0 120 120" fill="none" xmlns="http://www.w3.org/2000/svg">
<path d="M97.394 43.592V53.5923C97.394 54.0027 97.1459 54.1545 96.5938 54.1545C96.3577 54.1463 96.0816 54.1381 95.8056 54.1381C92.6167 54.1381 89.5879 54.8439 86.8592 56.1078L86.9952 56.0503C85.9949 56.5181 85.1467 57.1583 84.4505 57.9421L84.4465 57.9503V84.1022C84.4465 84.6151 84.2465 84.8203 83.7983 84.8203H73.9477C73.9157 84.8244 73.8797 84.8285 73.8437 84.8285C73.4876 84.8285 73.1955 84.5577 73.1515 84.2089V55.5907L73.1035 51.7457L73.0035 47.7448C73.0035 46.567 72.9034 45.4386 72.8034 44.2567C72.7994 44.2362 72.7994 44.2075 72.7994 44.1829C72.7994 43.9531 72.9475 43.7561 73.1515 43.6946H82.0539C82.538 43.6946 82.9501 44.0434 83.0542 44.5071V44.5153C83.4663 45.8653 83.7063 47.4165 83.7063 49.021C83.7063 49.0948 83.7063 49.1687 83.7063 49.2426V49.2302C85.2107 47.4575 86.9992 45.9802 89.0077 44.8723L89.1078 44.823C91.2763 43.5632 93.873 42.8246 96.6338 42.8246C96.6578 42.8246 96.6858 42.8246 96.7098 42.8246H96.7058C96.7298 42.8205 96.7578 42.8205 96.7858 42.8205C97.1059 42.8205 97.37 43.0667 97.406 43.3868L97.394 43.592ZM63.2969 59.7476C61.2964 62.5791 58.5556 64.7457 55.3668 65.9645L55.2467 66.0055C52.1459 67.1176 48.573 67.7619 44.856 67.7619C44.5559 67.7619 44.2518 67.7578 43.9517 67.7495H43.9957L41.4951 67.7003L39.3465 67.6511V84.1104C39.3505 84.1432 39.3545 84.176 39.3545 84.213C39.3545 84.5372 39.1104 84.8039 38.7983 84.8285H29.0998C28.6997 84.8285 28.4996 84.6233 28.4996 84.1637V31.3962C28.4996 31.0392 28.6476 30.834 28.9997 30.834L31.8005 30.7848L35.6015 30.6822L39.9507 30.5796L44.4999 30.5304C44.7519 30.5222 45.048 30.5181 45.3441 30.5181C48.729 30.5181 51.9779 31.1049 55.0067 32.1841L54.7986 32.1185C57.4153 33.0459 59.6519 34.4821 61.5044 36.3287L61.5004 36.3246C63.0688 37.9373 64.3092 39.8865 65.1134 42.0572L65.1494 42.168C65.8736 44.1501 66.2937 46.4398 66.2977 48.8322C66.3057 49.0497 66.3137 49.3082 66.3137 49.5667C66.3137 53.3666 65.1894 56.8916 63.2609 59.8215L63.3009 59.7558L63.2969 59.7476ZM98.7463 0.00410325H21.2497C9.51454 0.00410325 0 9.76234 0 21.798V98.2061C0 98.2102 0 98.2184 0 98.2225C0 110.25 9.50653 120 21.2337 120C21.2417 120 21.2457 120 21.2537 120H98.7503C98.7543 120 98.7623 120 98.7663 120C110.493 120 120 110.25 120 98.2225C120 98.2143 120 98.2102 120 98.202V21.7939C120 21.7898 120 21.7816 120 21.7775C120 9.75003 110.493 0 98.7663 0C98.7583 0 98.7543 0.00410325 98.7463 0.00410325ZM50.7455 41.6428C49.1611 40.9862 47.3246 40.6046 45.4001 40.6046C45.2041 40.6046 45.012 40.6087 44.82 40.6169H44.848C43.0315 40.5786 41.215 40.6128 39.3985 40.7195V57.9503L41.347 58.0529H43.9957C44.0037 58.0529 44.0117 58.0529 44.0157 58.0529C46.0643 58.0529 48.0328 57.7164 49.8773 57.0926L49.7453 57.1296C51.3897 56.6248 52.7821 55.6769 53.8344 54.4212L53.8424 54.4089C54.8186 53.0958 55.4068 51.4338 55.4068 49.6283C55.4068 49.4518 55.4028 49.2795 55.3908 49.103V49.1277C55.4028 48.9676 55.4108 48.7789 55.4108 48.5901C55.4108 45.4345 53.4943 42.7384 50.7895 41.6592L50.7455 41.6428Z" fill="#3F5A4E"/>
</svg>
