<svg width="120" height="120" viewBox="0 0 120 120" fill="none" xmlns="http://www.w3.org/2000/svg">
<path d="M99.8046 0H19.961C8.98242 0 0 8.98242 0 19.961V99.8048C0 110.783 8.98242 119.766 19.961 119.766H99.8048C110.783 119.766 119.766 110.783 119.766 99.8048V19.961C119.766 8.98242 110.783 0 99.8046 0ZM57.3818 60.9431C53.2249 65.1 46.6917 67.0521 39.3108 67.0521C37.3594 67.0521 35.5779 66.9666 34.2202 66.712V88.2616H23.8704V31.8429C27.6033 31.1644 32.7788 30.6548 39.8196 30.6548C47.456 30.6548 53.0555 32.2669 56.7038 35.3215C60.0975 38.1216 62.303 42.6178 62.303 47.9627C62.3027 53.3927 60.6061 57.8887 57.3818 60.9431ZM79.0971 89.1108C74.0913 89.1108 69.5951 87.9227 66.5407 86.2256L68.5767 78.675C70.9521 80.1173 75.4491 81.6448 79.182 81.6448C83.7628 81.6448 85.7998 79.7782 85.7998 77.063C85.7998 74.2638 84.1031 72.821 79.0123 71.0395C70.9519 68.2395 67.5593 63.828 67.6439 58.992C67.6439 51.6956 73.6673 46.0116 83.2542 46.0116C87.836 46.0116 91.8234 47.1996 94.1984 48.4716L92.1623 55.8527C90.3806 54.8351 87.0715 53.4773 83.4237 53.4773C79.6905 53.4773 77.6545 55.2591 77.6545 57.8039C77.6545 60.4345 79.6059 61.7074 84.8663 63.5737C92.332 66.2883 95.8106 70.106 95.8955 76.2152C95.8952 83.681 90.0417 89.1108 79.0971 89.1108ZM51.8672 48.3867C51.8672 55.0894 47.1157 58.9071 39.3108 58.9071C37.1899 58.9071 35.493 58.8223 34.2202 58.4831V39.1392C35.3236 38.8849 37.3596 38.6304 40.2445 38.6304C47.456 38.6304 51.8672 42.0241 51.8672 48.3867Z" fill="#3F5A4E"/>
</svg>
