<svg width="90" height="90" viewBox="0 0 90 90" fill="none" xmlns="http://www.w3.org/2000/svg">
<path fill-rule="evenodd" clip-rule="evenodd" d="M0 30.9175C0 45 23.071 90 44.9613 90C66.8522 90 90 46.9901 90 29.2943C90 18.1058 79.173 0 44.8321 0C10.4918 0 0 20.0009 0 30.9175ZM29.1182 34.0688C20.9179 25.5601 15.8285 16.9351 15.8285 16.9351C15.8285 16.9351 24.2139 12.9219 29.692 11.8502C30.1587 11.759 30.6347 11.6611 31.1223 11.5616C36.3578 10.4899 42.8705 9.15751 52.262 12.3983C71.8019 19.1417 80.1331 31.7548 80.1331 31.7548C80.1331 31.7548 67.5586 22.0218 53.7121 20.0674C45.7358 18.9415 30.8994 23.5085 30.8994 23.5085C30.8994 23.5085 36.0563 28.7551 40.2536 36.4371C40.9153 37.648 41.56 38.7566 42.1774 39.8183C45.4757 45.4883 47.9814 49.7958 47.9814 61.034C47.9814 69.2334 41.5339 81.4181 41.5339 81.4181C41.5339 81.4181 45.1551 65.5423 42.2345 52.9896C40.1239 43.9154 38.4957 42.5193 34.658 39.2282C33.1869 37.9669 31.3906 36.427 29.1182 34.0688Z" fill="#3F5A4E"/>
</svg>
