<svg width="378" height="322" viewBox="0 0 378 322" fill="none" xmlns="http://www.w3.org/2000/svg">
<g filter="url(#filter0_d_107_4)">
<path d="M115.694 263.521C114.235 266.159 112.748 268.493 111.014 270.653C102.474 281.289 91.5581 287.992 78.1033 290.234C66.7655 292.123 55.871 290.369 45.6677 285.092C29.5004 276.73 19.7209 263.393 15.8161 245.635C14.9898 241.88 14.7445 238.057 14.6146 234.226C14.5871 233.411 14.7471 232.591 14.8166 231.774C14.8586 231.28 14.7576 230.963 14.1451 230.9C9.10049 230.373 6.25161 227.16 4.73666 222.68C3.24926 218.285 4.01789 214.141 7.00974 210.501C8.07348 209.207 9.51235 208.415 11.0509 207.551C6.72118 204.794 4.36285 200.975 4.43105 195.858C4.49926 190.706 6.94678 187.034 11.6989 184.859C2.01894 180.096 1.70021 166.154 11.3788 161.808C7.01236 159.283 4.48483 155.669 4.30513 150.588C4.12282 145.435 6.26604 141.634 10.8043 139.191C1.23721 133.514 2.29045 119.144 12.7049 116.052C2.1265 112.253 1.44182 97.34 10.8502 92.788C6.68314 90.1526 4.34711 86.4944 4.29858 81.462C4.24873 76.3505 6.52312 72.691 11.068 70.3242C5.78204 67.1188 3.55356 62.4365 4.45204 56.4931C5.16951 51.7503 8.05249 48.6331 12.9541 47.1706C7.74426 45.125 4.77864 41.426 4.33661 35.9921C3.88934 30.4831 6.0929 26.3181 11.127 23.846C11.0102 23.4287 10.6377 23.3905 10.3715 23.2167C5.73876 20.1957 3.648 15.824 4.41662 10.4296C5.12229 5.47477 8.07086 1.9548 13.6493 1.18605C14.8586 1.01887 16.0483 1.18078 17.2432 1.13076C25.4488 0.793768 33.6597 1.07152 41.8653 0.866169C42.9054 0.839841 43.9442 0.821412 44.9844 0.81483C71.3654 0.638437 97.7464 0.572619 124.127 0.42387C144.27 0.310662 164.412 0.314611 184.555 0.301448C241.098 0.263273 297.641 0.294866 354.184 0.267222C356.62 0.267222 359.087 0.751645 361.5 0C362.996 0.43835 364.536 -0.0592364 366.031 0.194822C368.352 0.588415 370.157 1.86924 371.571 3.71347C376.874 10.6297 372.994 21.2211 364.609 23.0364C364.239 23.1167 363.855 23.1654 363.435 23.4971C364.297 24.1658 365.326 24.3067 366.26 24.595C370.918 26.0338 373.861 30 373.947 34.8534C374.037 39.9319 371.885 43.7033 367.619 46.3334C367.481 46.4177 367.342 46.5019 367.211 46.5967C367.175 46.623 367.164 46.6875 367.101 46.8165C372.401 49.2281 374.41 53.5405 373.874 59.1575C373.41 64.0346 370.022 67.7573 364.25 69.7621C367.475 69.7858 369.791 71.1285 371.559 73.4032C375.262 78.1618 374.559 85.0965 370.639 89.272C369.549 90.433 368.244 91.286 366.759 92.1667C372.328 94.5822 374.56 98.9407 373.834 104.637C373.137 110.098 369.82 113.583 364.503 115.194C367.474 115.275 369.789 116.618 371.555 118.888C375.261 123.646 374.566 130.581 370.64 134.754C369.065 136.428 367.188 137.587 364.985 138.2C365.037 138.403 365.111 138.534 365.294 138.555C369.408 139.031 371.882 141.566 373.242 145.244C375.429 151.157 372.756 157.947 366.872 160.764C366.489 160.947 366.04 160.998 365.686 161.393C369.311 162.201 371.76 164.397 373.116 167.767C375.509 173.713 372.914 181.053 366.491 183.834C366.049 184.025 365.59 184.174 365.042 184.378C370.564 185.454 373.931 189.584 373.93 195.172C373.928 200.744 371.342 204.642 366.327 206.963C366.184 207.029 366.05 207.118 365.922 207.212C365.888 207.235 365.89 207.312 365.863 207.414C370.152 208.469 372.723 211.335 373.662 215.522C375.359 223.095 370.21 229.453 364.233 230.448C363.545 230.563 362.845 230.592 362.026 230.673C362.28 232.661 362.405 234.609 362.455 236.567C362.623 243.076 361.3 249.308 359.1 255.378C356.115 263.613 351.448 270.776 345.064 276.746C336.798 284.477 327.054 289.241 315.816 290.702C298.891 292.903 284.115 287.971 271.263 276.89C267.09 273.292 263.584 269.11 260.707 264.399C260.545 264.131 260.459 263.769 260.002 263.66C259.099 266.152 258.192 268.649 257.06 271.059C253.817 277.969 249.533 284.145 244.326 289.707C238.004 296.461 230.672 301.835 222.406 305.918C214.207 309.969 205.563 312.509 196.455 313.47C192.753 313.861 189.047 314.105 185.334 313.956C175.195 313.55 165.443 311.389 156.147 307.246C146.786 303.075 138.577 297.259 131.551 289.789C124.871 282.686 119.827 274.539 116.406 265.386C116.2 264.836 115.985 264.288 115.688 263.518L115.694 263.521ZM242.409 120.87H242.54C242.54 127.516 242.535 134.163 242.544 140.808C242.545 142.378 242.861 142.797 244.385 142.902C246.733 143.064 249.09 142.994 251.442 142.903C252.238 142.873 252.628 142.406 252.723 141.67C252.773 141.292 252.747 140.902 252.734 140.519C252.5 133.494 252.258 126.467 252.04 119.442C252.023 118.881 251.742 118.04 252.474 117.866C253.064 117.725 253.202 118.572 253.472 119.01C257.706 125.871 261.921 132.744 266.144 139.61C266.459 140.122 266.774 140.647 267.17 141.093C267.978 142.002 268.833 142.805 270.201 142.815C272.504 142.832 274.793 142.653 277.079 142.451C278.11 142.358 278.519 141.913 278.606 140.86C278.693 139.823 278.664 138.775 278.69 137.733C278.997 125.708 279.131 113.68 279.242 101.651C279.246 101.211 279.226 100.772 279.242 100.333C279.259 99.82 279.049 99.4935 278.535 99.3948C278.16 99.3224 277.785 99.2487 277.408 99.1908C275.008 98.8248 272.604 99.1776 270.202 99.1592C268.35 99.1447 268.151 99.3264 268.119 101.23C268.008 107.875 267.928 114.52 267.803 121.165C267.792 121.766 268.192 122.667 267.423 122.921C266.619 123.187 266.441 122.209 266.105 121.712C261.243 114.541 256.451 107.319 251.417 100.265C250.852 99.4725 250.23 99.1184 249.286 98.992C247.516 98.7564 245.793 99.1276 244.05 99.1974C242.481 99.2605 242.419 99.3014 242.415 100.931C242.399 107.577 242.409 114.224 242.409 120.869V120.87ZM106.31 121.054C106.289 121.054 106.269 121.054 106.248 121.054C106.248 117.869 106.259 114.684 106.246 111.499C106.23 107.93 106.208 104.36 106.157 100.791C106.137 99.4541 106.041 99.4146 104.82 99.1921C102.76 98.8169 100.678 98.8814 98.6016 98.8604C97.7136 98.8512 97.05 99.2434 96.6748 100.111C96.2617 101.067 95.8 102 95.337 102.933C93.2436 107.157 90.9128 111.262 88.9899 115.574C88.7105 116.201 88.6227 117.109 87.7478 117.149C86.8546 117.188 86.5319 116.348 86.1463 115.691C86.0072 115.454 85.8761 115.214 85.7371 114.978C82.9393 110.261 80.0918 105.575 77.3793 100.811C76.6959 99.6107 75.8171 99.2566 74.613 99.2961C72.9722 99.3501 71.3339 99.4541 69.6931 99.5093C67.9709 99.5686 67.8476 99.6489 67.7912 101.411C67.3793 114.476 67.4016 127.547 67.3924 140.617C67.3924 142.524 67.7545 142.859 69.7298 142.934C71.3693 142.995 73.0115 142.998 74.6511 143.026C76.2696 143.053 76.5359 142.789 76.5254 141.159C76.4716 133.141 76.4126 125.124 76.3746 117.107C76.3719 116.597 76.0676 115.819 76.692 115.636C77.3439 115.444 77.4488 116.292 77.7216 116.717C79.4713 119.438 81.1988 122.173 82.9118 124.918C83.4535 125.787 84.1146 126.211 85.2032 126.099C86.7221 125.942 88.2606 125.877 89.7861 125.924C90.6478 125.949 91.0728 125.622 91.4335 124.911C92.5956 122.616 93.7958 120.338 94.9907 118.058C95.4996 117.087 96.0347 116.13 96.5528 115.164C96.7142 114.862 96.8939 114.557 97.2887 114.673C97.6625 114.782 97.6953 115.152 97.7268 115.478C97.7478 115.695 97.7255 115.917 97.715 116.135C97.4998 120.634 97.5326 125.139 97.5117 129.641C97.4933 133.429 97.5392 137.219 97.5746 141.008C97.5877 142.375 97.6887 142.447 98.9571 142.824C99.4975 142.985 100.033 143.01 100.578 142.995C101.945 142.957 103.312 142.932 104.672 142.753C106.306 142.539 106.311 142.544 106.31 140.822C106.305 134.232 106.308 127.643 106.308 121.053L106.31 121.054ZM199.035 75.3672H198.985C198.985 76.7402 198.997 78.1131 198.983 79.4848C198.946 83.2391 199.134 83.4984 202.768 84.6028C202.821 84.6186 202.874 84.6278 202.927 84.6436C208.471 86.243 214.114 86.6142 219.823 85.9152C221.887 85.6625 223.904 85.1925 225.772 84.1868C229.673 82.0846 232.725 79.0636 235.149 75.4027C241.096 66.4225 240.87 54.9622 234.547 46.7349C232.255 43.7534 229.587 41.1549 225.864 39.9872C218.806 37.7744 211.721 37.5309 204.538 39.4712C201.68 40.2426 199.948 41.8209 199.437 44.7406C199.351 45.2251 199.164 45.7055 199.156 46.1886C199.102 49.5928 199.063 52.9969 199.067 56.3997C199.067 57.4199 199.321 57.6384 200.353 57.6739C201.993 57.7318 203.635 57.7569 205.276 57.7555C206.462 57.7542 206.725 57.5515 206.843 56.3497C206.967 55.0965 206.981 53.8288 206.997 52.5677C207.036 49.3308 209.228 46.6849 212.397 46.086C212.718 46.0254 213.034 45.9267 213.358 45.8806C215.921 45.5094 218.479 45.3541 220.976 46.261C227.709 48.7042 231.592 55.0346 230.749 62.1772C229.903 69.3461 225.043 75.3935 218.571 77.2549C215.702 78.0802 212.767 78.3909 209.808 77.8617C207.722 77.4879 206.918 76.569 206.611 74.4879C206.378 72.9082 206.374 71.3154 206.399 69.7226C206.428 67.8731 206.42 67.8718 204.669 67.8521C203.356 67.8376 202.043 67.8192 200.73 67.8165C199.058 67.8126 199.048 67.8178 199.039 69.437C199.029 71.4141 199.037 73.39 199.037 75.3672H199.035ZM162.117 62.4813C162.901 62.1048 163.54 61.8126 164.165 61.494C166.669 60.2224 168.687 58.4111 170.098 55.9666C173.113 50.7419 170.877 43.1952 165.484 40.4875C160.219 37.8442 154.614 37.3242 148.853 38.0166C145.739 38.3905 142.77 39.3277 139.879 40.5309C139.192 40.8165 138.692 41.1522 138.626 42.0408C138.444 44.5063 138.405 46.9719 138.397 49.4401C138.392 50.9012 139.04 51.308 140.389 50.6393C141.568 50.0548 142.745 49.4795 144.001 49.0873C147.102 48.1197 150.293 47.6327 153.525 47.4945C156.326 47.3747 159.112 47.638 161.779 48.5634C164.253 49.4203 164.766 51.6423 163.007 53.6037C162.413 54.2659 161.71 54.795 160.897 55.1426C159.893 55.5717 158.882 55.9982 157.843 56.3312C155.335 57.1382 152.759 57.6463 150.132 57.849C149.44 57.903 149.053 58.0083 149.129 58.9047C149.259 60.4317 149.194 61.9745 149.219 63.5107C149.228 64.1175 149.308 64.7178 149.533 65.2865C149.731 65.7906 150.106 66.1092 150.651 66.1026C153.306 66.0697 155.8 66.8582 158.272 67.6717C159.845 68.1891 161.156 69.1987 162.426 70.2663C164.453 71.971 163.908 74.3549 162.33 75.6634C161.126 76.6625 159.746 77.3009 158.269 77.7472C154.809 78.7937 151.264 78.9701 147.702 78.6094C144.207 78.2566 140.746 77.6985 137.759 75.6002C137.543 75.4488 137.26 75.3869 137 75.304C136.269 75.071 135.867 75.3343 135.718 76.1004C135.446 77.5116 135.544 78.9543 135.362 80.3602C135.144 82.0359 135.886 82.9416 137.273 83.5537C137.573 83.6866 137.86 83.8578 138.171 83.9539C142.775 85.3663 147.375 86.7709 152.266 86.7906C157.41 86.8117 162.256 85.7441 166.682 83.039C167.755 82.3834 168.853 81.7292 169.695 80.7775C172.909 77.1443 173.088 72.2527 170.174 68.3589C168.523 66.1526 166.337 64.6309 163.881 63.4567C163.351 63.2027 162.743 63.0881 162.117 62.4813ZM313.887 130.973C313.978 130.973 314.07 130.973 314.162 130.973C314.162 129.326 314.155 127.68 314.165 126.033C314.169 125.315 314.037 124.619 313.956 123.913C313.834 122.864 313.218 122.404 312.339 122.082C311.861 121.907 311.377 121.892 310.885 121.893C307.823 121.899 304.759 121.895 301.696 121.92C299.218 121.94 297.702 123.765 297.428 125.88C297.338 126.583 297.336 127.303 297.348 128.014C297.382 129.95 298.232 130.798 300.173 130.845C301.157 130.869 302.143 130.828 303.127 130.87C304.238 130.919 304.599 131.275 304.647 132.361C304.681 133.127 304.662 133.898 304.625 134.666C304.571 135.78 304.394 136.029 303.324 136.2C296.451 137.302 289.107 132.881 290.243 124.008C291.366 115.237 300.214 107.268 309.908 108.513C310.774 108.624 311.649 108.72 312.518 108.711C313.404 108.702 313.864 108.276 313.9 107.429C313.989 105.289 314.003 103.149 314.066 101.009C314.082 100.453 313.877 100.078 313.392 99.8095C312.82 99.4922 312.282 99.1855 311.585 99.121C308.186 98.8077 304.813 98.9604 301.45 99.5093C296.522 100.315 292.163 102.486 288.971 106.223C282.709 113.555 280.61 122.098 282.928 131.587C283.401 133.523 284.195 135.379 285.524 136.851C288.252 139.872 291.475 142.106 295.587 142.932C300.598 143.939 305.466 143.748 310.22 141.753C312.536 140.781 313.724 139.011 313.862 136.568C313.967 134.709 313.883 132.838 313.883 130.973H313.887ZM113.737 124.435C113.737 124.466 113.737 124.498 113.737 124.53C113.081 124.53 112.422 124.557 111.768 124.524C108.312 124.35 108.59 125.411 109.167 127.882C110.269 132.598 112.3 136.784 116.256 139.784C119.461 142.215 123.056 143.002 126.954 142.006C130.133 141.193 132.673 139.332 134.732 136.791C141.02 129.037 142.286 116.777 137.703 107.889C136.214 105.003 134.169 102.612 131.372 100.92C127.53 98.5984 123.56 98.5484 119.644 100.569C113.452 103.765 110.543 109.339 109.11 115.87C108.848 117.066 109.356 117.582 110.619 117.58C112.753 117.579 114.887 117.49 117.02 117.513C117.913 117.522 118.443 117.242 118.751 116.377C119.177 115.181 119.836 114.1 120.696 113.159C121.701 112.058 122.904 111.388 124.441 111.43C126.158 111.478 127.447 112.354 128.533 113.576C130.164 115.411 130.917 117.609 131.058 120.039C131.255 123.424 130.467 126.484 128.001 128.93C125.611 131.301 122.567 131.113 120.429 128.514C119.762 127.705 119.272 126.788 118.847 125.83C118.405 124.834 117.694 124.307 116.527 124.419C115.604 124.507 114.668 124.437 113.738 124.437L113.737 124.435ZM243.66 238.544C243.651 231.761 240.941 226.572 236.029 222.382C234.231 220.848 232.654 220.303 230.298 221.418C225.408 223.733 220.356 225.703 215.36 227.789C214.747 228.045 214.545 228.264 214.791 228.98C215.63 231.429 216.08 233.954 216.084 236.561C216.088 239.702 215.916 242.831 215.098 245.863C214.637 247.57 214.915 247.371 216.115 247.836C221.98 250.106 227.863 252.333 233.707 254.654C235.049 255.187 235.999 254.894 236.934 253.924C241.138 249.559 243.484 244.398 243.661 238.545L243.66 238.544ZM173.541 122.21C173.541 127.57 173.534 134.051 173.545 140.531C173.549 142.581 174.012 143.022 176.062 143.023C182.738 143.026 189.414 143.026 196.089 143.026C196.363 143.026 196.639 143.047 196.909 143.019C198.019 142.906 198.553 142.316 198.492 141.18C198.412 139.701 198.303 138.221 198.153 136.747C198.016 135.425 197.968 135.417 196.627 135.43C192.304 135.472 187.982 135.52 183.659 135.55C182.233 135.561 181.937 135.289 181.849 133.849C181.728 131.876 181.667 129.9 181.563 127.927C181.486 126.449 181.699 126.192 183.174 126.134C185.251 126.053 187.328 125.983 189.405 125.908C190.664 125.862 191.31 125.325 191.273 124.145C191.218 122.335 191.046 120.529 190.933 118.722C190.899 118.179 190.629 117.884 190.094 117.97C187.747 118.349 185.398 117.783 183.049 118.012C181.736 118.14 181.689 118.087 181.592 116.696C181.45 114.67 181.383 112.639 181.269 110.612C181.205 109.456 181.345 109.243 182.498 109.223C185.999 109.162 189.501 109.137 193.003 109.091C193.987 109.078 194.976 109.091 195.954 109.003C197.086 108.9 197.749 108.372 197.773 107.465C197.835 105.216 197.856 102.962 197.794 100.713C197.764 99.6291 197.199 99.1645 196.099 99.1645C189.422 99.1579 182.746 99.1592 176.07 99.1947C174.354 99.2039 173.861 99.7476 173.833 101.487C173.731 108.021 173.646 114.555 173.537 122.211L173.541 122.21ZM141.757 133.644C141.827 133.644 141.896 133.644 141.966 133.644C141.966 135.84 141.916 138.037 141.983 140.23C142.029 141.723 142.645 142.252 144.118 142.354C144.554 142.385 144.986 142.448 145.421 142.491C149.223 142.869 153.029 142.74 156.546 141.204C167.692 136.335 173.589 122.664 169.605 111.139C168.027 106.577 165.39 102.829 160.863 100.755C156.954 98.9644 152.818 98.3562 148.552 98.6208C146.787 98.7301 145.107 99.1868 143.601 100.178C142.434 100.945 141.69 101.942 141.667 103.403C141.605 107.294 141.163 111.179 141.659 115.078C141.886 116.863 142.093 117.125 143.908 116.947C144.996 116.841 146.083 116.723 147.172 116.633C148.498 116.521 148.885 116.143 148.908 114.796C148.938 113.04 148.969 111.283 148.937 109.527C148.917 108.441 149.44 107.798 150.351 107.336C150.964 107.026 151.604 106.96 152.262 106.977C155.911 107.073 158.592 108.882 160.532 111.85C164.479 117.888 163.353 126.881 158.09 131.82C156.49 133.322 154.617 134.339 152.458 134.658C150.228 134.988 148.945 134.257 149.11 131.942C149.251 129.978 149.096 127.995 148.925 126.022C148.853 125.182 148.498 124.832 147.72 124.822C146.681 124.809 145.641 124.789 144.602 124.813C142.462 124.86 141.757 125.587 141.753 127.715C141.749 129.691 141.753 131.667 141.753 133.643L141.757 133.644ZM232.781 263.869C232.742 263.157 232.657 262.444 232.671 261.732C232.716 259.356 231.531 258.066 229.32 257.303C224.408 255.612 219.553 253.749 214.674 251.962C213.396 251.494 213.393 251.501 212.665 252.691C209.847 257.293 206.022 260.813 201.262 263.306C199.871 264.035 199.847 263.992 200.482 265.471C200.525 265.571 200.574 265.672 200.625 265.768C203.511 271.127 206.436 276.467 209.262 281.858C210.106 283.465 211.426 283.811 212.956 283.631C215.014 283.387 217.061 283.059 219.063 282.437C226.258 280.195 233.032 273.692 232.783 263.869H232.781ZM134.404 238.34C134.364 239.723 134.509 241.087 134.771 242.436C135.593 246.654 137.466 250.306 140.637 253.231C142.65 255.088 143.365 255.17 145.758 254.003C145.905 253.931 146.052 253.857 146.2 253.785C150.718 251.569 155.23 249.339 159.765 247.154C160.518 246.791 160.857 246.391 160.65 245.523C160.435 244.619 160.304 243.688 160.204 242.762C159.721 238.252 159.763 233.773 161.176 229.402C161.618 228.035 161.635 228.034 160.283 227.548C160.077 227.475 159.864 227.421 159.656 227.357C154.479 225.775 149.303 224.192 144.126 222.613C141.682 221.868 140.943 222.097 139.339 224.157C136.095 228.322 134.461 233.056 134.405 238.339L134.404 238.34ZM233.657 212.73C233.626 212.318 233.609 211.934 233.566 211.552C232.533 202.371 225.31 195.13 216.161 194.077C214.081 193.837 212.028 193.74 210.001 194.459C209.069 194.789 208.356 195.278 207.949 196.2C205.628 201.468 203.307 206.738 200.954 211.991C200.709 212.539 200.87 212.801 201.299 213.052C201.582 213.218 201.858 213.399 202.145 213.557C206.371 215.894 209.64 219.218 212.049 223.387C212.477 224.127 212.825 224.235 213.589 223.91C219.479 221.407 225.395 218.971 231.282 216.461C232.873 215.781 233.748 214.515 233.657 212.727V212.73ZM163.823 282.792C164.98 282.8 166.118 282.671 167.261 282.514C168.641 282.325 169.594 281.634 170.089 280.329C172.033 275.198 173.961 270.06 175.923 264.936C176.222 264.155 176.078 263.784 175.274 263.453C170.153 261.345 166.479 257.61 163.738 252.883C163.369 252.247 163.078 252.029 162.334 252.312C156.916 254.382 151.475 256.395 146.054 258.46C144.563 259.028 144.131 259.689 144.312 261.233C144.92 266.434 146.352 271.357 149.556 275.597C153.129 280.324 157.915 282.697 163.823 282.792ZM189.059 293.326C194.721 293.231 199.336 291.023 203.209 287.127C205.192 285.131 205.384 284.098 204.244 281.546C202.523 277.691 200.845 273.817 199.027 270.009C198.459 268.82 198.466 267.468 197.652 266.348C196.872 265.278 196.989 265.203 195.704 265.525C191.026 266.701 186.322 267.02 181.59 265.88C181.008 265.739 180.716 265.758 180.47 266.369C178.23 271.968 175.967 277.556 173.701 283.142C173.142 284.519 173.369 285.757 174.404 286.774C178.507 290.806 183.345 293.19 189.058 293.324L189.059 293.326ZM187.404 183.884C183.69 183.917 180.196 184.657 177.019 186.599C175.215 187.702 173.721 189.128 172.641 190.968C172.173 191.767 172.039 192.553 172.395 193.472C174.058 197.768 175.672 202.083 177.305 206.392C177.771 207.621 178.264 208.832 178.845 210.02C179.24 210.826 179.584 210.829 180.342 210.659C183.498 209.956 186.673 209.415 189.936 209.885C191.562 210.12 193.206 210.264 194.78 210.729C195.6 210.97 195.949 210.662 196.057 209.975C196.203 209.028 196.632 208.211 197.044 207.376C199.224 202.947 201.374 198.501 203.596 194.093C204.169 192.954 204.077 192.012 203.32 191.049C202.434 189.921 201.433 188.914 200.279 188.064C196.437 185.235 192.074 184.025 187.402 183.884H187.404ZM143.536 211.506C143.549 212.385 143.629 213.255 143.771 214.127C144.12 216.285 145.216 217.597 147.408 218.263C151.646 219.55 155.809 221.086 160.003 222.517C160.987 222.853 161.985 223.152 162.953 223.528C163.517 223.748 163.882 223.664 164.171 223.125C164.376 222.74 164.631 222.378 164.868 222.009C167.135 218.488 169.985 215.593 173.749 213.679C174.79 213.15 174.965 212.381 174.274 211.371C174.151 211.191 174.039 211 173.934 210.809C171.461 206.285 168.831 201.838 166.575 197.207C165.243 194.475 163.293 193.604 160.527 193.837C160.145 193.869 159.761 193.886 159.384 193.945C153.019 194.943 148.496 198.522 145.439 204.084C144.179 206.378 143.532 208.866 143.536 211.506ZM202.467 121.069C202.467 127.655 202.46 134.24 202.47 140.826C202.474 142.727 202.661 142.931 204.532 142.895C210.984 142.772 217.435 142.616 223.888 142.685C225.04 142.697 225.123 142.628 225.146 141.497C225.184 139.689 225.13 137.877 225.144 136.067C225.155 134.459 225.025 134.329 223.382 134.35C219.883 134.392 216.383 134.4 212.884 134.472C212.175 134.486 211.9 134.329 211.943 133.583C212.031 132.05 212.068 130.512 212.102 128.976C212.306 119.704 212.512 110.431 212.699 101.159C212.735 99.325 212.352 98.9459 210.52 98.9012C208.553 98.8538 206.584 98.8775 204.62 99.0355C202.724 99.1882 202.497 99.4172 202.426 101.314C202.179 107.899 202.486 114.484 202.467 121.07V121.069ZM228.32 121.054C228.349 121.054 228.379 121.054 228.408 121.054C228.408 127.752 228.408 134.45 228.408 141.149C228.408 142.466 228.562 142.677 229.875 142.827C232.053 143.076 234.246 142.976 236.434 142.974C237.487 142.974 237.883 142.507 237.948 141.454C237.971 141.071 237.954 140.685 237.95 140.301C237.815 127.564 237.68 114.828 237.539 102.091C237.532 101.488 237.495 100.882 237.418 100.285C237.253 98.996 237.076 98.7959 235.763 98.7695C234.287 98.7406 232.81 98.8301 231.334 98.8459C228.484 98.8749 228.331 99.0065 228.326 101.947C228.314 108.316 228.322 114.684 228.322 121.053L228.32 121.054ZM344.529 244.824C349.271 244.855 352.979 241.535 353.363 237.147C353.725 233.019 350.728 229.213 346.44 228.492C344.42 228.152 342.392 228.284 340.481 229.129C336.678 230.812 332.884 232.518 329.088 234.217C328.839 234.329 328.586 234.442 328.36 234.593C327.23 235.345 327.066 236.48 327.918 237.553C328.342 238.086 328.935 238.373 329.524 238.666C333.58 240.697 337.526 242.966 341.897 244.31C342.848 244.602 343.8 244.791 344.529 244.823V244.824ZM316.577 199.92C316.552 197.839 316.025 195.969 314.806 194.325C311.823 190.295 306.322 190.019 303.02 193.785C300.93 196.167 300.256 198.99 300.956 202.074C301.295 203.563 301.703 205.046 302.311 206.464C303.673 209.636 305.004 212.822 306.35 216.002C306.499 216.355 306.64 216.717 306.833 217.046C307.731 218.58 309.26 218.592 310.188 217.057C310.468 216.592 310.657 216.068 310.862 215.561C312.522 211.445 314.142 207.31 315.855 203.217C316.313 202.121 316.519 201.026 316.575 199.922L316.577 199.92ZM343.267 211.166C343.295 207.074 340.765 203.885 337.201 203.013C333.423 202.087 329.137 203.952 327.556 207.247C325.399 211.745 323.267 216.256 321.131 220.764C320.699 221.675 320.277 222.628 321.131 223.51C321.935 224.34 322.861 223.926 323.732 223.598C328.847 221.664 333.959 219.721 339.067 217.773C339.629 217.56 340.248 217.375 340.62 216.887C342.029 215.041 343.287 213.118 343.267 211.166ZM76.5634 199.374C76.4519 197.623 75.9745 195.844 74.8727 194.265C72.7453 191.218 68.973 190.362 65.7214 192.143C62.744 193.774 61.3445 196.325 61.2369 199.66C61.1976 200.876 61.4455 202.056 61.738 203.231C62.8725 207.776 64.958 211.968 66.5727 216.334C66.6855 216.64 66.8507 216.933 67.0317 217.206C67.9315 218.569 69.3927 218.681 70.4551 217.469C71.0021 216.845 71.3851 216.129 71.6723 215.343C73.2686 210.967 74.815 206.576 76.1463 202.111C76.3982 201.266 76.5687 200.407 76.5634 199.373V199.374ZM102.892 209.696C102.879 206.385 100.864 203.619 97.8579 202.78C94.6287 201.878 90.253 203.593 88.5531 206.511C85.7974 211.24 83.0941 216 80.3698 220.748C80.261 220.937 80.1534 221.13 80.059 221.327C79.6812 222.12 79.5684 222.915 80.1993 223.629C80.8381 224.353 81.6526 224.276 82.4711 224.02C82.8357 223.907 83.1846 223.747 83.5401 223.606C88.06 221.818 92.5235 219.859 97.1221 218.305C99.9998 217.332 102.956 213.421 102.892 209.697V209.696ZM281.417 270.921C285.347 270.699 288.422 269.028 290.131 265.187C291.717 261.624 292.949 257.954 293.704 254.118C294.285 251.169 293.4 250.314 290.507 251.23C287.229 252.268 283.959 253.339 280.697 254.427C278.605 255.125 276.619 256.013 275.218 257.847C273.195 260.494 272.54 263.382 273.996 266.471C275.429 269.513 278.081 270.73 281.416 270.923L281.417 270.921ZM113.777 236.517C113.773 231.242 108.148 227.148 103.053 228.737C97.8881 230.347 92.9734 232.654 87.8147 234.287C86.9661 234.555 86.5122 235.252 86.5673 236.014C86.625 236.806 87.0592 237.338 87.8029 237.591C91.8441 238.962 95.7108 240.763 99.6326 242.426C101.371 243.163 103.143 243.596 104.985 243.824C109.748 244.412 113.781 241.052 113.777 236.515V236.517ZM32.3559 243.959C33.2189 243.933 34.1948 244.015 35.1392 243.592C38.7278 241.986 42.3283 240.407 45.9353 238.839C46.8351 238.448 47.4489 237.766 47.9644 236.988C48.4576 236.243 48.375 235.524 47.7296 234.904C47.3821 234.571 46.9453 234.312 46.5124 234.089C42.7677 232.174 39.0151 230.276 35.2638 228.374C33.3619 227.409 31.3853 227.31 29.3798 227.955C25.4868 229.206 23.1036 233.198 23.8276 237.266C24.5897 241.545 28.2819 244.294 32.3572 243.959H32.3559ZM275.065 209.39C275.05 213.474 277.366 217.009 281.14 218.475C284.705 219.859 288.306 221.152 291.896 222.472C292.561 222.717 293.237 222.962 293.93 223.098C295.054 223.319 295.875 222.588 295.827 221.443C295.811 221.069 295.706 220.679 295.56 220.333C293.898 216.396 292.293 212.432 290.522 208.545C289.461 206.217 287.836 204.284 285.508 203.067C280.389 200.388 275.087 203.6 275.066 209.39H275.065ZM35.1825 210.121C35.2481 212.555 36.5925 214.956 39.0453 216.73C39.9726 217.4 40.9773 217.97 42.0489 218.401C45.3438 219.724 48.6373 221.049 51.9348 222.366C52.5434 222.608 53.1585 222.844 53.8314 222.84C55.0001 222.833 55.6992 222.154 55.6244 220.997C55.5903 220.458 55.4381 219.915 55.2598 219.403C54.0163 215.834 52.8804 212.221 51.4547 208.726C50.2349 205.733 48.1323 203.451 44.8952 202.507C39.8886 201.047 35.2008 204.424 35.1825 210.124V210.121ZM59.8098 273.246C59.8164 274.183 59.8807 274.886 60.0722 275.581C61.1753 279.593 65.0722 282.148 69.251 281.536C73.2306 280.953 76.5936 277.76 76.7261 273.063C76.7458 272.384 76.5083 271.783 76.204 271.188C74.2602 267.387 72.3295 263.579 70.3922 259.774C70.1193 259.238 69.8859 258.674 69.4439 258.247C68.7277 257.555 67.8214 257.51 67.0973 258.181C66.7852 258.472 66.5255 258.85 66.33 259.233C64.335 263.131 62.3662 267.043 60.3686 270.938C59.9554 271.745 59.7705 272.575 59.8098 273.246ZM42.5027 270.876C45.9091 270.709 48.1822 269.348 49.2525 266.164C49.6013 265.127 50.0001 264.105 50.3792 263.078C51.4613 260.151 52.5893 257.24 53.6137 254.293C54.2852 252.358 53.2962 251.319 51.2881 251.733C48.0798 252.393 44.8755 253.07 41.6672 253.726C40.2021 254.026 38.88 254.605 37.6497 255.475C34.4742 257.721 33.1507 261.267 34.2328 264.819C35.3307 268.425 38.72 270.907 42.5041 270.876H42.5027ZM271.894 228.426C267.528 228.438 264.099 231.243 263.575 235.007C263.051 238.756 265.659 242.369 269.596 243.472C271.682 244.057 273.607 243.57 275.496 242.787C278.978 241.342 282.44 239.847 285.905 238.361C286.506 238.103 287.096 237.811 287.667 237.488C289.041 236.713 289.09 235.392 287.786 234.505C287.562 234.353 287.31 234.235 287.06 234.127C283.245 232.485 279.434 230.838 275.613 229.211C274.341 228.668 272.988 228.483 271.894 228.428V228.426ZM342.357 263.18C342.298 262.704 342.265 262.154 342.159 261.618C341.448 258.005 339.243 255.687 335.87 254.427C332.231 253.069 328.58 251.743 324.931 250.408C324.624 250.296 324.309 250.181 323.989 250.133C322.44 249.905 321.432 251.022 321.827 252.528C321.91 252.844 322.053 253.146 322.194 253.441C324.193 257.593 326.207 261.738 328.197 265.894C328.831 267.22 329.768 268.277 330.948 269.105C333.32 270.767 335.877 271.254 338.53 269.894C341.187 268.532 342.215 266.131 342.357 263.178V263.18ZM103.001 262.927C103.001 260.629 102.025 258.407 100.227 256.822C99.1565 255.879 97.9734 255.056 96.6525 254.519C93.0547 253.057 89.4306 251.659 85.8144 250.241C85.5101 250.121 85.194 250.011 84.8727 249.958C83.5886 249.745 82.5931 250.627 82.6665 251.931C82.6875 252.308 82.7872 252.699 82.9341 253.046C84.7376 257.285 86.3614 261.604 88.38 265.748C89.8097 268.681 92.9353 270.424 96.1698 270.2C100.098 269.929 102.998 266.839 103 262.927H103.001ZM315.408 273.396C315.358 272.488 315.384 271.719 315.188 270.965C313.991 266.382 311.246 262.56 309.089 258.45C309.039 258.355 308.956 258.276 308.879 258.199C308.111 257.423 307.189 257.401 306.43 258.174C305.966 258.646 305.647 259.225 305.378 259.831C304.866 260.983 304.363 262.138 303.841 263.285C302.639 265.928 301.439 268.571 300.705 271.396C299.832 274.753 301.284 278.571 304.165 280.479C306.978 282.345 310.474 282.025 312.892 279.653C314.677 277.902 315.391 275.713 315.408 273.396ZM25.2652 121.225C25.3098 121.141 25.3832 121.065 25.3898 120.983C25.4173 120.6 25.4173 120.216 25.4435 119.833C25.6639 116.606 26.5112 113.587 28.4747 110.968C30.6717 108.039 33.4891 105.777 36.5715 103.893C38.1822 102.908 39.3942 101.695 40.2244 100.039C41.7381 97.0161 41.9256 93.8371 41.1859 90.6054C40.2913 86.6998 38.0405 84.1671 33.8538 83.7669C30.8423 83.48 27.9304 83.6287 25.534 85.8099C23.724 87.4567 22.9003 89.4326 23.3121 91.96C23.7935 94.9152 26.3853 97.877 30.2481 98.4931C30.9787 98.6103 31.7224 98.9038 32.508 98.6419C35.5904 97.6164 37.1512 93.6226 35.5524 90.8069C34.6618 89.2377 32.8333 88.9692 31.5335 90.2171C31.1334 90.6002 30.82 91.0438 30.6258 91.569C30.071 93.067 29.7365 94.5664 30.7504 96.1263C28.3488 95.5076 26.485 93.0828 26.4286 90.6897C26.3761 88.4835 27.7061 86.7748 29.8402 86.3075C34.709 85.2426 39.1017 88.9995 38.8039 93.9701C38.7908 94.1886 38.8039 94.4097 38.796 94.6283C38.6964 97.4808 37.6615 99.9174 35.7242 102.028C34.0702 103.828 32.0844 105.175 30.0697 106.483C25.5734 109.403 23.2321 115.611 25.2678 121.224L25.2652 121.225ZM346.377 96.3027C347.45 94.2215 347.043 92.4115 345.902 90.7832C344.597 88.9179 342.226 89.243 341.363 91.3584C340.686 93.0183 340.809 94.698 341.603 96.2895C342.23 97.548 343.149 98.4339 344.725 98.1377C344.936 98.0982 345.3 98.0943 345.228 98.3022C344.979 99.021 345.475 98.8551 345.792 98.8261C347.975 98.6261 349.984 97.9205 351.531 96.3303C353.471 94.336 354.369 92.0061 353.621 89.1403C352.875 86.2838 349.567 83.9881 346.411 83.8735C345.323 83.8341 344.254 84.0394 343.175 84.0631C340.758 84.1184 338.865 85.1096 337.484 87.096C334.565 91.2979 334.868 98.2456 338.14 102.2C338.599 102.755 339.12 103.264 339.748 103.589C341.708 104.602 343.374 106.017 345.054 107.409C347.85 109.722 349.989 112.486 351.007 116.063C351.515 117.846 351.583 119.655 351.62 121.674C353.671 117.232 352.001 111.558 349.572 108.902C348.337 107.55 346.887 106.479 345.355 105.528C343.707 104.504 342.308 103.204 341.009 101.793C338.572 99.1473 337.937 95.8209 338.244 92.4589C338.628 88.2544 343.271 85.6783 347.12 86.4339C348.662 86.7366 349.862 87.6081 350.421 89.1061C351.43 91.8086 349.435 95.4365 346.376 96.3027H346.377ZM42.1053 131.356C42.3453 129.887 41.3472 128.59 39.1568 129.246C38.5298 129.434 37.9527 129.74 37.3991 130.106C35.9708 131.047 34.7182 132.185 33.6715 133.531C33.1704 134.175 32.8359 134.322 32.1342 133.722C30.5917 132.401 28.8617 131.361 26.9139 130.715C25.959 130.398 24.991 130.29 24.006 130.394C22.7468 130.528 22.1723 131.173 22.1107 132.432C22.0608 133.439 22.2864 134.4 22.714 135.297C24.6684 139.39 27.731 142.249 32.0385 143.744C32.9527 144.062 33.6846 143.947 34.4821 143.406C37.2247 141.549 39.2315 139.063 40.7242 136.146C41.4731 134.684 42.0529 133.146 42.1053 131.359V131.356ZM42.1106 62.1167C42.3427 60.5752 41.2764 59.4036 39.1817 60.0118C38.4432 60.2264 37.773 60.5989 37.1447 61.0438C35.7517 62.0285 34.5135 63.1816 33.4734 64.5375C33.0917 65.035 32.7979 65.0798 32.2942 64.6401C30.6744 63.2264 28.8617 62.1219 26.8024 61.4572C25.7937 61.132 24.7694 61.0307 23.7305 61.2255C22.7061 61.4177 22.2366 61.96 22.1303 62.9999C22.0215 64.0662 22.251 65.0811 22.6996 66.0328C24.6356 70.1399 27.7035 72.9912 32.0004 74.5168C32.9973 74.8709 33.7738 74.6827 34.5909 74.1153C37.3047 72.2264 39.3141 69.7411 40.7819 66.8029C41.4928 65.3799 42.0424 63.8924 42.1119 62.1193L42.1106 62.1167ZM345.118 134.684C344.965 134.255 345.031 133.807 344.562 133.46C342.922 132.247 341.215 131.186 339.254 130.601C338.304 130.316 337.316 130.246 336.335 130.462C335.396 130.669 334.948 131.182 334.828 132.143C334.689 133.268 334.941 134.338 335.42 135.333C337.383 139.42 340.455 142.273 344.77 143.755C345.699 144.074 346.434 143.933 347.209 143.377C350.944 140.698 353.528 137.211 354.623 132.707C354.89 131.614 355.202 130.344 354.13 129.494C353.014 128.608 351.839 129.155 350.757 129.724C349.035 130.627 347.68 131.975 346.417 133.426C346.028 133.872 345.753 134.434 345.121 134.684H345.118ZM343.953 65.4997C344.191 64.8007 343.768 64.5348 343.375 64.2255C342.033 63.1737 340.584 62.3049 339.004 61.6704C337.93 61.2386 336.802 61.032 335.637 61.1557C334.277 61.3005 333.678 61.9153 333.661 63.2843C333.648 64.2729 333.821 65.2575 334.262 66.1474C336.238 70.1452 339.247 72.9912 343.488 74.4918C344.466 74.838 345.253 74.7406 346.085 74.1443C349.478 71.713 351.87 68.5484 353.212 64.5796C353.516 63.6805 353.612 62.7656 353.582 61.8284C353.533 60.3027 352.766 59.6709 351.25 59.9052C350.021 60.096 349.029 60.7727 348.061 61.4914C346.561 62.605 345.401 64.0596 343.953 65.4984V65.4997ZM25.862 50.6024C25.6796 49.5427 25.7255 48.4804 25.7846 47.4287C25.9131 45.1276 26.06 42.774 27.4687 40.8481C29.1778 38.5129 30.8567 36.1369 33.2439 34.3795C35.0946 33.0171 36.7997 31.4664 38.3763 29.7854C39.2748 28.8271 40.2218 27.8543 40.6074 26.5827C41.721 22.9048 41.5544 19.3006 39.4729 15.978C37.6103 13.0031 34.6591 11.7012 31.3564 11.9816C28.7659 12.2014 26.3289 13.4177 24.6002 15.6147C22.049 18.8543 22.7966 23.7973 26.1571 25.8705C28.497 27.3133 31.1426 27.0803 33.6623 25.3137C35.2153 24.2251 35.8449 22.8008 35.6442 20.9407C35.5065 19.6652 34.7208 18.6884 33.5036 18.3567C30.9629 17.6643 28.8905 19.8626 29.5004 22.5454C29.6041 23.0022 30.2022 23.3155 29.852 23.9618C28.16 23.4524 27.1618 22.2071 26.4286 20.7143C24.8966 17.5959 26.4758 15.0092 29.1502 14.143C32.1775 13.1637 35.0185 13.7073 37.4437 15.7569C38.7659 16.8732 39.5935 18.358 39.5397 20.2207C39.4335 23.9815 38.2334 27.3041 35.635 30.0474C33.6636 32.1285 31.3381 33.7779 28.8918 35.2391C27.7087 35.946 26.8745 36.8569 26.3722 38.1417C25.4908 40.3966 24.7641 42.6884 24.7261 45.129C24.6972 47.0245 24.9858 48.8793 25.862 50.6024ZM347.013 22.8258C347.171 22.5362 347.362 22.2137 347.525 21.8754C348.296 20.2786 348.078 19.0254 346.899 18.2159C345.681 17.38 343.941 17.5945 342.854 18.7082C342.379 19.1939 342.099 19.7442 342.055 20.4458C341.979 21.6819 342.437 22.8521 343.021 23.7828C344.223 25.7034 347.589 26.7117 349.785 26.1549C354.462 24.9675 356.346 18.8622 352.858 14.7591C350.969 12.5371 348.375 12.0368 345.825 11.5419C344.294 11.2444 342.707 11.8354 341.276 12.616C336.095 15.4462 334.637 24.6292 339.078 28.9903C339.976 29.8723 340.841 30.7845 341.797 31.6138C344.435 33.9004 347.19 36.0329 349.275 38.9447C350.734 40.9837 351.746 43.0531 351.827 45.5462C351.876 47.0127 351.836 48.4804 351.836 49.9482C352.808 48.3264 353.052 46.5677 353.051 44.8499C353.049 42.6674 352.476 40.5348 351.721 38.4682C351.099 36.7661 350.138 35.4695 348.497 34.5177C346.184 33.175 344.058 31.523 342.145 29.613C339.654 27.1263 338.732 23.9249 338.057 20.638C337.793 19.3506 338.021 18.0303 338.801 16.8521C340.824 13.7981 345.472 12.333 348.842 13.731C351.67 14.9052 352.628 17.4063 351.337 20.1773C350.887 21.1435 350.245 21.9425 349.462 22.6441C348.713 23.3142 347.941 23.7183 347.012 22.8258H347.013ZM185.464 66.5778C185.464 66.6476 185.464 66.7174 185.464 66.7871C187.322 66.7871 189.182 66.8042 191.041 66.7805C192.116 66.7674 192.478 66.4712 192.41 65.4234C192.288 63.5568 192.326 61.6941 192.317 59.8275C192.312 58.7547 192.128 58.5796 191.081 58.5164C187.366 58.2926 183.647 58.211 179.933 58.523C178.394 58.652 177.775 59.2615 177.7 60.8016C177.641 62.0035 177.732 63.2132 177.778 64.419C177.847 66.2619 178.052 66.5094 179.888 66.5647C181.745 66.6213 183.606 66.5765 185.466 66.5765L185.464 66.5778ZM46.557 11.9881C47.3243 17.143 51.5649 20.6064 56.031 19.9034C59.3941 19.3743 62.9368 15.9873 62.2246 12.154C57.0725 12.1803 51.902 12.1566 46.5557 11.9881H46.557ZM150.345 12.1369C150.717 14.9526 152.094 17.0996 154.371 18.6318C158.992 21.7424 165.116 19.1439 166.163 13.6626C166.424 12.2962 166.327 12.1672 164.929 12.1566C161.055 12.1264 157.181 12.2185 153.309 12.0355C152.341 11.9895 151.355 11.9131 150.343 12.1356L150.345 12.1369ZM170.381 11.9947C171.181 17.2312 175.529 20.6854 180.024 19.8745C183.159 19.3085 186.766 16.061 186.05 12.1474C180.899 12.1882 175.727 12.1527 170.381 11.9947ZM252.814 12.0224C253.189 14.9447 254.564 17.0864 256.834 18.62C261.456 21.7437 267.567 19.1676 268.636 13.681C268.904 12.3041 268.804 12.1685 267.427 12.158C263.554 12.1277 259.679 12.229 255.807 12.0303C254.836 11.9802 253.861 12.0224 252.814 12.0224ZM108.611 12.0224C108.971 14.6485 110.107 16.5809 111.944 18.1027C114.173 19.9508 116.702 20.4984 119.433 19.5257C122.219 18.5344 123.898 16.4927 124.47 13.573C124.715 12.3251 124.573 12.1619 123.289 12.1566C119.252 12.1395 115.215 12.204 111.179 12.025C110.368 11.9895 109.555 12.0197 108.611 12.0197V12.0224ZM87.3359 12.0224C87.6573 14.8552 89.0437 17.1325 91.2827 18.6266C95.9259 21.724 102.02 19.1742 103.093 13.6863C103.362 12.312 103.255 12.1672 101.89 12.158C97.9615 12.1329 94.0332 12.2211 90.1061 12.0289C89.1893 11.9842 88.2685 12.0224 87.3346 12.0224H87.3359ZM67.4292 12.0237C68.1112 16.9179 71.9478 20.222 76.3588 19.939C79.6917 19.7257 82.7859 16.8916 83.2069 13.6652C83.3918 12.2435 83.3328 12.1685 81.9438 12.1553C78.1728 12.1185 74.4005 12.2409 70.6296 12.0316C69.6026 11.975 68.5703 12.0224 67.4279 12.0224L67.4292 12.0237ZM129.609 12.1356C129.779 16.6415 134.294 20.4616 138.782 19.9258C142.67 19.4611 145.76 15.7266 145.112 12.1356H129.609ZM190.895 12.129C191.304 14.9526 192.667 17.0943 194.94 18.6397C198.696 21.1922 203.774 19.9377 205.941 15.9359C206.563 14.7867 206.944 13.5665 206.63 12.129H190.895ZM211.9 12.0224C212.325 14.9539 213.688 17.0943 215.961 18.6397C219.716 21.1935 224.795 19.939 226.961 15.9372C227.584 14.7881 227.965 13.5665 227.651 12.1316C222.376 12.2396 217.202 12.0882 211.9 12.0237V12.0224ZM315.106 11.9789C315.622 16.8613 319.789 20.3918 324.262 19.935C328.124 19.5401 331.142 16.0123 330.782 12.1672C325.62 12.1448 320.445 12.2001 315.106 11.9789ZM273.468 12.1356C273.662 16.6612 278.164 20.4655 282.651 19.9271C286.54 19.4598 289.633 15.7148 288.972 12.1356H273.468ZM294.734 11.8262C295.305 16.806 299.343 20.1575 304.052 19.735C307.192 19.4533 310.298 16.344 310.53 13.2492C310.615 12.1119 310.564 12.0329 309.423 12.0263C305.542 12.0039 301.659 12.0895 297.781 11.8354C296.805 11.7709 295.82 11.8262 294.734 11.8262ZM232.682 12.1566C233.055 17.0509 237.549 20.713 242.224 20.0469C245.276 19.6125 248.169 16.6362 248.442 13.6547C248.552 12.441 248.497 12.3659 247.256 12.3554C243.485 12.3238 239.712 12.4357 235.942 12.1685C234.863 12.0921 233.773 12.1566 232.682 12.1566ZM86.0296 198.817C86.0059 198.083 85.7948 197.402 85.0511 197.081C84.3205 196.765 83.6594 197.001 83.0954 197.529C82.6442 197.952 82.4186 198.513 82.176 199.067C79.9278 204.184 77.6626 209.294 75.4236 214.415C74.9186 215.568 74.4464 216.741 74.0477 217.935C73.6923 218.998 74.0346 219.83 74.8308 220.182C75.6269 220.533 76.4533 220.221 77.0186 219.264C77.5472 218.369 78.06 217.457 78.4797 216.508C80.8538 211.148 83.1951 205.773 85.556 200.406C85.779 199.901 85.9692 199.393 86.0309 198.817H86.0296ZM85.8407 231.11C86.065 231.039 86.4912 230.939 86.8887 230.771C93.3315 228.052 99.7716 225.329 106.207 222.595C106.604 222.426 107.001 222.213 107.329 221.935C107.938 221.421 108.107 220.729 107.757 220.007C107.438 219.349 106.828 219.071 106.12 219.172C105.641 219.241 105.164 219.401 104.715 219.591C98.4246 222.247 92.1379 224.913 85.8538 227.586C85.4052 227.777 84.9461 227.991 84.5671 228.289C83.9585 228.771 83.7053 229.423 84.0411 230.188C84.3415 230.873 84.9147 231.129 85.8394 231.11H85.8407ZM106.617 253.747C107.626 253.747 108.27 253.345 108.526 252.688C108.806 251.966 108.579 251.167 107.854 250.673C107.408 250.37 106.89 250.162 106.384 249.966C100.931 247.865 95.476 245.769 90.0156 243.69C89.2011 243.379 88.3656 243.098 87.5156 242.917C86.5476 242.71 85.7816 243.158 85.5259 243.937C85.2885 244.66 85.5665 245.405 86.364 245.883C86.97 246.246 87.6245 246.542 88.2856 246.797C93.9899 249.005 99.6995 251.198 105.41 253.387C105.865 253.561 106.347 253.668 106.618 253.747H106.617ZM314.096 217.905C314.096 218.651 314.344 219.231 315.038 219.52C315.725 219.805 316.333 219.609 316.834 219.097C317.382 218.539 317.685 217.823 317.989 217.12C320.492 211.332 322.988 205.541 325.481 199.751C325.611 199.449 325.742 199.138 325.804 198.82C325.964 197.983 325.578 197.223 324.858 196.919C324.096 196.597 323.461 196.84 322.953 197.434C322.743 197.679 322.583 197.979 322.452 198.276C319.841 204.196 317.236 210.12 314.635 216.045C314.371 216.647 314.137 217.264 314.096 217.906V217.905ZM326.725 230.6C327.048 230.497 327.528 230.382 327.977 230.194C333.934 227.704 339.886 225.204 345.837 222.701C346.34 222.489 346.843 222.26 347.227 221.85C347.719 221.324 347.905 220.718 347.614 220.036C347.32 219.347 346.744 219.096 346.028 219.092C345.407 219.089 344.852 219.334 344.298 219.566C339.151 221.723 334.003 223.878 328.867 226.061C327.812 226.508 326.777 227.019 325.787 227.596C324.992 228.059 324.739 228.854 325.017 229.564C325.29 230.261 325.853 230.54 326.724 230.6H326.725ZM62.8148 217.686C62.6312 216.812 62.2889 215.83 61.877 214.878C59.6157 209.656 57.3413 204.442 55.0683 199.225C54.8492 198.724 54.6367 198.216 54.2459 197.816C53.7422 197.301 53.1428 197.106 52.4568 197.373C51.8285 197.617 51.5504 198.141 51.5006 198.784C51.439 199.568 51.6436 200.306 51.9544 201.014C54.3941 206.575 56.835 212.136 59.2891 217.69C59.4859 218.135 59.7364 218.576 60.0486 218.946C60.5116 219.495 61.1477 219.675 61.8272 219.401C62.5053 219.129 62.8056 218.567 62.8148 217.686ZM346.494 253.685C347.468 253.702 348.276 253.217 348.494 252.553C348.764 251.73 348.32 251.185 347.723 250.731C347.152 250.298 346.5 250.009 345.832 249.763C340.755 247.891 335.682 246.012 330.599 244.156C329.73 243.838 328.835 243.557 327.929 243.387C327.063 243.225 326.343 243.715 326.127 244.461C325.896 245.257 326.221 245.862 326.867 246.296C327.18 246.507 327.541 246.659 327.896 246.794C333.673 248.976 339.45 251.155 345.231 253.324C345.689 253.495 346.173 253.595 346.493 253.686L346.494 253.685ZM302.319 217.635C302.229 216.886 301.949 216.113 301.632 215.353C299.378 209.941 297.119 204.529 294.862 199.117C294.672 198.661 294.487 198.201 294.142 197.835C293.644 197.307 293.039 197.12 292.355 197.386C291.656 197.658 291.355 198.235 291.408 198.954C291.439 199.382 291.561 199.819 291.724 200.219C294.005 205.859 296.292 211.494 298.601 217.123C298.847 217.726 299.178 218.309 299.558 218.837C299.975 219.417 300.601 219.653 301.301 219.404C302.078 219.129 302.352 218.502 302.319 217.635ZM288.55 230.479C289.207 230.482 289.741 230.228 290.024 229.626C290.333 228.965 290.197 228.337 289.701 227.804C289.359 227.436 288.916 227.219 288.466 227.013C282.902 224.456 277.34 221.894 271.774 219.342C271.378 219.16 270.966 218.988 270.543 218.897C269.667 218.708 268.918 219.062 268.623 219.769C268.3 220.543 268.579 221.18 269.184 221.66C269.565 221.962 270.009 222.199 270.453 222.404C275.962 224.951 281.475 227.488 286.987 230.026C287.484 230.255 287.984 230.481 288.55 230.479ZM48.935 230.55C49.6027 230.547 50.185 230.31 50.492 229.623C50.8002 228.934 50.6231 228.304 50.0945 227.829C49.7364 227.506 49.2905 227.259 48.8472 227.06C43.2609 224.546 37.6693 222.042 32.0739 219.546C31.6778 219.37 31.2567 219.21 30.8318 219.147C30.0618 219.03 29.4021 219.28 29.0715 220.037C28.7463 220.783 28.9653 221.459 29.5818 221.947C29.9621 222.249 30.4133 222.474 30.8593 222.674C36.3485 225.139 41.8417 227.593 47.3335 230.051C47.8346 230.274 48.3382 230.486 48.9324 230.551L48.935 230.55ZM301.253 257.238C301.147 256.469 300.901 255.888 300.183 255.637C299.465 255.385 298.846 255.615 298.445 256.195C298.045 256.774 297.723 257.426 297.471 258.085C295.51 263.202 293.572 268.328 291.637 273.455C291.484 273.862 291.347 274.294 291.312 274.723C291.248 275.5 291.528 276.145 292.317 276.416C293.021 276.658 293.628 276.413 294.053 275.835C294.342 275.444 294.559 274.991 294.76 274.544C297 269.539 298.767 264.345 300.754 259.24C301.009 258.584 301.101 257.865 301.253 257.238ZM326.022 274.608C326.002 273.987 325.752 273.433 325.501 272.885C323.114 267.642 320.723 262.402 318.324 257.165C318.143 256.769 317.928 256.375 317.659 256.037C317.166 255.417 316.505 255.209 315.753 255.508C315.055 255.786 314.693 256.583 314.878 257.438C314.958 257.809 315.113 258.17 315.273 258.517C317.703 263.8 320.14 269.08 322.576 274.36C322.807 274.858 323.046 275.356 323.444 275.747C323.961 276.254 324.567 276.442 325.241 276.12C325.86 275.823 326.042 275.259 326.021 274.61L326.022 274.608ZM86.4099 274.466C86.3168 274.178 86.2237 273.745 86.0453 273.35C83.6161 268.016 81.1778 262.685 78.7276 257.36C78.5479 256.968 78.3119 256.578 78.0154 256.269C77.5222 255.754 76.8953 255.586 76.2198 255.912C75.5535 256.235 75.2518 256.819 75.3436 257.53C75.4053 258.008 75.5863 258.485 75.7883 258.929C78.1466 264.116 80.518 269.296 82.8895 274.477C83.1177 274.974 83.3446 275.477 83.767 275.851C84.3166 276.337 84.9409 276.449 85.5875 276.112C86.1738 275.806 86.4034 275.256 86.4112 274.465L86.4099 274.466ZM51.3668 274.283C51.3471 275.155 51.6042 275.742 52.2732 276.052C53.0195 276.399 53.6819 276.17 54.1803 275.563C54.4531 275.231 54.6472 274.823 54.8269 274.425C57.0384 269.523 58.9953 264.514 61.0349 259.54C61.2448 259.027 61.4166 258.511 61.3471 257.944C61.1897 256.644 60.0997 256.094 58.9481 256.715C58.3264 257.051 58.0208 257.593 57.7663 258.224C55.7595 263.21 53.7317 268.187 51.7183 273.171C51.5557 273.575 51.4534 274.004 51.3668 274.282V274.283ZM270.597 254.23C271.291 254.205 271.793 253.985 272.29 253.758C277.264 251.5 282.238 249.239 287.212 246.978C287.66 246.774 288.109 246.567 288.455 246.2C288.955 245.671 289.104 245.056 288.8 244.387C288.522 243.779 287.999 243.524 287.344 243.505C286.776 243.489 286.276 243.72 285.781 243.945C280.806 246.202 275.832 248.461 270.865 250.735C270.423 250.937 269.982 251.184 269.612 251.497C269.064 251.962 268.892 252.596 269.16 253.282C269.434 253.985 270.019 254.228 270.598 254.23H270.597ZM31.1334 254.04C31.7447 254.007 32.2969 253.768 32.8451 253.515C35.029 252.504 37.1657 251.376 39.4046 250.51C42.1132 249.462 44.7483 248.255 47.4175 247.123C47.8175 246.953 48.2202 246.755 48.5678 246.496C49.297 245.952 49.5069 245.168 49.1724 244.473C48.838 243.776 48.1074 243.443 47.226 243.634C46.8548 243.715 46.4954 243.865 46.1452 244.019C41.2318 246.171 36.321 248.328 31.4089 250.487C30.9078 250.707 30.3963 250.92 30.012 251.331C29.5175 251.859 29.3535 252.474 29.667 253.148C29.9503 253.756 30.4855 253.999 31.1334 254.043V254.04ZM214.831 187.702C214.995 185.792 212.537 182.918 210.205 183.033C207.672 183.158 205.618 185.114 205.584 187.656C205.55 190.265 207.669 192.399 210.256 192.363C212.763 192.328 214.841 190.211 214.831 187.701V187.702ZM239.814 254.929C237.331 254.952 235.344 257.005 235.41 259.475C235.475 261.913 237.436 263.788 239.884 263.754C242.323 263.718 244.105 261.776 244.254 259.341C244.379 257.309 241.588 254.665 239.814 254.929ZM167.252 285.663C164.954 285.674 162.966 287.684 162.989 289.972C163.012 292.414 164.955 294.342 167.372 294.326C169.723 294.31 171.61 292.395 171.61 290.026C171.61 287.582 169.681 285.651 167.25 285.663H167.252ZM141.108 260.049C141.143 257.539 139.281 255.821 136.529 255.828C134.492 255.833 132.713 257.744 132.694 259.949C132.674 262.256 134.482 264.156 136.766 264.234C139.097 264.313 141.074 262.407 141.107 260.049H141.108ZM239.909 212.643C237.68 212.608 235.746 214.533 235.719 216.813C235.692 219.102 237.55 221.013 239.834 221.043C242.093 221.073 244.013 219.196 244.061 216.911C244.105 214.815 242.024 212.676 239.91 212.642L239.909 212.643ZM15.7531 28.7534C13.4145 28.7494 11.3106 30.2251 10.3544 32.5945C9.46251 34.8073 9.73402 36.8872 11.346 38.6946C12.1343 39.5792 13.1522 40.0807 14.3523 40.1781C15.0619 40.236 15.4724 40.0623 15.4921 39.2198C15.5367 37.3071 15.6902 35.3971 15.744 33.4844C15.7886 31.9087 15.7531 30.3291 15.7531 28.7534ZM15.7426 97.9231C12.6498 97.9113 9.50317 101.1 9.90191 104.855C10.1459 107.15 12.0832 109.206 14.1805 109.399C15.2429 109.497 15.4239 109.348 15.4777 108.291C15.5695 106.489 15.6862 104.688 15.7335 102.885C15.7767 101.254 15.7426 99.6199 15.7426 97.9231ZM15.7348 75.537C12.095 75.4133 8.78701 79.8757 10.2062 83.6063C10.9066 85.4479 12.154 86.6155 14.0887 86.9604C15.2114 87.1605 15.4252 86.9354 15.479 85.8047C15.5629 84.0565 15.681 82.311 15.7256 80.5616C15.7676 78.8858 15.7348 77.2075 15.7348 75.5357V75.537ZM15.7413 167.143C12.2747 167.297 10.2154 170.26 9.92027 172.587C9.54252 175.56 11.5388 178.368 14.1661 178.622C15.2298 178.724 15.4239 178.569 15.4777 177.528C15.5708 175.726 15.6849 173.925 15.7322 172.121C15.7754 170.49 15.7413 168.857 15.7413 167.142V167.143ZM15.7413 5.6301C12.5763 5.59587 9.40742 8.95524 9.92552 12.6977C10.2364 14.9447 12.116 16.8995 14.1608 17.0996C15.2245 17.2036 15.4239 17.0443 15.4777 16.0123C15.5708 14.2102 15.6849 12.4081 15.7322 10.6046C15.7754 8.97235 15.7413 7.33874 15.7413 5.6301ZM15.7544 120.913C13.1102 121.212 11.3408 122.571 10.3597 124.905C9.43627 127.103 9.73664 129.195 11.3526 130.999C12.1422 131.881 13.16 132.382 14.3615 132.478C15.079 132.536 15.4738 132.345 15.4934 131.51C15.538 129.598 15.6915 127.687 15.7453 125.775C15.7899 124.199 15.7544 122.621 15.7544 120.912V120.913ZM15.9158 56.6735C15.9158 55.2044 15.9053 53.9433 15.921 52.6823C15.9276 52.1623 15.8345 51.8135 15.1944 51.9477C12.7901 52.4559 11.2135 53.9433 10.3728 56.1956C9.54514 58.4111 10.0567 60.4133 11.67 62.1009C12.4898 62.9591 13.5561 63.387 14.7524 63.4436C15.2665 63.4672 15.5643 63.2711 15.5918 62.6945C15.6902 60.6186 15.8148 58.5427 15.9184 56.6722L15.9158 56.6735ZM15.9289 144.238C12.5265 144.567 10.0541 147.216 10.0003 150.382C9.95962 152.788 11.5388 154.97 13.7529 155.564C15.3295 155.987 15.5105 155.852 15.5879 154.207C15.5984 153.988 15.5879 153.766 15.618 153.55C16.0496 150.501 15.7702 147.438 15.9289 144.238ZM45.4841 161.018C45.6113 159.097 43.8157 157.252 41.7184 157.148C39.4991 157.037 37.5329 158.729 37.3414 160.914C37.1565 163.029 39.124 165.196 41.3301 165.307C43.636 165.422 45.3057 163.698 45.4828 161.019L45.4841 161.018ZM15.9158 195.018C15.9158 193.581 15.9237 192.433 15.9132 191.286C15.9027 190.031 15.8581 190.027 14.5976 190.381C13.6807 190.639 12.878 191.099 12.1999 191.726C9.97929 193.78 8.94703 197.375 11.4916 200.192C12.3271 201.117 13.3751 201.649 14.6435 201.701C15.1996 201.725 15.5682 201.636 15.5957 200.933C15.6771 198.863 15.8148 196.797 15.9145 195.017L15.9158 195.018ZM15.7964 212.933C14.3641 212.945 13.2112 213.566 12.2366 214.444C9.95044 216.505 8.91162 220.188 11.5729 223.024C12.4242 223.931 13.4879 224.436 14.7615 224.451C15.2809 224.457 15.5603 224.306 15.5905 223.726C15.7085 221.494 15.9407 219.266 15.8502 217.029C15.7964 215.676 16.081 214.315 15.7938 212.933H15.7964ZM340.101 161.215C340.324 158.867 338.286 157.315 335.88 157.214C333.931 157.132 331.983 159.05 331.928 161.042C331.869 163.204 333.877 165.264 336.089 165.307C338.266 165.349 340.051 163.528 340.101 161.215ZM210.249 286.015C208.091 286.045 206.252 287.912 206.306 290.018C206.358 292.065 208.355 293.905 210.457 293.844C212.582 293.783 214.266 292.033 214.245 289.907C214.224 287.71 212.452 285.984 210.249 286.015ZM163.02 186.842C162.981 188.989 164.698 190.751 166.829 190.751C168.889 190.751 170.583 189.076 170.628 186.998C170.672 184.977 168.803 183.049 166.8 183.046C164.791 183.043 163.058 184.784 163.02 186.841V186.842ZM133.157 217.048C133.123 219.093 134.712 220.816 136.656 220.839C138.806 220.864 140.568 219.08 140.589 216.854C140.607 214.952 139.024 213.345 137.055 213.264C134.945 213.179 133.194 214.878 133.158 217.048H133.157ZM45.1483 174.254C45.1562 172.2 43.6609 170.573 41.7656 170.575C39.7745 170.575 37.8241 172.389 37.8163 174.247C37.8071 176.197 39.6303 178.11 41.5439 178.16C43.4655 178.21 45.1391 176.394 45.1483 174.254ZM339.773 174.326C339.798 172.237 338.349 170.597 336.462 170.581C334.45 170.564 332.496 172.31 332.44 174.175C332.381 176.174 334.307 178.185 336.26 178.16C338.136 178.136 339.748 176.376 339.773 174.325V174.326ZM362.064 213.613C362.518 217.328 362.241 220.857 362.339 224.385C365.082 223.782 366.557 222.052 367.084 218.848C367.485 216.4 366.128 214.383 363.726 213.882C363.248 213.782 362.758 213.724 362.066 213.613H362.064ZM362.312 145.012C362.369 148.111 362.203 151.162 362.44 154.211C362.505 155.051 362.808 155.175 363.679 154.944C366.388 154.229 368.07 151.021 367.129 148.29C366.376 146.103 364.68 145.215 362.312 145.013V145.012ZM362.395 53.6603C362.395 56.609 362.356 59.4945 362.413 62.3786C362.438 63.6186 362.807 63.7977 363.954 63.387C366.247 62.5682 367.622 60.1882 367.342 57.666C367.095 55.4335 364.791 53.4089 362.395 53.6603ZM362.395 76.4045C362.395 79.3505 362.356 82.236 362.413 85.1201C362.438 86.3615 362.807 86.5405 363.952 86.1324C366.245 85.315 367.621 82.9363 367.344 80.4128C367.098 78.1855 364.803 76.157 362.395 76.4032V76.4045ZM362.396 29.9276C362.396 32.8802 362.357 35.7657 362.415 38.6498C362.44 39.8872 362.809 40.0636 363.96 39.6502C366.251 38.8275 367.624 36.4475 367.342 33.9267C367.092 31.6836 364.772 29.6682 362.395 29.9276H362.396ZM362.324 98.8261C362.324 101.159 362.318 103.444 362.328 105.729C362.331 106.383 362.346 107.042 362.416 107.692C362.531 108.779 362.847 108.942 363.945 108.553C366.239 107.741 367.619 105.365 367.345 102.838C367.104 100.612 364.818 98.58 362.324 98.8261ZM362.468 7.17551C362.228 7.71917 362.328 8.21807 362.331 8.69986C362.341 11.1022 362.333 13.5059 362.413 15.9056C362.454 17.1443 362.809 17.3194 363.961 16.9061C366.252 16.0834 367.626 13.702 367.344 11.1825C367.092 8.93812 364.772 6.92408 362.47 7.17551H362.468ZM362.416 121.892C362.416 124.882 362.381 127.872 362.437 130.86C362.455 131.833 362.867 131.995 363.881 131.655C366.23 130.87 367.695 128.385 367.323 125.821C366.982 123.476 365.165 122.001 362.416 121.892ZM362.396 168.046C362.396 170.997 362.357 173.884 362.415 176.768C362.44 178.006 362.809 178.183 363.96 177.77C366.251 176.947 367.624 174.567 367.344 172.046C367.093 169.805 364.776 167.788 362.396 168.046ZM362.387 191.111C362.387 194.077 362.345 196.91 362.405 199.743C362.436 201.138 362.821 201.307 364.166 200.751C366.439 199.81 367.741 197.377 367.299 194.898C366.896 192.636 365.119 191.234 362.387 191.113V191.111ZM54.2695 164.893C54.2629 163.145 52.7047 161.646 50.8264 161.581C49.1646 161.525 47.4306 163.256 47.4437 164.959C47.4581 166.811 49.0623 168.401 50.9209 168.407C52.7847 168.412 54.2747 166.848 54.2682 164.893H54.2695ZM348.893 164.867C348.876 162.962 347.447 161.714 345.265 161.698C343.585 161.687 342.037 163.281 342.071 164.989C342.108 166.847 343.713 168.412 345.577 168.405C347.44 168.399 348.911 166.828 348.894 164.866L348.893 164.867ZM31.3525 174.288C31.3761 172.716 29.6395 171.021 28.0458 171.058C26.4929 171.095 25.113 172.574 24.9805 174.142C24.81 176.153 26.8483 177.649 28.177 177.64C29.8179 177.628 31.3263 176.056 31.3525 174.288ZM325.977 174.164C325.95 172.683 324.221 171.042 322.703 171.056C321.005 171.074 319.563 172.655 319.624 174.438C319.681 176.152 321.288 177.707 322.928 177.634C324.572 177.561 326.01 175.926 325.977 174.164ZM38.1402 186.695C38.1127 188.335 39.7431 190.033 41.3328 190.017C42.7585 190.003 44.2092 188.435 44.2905 186.823C44.3718 185.205 43.0602 183.711 41.4928 183.636C39.8034 183.554 38.1691 185.045 38.1402 186.694V186.695ZM34.9529 164.613C34.9215 163.033 33.4026 161.622 31.7906 161.675C30.1313 161.729 28.6544 163.124 28.6361 164.656C28.6164 166.298 30.2927 167.975 31.9178 167.939C33.4603 167.906 34.9857 166.235 34.9529 164.613ZM326.516 167.941C328.06 167.923 329.591 166.271 329.574 164.639C329.558 163.078 328.04 161.643 326.436 161.675C324.79 161.706 323.291 163.102 323.257 164.633C323.22 166.266 324.887 167.958 326.515 167.941H326.516ZM326.435 180.455C324.797 180.436 323.359 181.807 323.347 183.4C323.336 184.999 325.056 186.766 326.583 186.721C328.025 186.679 329.482 185.105 329.548 183.52C329.616 181.86 328.21 180.475 326.435 180.455ZM31.5794 180.462C30.0933 180.478 28.6741 181.984 28.7253 183.492C28.7777 185.052 30.4343 186.729 31.9152 186.723C33.4065 186.715 34.9661 184.991 34.9424 183.376C34.9201 181.789 33.3672 180.443 31.5781 180.463L31.5794 180.462ZM338.957 186.617C338.931 184.972 337.514 183.701 335.78 183.769C334.129 183.833 332.705 185.294 332.769 186.857C332.834 188.451 334.462 190.05 335.985 190.015C337.457 189.981 338.983 188.236 338.959 186.617H338.957ZM55.1588 171.025C53.4445 171 51.7065 172.395 51.6488 173.846C51.5832 175.494 53.19 177.27 54.7718 177.295C56.216 177.318 57.8371 175.569 57.8489 173.979C57.8594 172.448 56.5832 171.047 55.1601 171.026L55.1588 171.025ZM352.472 173.91C352.438 172.337 351.04 170.984 349.507 171.042C347.878 171.103 346.275 172.541 346.275 173.945C346.275 175.612 347.92 177.329 349.478 177.287C350.94 177.247 352.506 175.482 352.472 173.912V173.91ZM347.984 183.049C347.992 181.298 347.084 180.279 345.504 180.271C343.728 180.262 342.139 181.64 342.171 183.163C342.205 184.814 343.583 186.204 345.189 186.205C346.802 186.207 347.975 184.884 347.984 183.047V183.049ZM53.3605 183.183C53.3867 181.662 52.2391 180.317 50.8802 180.272C49.2354 180.22 47.6116 181.556 47.5421 183.021C47.4621 184.683 48.9259 186.214 50.5864 186.208C52.1433 186.201 53.3303 184.906 53.3605 183.184V183.183Z" fill="#3F594D"/>
</g>
<defs>
<filter id="filter0_d_107_4" x="0" y="0" width="378" height="322" filterUnits="userSpaceOnUse" color-interpolation-filters="sRGB">
<feFlood flood-opacity="0" result="BackgroundImageFix"/>
<feColorMatrix in="SourceAlpha" type="matrix" values="0 0 0 0 0 0 0 0 0 0 0 0 0 0 0 0 0 0 127 0" result="hardAlpha"/>
<feOffset dy="4"/>
<feGaussianBlur stdDeviation="2"/>
<feComposite in2="hardAlpha" operator="out"/>
<feColorMatrix type="matrix" values="0 0 0 0 0 0 0 0 0 0 0 0 0 0 0 0 0 0 0.25 0"/>
<feBlend mode="normal" in2="BackgroundImageFix" result="effect1_dropShadow_107_4"/>
<feBlend mode="normal" in="SourceGraphic" in2="effect1_dropShadow_107_4" result="shape"/>
</filter>
</defs>
</svg>
