<svg width="379" height="322" viewBox="0 0 379 322" fill="none" xmlns="http://www.w3.org/2000/svg">
<g filter="url(#filter0_d_75_87)">
<path d="M362.931 230.615C364.129 238.479 363.13 245.908 360.781 253.186C357.846 262.291 352.933 270.182 345.953 276.721C338.283 283.905 329.243 288.429 318.894 290.361C314.661 291.151 310.397 291.418 306.133 291.167C298.395 290.706 291.05 288.685 284.117 285.156C274.344 280.182 266.627 273.004 260.877 263.663C260.406 263.773 260.432 264.213 260.317 264.538C257.047 274.082 251.815 282.428 244.878 289.717C232.745 302.466 217.912 310.11 200.589 312.979C195.661 313.796 190.68 314.163 185.694 313.932C167.654 313.1 151.566 307.152 137.754 295.376C128.038 287.093 120.939 276.973 116.512 264.983C116.35 264.548 116.172 264.113 115.932 263.501C115.398 264.407 114.985 265.176 114.519 265.904C105.897 279.303 93.8057 287.722 78.0629 290.193C61.2003 292.837 46.2736 288.046 33.5339 276.742C23.2636 267.627 17.2992 256.108 15.2535 242.542C14.7303 239.065 14.4321 235.578 14.7094 232.065C14.7669 231.316 14.6571 230.929 13.7049 230.85C10.8691 230.615 8.70313 229.075 6.93473 226.929C2.9637 222.106 3.0631 214.787 6.98705 210.41C8.10669 209.163 9.52977 208.357 11.0052 207.514C6.70453 204.807 4.37109 201.09 4.37632 195.974C4.38678 190.765 6.8301 187.152 11.5964 184.817C6.87195 182.293 4.3083 178.487 4.18797 173.246C4.0624 167.979 6.46386 164.156 11.2772 161.826C1.61386 156.386 2.12136 143.344 10.775 139.145C5.45933 135.616 3.13635 130.736 4.54897 124.479C5.52734 120.134 8.38398 117.317 12.9985 116.05C7.71429 114.16 4.79487 110.39 4.23506 105.102C3.66478 99.7192 5.82033 95.4781 10.8325 92.8079C6.57373 90.1324 4.21936 86.4149 4.18274 81.4252C4.14611 76.3465 6.42724 72.629 10.9999 70.3357C5.90404 67.1785 3.48166 62.6653 4.324 56.7383C5.01985 51.8428 7.90264 48.628 12.941 47.1515C7.67244 45.2143 4.72163 41.434 4.21936 36.0725C3.70663 30.5906 5.94067 26.3706 11.0209 23.8469C10.9633 23.3024 10.4192 23.3024 10.0896 23.0772C5.75232 20.1295 3.63862 15.9618 4.25075 10.8359C4.85766 5.77285 7.76138 1.94023 13.6473 1.1601C14.8611 0.997785 16.054 1.16533 17.2521 1.11821C25.2622 0.793588 33.2775 1.03444 41.2876 0.866889C42.7682 0.835474 44.2489 0.809295 45.7347 0.798824C71.863 0.610334 97.9965 0.584155 124.125 0.416609C155.579 0.207176 187.039 0.3276 218.493 0.290949C264.665 0.238591 310.832 0.275242 357.003 0.275242C358.793 0.275242 360.577 0.270006 362.377 0.112931C363.93 -0.0179641 365.62 -0.0965014 367.227 0.233355C369.419 0.683636 371.145 1.89835 372.49 3.64711C377.874 10.6474 374.08 21.0929 365.469 23.0406C365.155 23.1087 364.851 23.2134 364.443 23.3286C364.616 23.805 364.982 23.8836 365.312 23.9935C365.83 24.161 366.342 24.381 366.876 24.4857C372.851 25.648 376.445 32.753 374.405 39.0465C373.453 41.9838 371.731 44.298 369.147 45.9735C368.827 46.1829 368.493 46.3714 368.174 46.5756C368.137 46.5965 368.132 46.6646 368.069 46.806C373.212 49.1621 375.503 53.3769 374.87 58.8326C374.216 64.4611 370.873 68.1576 365.113 69.7074C372.767 69.8017 377.146 78.6136 373.887 85.7919C372.61 88.6035 370.58 90.6664 367.661 92.122C373.16 94.5095 375.556 98.8081 374.855 104.468C374.164 110.023 370.821 113.662 365.165 115.181C372.94 115.374 377.083 124.238 373.897 131.265C372.354 134.663 370.073 136.674 365.845 138.286C365.992 138.391 366.117 138.553 366.248 138.558C370.428 138.757 373.746 142.601 374.677 146.658C375.964 152.266 373.17 158.842 366.562 161.292C367.488 161.638 368.43 161.858 369.246 162.308C372.861 164.303 374.645 167.502 374.938 171.534C375.331 176.827 372.165 182.403 365.809 184.419C367.227 184.597 368.336 184.848 369.335 185.414C372.872 187.424 374.729 190.587 374.907 194.54C375.169 200.325 372.563 204.53 367.247 206.97C367.153 207.012 367.064 207.08 366.986 207.148C366.949 207.179 366.949 207.242 366.881 207.42C369.754 208.132 371.941 209.771 373.416 212.368C374.713 214.645 375.221 217.096 374.912 219.651C374.551 222.672 373.29 225.316 371.035 227.436C368.786 229.552 366.128 230.651 362.931 230.62V230.615ZM251.093 94.0802C250.947 94.0802 250.806 94.0802 250.659 94.0802C250.659 103.745 250.659 113.416 250.659 123.081C250.659 124.123 250.633 125.16 251.015 126.171C251.371 127.108 251.993 127.6 252.977 127.647C253.359 127.663 253.746 127.663 254.128 127.657C263.734 127.49 273.334 127.317 282.94 127.15C288.151 127.061 293.367 126.977 298.578 126.877C300.551 126.841 301.226 126.223 301.168 124.328C301.043 120.149 301.268 115.982 301.283 111.809C301.283 111.207 301.309 110.594 301.231 109.997C301.043 108.526 300.31 107.866 298.84 107.793C298.291 107.767 297.741 107.798 297.192 107.814C290.113 107.987 283.034 108.159 275.955 108.337C275.516 108.348 275.076 108.348 274.637 108.358C274.177 108.374 273.91 108.185 273.889 107.704C273.795 105.51 273.7 103.316 273.601 101.117C273.58 100.635 273.81 100.41 274.281 100.41C274.663 100.41 275.05 100.4 275.432 100.395C279.879 100.327 284.321 100.269 288.768 100.18C290.621 100.143 291.191 99.6563 291.238 97.8604C291.343 94.0173 291.186 90.1743 290.955 86.3312C290.882 85.0798 290.328 84.6138 289.056 84.4934C288.512 84.441 287.958 84.4724 287.413 84.4829C283.296 84.5615 279.178 84.6191 275.066 84.7395C274.203 84.7657 273.873 84.5405 273.889 83.6609C273.915 82.4514 273.852 81.2472 273.805 80.0377C273.784 79.4932 273.999 79.2157 274.559 79.2209C274.888 79.2262 275.218 79.2104 275.547 79.2052C283.39 79.111 291.233 79.0167 299.081 78.9172C300.865 78.8963 301.801 77.9957 301.927 76.2051C301.937 76.0428 301.948 75.8752 301.948 75.7129C301.911 71.7023 301.88 67.6916 301.827 63.6862C301.822 63.1993 301.749 62.6967 301.623 62.2255C301.21 60.6599 300.718 60.2568 299.117 60.1154C298.516 60.0631 297.914 60.0526 297.307 60.0526C283.364 60.1259 269.421 60.1992 255.483 60.283C254.934 60.283 254.379 60.283 253.84 60.3667C252.354 60.5971 251.381 61.5867 251.193 63.0998C251.099 63.859 251.088 64.6339 251.088 65.4036C251.083 74.959 251.088 84.5196 251.088 94.0749L251.093 94.0802ZM142.787 97.7819C141.102 97.672 138.853 97.761 136.603 97.8186C134.306 97.8761 133.202 99.1485 133.464 101.437C133.663 103.185 134.092 104.892 134.594 106.578C136.184 111.871 138.701 116.631 142.735 120.49C149.688 127.144 159.142 128.254 167.445 123.396C171.259 121.165 174.398 118.175 176.758 114.474C184.684 102.044 186.191 88.8129 181.247 74.9328C179.505 70.0425 176.632 65.812 172.457 62.6286C165.996 57.7017 158.99 56.8797 151.545 60.1678C148.804 61.3773 146.413 63.126 144.289 65.2256C137.974 71.4562 134.835 79.2471 133.343 87.8077C132.883 90.4465 134.081 91.7084 136.776 91.8183C136.938 91.8235 137.105 91.8183 137.267 91.8183C140.558 91.8183 143.849 91.8078 147.14 91.8183C149.939 91.8288 150.677 91.3523 151.681 88.7553C152.409 86.8757 153.455 85.2212 155.098 84.0117C157.667 82.1216 160.717 82.2629 163.097 84.3782C164.358 85.4987 165.222 86.8914 165.766 88.4726C166.906 91.7817 166.77 95.0593 165.405 98.2793C164.861 99.5568 164.097 100.688 163.087 101.646C160.12 104.458 156.181 104.269 153.518 101.164C153.021 100.588 152.592 99.9338 152.241 99.2532C151.671 98.1536 150.902 97.6772 149.604 97.7505C147.527 97.8657 145.434 97.7819 142.787 97.7819ZM196.498 76.8596C196.409 76.8596 196.32 76.8596 196.226 76.8596C196.226 78.6188 196.237 80.3728 196.226 82.132C196.21 84.1635 196.137 86.195 196.163 88.2265C196.195 90.169 197.613 91.8445 199.281 91.8602C202.52 91.8864 205.759 91.8235 208.992 91.7869C209.871 91.7764 210.535 91.3785 211.106 90.6926C211.702 89.9753 211.958 89.2004 211.953 88.2737C211.943 85.4201 211.953 82.5614 211.974 79.7026C211.985 78.4565 212.006 78.4408 213.256 78.3256C215.071 78.1581 216.871 78.2785 218.645 78.734C226.461 80.7288 231.39 88.4517 230.009 96.5463C228.69 104.253 221.413 109.761 213.497 109.034C212.006 108.898 211.995 108.898 211.979 107.327C211.953 104.855 211.979 102.384 211.917 99.9129C211.854 97.6144 210.671 96.4991 208.39 96.5358C205.429 96.5829 202.462 96.6614 199.501 96.7504C196.922 96.8237 195.609 98.3212 195.902 100.918C196.012 101.908 196.038 102.887 196.043 103.876C196.064 107.997 196.09 112.118 196.106 116.233C196.116 118.322 196.106 120.406 196.137 122.495C196.163 124.144 196.624 124.736 198.188 125.254C198.549 125.375 198.926 125.458 199.302 125.547C203.132 126.458 206.993 126.657 210.907 126.26C227.142 124.589 240.692 111.966 243.46 95.8813C245.741 82.6085 239.369 69.5765 227.408 63.4925C217.918 58.6651 208.186 58.8274 198.403 62.681C196.953 63.2517 196.498 64.3878 196.493 65.8172C196.493 69.498 196.493 73.1736 196.493 76.8543L196.498 76.8596ZM123.942 68.765H123.984C123.984 67.1733 123.999 65.5816 123.984 63.9899C123.957 61.6705 123.293 60.7175 121.101 59.9583C115 57.8483 108.832 57.7645 102.632 59.44C85.6753 64.0266 74.4371 80.8807 76.5142 98.5463C78.6802 116.987 95.0771 129.286 113.347 126.155C115.89 125.72 118.401 125.097 120.687 123.83C122.482 122.83 123.602 121.406 123.544 119.207C123.492 117.175 123.586 115.144 123.565 113.112C123.555 112.128 123.481 111.133 123.34 110.159C123.136 108.761 122.471 108.269 121.069 108.426C119.856 108.557 118.725 108.997 117.637 109.521C116.45 110.097 115.225 110.536 113.943 110.871C105.871 112.981 98.3314 109.165 95.2811 101.389C91.6606 92.1482 96.1026 80.9173 105.06 76.6554C107.801 75.3517 110.679 74.8071 113.698 75.1317C115.79 75.3516 117.758 76.0114 119.651 76.9276C121.409 77.7758 123.262 76.9119 123.779 75.0166C123.905 74.5506 123.936 74.0427 123.942 73.5505C123.963 71.9588 123.947 70.3671 123.947 68.7755L123.942 68.765ZM244.271 238.28C244.177 230.803 240.802 225.269 234.916 221.122C234.09 220.541 233.252 220.431 232.285 220.845C226.89 223.148 221.481 225.421 216.081 227.704C215.087 228.122 215.134 228.122 215.422 229.248C215.924 231.206 216.515 233.138 216.563 235.206C216.646 239.065 216.505 242.887 215.391 246.615C215.249 247.092 215.391 247.343 215.83 247.5C216.139 247.61 216.442 247.736 216.751 247.856C222.585 250.102 228.429 252.317 234.236 254.616C235.56 255.139 236.528 254.919 237.48 253.935C241.749 249.532 244.103 244.317 244.271 238.285V238.28ZM233.394 264.087C233.32 263.155 233.19 262.229 233.195 261.297C233.205 259.139 232.002 258.056 230.098 257.375C225.085 255.595 220.099 253.731 215.103 251.903C213.638 251.369 213.879 251.532 213.209 252.616C210.321 257.312 206.423 260.92 201.495 263.401C200.396 263.956 200.38 263.93 200.799 265.066C200.893 265.323 201.003 265.579 201.134 265.82C204.043 271.171 206.826 276.596 209.803 281.915C210.65 283.434 211.922 283.795 213.387 283.627C215.506 283.386 217.619 283.051 219.676 282.397C226.885 280.098 233.462 273.737 233.399 264.092L233.394 264.087ZM234.231 212.797C233.723 203.446 227.21 196.315 218.734 194.43C216.264 193.88 213.774 193.582 211.242 194.205C209.662 194.592 208.699 195.446 208.055 196.959C205.999 201.807 203.833 206.608 201.709 211.425C201.17 212.645 201.134 212.692 202.248 213.3C206.695 215.734 210.164 219.153 212.67 223.546C213.031 224.185 213.397 224.196 213.999 223.929C215.349 223.321 216.725 222.777 218.09 222.201C222.59 220.316 227.094 218.441 231.589 216.546C233.404 215.782 234.278 214.514 234.236 212.792L234.231 212.797ZM134.678 237.798C134.688 241.777 135.457 245.065 136.933 247.935C138.052 250.102 139.501 252.019 141.374 253.595C142.761 254.757 144.126 255.034 145.874 254.123C150.154 251.893 154.528 249.851 158.86 247.731C161.193 246.589 161.146 246.594 160.738 243.966C159.953 238.913 159.974 233.897 161.695 229.012C161.988 228.185 161.669 227.892 161.02 227.683C159.927 227.327 158.823 226.991 157.724 226.651C153.11 225.243 148.49 223.845 143.881 222.426C142.824 222.101 141.819 222.012 140.935 222.787C140.443 223.216 139.983 223.698 139.58 224.211C136.336 228.384 134.725 233.133 134.672 237.803L134.678 237.798ZM164.207 282.774C165.368 282.779 166.509 282.653 167.654 282.491C169.036 282.297 169.983 281.601 170.48 280.297C172.41 275.219 174.351 270.145 176.266 265.061C176.753 263.763 176.475 263.784 175.492 263.365C172.578 262.124 170.066 260.328 167.906 257.977C166.446 256.385 165.101 254.741 164.097 252.835C163.741 252.16 163.385 251.987 162.674 252.307C161.721 252.731 160.727 253.05 159.749 253.411C155.333 255.066 150.912 256.71 146.502 258.385C144.943 258.977 144.461 259.616 144.618 261.071C145.178 266.281 146.617 271.203 149.793 275.459C153.377 280.266 158.211 282.674 164.201 282.774H164.207ZM189.466 293.303C195.085 293.219 199.684 291.062 203.556 287.24C205.727 285.093 205.905 284.146 204.676 281.397C202.991 277.643 201.353 273.868 199.574 270.161C198.957 268.878 198.837 267.454 198.094 266.192C197.581 265.312 197.22 265.208 196.352 265.438C191.564 266.71 186.735 267.025 181.885 265.826C181.326 265.689 181.121 265.815 180.917 266.328C178.662 271.925 176.397 277.517 174.111 283.099C173.514 284.559 173.812 285.8 174.901 286.853C178.997 290.816 183.811 293.172 189.472 293.308L189.466 293.303ZM204.477 192.728C204.487 192.021 204.137 191.472 203.729 190.943C202.708 189.629 201.51 188.508 200.124 187.597C195.593 184.607 190.602 183.487 185.234 184.016C182.299 184.304 179.547 185.183 177.061 186.812C175.382 187.911 173.99 189.283 172.991 191.037C172.562 191.791 172.41 192.54 172.771 193.388C174.691 197.938 176.266 202.624 178.04 207.231C178.375 208.101 178.83 208.928 179.154 209.787C179.568 210.86 180.112 210.797 181.022 210.582C184.297 209.823 187.609 209.378 190.973 209.933C192.381 210.164 193.809 210.326 195.18 210.698C196.09 210.944 196.43 210.63 196.54 209.855C196.671 208.959 197.1 208.195 197.482 207.409C199.663 202.98 201.845 198.55 204.032 194.121C204.252 193.676 204.492 193.247 204.477 192.728ZM175.617 212.902C175.392 211.986 174.718 211.52 174.351 210.849C171.835 206.221 169.161 201.671 166.812 196.959C165.583 194.493 163.804 193.655 161.277 193.812C160.785 193.843 160.288 193.849 159.801 193.912C152.393 194.88 145.775 200.975 144.179 208.305C143.692 210.54 143.697 212.76 144.294 214.991C144.718 216.562 145.618 217.525 147.187 218.038C152.45 219.771 157.688 221.567 162.92 223.389C163.804 223.698 164.28 223.614 164.766 222.756C166.205 220.195 168.162 218.064 170.365 216.117C171.913 214.75 173.755 213.923 175.617 212.902ZM345.122 228.348C343.808 228.306 342.234 228.688 340.706 229.379C337.211 230.965 333.695 232.51 330.19 234.076C329.839 234.233 329.483 234.39 329.169 234.599C328.097 235.322 327.929 236.385 328.683 237.437C329.086 237.997 329.666 238.296 330.258 238.594C334.375 240.646 338.425 242.825 342.804 244.338C347.303 245.893 352.54 243.442 353.943 238.872C355.596 233.468 351.4 228.238 345.127 228.353L345.122 228.348ZM317.371 200.1C317.377 198.058 316.937 196.435 316.037 194.948C314.091 191.749 310.465 190.362 307.112 191.503C303.01 192.906 300.582 197.744 301.754 202.257C302.194 203.954 302.701 205.624 303.413 207.242C304.694 210.148 305.903 213.096 307.143 216.017C307.316 216.42 307.478 216.834 307.713 217.2C308.55 218.473 309.937 218.515 310.811 217.258C311.182 216.724 311.417 216.096 311.669 215.488C313.411 211.226 315.137 206.959 316.874 202.692C317.256 201.76 317.382 200.791 317.371 200.09V200.1ZM344.117 210.87C344.133 206.996 341.653 203.87 338.059 202.99C334.276 202.069 329.975 203.922 328.385 207.226C326.219 211.719 324.089 216.237 321.949 220.745C321.515 221.656 321.091 222.609 321.949 223.489C322.755 224.316 323.681 223.902 324.555 223.572C329.682 221.64 334.809 219.698 339.932 217.75C340.497 217.536 341.119 217.352 341.485 216.865C342.888 215.017 344.19 213.111 344.117 210.87ZM61.3416 200.195C61.3207 201.017 61.5299 202.142 61.8177 203.268C62.9949 207.802 65.051 212.001 66.6939 216.357C66.8299 216.714 67.0182 217.059 67.2485 217.363C68.1117 218.525 69.5086 218.604 70.4818 217.53C70.9997 216.96 71.4026 216.321 71.6747 215.583C73.3437 211.059 74.9865 206.525 76.3049 201.886C77.1996 198.739 76.4619 195.885 74.3325 193.446C72.2973 191.116 68.9855 190.55 66.2125 191.917C62.9321 193.54 61.3364 196.2 61.3416 200.189V200.195ZM103.077 209.698C103.066 206.368 101.078 203.619 98.0541 202.765C94.8155 201.854 90.4311 203.556 88.7203 206.478C85.9526 211.205 83.2425 215.965 80.5166 220.714C80.3283 221.044 80.1295 221.384 80.0091 221.745C79.5435 223.175 80.4643 224.332 81.945 224.133C82.5309 224.054 83.1012 223.808 83.6558 223.588C88.1919 221.808 92.7227 220.012 97.2588 218.227C100.769 216.844 103.087 213.462 103.082 209.698H103.077ZM282.244 270.899C285.692 270.637 288.674 269.349 290.437 265.972C292.195 262.595 293.284 258.982 294.225 255.317C294.388 254.684 294.487 254.029 294.607 253.385C294.958 251.474 293.969 250.516 292.101 250.961C291.834 251.024 291.573 251.102 291.311 251.186C287.978 252.265 284.64 253.328 281.318 254.438C279.278 255.118 277.331 255.993 275.955 257.768C273.915 260.396 273.188 263.276 274.637 266.375C276.086 269.485 278.781 270.737 282.249 270.904L282.244 270.899ZM105.944 243.861C111.469 243.861 115.094 239.306 113.734 234.468C112.515 230.122 107.482 227.379 103.171 228.74C98.0488 230.353 93.1674 232.625 88.0454 234.233C87.2292 234.489 86.7426 235.034 86.7374 235.913C86.7322 236.798 87.2292 237.322 88.0349 237.599C92.3303 239.097 96.4688 240.987 100.654 242.751C102.47 243.516 104.364 243.615 105.944 243.861ZM32.3776 243.94C33.2827 243.94 34.3134 243.956 35.3075 243.51C38.8129 241.94 42.3288 240.395 45.8551 238.872C46.755 238.484 47.4037 237.84 47.9322 237.06C48.5129 236.206 48.3926 235.405 47.5973 234.73C47.3096 234.484 46.9643 234.29 46.6242 234.117C42.8101 232.18 38.9908 230.243 35.1662 228.316C33.3089 227.379 31.3626 227.311 29.4007 227.923C25.4715 229.149 23.138 233.075 23.792 237.227C24.378 240.95 27.7578 244.28 32.3672 243.94H32.3776ZM35.161 209.876C35.3337 212.818 36.7881 215.426 39.6552 217.08C43.7048 219.415 48.2042 220.724 52.4944 222.52C53.3681 222.887 54.3203 223.112 55.1365 222.405C56.0626 221.604 55.665 220.609 55.4138 219.656C55.3981 219.604 55.3824 219.551 55.3615 219.499C54.0849 215.881 52.9391 212.211 51.4846 208.666C50.2813 205.739 48.2094 203.493 45.0337 202.524C39.9744 200.985 35.1453 204.404 35.1558 209.876H35.161ZM275.778 209.399C275.778 213.598 278.08 217.007 282.024 218.525C285.504 219.86 289.004 221.133 292.499 222.415C293.216 222.677 293.948 222.939 294.696 223.086C295.805 223.3 296.643 222.536 296.58 221.405C296.559 221.033 296.438 220.651 296.292 220.3C294.649 216.41 293.059 212.499 291.316 208.661C290.233 206.279 288.596 204.289 286.2 203.048C281.046 200.378 275.778 203.593 275.778 209.404V209.399ZM68.185 281.622C71.502 281.632 75.8968 279.344 76.7601 274.208C76.938 273.14 76.8438 272.171 76.3363 271.192C74.3691 267.402 72.449 263.585 70.5027 259.778C70.3039 259.391 70.1208 258.982 69.8644 258.632C68.9645 257.364 67.6984 257.37 66.7619 258.632C66.6311 258.804 66.5212 258.998 66.4218 259.192C64.4337 263.098 62.456 267.004 60.4469 270.899C59.8662 272.025 59.7616 273.198 59.9185 274.412C60.4574 278.57 63.968 281.632 68.1797 281.627L68.185 281.622ZM42.5276 270.857C45.8342 270.695 48.1781 269.375 49.2977 266.145C50.3912 262.988 51.6102 259.878 52.7769 256.747C53.1222 255.82 53.5146 254.914 53.771 253.961C54.2 252.354 53.2635 251.328 51.6573 251.647C48.1676 252.338 44.6884 253.082 41.2091 253.815C39.9064 254.092 38.7553 254.689 37.6619 255.459C34.4756 257.7 33.1467 261.26 34.235 264.799C35.3389 268.407 38.7449 270.889 42.5328 270.857H42.5276ZM264.173 235.913C264.147 240.845 269.348 244.788 274.098 243.458C276.06 242.908 277.897 242.06 279.759 241.259C282.626 240.023 285.561 238.95 288.329 237.494C289.799 236.725 289.82 235.316 288.413 234.426C288.135 234.254 287.827 234.123 287.528 233.997C283.955 232.458 280.382 230.934 276.814 229.389C275.694 228.903 274.527 228.625 273.329 228.473C268.5 227.871 264.199 231.379 264.173 235.919V235.913ZM343.186 263.715C343.196 261.867 342.856 260.501 342.244 259.187C341.103 256.736 339.094 255.302 336.656 254.385C333.114 253.061 329.557 251.767 326.004 250.469C325.596 250.317 325.172 250.165 324.743 250.108C323.263 249.914 322.316 250.956 322.635 252.427C322.713 252.799 322.881 253.155 323.048 253.495C325.026 257.595 327.024 261.689 328.992 265.794C329.651 267.171 330.613 268.276 331.853 269.124C334.187 270.726 336.703 271.203 339.314 269.904C341.993 268.569 343.076 266.203 343.186 263.705V263.715ZM95.166 270.182C100.225 270.292 103.778 266.422 103.16 261.972C102.836 259.632 101.722 257.715 99.8172 256.317C98.5825 255.411 97.2797 254.61 95.8148 254.071C93.3976 253.181 91.0119 252.202 88.6104 251.265C87.5379 250.846 86.4758 250.38 85.3771 250.055C83.6872 249.553 82.5414 250.636 82.8605 252.359C82.9024 252.574 82.9704 252.783 83.0541 252.987C84.8434 257.234 86.5229 261.532 88.4953 265.7C89.9184 268.7 92.4978 269.899 95.1608 270.192L95.166 270.182ZM316.168 273.03C316.158 271.983 316.001 270.972 315.692 269.957C314.452 265.862 311.92 262.427 310.036 258.663C309.942 258.469 309.79 258.296 309.633 258.145C308.864 257.38 307.938 257.38 307.18 258.171C306.641 258.731 306.316 259.427 306.002 260.134C305.139 262.092 304.25 264.035 303.381 265.988C302.617 267.689 301.99 269.443 301.508 271.245C300.614 274.606 301.613 277.449 304.061 279.753C307.138 282.643 311.763 282.193 314.368 278.873C315.713 277.161 316.247 275.182 316.168 273.03ZM25.4715 121.39C25.4715 120.84 25.4558 120.291 25.4715 119.746C25.5656 116.594 26.4812 113.709 28.3229 111.149C30.536 108.076 33.4763 105.787 36.6521 103.824C38.0019 102.992 39.1477 102.028 39.8907 100.656C42.0829 96.5934 42.2607 92.4152 40.3616 88.2004C39.5715 86.4516 38.3525 84.9803 36.4899 84.373C33.6281 83.441 30.6877 83.2106 27.8049 84.3416C23.0805 86.195 21.7097 91.4518 24.8855 95.4101C26.2877 97.1588 28.1293 98.1746 30.3267 98.4783C31.0173 98.5725 31.6975 98.8605 32.4299 98.6406C35.5796 97.6981 37.2015 93.5095 35.4906 90.6874C34.6012 89.2213 32.8119 88.9857 31.5562 90.169C30.761 90.9177 30.4 91.8811 30.1854 92.9178C29.9605 94.0173 30.086 95.0802 30.7557 96.3211C28.3281 95.3891 27.0724 93.787 26.5597 91.6769C25.8325 88.682 27.7212 86.3102 30.7871 86.1741C31.2266 86.1532 31.6661 86.1479 32.1056 86.1741C35.386 86.4097 38.2531 88.97 38.9018 92.122C39.0902 93.033 38.7344 93.8446 38.7344 94.7137C38.7344 97.5829 37.5991 99.9809 35.6476 102.081C33.9786 103.876 31.9538 105.17 29.9657 106.531C26.8318 108.678 25.1262 111.683 24.5977 115.379C24.3047 117.442 24.5402 119.469 25.4715 121.38V121.39ZM347.267 96.3159C348.324 94.1954 347.942 92.3733 346.77 90.745C345.436 88.8967 343.076 89.2475 342.218 91.3628C341.444 93.2791 341.716 95.1273 342.82 96.8395C343.379 97.7086 344.169 98.2636 345.294 98.1693C345.545 98.1484 346.001 97.9442 346.027 98.2374C346.116 99.2584 346.749 98.7401 347.183 98.7034C349.166 98.5516 350.929 97.7924 352.326 96.4049C354.346 94.4048 355.408 92.0277 354.544 89.1271C353.812 86.6663 352.043 85.195 349.72 84.3416C347.983 83.7028 346.199 84.0379 344.4 84.0431C340.633 84.0641 338.44 86.0275 337.227 89.2318C335.898 92.7398 336.023 96.3263 337.535 99.7977C338.2 101.327 339.126 102.73 340.617 103.557C342.888 104.814 344.865 106.442 346.791 108.144C349.893 110.887 351.871 114.238 352.384 118.432C352.499 119.374 352.425 120.369 352.713 121.594C353.351 119.783 353.618 118.181 353.498 116.636C353.174 112.521 351.52 109.044 347.963 106.678C346.916 105.981 345.859 105.285 344.844 104.547C340.899 101.667 338.833 97.8395 339.053 92.8812C339.1 91.8131 339.366 90.813 339.973 89.9439C341.815 87.2841 344.379 86.0589 347.586 86.3364C349.626 86.5144 351.259 88.0695 351.557 89.9282C351.96 92.478 350.029 95.4677 347.272 96.3211L347.267 96.3159ZM25.8011 50.8061C25.8011 49.2982 25.7802 48.1987 25.8011 47.1044C25.8534 44.9473 26.0888 42.7953 27.3654 40.989C29.0396 38.6171 30.7296 36.2506 33.0996 34.4756C35.0302 33.0253 36.8352 31.4179 38.4885 29.6587C40.7226 27.2816 42.0933 24.5694 41.6486 21.1819C41.3138 18.6373 40.1209 16.522 38.4205 14.6476C36.5422 12.5794 34.0518 11.7469 31.4463 11.9092C27.9514 12.1291 25.1994 13.9617 23.656 17.1869C21.7306 21.2185 24.2681 26.2083 28.5949 26.7423C30.5621 26.9884 32.2259 26.2868 33.7955 25.1768C35.297 24.1139 35.8307 22.6688 35.679 20.8991C35.5691 19.5902 34.7948 18.7996 33.6228 18.3964C32.3881 17.9723 31.2161 18.1608 30.3058 19.1608C29.2803 20.2865 29.2018 21.6164 29.6622 23.0092C29.7564 23.2919 30.154 23.5066 29.7407 23.9254C28.2706 23.4594 27.3026 22.3861 26.5859 21.0667C24.9744 18.1137 26.1045 15.2287 29.296 14.0926C33.4711 12.6056 38.9594 15.9565 39.5349 20.3546C39.5925 20.7892 39.6448 21.2499 39.5558 21.6688C38.8966 24.8731 37.8398 27.889 35.4278 30.2608C33.5391 32.1195 31.4359 33.7269 29.1652 35.0411C27.627 35.9312 26.6382 37.0935 26.1045 38.7166C25.6912 39.9627 25.2256 41.2089 24.9797 42.4969C24.4617 45.1986 24.6082 47.8741 25.7906 50.8061H25.8011ZM344.876 65.6392C344.724 64.9847 344.745 64.5554 344.269 64.2098C342.668 63.0318 341.004 62.0055 339.1 61.4034C338.304 61.1521 337.488 61.0788 336.662 61.1312C335.076 61.2411 334.448 61.9637 334.496 63.5815C334.522 64.4716 334.741 65.3251 335.123 66.1157C337.106 70.1944 340.183 73.0531 344.515 74.5192C345.367 74.8071 346.069 74.7234 346.817 74.2155C349.945 72.0897 352.174 69.2572 353.644 65.791C354.162 64.5711 354.56 63.3354 354.534 61.9846C354.497 60.3039 353.644 59.5971 352.002 59.9165C350.783 60.1521 349.804 60.8432 348.836 61.571C347.382 62.6653 346.273 64.1051 344.876 65.6392ZM32.8904 65.1156C31.4673 63.8381 29.9395 62.7909 28.2496 62.0003C26.9416 61.3877 25.5813 61.0003 24.1216 61.1312C22.6881 61.2621 22.0184 61.9532 22.0707 63.3773C22.1073 64.2988 22.2486 65.2361 22.6672 66.0843C24.6396 70.0897 27.6584 72.9327 31.8963 74.4668C32.9479 74.849 33.7902 74.6867 34.6483 74.0636C38.0176 71.5976 40.4348 68.4456 41.7271 64.4454C42.0044 63.592 42.0829 62.7333 42.0672 61.8537C42.0305 60.2568 41.2144 59.6232 39.6029 59.9165C38.4362 60.1311 37.484 60.7699 36.5579 61.4558C35.1872 62.4715 34.0832 63.7648 32.8956 65.1156H32.8904ZM32.9584 134.281C32.0271 133.605 31.2423 133.014 30.4366 132.448C29.6256 131.883 28.7414 131.453 27.8363 131.05C26.5597 130.485 25.236 130.192 23.8443 130.396C22.6881 130.569 22.2486 131.05 22.1283 132.228C22.0132 133.344 22.2381 134.412 22.7195 135.407C24.5977 139.26 27.5381 141.977 31.53 143.574C32.7596 144.067 33.7955 143.978 34.8785 143.14C38.0804 140.658 40.44 137.595 41.7062 133.721C41.9834 132.872 42.0776 132.014 42.0619 131.129C42.0305 129.495 41.2562 128.856 39.6552 129.124C38.4833 129.322 37.5258 129.951 36.5998 130.642C35.2343 131.663 34.1042 132.93 32.9584 134.276V134.281ZM345.906 134.993C346.142 133.967 345.692 133.652 345.226 133.302C343.997 132.37 342.689 131.59 341.271 130.987C340.041 130.464 338.765 130.202 337.431 130.396C336.274 130.569 335.835 131.045 335.709 132.223C335.594 133.281 335.783 134.307 336.233 135.249C338.158 139.281 341.192 142.108 345.409 143.669C346.508 144.077 347.397 143.92 348.308 143.239C351.599 140.778 353.99 137.668 355.282 133.742C355.544 132.951 355.585 132.139 355.659 131.323C355.826 129.485 354.638 128.684 352.776 129.218C351.766 129.506 350.903 130.097 350.066 130.726C348.569 131.841 347.434 133.317 345.906 134.993ZM352.86 50.1464C352.99 49.8584 353.158 49.5757 353.252 49.272C354.602 44.8164 353.76 40.6277 351.745 36.5699C351.353 35.7793 350.694 35.3238 349.982 34.9049C348.041 33.7583 346.246 32.4075 344.515 30.9781C342.082 28.9675 340.329 26.5119 339.628 23.3809C339.523 22.9045 339.393 22.4228 339.225 21.962C338.315 19.4645 338.885 17.3597 340.805 15.5481C343.222 13.2705 347.105 12.5061 349.956 13.7941C351.834 14.6423 353.116 16.4906 352.849 18.1608C352.551 20.0666 351.646 21.6583 350.087 22.8521C349.365 23.4071 348.679 23.6218 347.957 22.8521C348.093 22.1557 348.622 21.6269 348.773 20.9044C348.878 20.4017 348.868 19.9829 348.747 19.4802C348.344 17.81 345.713 17.056 344.096 18.3755C343.542 18.831 343.071 19.3336 342.992 20.1295C342.861 21.4698 343.186 22.8154 343.913 23.7841C345.211 25.5224 348.282 26.8627 350.866 26.0878C355.486 24.6951 357.098 18.7786 353.953 14.946C352.038 12.6108 349.38 11.8621 346.67 11.5375C344.337 11.26 342.15 12.1763 340.434 13.9303C337.425 17.0037 336.97 20.7421 337.64 24.7684C337.844 25.9884 338.378 27.046 339.147 27.9989C340.947 30.2346 343.086 32.1247 345.367 33.8421C347.779 35.6589 349.48 38.0831 351.253 40.4444C351.777 41.1408 352.117 41.9733 352.31 42.8372C352.849 45.2509 353.116 47.6803 352.87 50.1464H352.86ZM129.822 12.0087C130.105 14.6947 131.402 16.9251 133.49 18.4278C138.115 21.7578 144.32 19.3965 145.555 13.836C145.916 12.2234 145.863 12.1553 144.252 12.1448C140.48 12.1134 136.702 12.2286 132.93 12.0192C131.899 11.9616 130.869 12.0087 129.822 12.0087ZM191.35 12.0087C191.706 14.8622 193.04 16.967 195.232 18.5011C199.852 21.7316 205.931 19.3336 207.15 13.8308C207.506 12.2181 207.459 12.1501 205.848 12.1396C202.075 12.1082 198.298 12.2234 194.526 12.0139C193.495 11.9564 192.464 12.0035 191.35 12.0035V12.0087ZM315.865 12.0035C316.676 17.2236 321.034 20.6635 325.538 19.852C328.683 19.2865 332.309 16.0089 331.571 12.1501C327.108 12.103 322.624 12.2077 318.146 12.0087C317.439 11.9773 316.733 12.0087 315.859 12.0087L315.865 12.0035ZM274.035 12.1553C274.36 14.6999 275.574 16.6581 277.462 18.1922C282.056 21.9254 288.899 19.3703 289.914 13.569C290.134 12.3124 290.014 12.1501 288.737 12.1448C284.415 12.1291 280.094 12.1763 275.772 12.0139C275.233 11.993 274.679 11.9145 274.035 12.1553ZM67.5624 12.0035C67.8501 14.6004 69.0011 16.6738 70.9684 18.2341C75.562 21.873 82.2222 19.4226 83.3523 13.6737C83.6244 12.2967 83.5198 12.1501 82.1542 12.1396C78.2146 12.1134 74.2749 12.2024 70.3405 12.0139C69.4197 11.9668 68.4989 12.0087 67.5624 12.0087V12.0035ZM212.429 12.0035C212.806 14.9251 214.182 17.0665 216.458 18.6006C221.093 21.7264 227.22 19.1504 228.293 13.6632C228.565 12.2862 228.46 12.1501 227.084 12.1396C223.202 12.1082 219.315 12.2129 215.432 12.0139C214.459 11.9616 213.481 12.0087 212.429 12.0087V12.0035ZM46.7079 12.1187C46.8858 16.6319 51.4062 20.4436 55.9109 19.9096C59.8086 19.4436 62.9112 15.7052 62.2572 12.1187H46.7131H46.7079ZM103.213 12.1187C97.8971 12.2077 92.707 12.0925 87.5065 11.9982C87.8727 16.6686 91.9903 20.2342 96.4636 19.92C100.393 19.6425 103.506 16.1345 103.218 12.1187H103.213ZM108.895 12.171C109.47 16.8152 113.357 20.1818 117.784 19.92C121.242 19.7158 124.496 16.6372 124.721 13.3543C124.8 12.1972 124.774 12.1501 123.623 12.1396C119.128 12.0872 114.634 12.0454 110.14 12.0087C109.763 12.0087 109.371 11.9197 108.9 12.171H108.895ZM166.441 12.1448H150.745C151.21 16.8152 155.407 20.3651 159.896 19.9148C163.767 19.5273 166.791 16.0089 166.446 12.1448H166.441ZM186.552 12.1082H170.851C171.207 16.6686 175.324 20.2342 179.798 19.92C183.727 19.6425 186.84 16.1345 186.552 12.1082ZM253.479 11.9668C254.028 16.878 258.204 20.386 262.677 19.92C266.554 19.5169 269.593 15.9565 269.185 12.1448C264.011 12.1448 258.821 12.1763 253.474 11.9721L253.479 11.9668ZM295.403 11.8098C295.779 14.5271 296.993 16.5482 298.965 18.098C303.575 21.7107 310.282 19.1713 311.318 13.4329C311.548 12.1606 311.444 12.0244 310.12 12.0087C306.343 11.9721 302.565 12.0925 298.793 11.8202C297.705 11.7417 296.611 11.8098 295.403 11.8098ZM233.148 12.1396C233.524 14.8622 234.738 16.878 236.711 18.4278C241.32 22.0405 248.027 19.4959 249.063 13.7627C249.294 12.4904 249.189 12.3543 247.86 12.3438C244.083 12.3072 240.305 12.4276 236.533 12.1553C235.445 12.0768 234.351 12.1448 233.148 12.1448V12.1396ZM86.1567 198.969C86.1671 198.058 85.9369 197.393 85.1887 197.069C84.451 196.744 83.7971 196.99 83.232 197.514C82.7768 197.938 82.5466 198.498 82.3059 199.053C80.0301 204.221 77.7437 209.383 75.4783 214.556C74.9969 215.661 74.547 216.782 74.1598 217.923C73.8041 218.96 74.1441 219.813 74.9394 220.164C75.7346 220.515 76.5822 220.201 77.142 219.253C77.6705 218.358 78.1727 217.441 78.5965 216.488C80.9823 211.132 83.3419 205.76 85.7067 200.388C85.9264 199.886 86.1724 199.388 86.1619 198.964L86.1567 198.969ZM85.7852 231.091C86.2927 231.086 86.7479 230.887 87.1978 230.693C93.5546 228.012 99.9166 225.332 106.268 222.64C106.718 222.452 107.168 222.216 107.54 221.907C108.078 221.452 108.319 220.834 108.031 220.138C107.723 219.384 107.1 219.054 106.321 219.159C105.839 219.221 105.363 219.389 104.913 219.578C98.6034 222.232 92.2989 224.897 85.9997 227.573C85.5498 227.761 85.0998 227.986 84.7074 228.279C84.0639 228.761 83.8808 229.447 84.1894 230.185C84.472 230.871 85.0684 231.128 85.7904 231.096L85.7852 231.091ZM106.802 253.726C107.874 253.736 108.586 253.27 108.785 252.527C108.994 251.746 108.722 251.097 108.073 250.668C107.623 250.369 107.111 250.149 106.603 249.951C101.136 247.851 95.6631 245.757 90.1852 243.673C89.4162 243.38 88.6366 243.118 87.8413 242.924C86.7688 242.667 85.9683 243.065 85.6753 243.903C85.4033 244.673 85.7224 245.427 86.6328 245.94C87.2501 246.291 87.9094 246.573 88.5738 246.83C94.2452 249.019 99.9219 251.191 105.599 253.359C106.054 253.532 106.535 253.642 106.807 253.726H106.802ZM314.891 217.928C314.897 218.609 315.132 219.206 315.823 219.499C316.503 219.787 317.12 219.604 317.628 219.085C318.219 218.488 318.528 217.714 318.852 216.96C321.337 211.221 323.812 205.483 326.297 199.744C326.496 199.283 326.679 198.833 326.648 198.32C326.611 197.66 326.292 197.179 325.69 196.896C325.073 196.608 324.513 196.765 324 197.163C323.645 197.44 323.446 197.833 323.263 198.236C320.631 204.21 317.994 210.179 315.362 216.153C315.116 216.708 314.939 217.284 314.881 217.923L314.891 217.928ZM327.595 230.568C327.877 230.484 328.306 230.389 328.709 230.222C334.731 227.709 340.753 225.19 346.77 222.661C347.277 222.452 347.779 222.211 348.151 221.792C348.58 221.311 348.789 220.75 348.549 220.122C348.287 219.436 347.753 219.101 347.021 219.075C346.456 219.059 345.943 219.237 345.436 219.452C340.12 221.672 334.804 223.881 329.499 226.122C328.495 226.546 327.516 227.054 326.569 227.609C325.905 227.997 325.591 228.641 325.811 229.442C326.004 230.138 326.658 230.583 327.595 230.573V230.568ZM62.885 217.724C62.7751 216.886 62.4455 216.007 62.0793 215.159C59.7563 209.781 57.4124 204.415 55.058 199.053C54.8645 198.608 54.6081 198.168 54.2942 197.802C53.8285 197.257 53.1955 197.084 52.5101 197.357C51.8875 197.603 51.6102 198.116 51.5474 198.765C51.4742 199.556 51.6939 200.294 52.0026 200.996C54.4459 206.556 56.8997 212.111 59.3692 217.666C59.568 218.111 59.8191 218.551 60.1278 218.923C60.5882 219.473 61.2213 219.646 61.9066 219.384C62.6025 219.112 62.8746 218.541 62.885 217.724ZM328.719 243.311C327.872 243.38 327.27 243.615 327.003 244.317C326.71 245.081 326.956 245.73 327.6 246.196C327.95 246.448 328.358 246.631 328.767 246.783C334.558 248.966 340.35 251.144 346.142 253.312C346.655 253.506 347.178 253.715 347.738 253.657C348.486 253.579 349.124 253.265 349.386 252.495C349.637 251.757 349.26 251.218 348.721 250.783C348.114 250.296 347.408 249.992 346.686 249.725C341.595 247.851 336.51 245.977 331.414 244.123C330.493 243.788 329.536 243.552 328.719 243.306V243.311ZM303.114 217.719C302.984 216.912 302.691 216.033 302.33 215.169C300.106 209.86 297.888 204.545 295.664 199.236C295.497 198.833 295.319 198.42 295.078 198.064C294.576 197.331 293.781 197.074 293.08 197.357C292.378 197.639 292.017 198.378 292.169 199.268C292.216 199.535 292.295 199.802 292.399 200.058C294.764 205.844 297.129 211.63 299.499 217.41C299.729 217.965 299.996 218.515 300.43 218.949C300.891 219.41 301.451 219.598 302.084 219.373C302.79 219.122 303.073 218.557 303.125 217.714L303.114 217.719ZM289.318 230.458C289.977 230.442 290.479 230.17 290.767 229.562C291.06 228.944 290.903 228.384 290.5 227.876C290.144 227.431 289.642 227.206 289.14 226.976C283.563 224.415 277.98 221.86 272.403 219.3C271.906 219.07 271.404 218.834 270.844 218.824C270.122 218.813 269.546 219.091 269.274 219.787C269.028 220.405 269.191 220.97 269.635 221.457C270.017 221.871 270.514 222.106 271.011 222.337C276.589 224.902 282.166 227.463 287.743 230.023C288.245 230.253 288.748 230.473 289.313 230.458H289.318ZM30.8447 219.106C29.9238 219.08 29.3588 219.342 29.0449 220.023C28.731 220.714 28.9559 221.305 29.4425 221.824C29.793 222.19 30.2482 222.384 30.6982 222.588C36.3068 225.091 41.9102 227.594 47.5241 230.086C47.9688 230.285 48.4501 230.458 48.9315 230.505C49.643 230.583 50.2394 230.285 50.5324 229.599C50.8202 228.923 50.6475 228.306 50.1348 227.787C49.779 227.431 49.3291 227.227 48.8739 227.028C43.2653 224.525 37.6619 222.017 32.0532 219.52C31.6033 219.321 31.1533 219.106 30.8394 219.106H30.8447ZM301.963 257.391C301.958 256.474 301.676 255.914 300.98 255.637C300.273 255.354 299.661 255.584 299.222 256.139C298.924 256.516 298.699 256.977 298.521 257.433C296.428 262.852 294.351 268.276 292.279 273.7C292.143 274.051 292.049 274.438 292.028 274.815C291.991 275.538 292.305 276.109 292.996 276.381C293.697 276.658 294.32 276.423 294.754 275.857C295.083 275.428 295.324 274.925 295.549 274.428C297.762 269.47 299.504 264.328 301.498 259.281C301.754 258.626 301.843 257.904 301.963 257.396V257.391ZM326.873 274.716C326.857 274.077 326.621 273.522 326.37 272.972C323.953 267.679 321.531 262.391 319.108 257.103C318.972 256.804 318.831 256.501 318.643 256.233C318.067 255.422 317.246 255.155 316.508 255.506C315.776 255.857 315.477 256.642 315.734 257.631C315.802 257.893 315.917 258.15 316.032 258.396C318.496 263.726 320.955 269.061 323.425 274.386C323.655 274.884 323.901 275.376 324.314 275.763C324.796 276.219 325.355 276.386 325.978 276.14C326.616 275.889 326.841 275.344 326.878 274.711L326.873 274.716ZM86.5281 274.606C86.5281 274.041 86.2927 273.538 86.0677 273.04C83.6924 267.862 81.3119 262.684 78.9366 257.506C78.7064 257.008 78.4814 256.506 78.0419 256.144C77.5344 255.731 76.9694 255.6 76.3572 255.883C75.7503 256.165 75.473 256.679 75.4574 257.333C75.4469 257.898 75.6666 258.401 75.8968 258.899C78.2721 264.077 80.6474 269.26 83.028 274.433C83.232 274.878 83.4779 275.318 83.7866 275.695C84.247 276.255 84.8748 276.428 85.5654 276.166C86.2665 275.899 86.5334 275.323 86.5334 274.606H86.5281ZM61.4305 258.192C61.3939 256.679 60.1853 256.014 58.9244 256.747C58.3646 257.076 58.0821 257.569 57.8467 258.145C55.8324 263.129 53.8076 268.108 51.7933 273.093C51.6521 273.449 51.516 273.815 51.4585 274.187C51.3172 275.103 51.6887 275.8 52.4107 276.077C53.1222 276.35 53.8809 276.083 54.3988 275.329C54.6133 275.014 54.7598 274.653 54.9168 274.302C57.1247 269.454 59.0552 264.496 61.08 259.574C61.2684 259.118 61.4829 258.668 61.4305 258.192ZM287.842 243.49C287.481 243.479 287.026 243.688 286.582 243.893C281.543 246.175 276.505 248.458 271.466 250.746C271.168 250.882 270.865 251.029 270.598 251.212C269.771 251.794 269.494 252.595 269.839 253.328C270.19 254.071 270.938 254.364 271.948 254.113C272.319 254.024 272.675 253.872 273.026 253.715C277.965 251.479 282.903 249.244 287.837 246.998C288.282 246.793 288.727 246.552 289.093 246.238C289.637 245.778 289.841 245.149 289.558 244.458C289.276 243.772 288.711 243.484 287.837 243.49H287.842ZM31.2266 254.019C31.7759 253.956 32.273 253.72 32.7857 253.521C35.0354 252.642 37.1073 251.354 39.357 250.506C42.0829 249.474 44.7197 248.254 47.3985 247.128C47.9008 246.919 48.4187 246.71 48.8164 246.312C49.3291 245.799 49.5174 245.186 49.2297 244.505C48.9419 243.819 48.3612 243.547 47.6392 243.563C47.0794 243.579 46.5771 243.825 46.0801 244.045C41.2039 246.175 36.3277 248.312 31.4516 250.443C30.9493 250.663 30.4366 250.872 30.0389 251.27C29.5314 251.783 29.3274 252.39 29.6309 253.071C29.9291 253.746 30.5098 254.014 31.2318 254.019H31.2266ZM215.317 187.733C215.333 185.267 213.183 183.052 210.755 183.042C208.155 183.032 206.031 185.162 206.057 187.754C206.083 190.278 208.186 192.357 210.703 192.346C213.23 192.341 215.296 190.273 215.317 187.733ZM244.841 259.276C245.05 257.275 242.194 254.752 240.352 254.883C237.93 255.055 235.994 256.914 235.989 259.338C235.989 261.852 237.987 263.794 240.514 263.731C242.942 263.674 244.873 261.679 244.841 259.276ZM172.023 289.931C171.976 287.518 169.977 285.695 167.555 285.617C165.431 285.549 163.202 288.203 163.322 290.025C163.479 292.45 165.41 294.361 167.827 294.298C170.166 294.24 172.07 292.261 172.028 289.926L172.023 289.931ZM137.001 255.82C134.939 255.741 133.082 257.542 132.956 259.752C132.825 262.077 134.699 264.124 137.037 264.218C139.36 264.307 141.374 262.391 141.427 260.05C141.479 257.626 139.695 255.925 136.995 255.825L137.001 255.82ZM236.308 216.782C236.276 219.112 238.129 221.007 240.446 221.023C242.743 221.038 244.627 219.148 244.632 216.823C244.632 214.75 242.633 212.692 240.551 212.63C238.301 212.562 236.339 214.478 236.313 216.787L236.308 216.782ZM15.8656 55.2252H15.8343C15.8343 54.8953 15.8238 54.5655 15.8343 54.2408C15.8499 53.8586 15.9075 53.4816 15.9127 53.0994C15.9284 51.869 15.7662 51.7433 14.6361 52.0365C11.6121 52.8167 9.48268 56.1624 10.0582 59.241C10.4663 61.4034 12.3079 63.2098 14.3327 63.4245C15.2535 63.5239 15.5413 63.3145 15.5779 62.4192C15.6825 60.0212 15.7662 57.6284 15.8604 55.2304L15.8656 55.2252ZM15.8709 147.292H15.7976C15.8186 146.962 15.8447 146.637 15.8656 146.307C15.8866 145.983 15.9127 145.653 15.9127 145.328C15.9127 144.15 15.7139 143.972 14.5734 144.349C12.1457 145.145 10.6128 146.831 10.0791 149.318C9.44083 152.297 11.2825 155.14 14.0763 155.659C15.2797 155.879 15.536 155.685 15.5831 154.486C15.6773 152.088 15.7715 149.695 15.8656 147.297L15.8709 147.292ZM15.5883 195.844C15.6982 195.844 15.8081 195.844 15.918 195.844C15.918 194.205 15.9023 192.571 15.9284 190.932C15.9389 190.273 15.7035 190.063 15.0547 190.184C11.8266 190.786 9.40421 194.372 10.0791 197.587C10.5134 199.66 12.2033 201.367 14.0972 201.65C15.3163 201.833 15.5622 201.65 15.5831 200.43C15.6093 198.901 15.5883 197.372 15.5883 195.844ZM15.8656 212.86C13.2235 213.169 11.4394 214.514 10.4611 216.85C9.535 219.049 9.83322 221.138 11.4499 222.944C12.2399 223.829 13.2601 224.326 14.4635 224.426C15.1803 224.483 15.5831 224.305 15.604 223.463C15.6459 221.551 15.8029 219.64 15.8552 217.729C15.897 216.153 15.8656 214.577 15.8656 212.86ZM15.5727 5.56865C14.1339 5.5896 12.9776 6.20743 11.9992 7.08704C9.70243 9.16043 8.6822 12.8412 11.3453 15.6686C12.1981 16.5743 13.2654 17.077 14.5472 17.0875C15.0756 17.0875 15.3372 16.9304 15.3686 16.3544C15.4889 14.124 15.7191 11.8935 15.6302 9.65783C15.5779 8.30699 15.8656 6.94568 15.5727 5.56865ZM15.7139 33.1876H15.6459C15.6459 32.6378 15.6407 32.0933 15.6459 31.5488C15.6564 30.9467 15.6982 30.3446 15.693 29.7477C15.6878 28.4911 15.6407 28.4858 14.3745 28.8419C13.4537 29.0984 12.648 29.5592 11.9731 30.1875C9.74428 32.2399 8.71359 35.8369 11.2615 38.6538C12.0987 39.5805 13.1503 40.1094 14.4216 40.1617C14.9814 40.1827 15.3477 40.0936 15.3791 39.392C15.4576 37.3239 15.5988 35.2558 15.7139 33.1876ZM15.5256 75.4721C12.6428 75.6606 10.2413 77.9381 9.80183 81.1529C9.48269 83.4515 10.9372 86.4464 13.9769 86.9333C15.0809 87.1113 15.4523 87.0746 15.3738 85.8338C15.3424 85.3468 15.4889 84.8494 15.4994 84.3782C15.5517 81.4409 15.5256 78.4984 15.5256 75.4773V75.4721ZM15.6616 97.8866C14.2228 97.8552 13.1293 98.4573 12.1667 99.2532C9.88554 101.133 8.5514 104.96 11.3191 107.934C12.1667 108.845 13.2287 109.353 14.5053 109.39C15.1384 109.411 15.3581 109.159 15.3843 108.536C15.4523 106.63 15.604 104.73 15.6564 102.824C15.7035 101.196 15.6668 99.5673 15.6668 97.8866H15.6616ZM15.6616 120.961C14.2228 120.924 13.1293 121.532 12.1667 122.322C9.88554 124.202 8.5514 128.024 11.3139 131.003C12.1614 131.914 13.2235 132.422 14.5001 132.464C15.1332 132.485 15.3581 132.239 15.3791 131.616C15.4471 129.71 15.5988 127.809 15.6511 125.903C15.6982 124.275 15.6616 122.642 15.6616 120.966V120.961ZM15.7035 167.115C12.1562 167.308 9.88031 170.35 9.78091 173.23C9.70243 175.513 11.1307 177.874 13.6054 178.513C15.0181 178.874 15.3058 178.649 15.3686 177.199C15.3791 176.927 15.3843 176.654 15.4209 176.382C15.8133 173.34 15.5622 170.288 15.7087 167.12L15.7035 167.115ZM210.844 285.999C208.694 285.983 206.789 287.806 206.763 289.9C206.742 291.905 208.741 293.821 210.855 293.821C212.984 293.821 214.716 292.12 214.752 289.984C214.789 287.779 213.052 286.01 210.844 285.994V285.999ZM163.396 186.901C163.401 189.058 165.159 190.781 167.288 190.728C169.339 190.676 171.034 188.948 171.04 186.896C171.045 184.911 169.083 182.984 167.1 183.026C165.075 183.073 163.39 184.833 163.396 186.896V186.901ZM140.862 216.86C140.883 214.86 139.25 213.247 137.205 213.242C135.133 213.242 133.506 214.876 133.464 217.002C133.422 219.08 134.965 220.782 136.922 220.813C139.114 220.85 140.836 219.122 140.862 216.855V216.86ZM45.2325 174.241C45.2429 172.256 43.7048 170.586 41.8317 170.555C39.8384 170.523 37.7142 172.487 37.777 174.298C37.845 176.188 39.7599 178.115 41.5963 178.136C43.5007 178.157 45.222 176.314 45.2377 174.241H45.2325ZM340.695 174.162C340.664 172.193 339.053 170.523 337.221 170.56C335.249 170.596 333.261 172.418 333.235 174.209C333.208 176.11 335.254 178.167 337.127 178.136C339.042 178.099 340.727 176.225 340.69 174.162H340.695ZM363.193 213.63V224.358C365.788 223.845 367.514 222.023 368.011 219.321C368.582 216.206 366.86 214.059 364.14 213.766C363.868 213.734 363.596 213.687 363.198 213.63H363.193ZM363.203 145.061C363.203 147.444 363.187 149.742 363.214 152.041C363.219 152.753 363.292 153.465 363.412 154.166C363.564 155.072 363.721 155.146 364.616 154.915C367.09 154.271 368.78 151.407 368.262 148.904C367.797 146.648 365.746 144.972 363.203 145.061ZM363.203 11.6736C363.266 12.9669 363.078 14.5062 363.371 16.0298C363.585 17.1555 363.805 17.3021 364.904 16.8885C366.745 16.1974 367.744 14.8256 368.226 12.9355C368.901 10.2809 366.918 7.3436 363.967 7.12369C363.36 7.07657 363.187 7.26506 363.198 7.82529C363.219 9.02953 363.203 10.2338 363.203 11.6736ZM363.203 172.398C363.261 173.816 363.062 175.466 363.402 177.089C363.58 177.948 363.8 178.115 364.626 177.848C366.552 177.225 367.645 175.879 368.194 173.921C368.911 171.371 367.106 168.387 364.255 168.026C363.496 167.931 363.13 167.999 363.182 168.89C363.25 169.979 363.198 171.078 363.198 172.398H363.203ZM363.203 126.328C363.271 127.663 363.057 129.312 363.402 130.94C363.58 131.794 363.8 131.967 364.626 131.7C366.552 131.076 367.645 129.731 368.2 127.778C368.916 125.228 367.111 122.244 364.265 121.882C363.512 121.788 363.135 121.851 363.193 122.741C363.261 123.83 363.208 124.93 363.208 126.328H363.203ZM368.367 103.52C368.351 101.253 366.714 99.2584 364.532 98.8343C363.297 98.5935 363.224 98.651 363.208 99.8762C363.198 100.478 363.193 101.08 363.208 101.683C363.271 103.651 363.046 105.625 363.365 107.589C363.564 108.819 363.794 108.939 364.987 108.494C366.96 107.751 368.388 105.657 368.367 103.52ZM363.203 80.7445C363.261 82.1582 363.104 83.8023 363.381 85.4411C363.501 86.1427 363.763 86.3992 364.454 86.2683C366.557 85.8756 368.44 83.3572 368.367 81.0116C368.289 78.5612 366.51 76.6658 364.114 76.3674C363.308 76.2679 363.172 76.5507 363.198 77.2365C363.235 78.3308 363.208 79.4251 363.208 80.7445H363.203ZM363.203 195.472C363.261 196.891 363.062 198.54 363.402 200.163C363.58 201.022 363.8 201.189 364.626 200.922C366.552 200.299 367.645 198.954 368.194 196.995C368.911 194.446 367.106 191.461 364.255 191.1C363.496 191.006 363.13 191.074 363.182 191.964C363.25 193.053 363.198 194.152 363.198 195.472H363.203ZM363.172 53.6387C363.303 56.6127 363.015 59.4557 363.344 62.2883C363.512 63.7334 363.779 63.8486 365.149 63.2726C367.263 62.3825 368.702 59.8589 368.325 57.6965C367.886 55.1676 366.144 53.7434 363.172 53.6439V53.6387ZM363.203 34.4233C363.266 35.7165 363.078 37.2558 363.371 38.7795C363.585 39.8999 363.805 40.0465 364.904 39.6329C366.745 38.9418 367.776 37.5752 368.215 35.6746C368.869 32.8525 366.824 30.0618 363.962 29.8681C363.355 29.8262 363.187 30.0147 363.193 30.5749C363.214 31.7792 363.198 32.9834 363.198 34.4233H363.203ZM54.289 164.968C54.3151 163.141 52.7037 161.57 50.7993 161.57C49.1303 161.57 47.5659 163.146 47.5345 164.853C47.5031 166.764 48.9995 168.345 50.8777 168.387C52.7926 168.434 54.2576 166.963 54.289 164.968ZM349.762 164.916C349.773 162.968 348.418 161.732 346.22 161.685C344.462 161.648 343.008 163.104 343.003 164.905C342.997 166.811 344.509 168.361 346.398 168.387C348.297 168.413 349.752 166.91 349.762 164.916ZM337.2 164.272C338.974 164.256 340.413 162.889 340.402 161.235C340.392 159.428 338.723 157.868 336.845 157.9C335.369 157.926 333.941 159.496 333.925 161.104C333.91 162.847 335.401 164.287 337.2 164.272ZM41.5283 158.392C39.8959 158.329 38.5147 159.633 38.4153 161.324C38.3106 163.094 39.7494 164.654 41.523 164.685C43.26 164.717 44.7825 163.266 44.8767 161.491C44.9604 159.832 43.4902 158.47 41.5335 158.397L41.5283 158.392ZM31.3993 174.193C31.3836 172.691 29.5105 170.858 27.9985 171.062C26.2615 171.298 24.8698 172.539 24.9169 174.288C24.9587 176.042 26.6016 177.686 28.281 177.618C29.882 177.55 31.4149 175.864 31.3993 174.193ZM326.862 174.157C326.831 172.696 325.052 171.026 323.54 171.036C321.934 171.047 320.38 172.623 320.38 174.241C320.38 176.01 322.044 177.681 323.739 177.618C325.35 177.555 326.899 175.843 326.862 174.162V174.157ZM327.317 167.921C328.835 167.921 330.404 166.303 330.446 164.696C330.483 163.193 328.965 161.69 327.385 161.659C325.711 161.627 324.079 163.073 324.042 164.622C324.006 166.204 325.706 167.916 327.317 167.921ZM34.9831 164.685C35.0093 163.156 33.5077 161.675 31.9172 161.654C30.2273 161.638 28.6106 163.073 28.5792 164.628C28.5478 166.214 30.2482 167.921 31.8597 167.921C33.3769 167.921 34.9517 166.287 34.9779 164.685H34.9831ZM41.2981 189.995C42.763 190.021 44.3326 188.309 44.3221 186.686C44.3169 185.032 42.9514 183.607 41.3818 183.618C39.786 183.628 38.1589 185.121 38.0961 186.629C38.0333 188.189 39.718 189.964 41.2981 189.995ZM57.8571 174C57.8885 172.309 56.7898 171.047 55.2569 171.005C53.478 170.958 51.6782 172.439 51.6887 173.942C51.6991 175.539 53.2373 177.194 54.7808 177.262C56.2666 177.324 57.831 175.67 57.8624 174H57.8571ZM350.516 171.021C348.826 171.021 347.131 172.513 347.157 173.968C347.188 175.576 348.716 177.204 350.254 177.262C351.735 177.319 353.294 175.665 353.325 174.01C353.357 172.387 352.075 171.026 350.516 171.026V171.021ZM327.464 180.445C325.769 180.335 324.33 181.56 324.231 183.194C324.131 184.854 325.617 186.587 327.234 186.697C328.704 186.796 330.331 185.22 330.373 183.518C330.409 182.178 329.572 180.555 327.464 180.445ZM339.785 186.566C339.748 184.948 338.472 183.759 336.766 183.754C335.17 183.749 333.486 185.225 333.58 186.697C333.695 188.54 335.055 189.917 336.855 189.979C338.357 190.032 339.822 188.236 339.785 186.571V186.566ZM31.6765 180.44C30.1384 180.408 28.7728 181.785 28.7624 183.382C28.7571 184.995 30.2692 186.639 31.8178 186.702C33.288 186.765 34.9046 185.084 34.9517 183.45C34.9988 181.88 33.4711 180.476 31.6713 180.44H31.6765ZM348.93 182.953C348.904 181.278 347.889 180.23 346.314 180.257C344.483 180.288 342.992 181.649 343.065 183.23C343.139 184.901 344.53 186.231 346.163 186.189C347.717 186.152 348.957 184.697 348.93 182.953ZM50.8359 180.251C49.1303 180.251 47.5973 181.592 47.5816 183.089C47.5659 184.717 48.9628 186.163 50.5743 186.183C52.1596 186.199 53.4728 184.78 53.4675 183.063C53.4623 181.613 52.1909 180.251 50.8359 180.251Z" fill="#1F1814"/>
</g>
<defs>
<filter id="filter0_d_75_87" x="0" y="0" width="379" height="322" filterUnits="userSpaceOnUse" color-interpolation-filters="sRGB">
<feFlood flood-opacity="0" result="BackgroundImageFix"/>
<feColorMatrix in="SourceAlpha" type="matrix" values="0 0 0 0 0 0 0 0 0 0 0 0 0 0 0 0 0 0 127 0" result="hardAlpha"/>
<feOffset dy="4"/>
<feGaussianBlur stdDeviation="2"/>
<feComposite in2="hardAlpha" operator="out"/>
<feColorMatrix type="matrix" values="0 0 0 0 0 0 0 0 0 0 0 0 0 0 0 0 0 0 0.25 0"/>
<feBlend mode="normal" in2="BackgroundImageFix" result="effect1_dropShadow_75_87"/>
<feBlend mode="normal" in="SourceGraphic" in2="effect1_dropShadow_75_87" result="shape"/>
</filter>
</defs>
</svg>
