<svg width="379" height="322" viewBox="0 0 379 322" fill="none" xmlns="http://www.w3.org/2000/svg">
<g filter="url(#filter0_d_81_13)">
<path d="M374.986 55.5057V58.787C374.517 59.2108 374.786 59.7941 374.677 60.2954C373.821 64.274 371.531 67.0813 367.884 68.8176C367.305 69.0956 366.704 69.328 366.017 69.6197C366.727 69.7883 367.324 69.8932 367.902 70.0663C371.371 71.1008 374.408 74.8333 374.772 78.4655C374.795 78.6888 374.659 78.9895 374.986 79.1217V82.1842C374.54 82.6126 374.777 83.196 374.649 83.7018C373.789 87.0378 371.918 89.6081 368.995 91.4219C368.639 91.6452 368.212 91.7819 367.947 92.1511C368.53 92.4746 369.113 92.7754 369.668 93.1172C372.163 94.6394 373.939 96.7266 374.618 99.6205C375.096 101.649 375.023 103.708 374.631 105.741C373.853 109.797 371.471 112.604 367.761 114.327C367.21 114.582 366.65 114.81 365.935 115.12C367.497 115.33 368.826 115.676 369.987 116.469C372.678 118.306 374.317 120.821 374.763 124.075C374.781 124.221 374.786 124.362 374.977 124.38V127.662C374.531 128.085 374.777 128.673 374.64 129.175C373.493 133.395 370.925 136.325 366.841 137.907C366.577 138.011 366.267 138.025 366.081 138.285C366.135 138.335 366.181 138.408 366.245 138.426C366.49 138.49 366.736 138.54 366.982 138.586C368.699 138.905 370.256 139.584 371.499 140.819C373.361 142.664 374.486 144.897 374.777 147.527C374.804 147.759 374.7 148.047 374.973 148.215V150.621C374.572 151.159 374.813 151.811 374.654 152.399C373.589 156.327 371.248 159.166 367.538 160.857C367.31 160.962 367.046 160.994 366.909 161.24C367.119 161.472 367.415 161.509 367.688 161.6C371.203 162.762 373.411 165.196 374.486 168.696C374.954 170.218 374.809 171.799 374.795 173.358C374.768 176.612 373.375 179.241 371.034 181.415C369.723 182.632 368.221 183.557 366.481 184.177C366.859 184.605 367.337 184.564 367.733 184.706C371.28 185.968 373.657 188.333 374.54 192.034C375.027 194.071 374.968 196.172 374.595 198.213C373.894 202.028 371.576 204.653 368.211 206.439C367.788 206.663 367.287 206.781 366.973 207.178C367.041 207.264 367.06 207.296 367.087 207.314C367.146 207.351 367.21 207.392 367.278 207.415C371.795 208.75 374.199 211.844 374.777 216.452C374.795 216.584 374.868 216.63 374.977 216.657V220.157C374.777 220.157 374.781 220.307 374.763 220.449C374.399 223.201 373.101 225.475 371.125 227.357C369.168 229.221 366.837 230.32 364.1 230.488C363.058 230.552 363.048 230.584 363.149 231.632C363.631 236.623 363.572 241.59 362.548 246.526C360.121 258.22 354.853 268.36 346.079 276.563C333.727 288.116 319.003 292.413 302.389 290.713C295.701 290.03 289.395 287.947 283.49 284.72C274.379 279.744 266.762 273.14 261.348 264.167C261.221 263.957 261.134 263.688 260.811 263.679C260.611 263.903 260.552 264.19 260.451 264.459C259.477 267.084 258.485 269.704 257.223 272.211C251.177 284.192 242.485 293.808 231.271 301.127C220.768 307.981 209.271 312.101 196.773 313.377C195.585 313.5 194.374 313.459 193.204 313.773C192.612 313.773 192.011 313.668 191.456 313.969H186.429C185.996 313.969 185.55 314.047 185.141 313.956C183.984 313.687 182.809 313.691 181.644 313.582C175.475 312.976 169.424 311.8 163.546 309.804C148.553 304.718 136.205 295.931 126.635 283.285C122.437 277.734 119.2 271.65 116.755 265.138C116.573 264.655 116.381 264.176 116.126 263.529C115.735 264.181 115.453 264.641 115.175 265.106C110.362 273.054 103.956 279.384 95.8975 284.009C89.3366 287.778 82.2385 289.87 74.7215 290.604C69.2124 291.142 63.7534 290.823 58.3535 289.578C51.9065 288.093 45.9831 285.39 40.4512 281.813C31.714 276.162 25.0485 268.674 20.6184 259.231C17.8502 253.33 15.9607 247.154 15.2322 240.665C14.9317 237.994 14.6813 235.305 14.909 232.603C15.003 231.509 14.5174 230.871 13.452 230.689C10.5745 230.197 8.32078 228.738 6.69992 226.309C5.57533 224.628 4.8332 222.782 4.42798 220.8C4.35058 220.417 4.35058 220.002 4 219.729V217.541C4.34147 216.183 4.63286 214.807 5.21565 213.521C5.82119 212.182 6.62252 210.974 7.63328 209.908C8.61217 208.878 9.88701 208.249 11.1391 207.451C8.38908 205.596 6.27649 203.4 5.28394 200.305C4.31871 197.293 4.32781 194.276 5.39321 191.3C6.49048 188.242 8.80795 186.282 11.6991 184.783C7.10969 182.14 4.57823 178.344 4.4644 173.185C4.35513 167.985 6.77732 164.166 11.4441 161.718C7.10058 159.121 4.62376 155.511 4.46896 150.466C4.3096 145.422 6.41764 141.653 10.8796 139.16C6.42674 136.193 4.14114 132.169 4.44164 126.919C4.74669 121.555 7.57409 117.927 12.6461 116.013C7.6606 113.853 4.88328 110.125 4.48717 104.839C4.09106 99.5841 6.16722 95.4506 10.9251 92.739C6.75456 90.041 4.50993 86.3633 4.4644 81.4277C4.41887 76.3828 6.68626 72.7369 11.1527 70.3352C10.8659 70.1392 10.6883 70.0208 10.5108 69.8977C10.3332 69.7747 10.1556 69.6425 9.97807 69.5149C6.19454 66.7759 4.25041 63.1119 4.43253 58.395C4.62831 53.2726 6.9048 49.4809 11.9404 47.5669C12.2272 47.4575 12.6097 47.4757 12.7827 47.0838C9.67302 45.7667 7.10058 43.8253 5.6846 40.6671C4.28229 37.5362 4.02276 34.2686 4.95157 30.96C5.89404 27.6013 8.25704 25.4138 11.2347 23.846C11.0708 23.5179 10.8613 23.4496 10.6747 23.3356C9.51822 22.6338 8.46648 21.7861 7.56499 20.779C4.85596 17.7484 4.02276 14.1982 4.63742 10.2242C5.49793 4.66886 9.24504 1.41949 14.8407 1.13694C18.0369 0.977435 21.2422 1.00478 24.4475 0.98655C30.5257 0.950091 36.6039 0.98655 42.6822 0.86806C50.7592 0.713111 58.8407 0.804257 66.9177 0.690324C73.0324 0.603736 79.1516 0.649309 85.2662 0.631079C87.6338 0.626522 89.9968 0.599178 92.3643 0.599178C100.154 0.599178 107.94 0.599178 115.73 0.462459C118.785 0.412328 121.845 0.421443 124.905 0.412328C134.662 0.380427 144.419 0.330297 154.171 0.325739C221.346 0.316625 288.516 0.325739 355.691 0.325739C356.055 0.325739 356.419 0.325739 356.784 0.339411C358.637 0.416886 360.49 0.590064 362.311 0.061415C362.375 0.0431858 362.452 -0.011502 362.502 0.00216993C363.608 0.37587 364.742 0.166233 365.858 0.152561C367.565 0.134332 369.099 0.626522 370.447 1.62913C372.892 3.45661 374.344 5.89934 374.777 8.93451C374.8 9.09857 374.736 9.31276 374.991 9.3629V12.6442C374.545 13.0224 374.781 13.5739 374.654 14.0387C373.324 18.7236 370.442 21.8363 365.671 23.0804C365.302 23.1761 364.888 23.1488 364.592 23.5361C365.252 24.1286 366.085 24.2425 366.877 24.4795C370.534 25.5596 373.147 27.7744 374.381 31.4522C375.127 33.6898 375.05 36.0004 374.627 38.2745C373.994 41.6925 371.945 44.1762 369.108 46.0721C368.794 46.2817 368.407 46.4093 368.225 46.7602C368.293 46.8423 368.312 46.8787 368.339 46.8969C368.626 47.0519 368.917 47.1977 369.204 47.3572C372.309 49.13 374.426 51.6092 374.8 55.3097C374.813 55.4419 374.891 55.4829 375 55.5057H374.986ZM270.914 100.591C271.342 100.928 271.451 101.366 271.602 101.772C274.72 110.116 277.826 118.465 280.94 126.809C281.668 128.76 282.738 129.507 284.81 129.553C286.23 129.585 287.646 129.599 289.067 129.608C293.798 129.64 298.533 129.671 303.263 129.681C305.266 129.681 306.364 128.714 306.678 126.746C306.742 126.354 306.774 125.948 306.778 125.552C306.801 123.729 306.815 121.91 306.819 120.087C306.833 114.186 306.928 108.289 306.988 102.391C307.069 93.8327 307.079 85.2741 307.215 76.7155C307.265 73.4387 307.211 70.1575 307.27 66.8808C307.315 64.4061 307.22 61.927 307.356 59.4523C307.415 58.3267 307.397 57.1919 307.356 56.0663C307.306 54.8084 306.933 54.4666 305.694 54.3983C305.622 54.3983 305.549 54.3983 305.476 54.3937C301.437 54.3481 297.399 54.3026 293.36 54.2479C292.737 54.2388 292.122 54.3071 291.521 54.453C290.66 54.6626 290.137 55.2232 289.996 56.1073C289.941 56.4673 289.882 56.8364 289.909 57.1919C290.023 58.7915 290.009 60.3957 289.996 61.9953C289.946 68.1112 289.864 74.2317 289.823 80.3476C289.782 86.2494 289.773 92.1511 289.745 98.0528C289.736 99.6889 289.704 101.33 289.668 102.966C289.663 103.262 289.727 103.608 289.367 103.822C288.807 103.207 288.666 102.432 288.389 101.731C283.093 88.3776 277.807 75.0201 272.512 61.6672C271.802 59.8762 271.069 58.0943 270.322 56.3169C269.881 55.2687 269.093 54.7993 267.918 54.8084C266.061 54.8221 264.217 55.0363 262.359 55.0682C262.186 55.0682 261.968 54.9998 261.895 55.2323C261.804 55.5285 262.081 55.5832 262.25 55.6834C262.655 55.9295 263.083 56.1301 263.479 56.3898C264.745 57.2329 265.583 58.3996 265.924 59.8807C266.079 60.5507 266.156 61.2434 266.156 61.9406C266.165 63.4719 266.129 65.0032 266.247 66.5253C266.407 68.6262 266.197 70.6588 265.555 72.664C265.136 73.9719 264.299 74.733 262.969 75.0247C261.494 75.3528 260.078 75.1341 258.676 74.6783C257.779 74.3867 256.918 73.9947 255.98 73.817C254.596 73.5572 254.209 73.8535 254.136 75.289C254.077 76.4876 254.004 77.6862 253.977 78.8893C253.936 80.8535 253.918 82.8223 253.922 84.791C253.922 85.9076 254.328 86.3086 255.411 86.3861C255.703 86.4089 255.994 86.3997 256.285 86.3952C257.779 86.3815 259.268 86.3359 260.761 86.3587C263.538 86.3997 266.252 88.8106 266.006 91.8867C265.838 93.9922 265.883 96.1114 265.974 98.2214C266.074 100.436 266.275 102.651 266.361 104.871C266.534 109.423 266.307 113.971 266.216 118.52C266.17 120.648 265.355 122.485 263.871 124.011C262.496 125.429 260.961 126.65 259.186 127.548C258.621 127.835 258.148 128.227 257.811 128.76C257.528 129.202 257.665 129.517 258.17 129.662C258.375 129.722 258.603 129.763 258.812 129.735C261.385 129.412 263.966 129.594 266.543 129.562C267.536 129.553 268.487 129.362 269.425 129.038C270.363 128.719 270.878 128.086 270.969 127.128C271.06 126.153 271.201 125.178 271.178 124.189C271.069 119.313 270.983 114.436 270.878 109.555C270.819 106.862 270.732 104.169 270.673 101.48C270.668 101.202 270.659 100.906 270.914 100.591ZM196.782 70.3853C199.15 70.3853 201.372 70.3899 203.594 70.3853C204.987 70.3853 205.488 70.0527 205.251 68.567C205.11 67.6692 205.046 66.7577 205.019 65.8508C204.937 63.2304 204.914 60.6099 204.819 57.9894C204.746 55.9067 203.89 54.8996 201.855 54.3709C201.609 54.3071 201.363 54.2479 201.112 54.1978C195.813 53.0994 190.454 52.7212 185.049 52.8716C181.512 52.9673 178.024 53.4549 174.609 54.4211C171.641 55.2596 168.868 56.4855 166.455 58.4452C164.884 59.7212 164.051 61.33 164.151 63.3853C164.197 64.2922 164.247 65.2037 164.251 66.1106C164.261 67.8196 164.329 69.5377 164.165 71.2421C164.015 72.7734 163.2 73.7988 161.734 74.2818C161.251 74.4414 160.746 74.5051 160.236 74.569C158.287 74.8196 157.595 75.444 157.112 77.3671C156.384 80.2656 156.238 83.196 156.725 86.1445C157.741 92.2969 160.991 96.6309 167.001 98.6908C169.15 99.4246 171.363 99.9441 173.631 99.7891C176.708 99.5795 179.654 99.9942 182.468 101.229C184.307 102.036 186.092 102.947 187.444 104.501C188.979 106.27 188.86 108.12 187.126 109.679C186.22 110.49 185.172 111.078 184.048 111.506C179.313 113.324 174.423 113.607 169.446 112.905C168.404 112.759 167.37 112.518 166.328 112.39C165.085 112.24 164.479 112.7 164.233 113.917C164.156 114.304 164.16 114.714 164.151 115.111C164.088 117.877 164.019 120.643 163.969 123.41C163.946 124.576 163.942 125.743 163.969 126.91C163.996 127.976 164.274 128.345 165.303 128.628C166.177 128.869 167.07 129.052 167.967 129.207C170.589 129.653 173.239 129.831 175.889 130.027C178.762 130.241 181.63 130.082 184.471 129.539C190.326 128.414 195.289 125.611 199.637 121.61C202.237 119.217 204.395 116.492 205.843 113.251C207.71 109.081 208.133 104.72 207.5 100.222C207.022 96.8406 205.743 93.8099 203.343 91.3854C199.414 87.4115 194.638 84.987 189.102 84.1621C186.151 83.7246 183.183 83.4329 180.223 83.0775C178.835 82.9134 177.665 82.3392 177.086 81.0221C176.267 79.1536 176.276 77.2714 177.405 75.4895C177.801 74.8652 178.352 74.3867 178.912 73.9173C181.471 71.7662 184.508 70.9049 187.754 70.6041C190.804 70.3215 193.864 70.5221 196.769 70.3945L196.782 70.3853ZM72.3585 113.096H72.4314C72.4314 113.862 72.4314 114.628 72.4314 115.389C72.4314 119.103 72.395 122.817 72.6408 126.527C72.7501 128.213 73.4512 129.024 75.0903 129.412C76.6884 129.79 78.3184 129.972 79.9529 130.036C83.527 130.177 87.0738 129.877 90.5932 129.216C99.1619 127.607 106.497 123.71 112.397 117.276C120.83 108.079 123.261 97.2507 120.529 85.2376C118.804 77.6497 114.56 71.4472 108.914 66.2291C100.246 58.2128 89.8329 54.6626 78.1363 54.6079C76.825 54.6034 75.5183 54.7173 74.2435 55.0636C73.0506 55.3872 72.3267 56.1574 72.0899 57.4061C71.9078 58.3905 72.0535 59.3658 72.0626 60.3456C72.1036 66.7213 72.1354 73.0924 72.1764 79.4681C72.1855 80.9993 72.2037 82.526 72.2128 84.0573C72.2128 84.4264 72.2629 84.7773 72.3494 85.1374C72.5179 85.8119 72.9231 86.222 73.6015 86.3496C73.9202 86.4089 74.248 86.4681 74.5713 86.4727C77.6992 86.5 80.8316 86.5365 83.9641 86.5182C85.3391 86.5091 85.7898 86.0306 85.8262 84.6588C85.8627 83.3463 85.8262 82.0338 85.8354 80.7259C85.8445 79.4134 85.8718 78.1054 85.8809 76.7929C85.8854 75.9453 86.318 75.444 87.1011 75.1933C91.9955 73.6347 96.6806 73.9628 100.924 77.0208C105.222 80.1198 107.162 84.554 107.316 89.7175C107.521 96.7038 104.821 102.492 99.4852 106.985C96.0295 109.897 92.0229 111.442 87.438 111.283C85.9811 111.233 85.8945 111.16 85.9355 109.738C85.9811 108.175 86.0402 106.607 86.0402 105.044C86.0402 103.262 85.9583 101.475 85.9446 99.6934C85.9264 97.6745 85.6988 97.433 83.6909 97.4786C83.4724 97.4831 83.2493 97.4922 83.0398 97.5378C82.325 97.6928 81.5965 97.7156 80.868 97.7247C78.6872 97.7611 76.5063 97.6426 74.33 97.9206C72.8002 98.1166 72.3676 98.5359 72.3631 100.09C72.3494 104.424 72.3631 108.762 72.3631 113.096H72.3585ZM146.24 72.4817C150.028 72.4817 153.811 72.4863 157.6 72.4771C158.178 72.4771 158.761 72.4179 159.339 72.3541C160.441 72.2356 161.124 71.6204 161.406 70.5494C161.574 69.9114 161.638 69.2597 161.643 68.6034C161.652 65.2857 161.643 61.9725 161.643 58.6548C161.643 58.4361 161.629 58.2173 161.602 58.0031C161.374 56.1984 160.04 54.9725 158.223 54.9087C157.458 54.8814 156.693 54.8677 155.933 54.8631C146.431 54.8039 136.934 54.7446 127.431 54.6854C126.157 54.6763 124.882 54.6489 123.611 54.6444C122.482 54.6398 121.353 54.5988 120.238 54.7993C119.031 55.0135 118.626 55.4465 118.457 56.6496C118.298 57.7798 118.448 58.9055 118.457 60.0311C118.476 63.8228 118.48 67.6099 118.498 71.4016C118.498 71.9804 118.535 72.5683 118.603 73.1425C118.794 74.7877 119.345 76.3144 120.101 77.7864C122.287 82.0612 123.343 86.6458 123.739 91.4037C123.948 93.9512 124.008 96.4942 123.648 99.0281C122.892 104.31 120.994 109.164 117.875 113.484C116.768 115.02 115.899 116.514 116.195 118.465C116.204 118.533 116.172 118.611 116.172 118.679C116.135 121.227 116.067 123.779 116.076 126.326C116.076 127.643 116.809 128.477 118.089 128.851C118.726 129.038 119.386 129.033 120.037 129.02C126.507 128.892 132.972 129.12 139.447 128.856C145.297 128.614 151.171 128.806 157.03 128.801C157.467 128.801 157.905 128.792 158.342 128.765C160.659 128.605 161.442 127.785 161.429 125.456C161.41 122.325 161.36 119.19 161.319 116.059C161.315 115.548 161.31 115.038 161.242 114.532C161.042 113.087 160.431 112.49 158.979 112.335C158.15 112.249 157.313 112.194 156.475 112.19C151.052 112.153 145.625 112.135 140.203 112.103C138.381 112.094 136.565 112.08 134.744 112.044C133.583 112.021 133.505 111.912 133.464 110.8C133.355 107.997 133.382 105.194 133.464 102.391C133.501 101.111 133.578 101.02 134.807 100.951C137.712 100.792 140.617 100.637 143.522 100.464C144.136 100.427 144.76 100.372 145.357 100.227C147.374 99.7344 147.861 99.1101 147.883 97.032C147.915 93.974 147.938 90.9115 147.956 87.8535C147.965 86.6458 147.792 85.4564 147.496 84.2897C147.187 83.0638 146.782 82.7493 145.516 82.6673C145.261 82.6491 145.006 82.6627 144.751 82.6673C141.696 82.6946 138.636 82.7311 135.581 82.7493C134.316 82.7585 134.156 82.5898 134.015 81.3411C133.774 79.2037 133.719 77.0573 133.573 74.9153C133.532 74.3365 133.496 73.7532 133.469 73.1744C133.45 72.7324 133.664 72.4954 134.115 72.4863C134.37 72.4863 134.625 72.4817 134.88 72.4817C138.668 72.4817 142.452 72.4817 146.24 72.4817ZM263.743 104.702C263.743 101.644 263.798 98.5814 263.72 95.528C263.68 93.933 263.657 92.3243 263.352 90.7429C263.088 89.3711 262.2 88.5827 260.811 88.4597C260.52 88.4323 260.228 88.4369 259.937 88.446C256.299 88.5417 252.666 88.6374 249.028 88.7422C246.701 88.8106 244.375 88.888 242.048 88.9792C241.224 89.0111 240.45 89.1751 240.004 89.9864C239.403 91.0755 238.916 92.2012 238.838 93.4727C238.761 94.7442 238.693 96.0111 238.756 97.2872C238.838 98.9597 238.829 100.637 238.916 102.309C238.984 103.645 239.453 104.191 240.728 104.579C241.743 104.884 242.79 104.998 243.851 104.989C245.6 104.971 247.343 104.943 249.092 104.962C249.97 104.971 250.157 105.135 250.18 105.969C250.216 107.318 250.23 108.667 250.166 110.011C250.112 111.201 249.802 111.438 248.614 111.506C247.084 111.593 245.554 111.57 244.033 111.456C242.695 111.356 241.347 111.214 240.031 110.95C236.503 110.239 234.326 107.942 233.001 104.716C231.795 101.785 231.545 98.7227 231.759 95.601C231.895 93.6049 232.132 91.6133 232.073 89.6081C232.023 87.9994 232.223 86.4089 232.551 84.8366C233.803 78.7298 237.331 74.6464 243.346 72.8736C247.735 71.5794 252.215 71.3697 256.745 72.0305C258.371 72.2675 259.932 72.7688 261.544 73.0377C262.96 73.2701 263.561 72.7916 263.775 71.3606C263.798 71.2148 263.807 71.0689 263.821 70.9277C264.162 67.6555 263.953 64.3742 264.012 61.1021C264.035 59.8579 263.429 58.8736 262.396 58.1626C261.64 57.6431 260.802 57.2876 259.914 57.0689C258.926 56.8228 257.925 56.6405 256.937 56.3944C251.619 55.0728 246.273 55.0773 240.928 56.1847C233.589 57.7023 228.071 61.731 224.433 68.3072C223.877 69.3144 223.513 70.3717 223.481 71.5201C223.395 74.4687 223.263 77.4173 223.272 80.3613C223.29 86.14 223.112 91.9232 223.454 97.7064C223.581 99.8484 223.481 102.004 223.472 104.155C223.454 109.145 223.436 114.136 223.395 119.126C223.381 121.09 224.046 122.753 225.416 124.148C226.5 125.251 227.72 126.153 229.131 126.787C233.275 128.641 237.636 129.562 242.148 129.599C246.132 129.63 250.043 128.974 253.872 127.871C256.499 127.115 258.84 125.821 260.838 123.934C263.16 121.742 264.394 119.08 264.203 115.845C263.98 112.135 263.998 108.421 263.748 104.711L263.743 104.702ZM221.068 91.9232C221.068 88.2455 221.054 84.5677 221.068 80.89C221.086 76.8476 221.132 72.8053 221.177 68.7584C221.2 66.7577 221.255 64.7525 221.282 62.7518C221.314 60.7147 221.35 58.673 221.35 56.6359C221.35 54.813 220.827 54.2479 219.047 54.216C215.737 54.1613 212.427 54.1021 209.121 54.3755C207.573 54.5031 207.018 55.3462 207.027 56.7362C207.027 57.2831 207.068 57.8254 207.081 58.3723C207.141 60.4458 207.168 62.5194 207.355 64.5884C207.505 66.2838 207.728 67.9836 207.473 69.7063C207.195 71.5794 206.74 72.0943 204.905 72.3587C204.149 72.468 203.393 72.5865 202.656 72.7688C201.782 72.9876 201.609 73.261 201.627 74.1725C201.631 74.5371 201.682 74.8971 201.695 75.2617C201.8 78.5019 201.682 81.7422 201.549 84.9824C201.49 86.4408 201.909 87.6348 203.166 88.4597C205.893 90.2461 207.632 92.7845 208.743 95.8015C210.155 99.6342 210.542 103.572 210.068 107.623C209.604 111.588 208.261 115.175 205.779 118.319C205.078 119.203 204.372 120.087 203.689 120.985C203.057 121.815 202.665 122.758 202.638 123.806C202.606 124.895 202.601 125.994 202.674 127.083C202.77 128.482 203.266 128.992 204.636 129.316C205.105 129.43 205.574 129.434 206.048 129.434C210.05 129.407 214.057 129.384 218.059 129.343C220.025 129.325 220.517 128.824 220.567 126.896C220.567 126.787 220.567 126.677 220.567 126.568C220.617 123.218 220.695 119.869 220.708 116.519C220.736 108.325 220.827 100.126 221.082 91.9323L221.068 91.9232ZM244.338 239.211C244.338 231.391 240.974 225.102 235.401 221.319C234.313 220.581 233.243 220.458 232.013 220.982C226.668 223.27 221.309 225.512 215.955 227.772C215.263 228.064 215.258 228.109 215.477 228.82C215.941 230.352 216.442 231.883 216.593 233.483C216.993 237.716 216.775 241.914 215.709 246.052C215.432 247.136 215.436 247.15 216.492 247.56C220.221 249 223.95 250.427 227.679 251.871C229.846 252.71 232.009 253.571 234.176 254.41C235.765 255.025 236.626 254.824 237.8 253.589C238.051 253.325 238.297 253.056 238.533 252.778C242.189 248.558 244.234 243.7 244.338 239.211ZM233.48 264.322C233.489 263.169 233.256 262.048 233.234 260.927C233.197 259.209 232.369 258.133 230.789 257.568C230.411 257.431 230.042 257.276 229.669 257.14C225.034 255.444 220.394 253.763 215.764 252.049C213.874 251.347 214.038 251.502 213.109 252.965C210.414 257.199 206.872 260.521 202.465 262.909C201.096 263.65 200.791 264.726 201.549 266.136C202.952 268.724 204.363 271.308 205.756 273.901C207.154 276.494 208.547 279.088 209.922 281.69C210.587 282.952 211.63 283.64 213.014 283.513C216.283 283.216 219.516 282.665 222.484 281.175C229.409 277.693 233.206 272.147 233.48 264.322ZM134.898 238.992C134.935 241.932 135.75 245.254 137.439 248.353C138.586 250.459 140.111 252.245 141.946 253.781C142.966 254.628 144.054 254.87 145.284 254.287C145.675 254.1 146.08 253.931 146.472 253.74C147.615 253.184 148.758 252.623 149.9 252.067C153.329 250.399 156.762 248.731 160.19 247.054C161.155 246.58 161.319 246.284 161.101 245.236C160.782 243.7 160.641 242.141 160.527 240.578C160.258 236.846 160.5 233.159 161.583 229.554C162.089 227.882 162.089 227.877 160.441 227.376C156.825 226.273 153.215 225.17 149.6 224.076C147.551 223.456 145.516 222.768 143.435 222.249C142.42 221.994 141.564 222.253 140.845 222.987C140.539 223.297 140.239 223.616 139.966 223.958C136.601 228.182 134.948 233.013 134.898 238.992ZM214.794 193.852C213.67 193.829 212.773 193.902 211.871 194.066C210.068 194.394 208.843 195.402 208.147 197.079C206.143 201.914 203.981 206.676 201.823 211.443C201.34 212.51 201.386 212.601 202.456 213.23C204.022 214.155 205.57 215.103 206.954 216.297C209.235 218.261 211.124 220.549 212.663 223.137C213.273 224.163 213.292 224.149 214.357 223.703C219.279 221.647 224.205 219.592 229.127 217.536C230.033 217.158 230.948 216.812 231.836 216.397C233.657 215.549 234.436 214.21 234.29 212.209C234.249 211.63 234.158 211.051 234.058 210.482C233.288 206.12 231.372 202.361 228.116 199.33C224.305 195.775 219.72 194.103 214.785 193.857L214.794 193.852ZM164.561 282.647C165.007 282.61 165.836 282.533 166.669 282.487C169.078 282.364 170.116 281.594 170.967 279.334C172.743 274.608 174.537 269.882 176.33 265.16C176.79 263.953 176.722 263.752 175.556 263.251C173.262 262.271 171.199 260.936 169.355 259.25C167.347 257.418 165.736 255.28 164.352 252.951C163.792 252.008 163.65 251.949 162.699 252.309C157.294 254.337 151.895 256.369 146.499 258.42C145.056 258.967 144.715 259.587 144.865 261.095C145.097 263.42 145.561 265.698 146.267 267.918C147.442 271.614 149.281 274.931 152.063 277.666C155.414 280.965 159.539 282.446 164.566 282.638L164.561 282.647ZM189.907 293.179C190.918 293.12 192.184 293.015 193.436 292.755C197.912 291.825 201.554 289.492 204.582 286.124C205.583 285.008 205.779 283.759 205.219 282.378C205.096 282.073 204.973 281.772 204.841 281.471C203.23 277.889 201.618 274.307 199.992 270.729C199.601 269.868 199.232 269.002 199.013 268.073C198.804 267.175 198.39 266.373 197.802 265.653C197.543 265.334 197.251 265.197 196.851 265.297C196.605 265.361 196.355 265.411 196.109 265.475C191.528 266.642 186.921 266.879 182.281 265.839C181.362 265.634 181.33 265.653 180.984 266.514C178.73 272.074 176.481 277.638 174.232 283.203C173.722 284.456 173.995 285.554 174.901 286.516C175.629 287.286 176.44 287.961 177.268 288.612C180.902 291.461 185.018 293.015 189.903 293.183L189.907 293.179ZM188.041 183.84C184.071 183.894 180.46 184.696 177.218 186.807C175.579 187.873 174.227 189.226 173.23 190.922C172.756 191.724 172.647 192.544 173.016 193.424C174.887 197.881 176.431 202.465 178.165 206.973C178.543 207.957 178.994 208.909 179.449 209.862C179.791 210.582 179.964 210.65 180.733 210.564C180.947 210.541 181.161 210.482 181.375 210.432C183.939 209.867 186.516 209.475 189.156 209.634C191.269 209.762 193.331 210.19 195.398 210.591C196.222 210.751 196.505 210.609 196.65 209.826C196.823 208.878 197.233 208.034 197.652 207.187C199.828 202.789 201.996 198.387 204.19 194.003C204.768 192.85 204.632 191.847 203.826 190.872C202.61 189.4 201.217 188.142 199.592 187.139C196.004 184.92 192.066 183.949 188.045 183.84H188.041ZM162.353 193.875C161.811 193.766 161.415 193.734 161.014 193.775C155.842 194.294 151.553 196.5 148.284 200.565C145.197 204.402 143.485 208.668 144.255 213.717C144.596 215.964 145.689 217.45 147.893 218.129C152.887 219.674 157.809 221.451 162.758 223.133C164.493 223.721 164.238 223.693 165.139 222.258C167.571 218.384 170.694 215.262 174.855 213.257C175.711 212.842 175.725 212.674 175.192 211.844C174.978 211.507 174.751 211.179 174.559 210.828C171.987 206.18 169.36 201.563 166.878 196.869C165.84 194.905 164.566 193.624 162.353 193.879V193.875ZM354.266 236.591C354.266 232.995 352.272 230.119 348.898 228.916C346.289 227.982 343.689 228.046 341.149 229.171C337.465 230.798 333.791 232.453 330.112 234.093C329.711 234.271 329.324 234.462 328.992 234.759C328.159 235.506 328.063 236.363 328.719 237.274C329.069 237.757 329.543 238.085 330.071 238.35C330.945 238.787 331.819 239.238 332.694 239.685C335.926 241.33 339.15 242.998 342.624 244.115C343.844 244.507 345.082 244.716 346.371 244.675C350.009 244.566 354.439 241.098 354.266 236.595V236.591ZM301.519 199.763C301.56 200.232 301.565 200.711 301.651 201.176C301.897 202.502 302.293 203.787 302.73 205.059C304.105 209.055 306 212.829 307.616 216.721C307.775 217.104 308.026 217.409 308.335 217.669C308.982 218.206 309.769 218.188 310.42 217.641C310.876 217.254 311.163 216.748 311.386 216.206C313.193 211.758 315.024 207.324 316.786 202.862C317.824 200.237 317.578 197.644 316.226 195.183C314.532 192.098 311.19 190.539 307.962 191.282C304.319 192.116 301.524 195.807 301.524 199.768L301.519 199.763ZM344.181 210.29C344.163 210.131 344.135 209.73 344.062 209.342C343.156 204.644 338.868 201.837 334.219 202.962C331.719 203.564 329.625 204.822 328.459 207.228C326.26 211.771 324.111 216.342 321.94 220.9C321.766 221.264 321.63 221.643 321.589 222.044C321.466 223.197 322.34 224.026 323.483 223.803C323.979 223.707 324.462 223.525 324.935 223.347C329.589 221.602 334.237 219.838 338.895 218.097C341.977 216.944 344.158 213.845 344.181 210.295V210.29ZM61.5816 199.417C61.7136 202.069 62.2372 203.814 62.7972 205.546C63.9992 209.251 65.6611 212.779 67.0315 216.42C67.1454 216.721 67.3366 216.999 67.5369 217.258C68.4156 218.407 69.5949 218.494 70.6238 217.486C71.152 216.971 71.5435 216.356 71.8031 215.668C73.5423 211.074 75.195 206.453 76.5382 201.727C77.4624 198.464 76.5837 195.602 74.3118 193.164C72.9732 191.728 71.2385 191.027 69.3035 191.163C65.3788 191.446 61.404 194.563 61.5862 199.412L61.5816 199.417ZM103.237 209.693C103.424 206.964 101.693 203.596 98.1102 202.702C94.7273 201.855 90.6433 203.582 88.8767 206.613C86.1313 211.325 83.4268 216.064 80.7087 220.795C80.5084 221.141 80.3171 221.488 80.2306 221.889C79.9438 223.242 80.95 224.309 82.2977 224.031C82.7575 223.935 83.2037 223.757 83.6408 223.584C88.1301 221.811 92.5374 219.815 97.1404 218.334C100.819 217.149 103.478 212.592 103.241 209.698L103.237 209.693ZM282.47 270.734C285.994 270.533 288.926 269.034 290.656 265.52C291.944 262.905 292.928 260.179 293.697 257.372C294.089 255.936 294.467 254.492 294.713 253.024C294.968 251.511 293.984 250.55 292.473 250.819C292.117 250.882 291.771 251.005 291.425 251.115C288.835 251.949 286.244 252.774 283.663 253.63C282.083 254.155 280.475 254.615 278.978 255.371C276.674 256.533 275.212 258.402 274.388 260.799C273.965 262.025 273.896 263.287 274.201 264.559C275.18 268.67 278.276 270.625 282.479 270.729L282.47 270.734ZM114.159 236.445C114.159 235.898 114.123 235.36 114.005 234.818C113.053 230.47 108.031 227.107 103.128 228.766C100.2 229.755 97.3225 230.871 94.4451 231.983C92.4463 232.753 90.4384 233.505 88.3941 234.148C87.6429 234.385 87.092 234.79 87.01 235.643C86.9235 236.536 87.306 237.119 88.3577 237.488C92.2323 238.856 95.9794 240.537 99.7493 242.16C100.787 242.606 101.848 242.98 102.95 243.231C104.689 243.623 106.429 243.96 108.236 243.577C111.696 242.839 114.155 239.913 114.159 236.449V236.445ZM32.4516 243.832C34.3957 243.85 34.5824 243.823 36.2579 243.089C39.4814 241.672 42.7004 240.236 45.9284 238.819C46.6068 238.523 47.1987 238.117 47.7087 237.584C48.9471 236.299 48.7923 235.046 47.2124 234.234C43.2331 232.197 39.2447 230.183 35.238 228.201C33.6126 227.399 31.8688 227.289 30.125 227.736C24.0377 229.285 21.9388 236.91 26.3187 241.499C27.9942 243.253 30.1068 243.846 32.4516 243.832ZM282.743 202.042C279.023 202.124 275.763 204.699 275.882 209.511C275.986 213.79 278.122 216.889 282.219 218.439C285.884 219.829 289.568 221.178 293.247 222.536C293.757 222.723 294.285 222.896 294.817 222.978C295.874 223.142 296.561 222.509 296.593 221.438C296.607 220.945 296.452 220.503 296.265 220.07C294.699 216.388 293.128 212.71 291.557 209.033C291.057 207.857 290.428 206.745 289.609 205.76C287.783 203.559 285.507 202.201 282.738 202.046L282.743 202.042ZM42.969 202.142C39.0489 202.119 35.9938 204.699 35.5476 208.549C35.2198 211.366 36.2033 213.772 38.2658 215.718C39.3038 216.698 40.4922 217.491 41.8125 218.029C45.4731 219.519 49.1474 220.968 52.8217 222.436C53.2997 222.627 53.796 222.741 54.3105 222.704C55.3759 222.627 55.9587 221.962 55.8995 220.895C55.8631 220.312 55.6946 219.751 55.5034 219.204C54.397 216.051 53.2679 212.911 52.1933 209.748C51.5332 207.811 50.4769 206.139 49.0336 204.717C47.3626 203.067 45.3548 202.156 42.9736 202.151L42.969 202.142ZM68.3564 281.444C72.1582 281.444 75.4591 279.074 76.6201 275.487C77.1665 273.801 77.2621 272.156 76.2741 270.556C75.7778 269.754 75.4045 268.879 74.9765 268.036C73.4376 265.028 71.8941 262.02 70.3598 259.008C69.9773 258.256 69.4674 257.623 68.5613 257.627C67.6553 257.632 67.1454 258.27 66.7538 259.013L66.7083 259.113C64.6959 263.064 62.6834 267.015 60.671 270.966C60.3159 271.659 60.1565 272.393 60.1565 273.172C60.1565 278.172 64.2588 281.562 68.3564 281.439V281.444ZM42.6093 270.711C46.5158 270.62 48.51 268.888 49.6073 265.867C50.8229 262.517 52.075 259.181 53.3043 255.836C53.5547 255.153 53.8279 254.473 54.0145 253.776C54.2832 252.765 53.8825 251.967 53.0083 251.639C52.5895 251.484 52.1751 251.493 51.7289 251.589C48.4599 252.291 45.1817 252.951 41.9127 253.644C40.2509 253.995 38.7529 254.724 37.4189 255.781C34.546 258.056 33.4669 261.61 34.6234 264.964C35.7844 268.337 39.0625 270.693 42.6093 270.707V270.711ZM335.717 270.506C340.192 270.556 343.398 267.184 343.211 263.123C343.02 258.912 340.939 255.977 337.01 254.464C333.249 253.02 329.443 251.68 325.659 250.29C325.277 250.149 324.89 250.057 324.489 250.053C323.269 250.044 322.527 250.891 322.682 252.108C322.736 252.55 322.928 252.942 323.114 253.339C323.583 254.323 324.057 255.307 324.53 256.287C326.083 259.496 327.581 262.731 329.206 265.899C330.663 268.742 333.099 270.21 335.717 270.511V270.506ZM272.458 228.392C270.942 228.356 269.421 228.779 268 229.591C264.331 231.678 262.96 236.746 265.783 240.218C267.723 242.602 270.687 244.607 275.071 243.039C279.528 241.449 283.795 239.434 288.115 237.543C288.316 237.456 288.502 237.343 288.68 237.215C289.773 236.431 289.777 235.324 288.671 234.531C288.348 234.298 287.983 234.125 287.615 233.966C283.881 232.357 280.143 230.748 276.405 229.158C275.189 228.638 273.906 228.392 272.453 228.392H272.458ZM95.9612 270.078C96.5121 270.019 97.022 270.005 97.5183 269.909C102.868 268.911 105.094 262.226 101.903 258.151C100.546 256.419 98.8432 255.166 96.8172 254.341C95.1371 253.658 93.4479 252.992 91.7588 252.332C89.7646 251.552 87.7749 250.773 85.7671 250.026C85.0204 249.748 84.26 249.743 83.6317 250.349C82.967 250.987 82.9761 251.762 83.2219 252.573C83.2948 252.815 83.4041 253.047 83.4997 253.284C83.8047 254.022 84.1098 254.761 84.4148 255.499C85.8217 258.885 87.1466 262.312 88.7993 265.589C90.2791 268.524 92.7696 269.905 95.9566 270.087L95.9612 270.078ZM316.226 272.908C316.344 271.053 315.752 269.412 315.019 267.822C313.589 264.714 311.827 261.779 310.188 258.78C310.084 258.589 309.952 258.411 309.806 258.252C308.964 257.299 308.057 257.285 307.197 258.211C306.846 258.589 306.591 259.026 306.382 259.496C305.617 261.186 304.875 262.886 304.092 264.563C303.136 266.61 302.307 268.701 301.679 270.871C301.005 273.2 301.255 275.423 302.457 277.506C303.882 279.976 305.995 281.494 308.904 281.503C311.691 281.512 313.73 280.067 315.096 277.693C315.952 276.207 316.226 274.558 316.226 272.908ZM30.8216 96.0111C28.6499 95.2956 27.2293 93.8418 26.7922 91.6543C26.2687 89.0339 27.3249 87.1107 29.5787 86.4225C33.9541 85.0872 38.2976 87.8262 38.9715 92.1009C39.6499 96.4167 38.2749 100.063 35.0514 103.007C33.6217 104.315 32.0054 105.367 30.4164 106.456C26.4872 109.145 24.7206 112.951 24.8208 117.645C24.8436 118.697 24.9483 119.791 25.6176 120.935C25.6267 119.591 25.7769 118.479 25.959 117.371C26.601 113.498 28.6635 110.44 31.4864 107.824C33.1482 106.283 34.974 104.966 36.9044 103.79C38.5298 102.802 39.8047 101.489 40.606 99.7436C42.3817 95.8607 42.2587 91.9688 40.565 88.1179C39.6317 85.9987 37.9789 84.6452 35.707 84.0801C33.9541 83.6426 32.1784 83.5696 30.3982 83.7793C28.1354 84.0482 26.2504 85.069 24.8117 86.8509C23.678 88.2546 23.2045 89.8679 23.505 91.6498C23.8419 93.6595 24.8071 95.3321 26.3916 96.64C27.6027 97.6381 29.0323 98.0801 30.5257 98.4857C32.1192 98.9232 33.3759 98.5085 34.5642 97.5196C36.7086 95.7331 36.8361 92.6706 35.7434 90.7611C34.8601 89.2162 33.1937 88.9883 31.8779 90.1914C31.4408 90.5879 31.1085 91.0619 30.899 91.6179C30.3572 93.0534 30.1296 94.489 30.8262 96.002L30.8216 96.0111ZM352.636 121.154C353.624 118.419 353.769 115.685 352.791 112.96C351.716 109.961 349.731 107.705 347.049 106.037C345.87 105.303 344.759 104.497 343.703 103.594C340.889 101.188 339.141 98.267 339.059 94.4571C339.004 92.0235 339.405 89.8132 341.417 88.1771C343.302 86.6458 345.46 86.0488 347.846 86.3724C350.036 86.6686 351.994 88.5599 351.602 91.1439C351.397 92.4974 350.878 93.737 350.009 94.8034C349.376 95.5827 348.547 96.0385 347.541 96.1387C347.505 96.0248 347.482 95.9929 347.486 95.961C347.495 95.8881 347.505 95.8152 347.536 95.7514C348.288 94.0378 347.841 92.4746 346.935 90.9799C346.389 90.0729 345.597 89.5534 344.5 89.6309C343.384 89.7084 342.719 90.3783 342.323 91.3581C341.845 92.543 341.75 93.7689 342.077 94.9994C342.341 95.9929 342.769 96.9226 343.584 97.6062C344.213 98.1348 344.955 98.2351 345.747 98.1075C345.925 98.0801 346.143 98.1029 346.143 98.349C346.148 98.8549 346.476 98.823 346.817 98.7865C349.007 98.5313 351.006 97.7976 352.567 96.1889C354.603 94.097 355.409 91.6361 354.416 88.7878C353.451 86.0169 350.523 84.0299 347.386 83.9069C346.289 83.8659 345.21 84.112 344.122 84.112C341.176 84.1165 339.136 85.5703 337.848 88.0905C335.904 91.8959 335.954 95.8015 337.597 99.6934C338.239 101.22 339.109 102.651 340.607 103.476C343.056 104.82 345.196 106.561 347.227 108.443C350.55 111.524 352.449 115.298 352.526 119.901C352.536 120.32 352.599 120.735 352.64 121.154H352.636ZM25.012 130.35C24.8299 130.35 24.6478 130.337 24.4657 130.35C23.0224 130.483 22.385 131.171 22.3622 132.615C22.3485 133.39 22.5124 134.147 22.822 134.844C24.7297 139.11 27.8394 142.09 32.2786 143.649C33.1892 143.968 33.986 143.84 34.7554 143.302C38.3978 140.741 40.861 137.323 42.1176 133.048C42.3452 132.278 42.4454 131.476 42.3316 130.674C42.1722 129.517 41.3117 128.897 40.1553 129.079C39.2811 129.216 38.4934 129.585 37.7513 130.063C36.3626 130.957 35.1652 132.064 34.1089 133.331C33.3076 134.293 33.1163 134.311 32.1557 133.527C30.9081 132.506 29.5559 131.663 28.0671 131.048C27.0882 130.647 26.082 130.337 25.0075 130.35H25.012ZM25.0029 61.1659C24.88 61.1705 24.6614 61.175 24.4429 61.1932C23.0133 61.3117 22.3667 62.0181 22.3667 63.4628C22.3667 64.2375 22.5261 64.9895 22.8403 65.6913C24.7388 69.9205 27.8212 72.8828 32.2148 74.4459C33.1528 74.7786 33.9769 74.6692 34.7918 74.1041C38.3978 71.6021 40.7426 68.1842 42.1404 64.0689C42.4545 63.1438 42.4181 62.1958 42.1631 61.2707C41.8626 60.1724 41.1341 59.7212 40.0187 59.9263C39.2219 60.0721 38.5025 60.4139 37.8196 60.8469C36.4537 61.7128 35.2972 62.8111 34.2318 64.0188C33.5671 64.7692 32.8477 64.8497 32.0737 64.2603C31.1722 63.5767 30.2434 62.9387 29.2372 62.4192C27.935 61.7538 26.601 61.1841 25.0075 61.1659H25.0029ZM346.257 134.643C345.988 134.179 345.856 133.759 345.488 133.477C343.853 132.237 342.123 131.18 340.147 130.592C339.195 130.309 338.221 130.237 337.238 130.46C336.441 130.638 335.99 131.116 335.803 131.914C335.557 132.966 335.785 133.964 336.199 134.894C338.071 139.082 341.139 142.022 345.469 143.612C346.439 143.968 347.304 143.89 348.146 143.289C351.734 140.723 354.229 137.373 355.44 133.117C355.677 132.283 355.868 131.421 355.636 130.533C355.358 129.453 354.648 128.942 353.555 129.084C352.863 129.175 352.212 129.393 351.607 129.749C350.473 130.419 349.435 131.212 348.538 132.178C347.796 132.975 347.058 133.778 346.257 134.648V134.643ZM344.928 65.6731C344.814 65.0168 344.723 64.5338 344.267 64.2193C342.71 63.1438 341.13 62.1138 339.309 61.5214C338.43 61.2343 337.547 61.1112 336.627 61.1932C335.189 61.3208 334.547 62.0181 334.579 63.4719C334.597 64.3515 334.752 65.2128 335.143 66.0103C337.074 69.9706 340.024 72.8235 344.19 74.3821C345.283 74.7923 346.225 74.692 347.159 74.0039C350.437 71.5748 352.804 68.4849 354.111 64.5975C354.443 63.6132 354.548 62.6106 354.466 61.5852C354.366 60.3592 353.633 59.7577 352.408 59.9081C351.68 59.9947 350.997 60.2453 350.368 60.6236C349.207 61.3208 348.151 62.1412 347.231 63.1392C346.498 63.9322 345.779 64.7388 344.932 65.6731H344.928ZM30.3982 24.0329C28.4404 23.4313 27.284 22.2054 26.5373 20.5283C25.3444 17.8441 26.4872 15.1142 29.2691 14.1936C32.3241 13.1819 35.1561 13.6468 37.6693 15.7021C39.099 16.8688 39.8912 18.359 39.8411 20.2549C39.7364 24.1651 38.4388 27.5739 35.6615 30.3812C33.8312 32.2315 31.7641 33.7719 29.5195 35.0707C27.9988 35.9503 26.9425 37.1762 26.4007 38.8442C26.2641 39.2589 26.1002 39.6645 25.9636 40.0746C25.1304 42.5948 24.6797 45.156 25.2124 47.8038C25.3489 48.4966 25.4127 49.2303 25.9864 49.9184C25.9226 48.5649 26.0137 47.3436 26.082 46.1268C26.214 43.8618 26.8013 41.7563 28.3129 39.988C28.6908 39.546 29.0095 39.0538 29.3647 38.5935C30.685 36.8845 32.1466 35.335 33.8995 34.0544C35.962 32.546 37.7831 30.764 39.4769 28.85C40.0824 28.1664 40.6333 27.4326 40.8837 26.5349C41.4483 24.5205 41.767 22.4834 41.3846 20.3916C40.9384 17.9625 39.9686 15.7933 38.1155 14.1207C33.8812 10.2971 26.8423 11.8603 24.1515 16.805C22.7765 19.3252 23.1954 22.6611 25.0075 24.68C27.4934 27.4554 31.4909 27.5056 34.464 24.8669C35.7115 23.7595 36.0894 22.4196 35.8982 20.8428C35.8117 20.1273 35.4975 19.5303 34.9375 19.0654C33.9131 18.2223 32.4334 18.0355 31.3634 18.6325C30.2616 19.2432 29.565 20.6787 29.7153 21.9684C29.7972 22.6566 30.1478 23.2536 30.3937 24.0283L30.3982 24.0329ZM353 49.604C353.692 48.3826 353.92 47.0291 353.965 45.6619C354.07 42.6131 353.278 39.7556 351.976 37.0258C351.543 36.1234 350.86 35.4262 349.968 34.9294C347.86 33.7536 345.975 32.2634 344.149 30.7048C343.043 29.7569 342.082 28.6631 341.29 27.4235C339.965 25.3545 339.423 23.0121 338.963 20.665C338.681 19.2432 338.908 17.8213 339.869 16.6318C342.414 13.4827 346.052 12.4482 349.845 13.7425C351.616 14.3486 352.636 15.6474 352.854 17.5342C353.073 19.4391 351.452 22.3285 349.717 23.1898C349.33 23.3812 348.948 23.4131 348.556 23.3037C348.014 23.1533 347.914 22.8799 348.16 22.3376C348.342 21.9411 348.579 21.5628 348.707 21.1527C349.025 20.1409 348.925 19.1839 348.078 18.4593C347.327 17.8122 345.92 17.4248 344.704 18.0947C343.562 18.7236 342.92 19.6396 342.993 21.0114C343.084 22.7523 343.949 24.0101 345.301 25.0218C348.461 27.3825 352.768 26.4802 354.685 23.0394C356.547 19.6989 355.377 15.415 352.03 13.3004C350.651 12.43 349.112 12.0289 347.527 11.7555C346.594 11.596 345.665 11.4501 344.714 11.6735C342.118 12.2841 340.192 13.7744 338.895 16.0804C337.602 18.3773 337.178 20.8656 337.452 23.4587C337.666 25.5322 338.426 27.3597 339.951 28.891C341.472 30.4131 343.029 31.8806 344.677 33.2615C346.744 34.9932 348.716 36.8253 350.314 39.0173C351.711 40.9405 352.622 43.0369 352.813 45.434C352.923 46.8149 352.8 48.2003 352.995 49.5994L353 49.604ZM302.685 12.0563C301 12.1292 298.687 11.76 296.356 11.9059C295.56 11.956 295.514 11.9423 295.669 12.7034C296.215 15.3922 297.736 17.4111 300.076 18.7829C303.882 21.0159 308.463 19.4346 310.471 15.9254C310.985 15.0276 311.304 14.066 311.363 13.0361C311.404 12.316 311.158 12.0608 310.516 12.0608C308.117 12.0608 305.722 12.0608 302.68 12.0608L302.685 12.0563ZM48.4827 12.0426C48.0638 12.0426 47.8452 12.038 47.6267 12.0426C46.8573 12.0654 46.8436 12.0699 47.012 12.8492C47.7087 16.0849 49.63 18.3499 52.6669 19.5531C57.0241 21.2803 62.2782 17.958 62.7608 13.2685C62.8473 12.4436 62.647 12.2294 61.6772 12.2203C57.2107 12.1839 52.7397 12.3115 48.4781 12.0426H48.4827ZM171.013 12.2887C171.131 13.4827 171.477 14.5628 172.073 15.5335C173.717 18.2178 176.035 19.9814 179.258 19.9678C183.319 19.9495 186.188 17.124 186.825 13.4007C186.98 12.5029 186.798 12.2659 185.901 12.2294C185.172 12.2021 184.444 12.2294 183.715 12.2203C180.187 12.193 176.654 12.2978 173.13 12.0563C172.451 12.0107 171.75 11.9606 171.013 12.2887ZM255.484 12.0472C254.933 12.0472 254.601 12.0699 254.278 12.0426C253.749 11.9925 253.654 12.2613 253.736 12.7034C253.872 13.4599 254.091 14.1891 254.396 14.8909C255.703 17.8987 258.917 20.1182 261.922 19.9906C266.029 19.8174 268.715 17.1103 269.407 13.5693C269.621 12.4801 269.435 12.234 268.351 12.2249C263.989 12.1839 259.623 12.3297 255.484 12.0472ZM89.8602 12.0472C88.3304 12.0472 87.7598 12.6761 88.1483 13.9339C89.1818 17.2789 92.1959 19.8037 95.6607 19.9632C99.6946 20.1501 103.005 17.1058 103.469 13.6103C103.633 12.3753 103.574 12.234 102.404 12.2203C98.1148 12.1793 93.8258 12.3388 89.8602 12.0426V12.0472ZM152.924 12.0517C152.45 12.0517 152.154 12.0335 151.867 12.0517C151.002 12.1201 150.911 12.2294 151.093 13.0406C151.467 14.7132 152.204 16.2034 153.429 17.4111C155.637 19.5895 158.26 20.5146 161.301 19.6351C164.297 18.7646 166.036 16.6592 166.692 13.6331C166.942 12.4755 166.756 12.234 165.617 12.2203C161.324 12.1793 157.03 12.3251 152.924 12.0472V12.0517ZM236.125 12.2203C235.469 12.2203 234.814 12.2021 234.163 12.2203C233.407 12.2431 233.361 12.316 233.507 13.0725C234.336 17.402 238.187 20.3779 242.576 20.0817C245.704 19.8675 248.901 16.7184 249.146 13.6058C249.228 12.5712 249.146 12.4528 248.122 12.4436C245.941 12.4209 243.756 12.3844 241.575 12.4163C239.754 12.4391 237.941 12.2613 236.125 12.2249V12.2203ZM130.054 12.1429C130.336 14.3805 131.283 16.249 132.904 17.762C135.905 20.5648 140.212 20.7334 143.198 18.1494C144.783 16.7776 145.643 15.0276 145.698 12.8994C145.712 12.389 145.566 12.1383 145.024 12.2158C144.883 12.234 144.733 12.2158 144.587 12.2158C140.553 12.2067 136.524 12.234 132.49 12.1429C131.707 12.1246 130.91 11.8968 130.049 12.1429H130.054ZM76.1375 19.9268C78.6917 19.9404 80.6723 18.7874 82.2112 16.8232C83.0808 15.7112 83.5998 14.4534 83.5816 12.9951C83.5771 12.4254 83.3449 12.1975 82.8031 12.2158C82.5481 12.2249 82.2931 12.2158 82.0382 12.2158C77.64 12.1611 73.2418 12.1018 68.8436 12.0517C68.6615 12.0517 68.4794 12.0699 68.3018 12.1018C67.9694 12.1611 67.8329 12.316 67.8829 12.708C68.4247 16.6774 72.099 19.904 76.1329 19.9222L76.1375 19.9268ZM274.297 12.3297C274.625 15.8297 277.156 18.751 280.58 19.6852C285.352 20.9886 289.586 17.4704 289.868 13.1819C289.932 12.2294 289.946 12.2203 288.967 12.2203C284.346 12.2203 279.724 12.2203 275.103 12.2203C274.853 12.2203 274.593 12.1702 274.302 12.3297H274.297ZM109.128 12.2203C109.21 12.6259 109.251 12.913 109.324 13.191C110.412 17.4749 114.178 20.4508 118.48 19.8857C121.799 19.4482 124.759 16.3629 124.864 13.1227C124.895 12.2294 124.895 12.2203 124.003 12.2203C119.304 12.2203 114.61 12.2203 109.912 12.2203H109.128ZM191.733 12.3024C191.647 12.5576 191.688 12.8082 191.742 13.0543C192.439 16.2171 194.342 18.359 197.347 19.4801C200.156 20.5283 202.72 19.9723 204.928 17.9808C206.448 16.609 207.309 14.8909 207.204 12.7763C207.186 12.3798 207.068 12.1565 206.635 12.1884C206.453 12.2021 206.271 12.1884 206.089 12.1884C201.622 12.1884 197.151 12.1884 192.685 12.1884C192.366 12.1884 192.029 12.1064 191.733 12.2978V12.3024ZM316.093 12.3069C316.33 14.5081 317.305 16.3812 318.989 17.8668C322.263 20.7516 326.943 20.6149 329.78 17.5387C330.982 16.2353 331.601 14.6767 331.701 12.8994C331.733 12.3707 331.551 12.152 331.027 12.2203C330.918 12.234 330.809 12.2203 330.699 12.2203C326.119 12.2203 321.534 12.2203 316.954 12.2203C316.667 12.2203 316.371 12.1702 316.093 12.3069ZM212.663 12.2203C213.178 15.4196 214.739 17.7073 217.499 19.0928C222.293 21.499 227.72 18.5596 228.326 13.2685C228.444 12.2568 228.417 12.2203 227.406 12.2203C222.785 12.2203 218.168 12.2203 213.547 12.2203H212.663ZM74.3254 218.452C74.2799 219.241 74.5713 219.77 75.2041 220.052C75.8507 220.339 76.5336 220.166 77.0526 219.551C77.2393 219.332 77.3896 219.077 77.5398 218.826C78.1545 217.792 78.6826 216.716 79.1652 215.618C81.1731 211.061 83.1855 206.503 85.1843 201.941C85.5622 201.075 86.0038 200.237 86.2542 199.316C86.532 198.314 86.2133 197.416 85.4575 197.056C84.6971 196.691 83.7683 196.988 83.1901 197.835C82.9078 198.25 82.6983 198.724 82.4889 199.189C80.9546 202.643 79.4156 206.098 77.9086 209.561C76.8068 212.095 75.6139 214.588 74.6623 217.186C74.5121 217.596 74.3209 217.992 74.3254 218.443V218.452ZM85.9765 230.985C86.2998 230.93 86.6913 230.885 87.0647 230.721C87.6292 230.47 88.2029 230.247 88.772 230.005C94.6181 227.535 100.464 225.065 106.315 222.595C106.884 222.354 107.457 222.121 107.881 221.643C108.345 221.119 108.459 220.485 108.154 219.934C107.826 219.346 107.312 219.04 106.629 219.086C106.192 219.113 105.777 219.268 105.377 219.437C98.8933 222.171 92.4099 224.906 85.931 227.649C85.5303 227.818 85.1387 228.018 84.8291 228.337C84.3602 228.825 84.169 229.385 84.4421 230.033C84.7108 230.671 85.2389 230.944 85.981 230.985H85.9765ZM87.5382 242.825C86.7186 242.807 86.1495 243.171 85.9355 243.86C85.7215 244.552 85.9355 245.195 86.6321 245.641C87.1466 245.974 87.7021 246.261 88.2758 246.485C94.1946 248.777 100.123 251.056 106.051 253.325C106.488 253.494 106.943 253.635 107.43 253.603C108.191 253.548 108.719 253.147 108.951 252.418C109.16 251.762 108.965 251.156 108.373 250.691C108.027 250.418 107.63 250.235 107.225 250.076C101.297 247.806 95.3693 245.537 89.4413 243.276C88.8312 243.044 88.1984 242.866 87.5382 242.825ZM326.702 198.4C326.688 197.68 326.26 197.06 325.637 196.842C324.981 196.609 324.421 196.787 323.952 197.275C323.62 197.621 323.424 198.059 323.233 198.487C320.637 204.366 318.047 210.249 315.452 216.128C315.228 216.63 315.069 217.154 315.001 217.691C314.905 218.434 315.21 219.027 315.807 219.337C316.426 219.66 317.018 219.564 317.601 219.036C318.065 218.612 318.361 218.065 318.607 217.495C321.206 211.498 323.806 205.505 326.397 199.503C326.556 199.139 326.716 198.765 326.693 198.4H326.702ZM348.652 220.544C348.62 219.715 348.028 219.136 347.172 219.049C346.448 218.977 345.815 219.259 345.178 219.523C340.252 221.588 335.33 223.652 330.408 225.726C329.133 226.264 327.872 226.82 326.693 227.549C325.864 228.059 325.627 228.725 325.955 229.477C326.279 230.219 327.103 230.602 327.959 230.37C328.377 230.256 328.787 230.092 329.188 229.923C334.92 227.531 340.652 225.138 346.38 222.736C346.913 222.513 347.459 222.299 347.914 221.921C348.356 221.556 348.629 221.105 348.652 220.544ZM51.8291 199.243C51.82 199.64 51.9976 200.223 52.2525 200.797C52.7807 201.996 53.2952 203.199 53.8233 204.398C55.6991 208.659 57.5795 212.915 59.4599 217.172C59.7559 217.837 60.0427 218.503 60.5982 219.008C61.4905 219.824 62.729 219.204 62.9885 218.357C63.1342 217.887 63.1342 217.427 62.9612 216.967C62.6698 216.183 62.4148 215.381 62.0824 214.615C59.8651 209.511 57.6342 204.411 55.4032 199.316C55.212 198.883 55.0162 198.446 54.7567 198.059C54.265 197.329 53.5501 197.06 52.89 197.284C52.1751 197.525 51.8337 198.077 51.8246 199.243H51.8291ZM328.819 243.317C327.84 243.299 327.312 243.641 327.062 244.352C326.839 244.976 327.048 245.564 327.681 246.056C328.059 246.352 328.491 246.526 328.937 246.694C334.642 248.841 340.347 250.992 346.057 253.134C346.462 253.284 346.885 253.407 347.313 253.485C348.137 253.635 349.039 253.197 349.348 252.541C349.658 251.876 349.399 251.206 348.57 250.6C348.01 250.19 347.377 249.912 346.726 249.67C345.06 249.055 343.393 248.431 341.722 247.824C337.934 246.457 334.187 244.981 330.363 243.709C329.812 243.527 329.261 243.34 328.824 243.317H328.819ZM303.108 217.678C303.136 217.003 302.89 216.388 302.639 215.786C300.299 210.154 297.945 204.53 295.596 198.902C295.414 198.464 295.186 198.049 294.836 197.717C294.289 197.202 293.729 197.083 293.146 197.352C292.491 197.657 292.122 198.3 292.254 199.052C292.327 199.476 292.473 199.895 292.637 200.296C294.908 205.879 297.185 211.457 299.461 217.035C299.698 217.609 299.98 218.156 300.372 218.644C300.909 219.314 301.501 219.51 302.18 219.25C302.794 219.013 303.104 218.489 303.108 217.678ZM49.3022 230.425C49.9578 230.347 50.4905 230.119 50.7865 229.477C51.0688 228.857 50.8639 228.346 50.4814 227.868C50.1809 227.485 49.7621 227.266 49.325 227.07C43.6246 224.527 37.9243 221.984 32.224 219.446C31.8278 219.268 31.4226 219.104 30.981 219.072C30.2252 219.013 29.6652 219.314 29.3738 219.934C29.0733 220.581 29.2053 221.164 29.7562 221.711C30.125 222.076 30.5894 222.29 31.0493 222.504C32.0054 222.946 32.9706 223.361 33.9313 223.789C38.4706 225.813 43.01 227.836 47.5493 229.864C48.1139 230.115 48.6739 230.365 49.2976 230.425H49.3022ZM271.078 218.817C270.199 218.762 269.73 219.036 269.425 219.724C269.148 220.344 269.261 220.8 269.826 221.392C270.131 221.716 270.504 221.943 270.901 222.126C276.605 224.746 282.31 227.367 288.015 229.987C288.416 230.169 288.83 230.329 289.263 230.347C289.927 230.379 290.474 230.133 290.793 229.509C291.079 228.953 290.975 228.31 290.528 227.79C290.214 227.421 289.8 227.189 289.372 226.988C283.699 224.391 278.021 221.793 272.344 219.2C271.916 219.004 271.474 218.826 271.078 218.813V218.817ZM292.163 274.558C292.136 275.492 292.468 276.016 293.187 276.262C293.82 276.481 294.389 276.267 294.886 275.619C295.2 275.214 295.405 274.749 295.614 274.28C297.854 269.226 299.662 264.003 301.642 258.849C301.852 258.306 301.984 257.732 302.011 257.149C302.052 256.342 301.67 255.795 300.959 255.554C300.295 255.326 299.744 255.517 299.257 256.155C298.942 256.565 298.733 257.03 298.551 257.504C296.529 262.763 294.512 268.022 292.5 273.282C292.331 273.719 292.149 274.161 292.163 274.553V274.558ZM315.743 257.03C315.706 257.358 315.893 257.759 316.066 258.156C316.403 258.921 316.758 259.678 317.109 260.434C319.167 264.887 321.22 269.344 323.287 273.797C323.533 274.321 323.788 274.854 324.125 275.323C324.644 276.048 325.363 276.262 326.014 275.979C326.734 275.665 327.03 274.981 326.816 274.052C326.734 273.701 326.615 273.35 326.465 273.022C324.052 267.731 321.63 262.444 319.203 257.158C318.976 256.661 318.725 256.173 318.329 255.781C317.833 255.289 317.236 255.162 316.635 255.412C316.048 255.663 315.725 256.192 315.738 257.026L315.743 257.03ZM86.7869 274.403C86.6458 273.997 86.5138 273.5 86.3134 273.04C85.9355 272.174 85.5121 271.331 85.1205 270.47C83.1855 266.245 81.2596 262.016 79.32 257.791C79.0332 257.167 78.7873 256.511 78.2182 256.064C77.6491 255.617 77.0845 255.549 76.5017 255.868C75.9235 256.187 75.5957 256.852 75.7414 257.536C75.8325 257.96 75.9781 258.379 76.1603 258.771C78.5551 264.021 80.9637 269.271 83.3676 274.517C83.5953 275.013 83.8685 275.487 84.3283 275.815C84.8474 276.189 85.3801 276.257 85.9583 275.934C86.532 275.615 86.7186 275.091 86.7869 274.398V274.403ZM61.6636 258.188C61.6636 257.481 61.4541 256.912 60.8622 256.57C60.2567 256.214 59.6693 256.397 59.1184 256.738C58.563 257.085 58.3126 257.655 58.0758 258.229C56.1135 263.073 54.1466 267.918 52.1797 272.762C51.9885 273.236 51.82 273.715 51.738 274.22C51.6288 274.899 51.8837 275.465 52.4392 275.802C53.0448 276.166 53.6685 276.103 54.2513 275.633C54.6929 275.273 54.9024 274.767 55.1255 274.271C57.32 269.367 59.3097 264.372 61.3312 259.395C61.4951 258.99 61.6453 258.58 61.6681 258.188H61.6636ZM288.061 243.399C287.651 243.481 287.196 243.6 286.763 243.796C281.7 246.097 276.637 248.389 271.574 250.686C271.174 250.869 270.791 251.074 270.463 251.365C269.853 251.908 269.689 252.569 269.99 253.22C270.272 253.831 270.828 254.118 271.615 254.068C272.062 254.041 272.458 253.867 272.858 253.685C277.958 251.379 283.057 249.078 288.156 246.772C288.552 246.594 288.949 246.393 289.24 246.056C289.672 245.559 289.896 245.031 289.595 244.361C289.304 243.695 288.753 243.5 288.061 243.404V243.399ZM47.8225 243.536C47.4582 243.468 47.0576 243.677 46.666 243.846C41.6168 246.052 36.5721 248.271 31.5273 250.481C31.0903 250.673 30.6759 250.91 30.3345 251.229C29.9156 251.616 29.6697 252.099 29.8564 252.696C30.0567 253.343 30.4711 253.744 31.1631 253.845C31.5365 253.899 31.8779 253.835 32.2285 253.708C33.2529 253.334 34.2182 252.833 35.1971 252.359C39.2128 250.413 43.4243 248.927 47.481 247.072C47.9773 246.845 48.4827 246.649 48.9106 246.298C49.5162 245.801 49.7302 245.19 49.5162 244.584C49.2658 243.864 48.7513 243.527 47.827 243.536H47.8225ZM210.819 192.23C213.374 192.23 215.482 190.12 215.463 187.572C215.445 185.407 213.087 182.987 210.951 183.006C207.951 183.028 206.244 185.654 206.244 187.636C206.244 189.937 208.297 192.325 210.819 192.234V192.23ZM244.885 259.259C244.885 256.925 242.809 254.834 240.505 254.847C238.105 254.861 236.157 256.821 236.134 259.236C236.116 261.638 238.074 263.597 240.5 263.602C242.941 263.602 244.885 261.679 244.88 259.259H244.885ZM167.903 294.131C170.266 294.127 172.114 292.281 172.133 289.907C172.151 287.532 170.22 285.559 167.876 285.554C165.617 285.554 163.573 287.532 163.532 289.761C163.487 292.149 165.472 294.136 167.898 294.131H167.903ZM141.609 259.865C141.609 257.49 139.743 255.777 137.152 255.777C134.985 255.777 133.177 257.623 133.164 259.856C133.15 262.089 135.094 264.076 137.32 264.089C139.324 264.099 141.427 262.654 141.605 259.865H141.609ZM240.578 220.918C242.841 220.909 244.776 218.963 244.739 216.73C244.707 214.688 242.599 212.587 240.559 212.56C238.397 212.533 236.425 214.579 236.453 216.821C236.475 219.05 238.369 220.927 240.578 220.913V220.918ZM16.07 57.4107C16.202 56.0571 16.1428 54.453 16.1337 52.8534C16.1337 52.0148 15.9334 51.8826 15.1503 52.0513C12.0542 52.7121 9.75497 56.1483 10.3423 59.2381C10.743 61.3664 12.7417 63.2714 14.6995 63.3944C15.5327 63.4491 15.7604 63.2668 15.8104 62.4511C15.9015 60.8514 15.9789 59.2564 16.0745 57.4152L16.07 57.4107ZM15.9197 126.313C16.0518 124.946 15.9789 123.382 15.988 121.824C15.988 120.981 15.9744 120.972 15.1184 121.09C14.868 121.126 14.6176 121.186 14.3854 121.272C11.9905 122.156 10.5745 123.916 10.1738 126.386C9.72766 129.134 11.5124 131.996 14.2852 132.369C15.3324 132.511 15.6374 132.315 15.6921 131.289C15.7786 129.694 15.8378 128.099 15.9152 126.308L15.9197 126.313ZM16.0791 149.537C16.1883 148.593 16.1292 147.354 16.1383 146.119C16.1383 145.681 16.1474 145.244 16.12 144.811C16.0927 144.369 15.8651 144.145 15.3961 144.255C15.1867 144.305 14.9681 144.346 14.7633 144.41C12.3046 145.194 10.9069 146.957 10.3696 149.391C9.73676 152.253 11.69 155.161 14.44 155.625C15.4508 155.794 15.7558 155.548 15.8104 154.513C15.8924 152.95 15.9789 151.392 16.0791 149.537ZM15.9106 34.3324C16.0563 32.6417 15.9561 31.001 15.9971 29.3604C16.0062 28.9229 15.8378 28.7634 15.4189 28.8363C15.2413 28.8682 15.0592 28.8819 14.8816 28.9229C11.863 29.5974 9.68668 32.7829 10.1556 35.8409C10.488 38.0056 12.3502 39.9151 14.3671 40.1612C15.3142 40.2752 15.6465 40.02 15.7012 39.072C15.7877 37.4724 15.8469 35.8728 15.9152 34.3324H15.9106ZM15.9607 5.73527C12.7463 5.75806 9.90522 8.95274 10.1283 12.2386C10.2968 14.7405 12.1089 16.8095 14.3717 17.083C15.387 17.206 15.601 17.0602 15.6784 16.0257C15.7831 14.6129 15.8378 13.1956 15.9061 11.7783C16.0017 9.78217 16.0335 7.79062 15.9652 5.73527H15.9607ZM16.07 195.816H16.0518C16.07 195.598 16.1064 195.379 16.1064 195.165C16.12 193.747 16.1474 192.325 16.1246 190.908C16.1109 190.202 15.9152 190.083 15.2413 190.202C15.1002 190.224 14.959 190.266 14.8179 190.311C12.4458 191.063 9.98718 193.62 10.3059 197.024C10.5153 199.253 12.3957 201.317 14.5037 201.568C15.5099 201.686 15.7513 201.486 15.8059 200.501C15.8924 198.938 15.9789 197.379 16.0654 195.816H16.07ZM16.0927 218.147C16.2157 216.99 16.1337 215.422 16.1337 213.859C16.1337 212.87 15.8878 212.706 14.9317 213.002C12.3092 213.813 9.95075 216.443 10.3241 219.852C10.5654 222.044 12.4094 224.022 14.5083 224.295C15.5008 224.427 15.7604 224.213 15.815 223.238C15.9015 221.675 15.988 220.116 16.0973 218.147H16.0927ZM16.029 169.179C16.029 168.814 16.0335 168.45 16.029 168.085C16.0062 167.06 15.8469 166.937 14.8498 167.183C11.9677 167.889 9.75497 171.134 10.1511 174.073C10.447 176.27 12.1999 178.166 14.2442 178.494C15.3506 178.672 15.6283 178.471 15.6921 177.35C15.8423 174.629 15.8287 171.9 16.029 169.179ZM15.9197 81.0176C15.9835 79.4225 16.0244 77.8274 15.9379 76.2324C15.9061 75.6764 15.7012 75.5169 15.2094 75.6126C14.9272 75.6673 14.6358 75.722 14.3671 75.8177C12.3046 76.5651 10.9979 78.0599 10.3742 80.1106C9.44537 83.1686 11.1527 86.181 14.1304 86.8737C15.3369 87.1517 15.6101 86.9694 15.6921 85.6888C15.7922 84.1302 15.8469 82.5716 15.9243 81.013L15.9197 81.0176ZM15.9243 103.399C16.0199 101.799 16.0244 100.204 15.9243 98.6042C15.8833 97.9115 15.856 97.8842 15.1457 98.0118C12.1225 98.5541 9.75042 101.813 10.1602 104.857C10.4652 107.099 12.1681 108.963 14.2215 109.3C15.3506 109.487 15.6101 109.318 15.683 108.188C15.7877 106.593 15.8469 104.994 15.9243 103.399ZM45.7782 160.903C45.9649 159.039 43.8705 157.097 41.767 157.125C39.5679 157.152 37.6101 159.011 37.6147 161.09C37.6238 163.204 39.7546 165.282 41.8899 165.255C43.9661 165.228 45.7691 163.209 45.7782 160.903ZM341.012 160.985C341.108 158.966 339.268 157.275 336.901 157.193C334.929 157.125 332.99 158.898 332.862 160.889C332.726 162.976 334.729 165.109 336.946 165.228C339.104 165.346 340.903 163.473 341.017 160.985H341.012ZM210.997 293.648C213.155 293.653 214.853 291.944 214.844 289.774C214.835 287.619 213.128 285.924 210.956 285.91C208.866 285.896 206.995 287.696 206.972 289.743C206.949 291.802 208.848 293.644 210.997 293.648ZM171.149 186.939C171.186 184.961 169.342 183.028 167.384 182.997C165.417 182.965 163.655 184.715 163.605 186.756C163.55 188.857 165.244 190.621 167.338 190.653C169.351 190.68 171.117 188.962 171.149 186.939ZM141.036 216.812C141.054 214.857 139.442 213.225 137.453 213.175C135.422 213.13 133.674 214.902 133.674 217.012C133.674 219.004 135.29 220.717 137.179 220.74C139.228 220.763 141.013 218.94 141.031 216.812H141.036ZM45.4367 174.023C45.4686 172.187 43.9206 170.578 42.0903 170.532C40.1553 170.487 38.1519 172.319 38.1292 174.165C38.1019 176.074 39.9549 178.02 41.8444 178.061C43.7749 178.102 45.4003 176.279 45.4413 174.023H45.4367ZM340.666 174.183C340.671 172.214 339.177 170.56 337.37 170.532C335.362 170.505 333.354 172.36 333.368 174.237C333.381 176.133 335.284 178.056 337.151 178.066C339.004 178.07 340.661 176.243 340.666 174.187V174.183ZM363.294 213.613C363.294 215.335 363.294 216.962 363.294 218.585C363.294 220.216 363.285 221.852 363.294 223.484C363.299 224.386 363.381 224.427 364.232 224.058C366.764 222.969 368.125 220.681 368.029 217.673C367.975 215.905 366.996 214.583 365.311 214C364.656 213.772 363.973 213.708 363.285 213.613H363.294ZM363.294 58.2401C363.294 58.6776 363.285 59.1151 363.294 59.5526C363.322 60.496 363.335 61.4439 363.404 62.3873C363.486 63.5266 363.818 63.7453 364.856 63.3807C366.568 62.7837 367.633 61.5533 368.12 59.8397C368.981 56.8091 367.137 54.0702 364.068 53.7648C363.372 53.6965 363.308 53.7329 363.299 54.4211C363.285 55.6971 363.299 56.9686 363.294 58.2447V58.2401ZM363.294 81.095H363.413C363.413 82.5124 363.376 83.9342 363.426 85.3516C363.454 86.1947 363.836 86.4089 364.656 86.1947C366.568 85.6888 367.984 83.9297 368.266 81.7148C368.612 79.0123 366.877 76.8066 364.182 76.5195C363.349 76.4283 363.303 76.4557 363.299 77.2714C363.29 78.5475 363.299 79.819 363.299 81.095H363.294ZM363.294 195.839H363.404C363.404 197.188 363.376 198.532 363.413 199.881C363.44 200.879 363.791 201.094 364.747 200.784C367.442 199.9 368.826 197.019 368.148 194.39C367.72 192.736 365.944 191.259 364.296 191.081C363.454 190.99 363.317 191.081 363.299 191.911C363.272 193.219 363.29 194.531 363.29 195.839H363.294ZM363.294 34.7107H363.404C363.404 35.9867 363.385 37.2628 363.408 38.5343C363.431 39.8559 363.768 40.061 365.029 39.5824C367.069 38.8077 368.425 36.6749 368.325 34.4053C368.225 32.1586 366.313 30.1534 364.109 29.9437C363.604 29.8982 363.344 30.0531 363.317 30.559C363.303 30.8142 363.294 31.0694 363.29 31.3246C363.29 32.4548 363.29 33.5805 363.29 34.7107H363.294ZM363.404 145.002C363.404 145.713 363.404 146.292 363.404 146.871C363.404 149.2 363.39 151.528 363.413 153.857C363.422 154.864 363.722 155.106 364.569 154.892C366.677 154.354 368.289 152.235 368.33 149.947C368.371 147.655 366.973 145.813 364.724 145.226C364.341 145.125 363.941 145.093 363.413 145.007L363.404 145.002ZM363.404 172.711H363.367C363.367 173.185 363.363 173.659 363.367 174.128C363.381 175.076 363.367 176.019 363.422 176.963C363.467 177.769 363.786 177.961 364.574 177.765C365.329 177.573 365.999 177.213 366.554 176.671C368.089 175.185 368.721 173.367 368.111 171.312C367.547 169.407 366.14 168.313 364.159 168.021C363.467 167.916 363.417 167.953 363.408 168.668C363.394 170.013 363.408 171.362 363.408 172.706L363.404 172.711ZM363.404 126.463H363.367C363.367 126.901 363.367 127.334 363.367 127.771C363.381 128.787 363.367 129.804 363.417 130.82C363.454 131.627 363.768 131.836 364.546 131.649C364.792 131.59 365.034 131.503 365.261 131.399C367.246 130.496 368.494 128.363 368.312 126.194C368.125 123.966 366.19 121.997 364.105 121.901C363.622 121.878 363.376 121.979 363.394 122.548C363.431 123.856 363.408 125.16 363.408 126.468L363.404 126.463ZM363.404 103.435C363.404 104.779 363.39 106.128 363.404 107.473C363.422 108.662 363.777 108.895 364.892 108.494C367.041 107.719 368.471 105.499 368.321 103.189C368.18 101.056 366.477 99.183 364.369 98.8458C363.508 98.7091 363.413 98.7774 363.408 99.6114C363.399 100.883 363.408 102.159 363.408 103.43L363.404 103.435ZM363.404 11.915C363.404 13.2594 363.385 14.6038 363.408 15.9482C363.426 17.0511 363.809 17.3109 364.861 16.9235C366.591 16.29 367.67 15.0368 368.143 13.2776C368.89 10.5022 367.187 7.78151 364.423 7.28932C363.49 7.12525 363.408 7.17994 363.404 8.10508C363.394 9.37657 363.404 10.6481 363.404 11.9195V11.915ZM54.5154 164.936C54.6884 163.314 53.0083 161.559 51.1006 161.568C49.3933 161.577 47.7041 163.273 47.7405 164.945C47.7815 166.695 49.4752 168.327 51.2463 168.317C53.063 168.308 54.5017 166.814 54.5154 164.936ZM346.412 161.7C344.641 161.636 343.111 163.013 343.047 164.726C342.974 166.613 344.522 168.272 346.394 168.317C348.21 168.363 349.772 166.814 349.822 164.918C349.868 163.113 348.447 161.773 346.412 161.7ZM31.5774 174.155C31.755 172.638 29.9019 171.129 28.4632 171.097C26.6557 171.056 25.2715 172.378 25.2351 174.219C25.2033 175.864 26.7558 177.496 28.3858 177.537C30.0203 177.578 31.5456 175.96 31.5774 174.155ZM326.816 174.219C326.816 172.665 325.095 170.979 323.547 171.02C322.067 171.056 320.505 172.601 320.505 174.406C320.505 175.924 322.258 177.564 323.702 177.541C325.304 177.519 326.816 175.924 326.811 174.219H326.816ZM32.1648 167.871C33.6354 167.844 35.2562 166.084 35.2153 164.558C35.1743 163.067 33.6035 161.586 32.101 161.618C30.4984 161.65 28.9139 163.149 28.9139 164.631C28.9139 166.198 30.6213 167.898 32.1648 167.871ZM330.417 164.571C330.394 163.04 328.869 161.586 327.326 161.623C325.678 161.659 324.161 163.131 324.184 164.672C324.202 166.217 325.86 167.88 327.371 167.875C328.874 167.871 330.44 166.171 330.417 164.576V164.571ZM324.266 183.352C324.275 184.874 325.932 186.606 327.394 186.624C328.86 186.642 330.44 184.906 330.422 183.306C330.404 181.702 328.919 180.367 327.212 180.413C325.641 180.454 324.257 181.834 324.266 183.348V183.352ZM41.594 183.621C39.8957 183.644 38.4479 185.102 38.4843 186.756C38.5207 188.301 40.0687 189.892 41.5485 189.91C42.8597 189.928 44.5307 188.502 44.5899 186.606C44.6399 185.029 43.1466 183.598 41.5894 183.621H41.594ZM32.0783 180.417C30.5894 180.335 29.0915 181.711 29.0232 183.229C28.9549 184.728 30.5075 186.492 32.01 186.62C33.4214 186.738 35.1105 185.066 35.2062 183.457C35.2881 181.989 33.7674 180.513 32.0783 180.417ZM339.815 186.606C339.824 185.047 338.503 183.739 336.887 183.703C335.28 183.667 333.718 185.111 333.695 186.661C333.673 188.192 335.289 189.883 336.8 189.91C338.257 189.937 339.805 188.242 339.819 186.606H339.815ZM353.373 173.914C353.378 172.401 352.035 171.011 350.55 171.002C348.948 170.993 347.254 172.469 347.236 173.887C347.218 175.427 348.816 177.168 350.296 177.209C351.711 177.25 353.364 175.477 353.373 173.914ZM52.0021 173.891C51.9839 175.441 53.5592 177.159 55.0481 177.209C56.4413 177.254 58.1122 175.5 58.1578 173.941C58.2033 172.456 56.8283 170.984 55.3941 170.974C53.7095 170.965 52.0203 172.415 52.0021 173.891ZM348.884 183.038C348.875 181.31 348.01 180.258 346.544 180.23C345.456 180.208 344.481 180.599 343.762 181.461C342.806 182.605 342.92 184.049 344.026 185.175C345.128 186.292 346.726 186.415 347.841 185.458C348.611 184.797 348.861 183.908 348.884 183.038ZM53.6366 183.042C53.6139 181.515 52.3891 180.18 51.0323 180.203C49.416 180.235 47.8862 181.639 47.8862 183.101C47.8862 184.692 49.3022 186.105 50.8912 186.1C52.4392 186.096 53.664 184.733 53.6412 183.042H53.6366Z" fill="#3F5A4E"/>
</g>
<defs>
<filter id="filter0_d_81_13" x="0" y="0" width="379" height="322" filterUnits="userSpaceOnUse" color-interpolation-filters="sRGB">
<feFlood flood-opacity="0" result="BackgroundImageFix"/>
<feColorMatrix in="SourceAlpha" type="matrix" values="0 0 0 0 0 0 0 0 0 0 0 0 0 0 0 0 0 0 127 0" result="hardAlpha"/>
<feOffset dy="4"/>
<feGaussianBlur stdDeviation="2"/>
<feComposite in2="hardAlpha" operator="out"/>
<feColorMatrix type="matrix" values="0 0 0 0 0 0 0 0 0 0 0 0 0 0 0 0 0 0 0.25 0"/>
<feBlend mode="normal" in2="BackgroundImageFix" result="effect1_dropShadow_81_13"/>
<feBlend mode="normal" in="SourceGraphic" in2="effect1_dropShadow_81_13" result="shape"/>
</filter>
</defs>
</svg>
