<svg width="647" height="548" viewBox="0 0 647 548" fill="none" xmlns="http://www.w3.org/2000/svg">
<g clip-path="url(#clip0_2_40)" filter="url(#filter0_d_2_40)">
<path d="M17.1796 317.694C1.94717 311.176 -1.33111 286.526 16.5173 278.123C8.96732 273.821 4.76185 267.535 4.46383 258.767C4.19891 249.999 7.87456 243.581 15.7557 239.279C8.00702 234.283 4.13269 227.435 4.43071 218.17C4.69562 209.7 9.53026 203.248 19.0671 199.477C10.2588 195.97 5.29168 189.617 4.49694 180.386C3.73532 171.155 7.37785 164.074 15.7888 159.641C8.53684 155.075 4.53005 148.789 4.43071 140.12C4.33137 131.319 8.27193 125.066 16.0868 120.963C7.11294 115.603 3.27172 107.662 4.66251 97.5381C5.78838 89.2334 10.7886 83.8404 19.1995 81.1273C10.1925 77.4878 5.19233 71.0691 4.53005 61.6726C3.83466 52.3092 7.70899 45.328 16.418 40.8945C13.5371 39.174 11.0866 37.3543 9.13289 34.8728C2.64256 26.5682 2.80813 14.227 9.39781 6.91495C12.9079 3.07695 17.2127 0.794002 22.544 0.760916C23.4712 0.760916 24.4647 0.661657 25.1932 1.45573C25.7892 2.08436 26.6171 1.91893 27.3456 1.88585C41.8164 1.42264 56.2541 2.11745 70.7248 1.38955C71.4865 1.35647 72.2481 1.32338 72.9766 1.32338C90.0965 1.25721 107.183 1.22412 124.303 1.12486C286.793 0.0330194 449.284 0.794002 611.741 0.562399C614.82 0.562399 617.9 0.562399 621.046 0.231537C623.562 -0.0662392 626.245 -0.132412 628.827 0.231537C632.106 0.694744 634.854 2.28288 637.205 4.59892C644.954 12.2418 644.788 25.3109 637.536 33.3177C634.556 36.6264 630.98 38.9755 626.509 39.7365C625.98 39.8357 625.45 40.1335 624.721 40.3982C626.443 41.5562 628.298 41.854 630.02 42.4164C637.536 44.7656 642.669 51.6475 642.934 59.4558C643.232 68.7861 639.159 75.5357 630.98 80.3994C640.186 84.7006 643.994 92.0788 642.768 101.674C641.543 111.17 635.781 117.191 626.311 119.904C636.344 120.897 642.835 128.209 642.934 138.102C643.033 146.704 639.391 153.123 632.139 157.59C631.708 157.854 631.079 157.92 630.814 158.582C640.185 162.718 644.027 170.195 642.735 179.989C641.51 189.385 635.781 195.341 626.41 198.12C627.9 198.55 629.258 198.186 630.516 198.683C631.841 199.212 633.165 199.642 634.357 200.469C639.821 204.175 642.669 209.336 642.901 215.887C643.232 224.556 639.623 231.173 632.271 235.739C631.543 236.169 630.781 236.533 629.986 236.864C629.225 237.195 628.43 237.427 627.437 237.79C628.033 238.386 628.695 238.221 629.225 238.32C636.046 239.875 641.543 245.731 642.702 253.076C644.225 262.969 639.987 271.108 632.238 275.74C631.112 276.402 629.887 276.898 628.596 277.494C636.675 279.446 641.278 284.74 642.669 292.482C644.689 303.996 638.132 313.293 628.927 316.635C628.596 316.767 628.231 316.867 627.536 317.098C636.278 318.488 641.047 323.914 642.603 331.821C644.656 342.31 639.49 351.342 630.814 355.544C630.318 355.776 629.788 356.007 629.026 356.371C641.013 360.904 644.921 369.672 642.139 381.517C640.55 388.399 633.993 396.439 622.668 396.77L622.47 397.498C625.317 422.676 618.198 445.076 602.999 464.96C588.991 483.257 570.348 494.506 547.798 499.171C540.214 500.76 532.466 501.355 524.75 500.826C504.253 499.502 485.908 492.422 469.748 479.75C460.84 472.769 453.323 464.53 447.429 454.836C447.197 454.439 446.899 454.075 446.601 453.678L446.171 453.479C444.648 457.681 443.157 461.883 441.237 465.887C435.608 477.831 428.19 488.551 419.117 498.179C408.189 509.792 395.54 519.023 381.301 526.038C368.552 532.324 355.174 536.46 341.067 538.478C333.12 539.603 325.139 540.298 317.126 539.934C287.158 538.577 260.236 528.949 236.824 509.991C224.076 499.668 213.678 487.294 205.73 472.967C202.75 467.607 200.2 462.049 198.081 456.292C197.75 455.432 197.651 454.439 196.757 453.579C195.829 455.134 195.002 456.656 194.074 458.078C180.332 479.055 161.325 492.521 136.82 498.212C128.972 500.032 120.992 500.76 112.978 500.263C92.5801 498.94 74.2349 491.992 58.4065 478.989C39.9951 463.869 28.7364 444.414 24.1004 421.121C22.8752 415.033 22.4447 408.813 22.3454 402.593C22.3454 401.269 22.5772 399.979 22.6765 398.656C22.7427 397.795 22.5772 397.266 21.5175 397.167C14.9278 396.604 10.4575 392.832 7.21229 387.373C2.37765 379.267 3.2055 369.143 9.16601 362.062C10.5237 360.441 12.2125 359.283 13.9675 358.158C14.6629 357.728 15.5901 357.563 16.0537 356.802C1.61603 348.894 -0.172128 325.734 17.2458 317.76L17.1796 317.694ZM537.234 365.569C537.334 366.959 537.4 368.15 537.499 369.54C539.453 369.176 541.34 368.746 543.129 369.639C544.619 370.367 545.148 371.624 544.519 373.146C543.956 374.569 542.963 375.495 541.373 375.595C540.513 375.661 539.685 375.595 538.824 375.595C538.459 375.595 538.062 375.595 537.83 375.958C537.201 376.984 538.062 378.969 539.287 379.234C539.85 379.366 540.38 379.466 540.943 379.565C558.725 382.94 569.487 401.071 563.063 419.169C557.666 434.389 541.837 442.528 526.704 437.995C512.167 433.628 503.193 418.871 505.279 404.876C506.803 394.652 512.697 387.704 521.008 382.41C523.658 380.723 526.704 379.995 529.784 379.399C531.969 378.969 532.333 378.473 531.969 376.356C531.804 375.495 531.506 374.966 530.479 375.131C529.188 375.363 527.863 375.131 526.538 375.396C525.115 375.694 523.591 374.635 523.227 373.411C522.83 372.12 523.591 370.764 525.081 370.036C526.373 369.407 527.731 369.209 529.188 369.143C532.068 369.01 532.068 368.977 532.002 366.198C532.002 366.066 531.837 365.9 531.638 365.602C529.386 365.602 527.035 365.669 524.684 365.602C523.426 365.569 522.697 366.066 521.902 367.025C519.187 370.268 516.538 373.576 513.094 376.157C511.968 377.017 510.942 377.348 509.617 377.58C504.319 378.473 499.054 377.58 493.789 377.48C488.193 377.348 482.696 377.712 477.199 378.539C475.046 378.87 474.781 379.036 475.079 381.219C475.51 384.23 475.311 387.241 475.41 390.252C475.41 390.814 475.477 391.377 475.543 391.939C475.609 392.667 475.477 393.494 476.603 393.593C477.629 393.66 477.96 393.196 478.325 392.237C480.278 386.811 487.332 384.627 491.967 387.903C494.716 389.855 496.239 392.535 495.742 395.909C495.213 399.516 493.524 402.494 489.716 403.718C485.941 404.909 481.934 403.321 479.517 399.615C478.589 398.181 477.232 397.751 475.444 398.325C476.205 412.453 475.841 426.68 476.007 440.841C478.887 441.734 481.57 441.899 484.318 441.767C494.418 441.304 504.518 441.502 514.651 441.304C533.824 440.907 553.03 441.072 572.203 441.039C573.56 441.039 574.819 440.874 576.077 440.377C576.673 440.146 577.335 439.914 577.435 439.12C577.6 437.83 578.13 436.44 577.931 435.216C576.739 428.665 577.501 422.081 577.435 415.53C577.368 406.166 577.435 396.836 577.435 387.472C577.435 385.289 577.302 383.072 577.733 380.988C578.064 379.333 577.7 378.936 576.143 378.605C571.375 377.58 566.54 377.977 561.739 378.043C558.626 378.076 556.01 377.249 553.891 374.966C551.407 372.253 548.89 369.573 546.44 366.827C545.943 366.264 545.546 365.636 544.652 365.636C542.301 365.636 539.95 365.636 537.3 365.636L537.234 365.569ZM126.919 186.474C128.343 186.474 129.734 186.474 131.158 186.474C132.681 186.474 134.105 186.97 135.496 187.533C140.463 189.518 143.377 193.951 143.145 199.212C142.913 204.208 139.304 208.774 134.237 209.965C130.992 210.726 127.648 210.627 124.767 208.476C124.237 208.079 123.641 207.682 123.873 206.888C124.071 206.16 124.767 206.392 125.297 206.292C127.383 205.895 129.204 204.903 130.727 203.48C132.88 201.462 132.515 197.558 130.065 196.83C127.317 196.003 124.535 195.97 122.018 197.922C118.376 200.734 117.647 204.605 118.078 208.774C118.707 215.193 124.899 219.56 131.257 218.468C135.992 217.674 139.635 215.226 142.615 211.619C146.622 206.756 148.013 197.922 143.973 191.867C141.158 187.698 137.35 184.952 132.549 183.628C122.449 180.816 111.091 184.489 104.634 192.793C101.19 197.26 98.9379 202.388 98.9711 208.079C99.0373 215.987 102.614 222.438 108.574 227.434C113.343 231.438 118.773 233.357 125.264 232.133C129.469 231.339 133.84 230.743 138.211 231.372C142.119 231.934 145.695 233.158 148.642 235.905C151.159 238.221 150.563 241.463 151.026 244.342C151.49 247.22 151.026 250.165 150.033 252.977C146.357 263.465 138.84 269.851 128.376 273.127C126.853 273.59 125.297 273.689 123.773 274.318C113.641 278.586 102.547 274.119 98.0107 264.094C97.7127 263.399 97.4809 262.671 97.0173 262.076C94.6993 259.065 94.7325 255.723 95.8915 252.415C98.0107 246.327 102.382 242.423 108.375 240.239C110.594 239.412 112.879 239.511 115.098 239.809C118.508 240.272 120.793 242.952 121.058 246.393C121.257 249.007 120.594 251.422 119.469 253.738C119.204 254.301 119.005 255.095 118.177 254.995C117.316 254.929 116.521 254.664 116.257 253.639C116.124 253.109 115.859 252.58 115.594 252.084C114.435 249.9 112.316 249.271 110.13 250.462C107.713 251.786 106.819 254.036 106.753 256.583C106.62 260.157 108.475 262.241 112.051 262.903C112.415 262.969 112.912 262.903 112.945 263.333C113.044 264.557 114.005 264.259 114.634 264.293C116.952 264.425 119.104 263.796 121.058 262.539C125.264 259.826 127.88 255.955 128.608 251.091C129.469 245.301 127.582 240.305 122.184 237.989C115.429 235.077 108.64 235.044 101.984 238.121C98.5406 239.709 95.1961 241.695 93.1099 244.937C87.6792 253.341 89.3349 263.598 95.5934 270.546C101.09 276.634 108.409 279.975 116.654 281.067C119.601 281.464 122.349 280.67 125.197 280.174C132.714 278.85 139.403 275.972 145.496 271.439C153.874 265.219 158.841 256.98 160.066 246.625C160.596 241.992 159.901 237.526 156.722 233.886C150.298 226.475 142.019 223.299 132.284 223.927C127.118 224.258 121.952 224.953 116.786 224.788C111.786 224.655 107.945 222.405 105.594 217.939C103.64 214.233 103.143 210.362 103.773 206.193C105.329 196.3 115.296 184.952 126.952 186.441L126.919 186.474ZM517.498 186.507C519.75 186.507 521.969 186.275 524.22 186.904C533.857 189.617 541.672 200.039 541.307 210.031C541.109 215.821 539.022 220.718 533.559 223.53C529.883 225.449 525.843 224.92 521.902 224.721C516.836 224.49 511.836 223.696 506.703 224.159C501.173 224.622 496.57 226.773 492.265 229.949C487.067 233.787 484.285 238.816 484.616 245.433C484.98 252.448 487.563 258.734 491.802 264.094C497.597 271.439 505.18 276.468 514.319 278.917C516.67 279.545 519.121 279.876 521.439 280.637C522.532 281.001 523.558 281.266 524.717 281.266C532.367 281.266 539.022 278.453 545.215 274.185C552.235 269.322 555.083 262.473 554.818 254.267C554.685 250.297 553.493 246.36 550.513 243.448C543.228 236.401 533.294 233.522 522.962 237.89C519.353 239.412 517.035 241.992 516.406 245.764C515.28 252.514 517.697 258.205 523.624 262.407C524.783 263.234 526.075 263.895 527.466 264.061C528.923 264.259 530.943 265.02 531.704 263.796C532.731 262.142 534.453 263.631 535.314 262.407C535.579 262.043 536.075 261.811 536.373 261.48C538.923 258.502 538.758 254.334 536.108 251.455C533.724 248.874 530.479 249.503 528.989 252.679C528.79 253.109 528.757 253.606 528.525 254.003C527.697 255.425 526.207 255.459 525.479 254.003C524.386 251.786 523.591 249.47 523.691 246.955C523.856 243.25 526.24 240.338 529.784 239.842C532.598 239.445 535.413 239.643 538.095 240.868C542.168 242.753 545.413 245.533 547.632 249.404C549.42 252.58 550.645 256.054 549.089 259.627C547.831 262.539 546.572 265.55 544.552 268.031C539.354 274.384 532.764 277.13 524.518 275.476C522.565 275.079 520.843 274.053 518.922 273.656C509.253 271.671 501.802 266.476 496.935 257.874C494.021 252.712 492.795 247.22 494.219 241.298C494.319 240.834 494.583 240.371 494.517 239.941C494.186 237.857 495.444 236.533 496.835 235.375C499.65 232.993 503.027 231.901 506.637 231.405C511.174 230.776 515.644 231.703 520.147 232.232C522.565 232.53 524.916 232.629 527.366 232.1C539.618 229.42 549.486 213.009 544.817 202.057C541.44 188.26 526.538 179.823 512.299 183.661C507.895 184.853 504.186 187.235 501.57 191.04C499.286 194.348 498.259 197.922 498.59 202.124C499.253 209.932 505.147 216.814 513.16 218.369C518.823 219.461 523.79 216.88 526.009 211.685C527.267 208.708 527.234 205.598 526.274 202.653C524.982 198.782 521.505 195.341 515.611 196.532C514.187 196.83 513.127 197.624 512.929 199.047C512.664 200.866 512.929 202.653 514.584 203.844C516.207 205.002 517.863 206.028 519.916 206.292C521.042 206.425 521.306 207.186 520.578 207.98C519.883 208.774 518.955 209.27 517.962 209.601C512.432 211.454 506.306 209.634 503.259 204.34C499.418 197.69 502.729 189.584 510.279 187.069C512.664 186.275 515.114 186.375 517.565 186.441L517.498 186.507ZM139.337 425.257C138.973 424.959 138.642 425.158 138.277 425.257C131.456 426.944 124.568 427.573 117.581 426.647C110.727 425.753 104.104 424.033 97.8452 421.121C92.8119 418.772 87.7454 416.489 83.8049 412.353C83.0101 411.526 82.5465 410.302 81.2882 409.839C79.4338 416.224 78.3742 422.742 77.1821 429.194C76.3542 433.661 76.586 437.995 77.8775 442.296C78.8046 445.274 80.5266 447.921 81.7849 450.766C83.0432 453.612 85.1625 455.829 87.7123 457.45C95.4279 462.413 103.773 464.729 112.978 463.074C120.76 461.685 126.654 457.582 130.76 450.866C133.476 446.399 135.165 441.568 136.324 436.473C137.019 433.396 137.35 430.187 139.138 427.408C139.503 426.812 139.734 426.051 139.37 425.29L139.337 425.257ZM169.835 254.003C168.014 261.943 163.841 268.627 160.099 275.443C153.245 287.916 143.476 297.974 132.747 307.205C128.84 310.547 124.734 313.624 120.826 317.462C123.972 317.694 126.853 317.727 129.701 317.859C143.675 318.62 155.894 323.583 166.689 332.318C167.848 333.244 168.709 334.568 170.133 335.262C170.63 333.013 171.027 330.763 171.954 328.711C172.915 326.561 173.875 324.377 175.299 322.491C176.656 320.705 178.113 318.984 179.802 317.462C181.491 315.94 183.643 315.113 185.862 313.525C184.306 313.426 183.345 313.392 182.418 313.293C175.034 312.532 167.649 311.837 160.298 310.911C156.589 310.448 152.814 310.183 149.172 309.157C147.152 308.595 146.887 307.933 148.278 306.345C149.867 304.592 151.49 302.904 153.145 301.217C159.835 294.401 165.762 286.957 171.193 279.115C174.504 274.318 178.08 269.686 181.789 265.186C184.471 261.91 187.683 259.065 189.803 255.293C180.332 257.245 177.319 257.047 169.802 253.937L169.835 254.003ZM523.657 317.594V317.032C521.306 314.981 518.988 312.83 516.505 310.878C506.803 303.268 498.259 294.533 490.709 284.806C485.742 278.42 482.497 271.075 478.689 264.028C477 260.852 475.973 257.477 474.848 253.937C468.523 257.014 462.132 257.378 455.476 255.425C455.542 255.922 455.476 256.253 455.641 256.451C456.304 257.378 456.966 258.271 457.695 259.131C463.721 266.013 469.516 273.06 474.616 280.67C477.861 285.501 481.47 290.133 485.411 294.467C489.02 298.471 492.729 302.342 496.372 306.312C497.961 308.033 497.729 308.727 495.478 309.257C491.338 310.216 487.133 310.58 482.927 311.076C477.132 311.738 471.337 312.135 465.576 312.929C463.523 313.194 461.403 313.095 458.92 313.723C468.258 318.256 472.728 325.8 474.748 335.362C488.524 322.226 505.047 317.098 523.657 317.561V317.594ZM361.2 348.232C360.737 346.181 359.181 345.122 357.525 344.229C356.134 343.468 354.611 342.872 353.154 342.244C346.564 339.398 339.643 337.711 332.689 335.99C327.292 334.634 321.795 333.972 316.232 333.774C311.894 333.608 307.655 334.104 303.35 334.667C297.456 335.428 291.661 336.553 286.032 338.439C271.23 343.369 262.124 354.122 256.494 368.051C253.05 376.587 252.024 385.653 252.918 394.95C253.58 401.733 254.805 408.35 256.825 414.835C259.541 423.636 264.044 431.51 269.442 438.988C275.733 447.656 283.316 454.836 292.357 460.527C297.953 464.034 303.88 466.946 309.907 469.559C315.503 471.975 321.232 473.96 327.524 473.894C330.802 473.861 334.014 474.952 337.325 475.085C345.836 475.383 354.346 475.548 362.227 471.545C366.134 469.559 370.34 468.17 371.929 463.008C373.453 458.012 373.022 453.645 370.671 449.178C368.452 445.009 365.638 441.204 363.353 437.102C360.571 432.04 361.3 426.481 365.174 422.213C365.605 421.717 366.002 421.088 366.664 420.989C368.982 420.658 371.135 419.599 373.519 419.566C376.532 419.566 379.579 419.368 382.393 418.11C389.082 415.033 392.427 409.508 393.52 402.494C394.48 396.373 394.083 390.318 392.725 384.296C392.493 383.204 392.427 382.046 391.798 381.054C390.705 379.366 390.208 377.447 389.546 375.595C387.857 370.731 385.042 366.496 381.599 362.691C381.168 362.195 380.671 361.764 380.075 361.434C379.214 360.97 378.618 361.434 378.089 361.897C377.559 362.393 377.89 362.923 378.221 363.419C378.751 364.213 379.314 364.974 379.844 365.735C383.221 370.632 386.433 375.628 388.519 381.219C391.301 388.73 391.467 396.538 390.837 404.38C390.407 409.938 385.639 415.133 380.241 416.357C377.426 416.985 374.545 417.581 371.598 417.581C370.075 417.581 368.552 417.68 367.161 418.276C363.75 419.698 360.373 421.187 359.545 425.389C358.684 429.757 358.717 434.025 360.836 438.028C362.525 441.171 364.148 444.381 366.3 447.259C367.79 449.211 369.015 451.329 369.843 453.678C371.863 459.303 369.943 463.67 365.273 466.912C362.657 468.732 359.545 469.89 356.399 470.353C351.399 471.114 346.365 471.743 341.299 472.107C334.776 472.57 328.318 471.578 321.927 470.651C314.112 469.526 306.96 466.35 300.039 462.711C294.012 459.501 288.88 455.001 283.548 450.833C280.866 448.748 278.25 446.564 275.998 444.017C272.554 440.013 269.64 435.58 266.925 431.113C260.468 420.426 256.395 408.879 255.865 396.273C255.766 394.024 255.898 391.741 255.633 389.491C255.103 385.123 255.534 380.855 256.593 376.653C257.488 373.113 258.878 369.705 259.872 366.198C260.534 363.981 261.428 361.765 262.852 359.846C265.6 356.239 268.548 352.864 272.025 349.92C280.899 342.409 290.966 337.578 302.655 336.917C312.556 336.354 322.424 336.652 332.159 339.067C338.749 340.689 345.339 342.244 351.432 345.354C353.948 346.644 356.498 347.637 359.181 348.398C359.843 348.563 360.406 348.861 361.101 348.398L361.2 348.232ZM225.731 332.45C226.228 327.851 222.287 325.469 217.883 326.925C215.532 327.686 213.347 328.778 211.294 330.101C209.241 331.391 207.221 332.781 205.499 334.568C204.903 335.196 203.942 336.189 203.71 334.204C203.677 333.906 203.313 333.575 203.048 333.343C200.399 331.027 197.584 329.009 194.306 327.752C192.452 327.057 190.498 326.66 188.478 327.024C186.624 327.355 185.1 328.182 184.339 330.035C183.71 331.623 183.412 333.277 183.544 334.998C184.173 341.516 186.557 347.405 190.167 352.798C193.313 357.529 197.021 361.731 202.121 364.544C203.909 365.536 205.366 365.702 207.221 364.345C214.075 359.415 218.877 352.897 222.453 345.42C224.34 341.483 225.599 337.38 225.731 332.516V332.45ZM460.145 332.053V331.193C460.112 326.561 457.595 324.642 452.959 325.667C450.608 326.197 448.555 327.256 446.535 328.48C444.217 329.902 441.932 331.391 440.045 333.377C439.581 333.84 438.753 334.733 438.29 333.575C437.263 330.994 434.813 330.035 432.826 328.645C430.409 326.958 427.726 325.8 424.713 325.734C420.806 325.634 418.752 327.421 418.223 331.259C418.09 332.285 418.057 333.31 418.156 334.369C418.62 339.928 420.64 344.99 423.455 349.688C426.667 355.081 430.64 359.779 436.104 363.121C438.29 364.478 440.045 364.444 442.164 362.856C448.522 358.125 453.125 352.037 456.602 345.023C458.622 340.953 460.145 336.718 460.112 332.086L460.145 332.053ZM291.595 467.243C287.058 465.854 283.283 463.306 279.707 460.394C273.349 455.2 267.952 449.277 264.408 441.833C264.044 441.105 263.68 440.907 262.885 441.171C258.713 442.561 254.772 444.612 250.434 445.572C249.54 445.77 249.375 446.631 249.308 447.359C248.58 455.167 248.911 462.777 253.216 469.725C256.726 475.416 261.064 480.048 267.918 481.57C270.038 482.033 272.124 482.562 274.276 482.761C277.952 483.059 281.628 483.092 285.237 482.132C286.032 481.934 286.893 481.768 287.257 480.544C288.548 476.144 290.105 471.809 291.628 467.243H291.595ZM113.276 419.334C114.303 419.533 115.098 419.732 115.925 419.798C120.396 420.261 124.866 420.923 129.403 420.062C133.376 419.301 137.251 418.143 141.158 417.151C141.953 416.952 142.152 416.423 142.417 415.827C143.476 413.511 144.271 411.096 144.933 408.648C147.384 399.251 146.953 390.252 141.589 381.815C140.893 380.723 140.032 379.664 139.701 378.374C139.403 377.117 138.642 376.19 137.781 375.33C134.602 372.22 131.191 369.474 126.787 368.117C126.389 369.407 126.025 370.764 125.595 372.087C125.363 372.848 125.528 373.278 126.191 373.709C129.403 375.694 129.966 378.738 129.27 382.079C128.343 386.579 127.217 391.046 125.826 395.446C125.396 396.77 124.833 398.093 124.204 399.35C122.979 401.7 121.257 403.519 118.475 403.883C117.581 404.016 117.184 404.247 116.952 405.14C115.793 409.806 114.568 414.438 113.309 419.301L113.276 419.334ZM119.932 366.397C117.084 366.959 114.667 365.569 112.316 366.198C106.289 367.819 100.527 370.135 95.8915 374.503C88.7719 381.252 84.0367 389.259 83.1095 399.218C83.0101 400.409 83.2088 401.336 84.1691 402.229C90.3283 407.92 97.3485 412.221 105.097 415.364C106.389 415.894 106.952 415.397 107.283 414.173C108.442 410.103 109.634 406.067 110.859 402.03C111.025 401.435 111.289 401.005 110.594 400.641C107.68 398.953 107.548 396.207 107.647 393.263C107.879 387.142 109.932 381.451 112.084 375.826C112.846 373.808 114.468 371.988 116.72 371.624C118.376 371.359 118.806 370.466 119.137 369.176C119.303 368.448 119.568 367.753 119.932 366.43V366.397ZM303.052 472.967C301.695 477.632 299.476 481.57 297.059 485.375C296.694 485.937 296.728 486.367 297.059 486.93C298.913 490.205 300.867 493.448 303.748 495.962C311.397 502.513 320.272 503.77 329.709 501.355C336.895 499.535 342.657 495.433 346.895 489.312C348.452 487.095 348.154 483.786 346.365 482.099C345.968 481.735 345.504 481.768 345.041 481.867C340.736 482.661 336.365 482.661 332.093 482.231C321.927 481.239 312.059 479.154 303.052 473.033V472.967ZM374.943 425.356C382.128 428.036 389.016 431.179 395.937 434.356C397.725 435.183 399.248 435.15 401.003 434.223C410.838 429.161 416.136 418.342 415.64 408.317C415.11 398.027 410.01 390.152 401.368 384.561C400.97 384.296 400.606 383.932 400.176 383.8C399.414 383.568 398.586 384.495 398.851 385.256C402.096 394.387 400.97 403.255 397.162 411.89C394.513 417.879 390.473 422.511 383.652 424.099C381.665 424.562 379.711 424.397 377.757 424.496C376.797 424.529 375.704 424.231 374.943 425.356ZM369.512 435.613C369.346 436.672 369.777 437.135 370.075 437.565C370.572 438.359 371.168 439.12 371.764 439.815C377.824 447.028 380.175 455.233 378.42 464.563C377.426 469.824 374.214 473.265 369.545 475.482C366.168 477.103 362.724 478.592 359.048 479.452C358.121 479.684 357.922 480.246 358.055 481.14C358.22 482.264 358.949 482.628 359.909 482.992C363.883 484.448 367.889 484.25 371.863 483.158C382.128 480.345 389.811 474.059 394.745 464.762C397.427 459.7 398.321 454.108 396.632 448.351C396.202 446.862 395.407 446.002 393.917 445.44C389.149 443.686 384.413 441.899 379.744 439.848C376.433 438.392 373.055 437.036 369.545 435.613H369.512ZM247.222 384.528C244.54 383.337 242.851 384.462 241.229 386.017C231.957 394.917 228.314 405.372 231.99 418.011C234.043 425.025 238.414 430.253 244.01 434.653C244.474 435.017 244.838 435.216 245.5 434.918C249.077 433.264 252.686 431.676 256.229 430.088C247.884 415.927 244.341 400.872 247.222 384.495V384.528ZM604.29 208.84C604.787 208.344 605.052 207.814 605.184 207.186C606.608 201.329 605.813 195.804 602.965 190.51C600.879 186.639 597.469 184.092 593.859 181.809C591.044 180.022 588.594 177.871 586.276 175.489C581.773 170.857 580.614 164.968 581.143 159.012C581.739 152.031 589.488 147.068 597.005 148.722C600.449 149.483 602.899 152.395 602.667 156.134C602.436 160.17 600.482 163.049 597.171 165.133C596.674 165.464 596.111 165.96 595.217 165.431C597.204 162.255 596.276 159.178 594.521 156.299C593.594 154.777 592.104 153.917 590.217 154.149C588.428 154.347 587.269 155.472 586.673 157.027C585.382 160.402 585.713 163.677 587.766 166.721C588.528 167.846 589.654 168.508 591.011 168.839C591.905 169.07 593.462 167.648 593.561 169.865H594.356C597.866 169.434 601.111 168.376 603.826 165.927C608.098 162.122 609.555 155.902 606.972 151.303C604.555 146.969 600.614 144.719 595.714 144.355C593.76 144.19 591.806 144.554 589.852 144.62C585.547 144.752 582.137 146.439 579.885 150.013C575.878 156.332 575.613 163.148 577.997 170.063C579.355 174.033 581.806 177.011 585.647 179.096C589.62 181.246 593.064 184.29 596.243 187.499C602.005 193.356 604.82 200.469 604.356 208.774L604.29 208.84ZM50.426 165.795C46.1212 164.24 44.1012 161.56 43.0416 158.053C41.6839 153.619 43.9025 149.715 48.3729 148.458C56.1547 146.307 65.9896 153.652 64.1352 161.494C64.0358 161.957 64.1352 162.42 64.1352 162.916C63.9696 167.615 62.2477 171.651 59.135 175.191C56.1547 178.566 52.4459 180.981 48.7372 183.397C41.3859 188.227 37.2798 199.013 40.7567 208.311L40.8892 207.781C40.9223 207.219 40.9223 206.656 40.9554 206.094C41.2865 200.535 42.7767 195.341 46.1543 190.841C49.9955 185.746 54.9626 181.809 60.3602 178.533C62.347 177.342 64.1352 175.985 65.2942 174C69.7977 166.457 70.1288 158.648 66.1551 150.84C64.0689 146.737 60.5258 144.289 55.658 144.454C54.9626 144.454 54.3666 144.19 53.7705 144.123C48.5054 143.429 43.7701 144.653 40.1607 148.623C36.485 152.66 36.187 157.292 38.8361 162.189C39.6308 163.677 40.7236 164.968 42.0813 166.06C43.4058 167.151 44.8629 167.979 46.4523 168.574C48.0418 169.17 49.6975 169.467 51.4194 169.534C52.2473 167.548 54.1348 168.872 55.3931 168.21C56.0554 167.879 56.7176 167.416 57.2144 166.887C59.5654 164.339 60.1284 159.376 58.5058 156.266C57.6117 154.612 56.3203 153.785 54.3997 153.884C52.5784 153.983 51.3863 154.976 50.5916 156.398C49.0683 159.178 48.4392 162.122 50.4591 165.696L50.426 165.795ZM591.177 112.725C590.813 111.17 590.813 111.17 589.587 110.21C587.501 108.589 585.216 107.298 582.766 106.273C580.713 105.413 578.627 105.082 576.408 105.346C574.421 105.578 573.627 106.438 573.428 108.423C573.262 110.243 573.56 112.03 574.322 113.651C577.6 120.5 582.766 125.264 589.852 128.044C591.806 128.805 593.462 128.507 595.084 127.316C600.813 123.014 604.952 117.555 607.105 110.673C607.502 109.383 607.502 108.093 607.668 106.769C607.966 104.221 606.442 102.468 603.098 103.229C601.707 103.527 600.449 104.221 599.323 105.049C597.104 106.637 595.051 108.423 593.329 110.574C592.7 111.368 592.17 112.261 591.177 112.725ZM53.34 112.725H52.744C53.2407 111.6 52.744 111.037 51.9823 110.475C49.3995 108.556 46.6841 106.901 43.6045 105.843C42.0482 105.313 40.4587 105.181 38.8692 105.28C36.4188 105.413 35.2598 106.637 35.326 109.085C35.326 110.508 35.6572 111.897 36.2201 113.188C39.5315 120.533 44.9291 125.529 52.5784 128.176C54.201 128.738 55.4593 128.408 56.7508 127.481C62.8106 123.213 66.983 117.555 69.2016 110.475C69.6652 109.052 69.897 107.53 69.7314 106.008C69.5327 103.99 68.4069 102.964 66.3869 103.03C65.0292 103.063 63.8371 103.593 62.6782 104.221C60.8569 105.214 59.2343 106.504 57.7773 107.993C56.2872 109.548 54.8302 111.136 53.3731 112.725H53.34ZM53.4062 231.67L52.744 231.835C53.3069 230.545 52.5784 229.982 51.8168 229.387C49.565 227.666 47.1477 226.21 44.4986 225.152C42.7104 224.424 40.8561 224.159 38.9686 224.291C36.3857 224.457 35.2267 225.681 35.326 228.262C35.3591 229.684 35.6903 231.074 36.2863 232.364C39.5977 239.544 44.9622 244.54 52.4791 247.154C54.0023 247.683 55.2937 247.551 56.6845 246.558C62.0821 242.753 65.9564 237.79 68.44 231.736C69.1685 229.982 69.599 228.195 69.7645 226.276C70.1288 222.141 67.1817 221.479 64.5657 222.405C62.0159 223.299 59.9297 224.92 58.0422 226.773C56.4527 228.361 54.9626 230.048 53.4394 231.703L53.4062 231.67ZM592.965 232.1C592.866 230.809 592.766 230.081 591.939 229.486C589.256 227.567 586.475 225.813 583.296 224.788C581.706 224.291 580.15 224.192 578.56 224.324C576.408 224.49 575.382 225.615 575.282 227.798C575.216 229.32 575.547 230.809 576.176 232.199C579.521 239.61 584.985 244.706 592.766 247.253C594.157 247.716 595.25 247.518 596.409 246.691C602.866 242.125 607.37 236.169 609.356 228.46C609.654 227.335 609.721 226.21 609.621 225.085C609.489 223.067 608.33 222.008 606.31 222.075C604.654 222.108 603.197 222.802 601.84 223.663C600.25 224.655 598.76 225.846 597.469 227.236C596.045 228.725 594.687 230.247 592.932 232.133L592.965 232.1ZM153.94 406.034C154.669 407.126 155.795 407.49 156.755 407.986C163.245 411.162 169.967 413.875 176.59 416.787C179.438 418.044 182.253 418.077 185.034 417.018C189.902 415.099 192.386 412.221 192.154 407.026C191.856 400.575 185.167 395.215 178.743 396.207C174.835 396.803 171.06 397.928 167.484 399.714C163.047 401.931 158.742 404.38 153.907 406.034H153.94ZM161.821 350.251C158.609 350.151 155.927 351.309 153.973 353.857C152.98 355.114 152.053 356.405 151.159 357.728C148.774 361.268 147.615 365.371 145.86 369.209C144.867 371.359 144.238 373.345 146.655 375.032C147.251 375.429 147.715 376.157 147.947 376.852C148.344 377.944 148.774 377.877 149.801 377.613C155.662 376.025 160.96 373.212 166.292 370.466C168.543 369.308 170.63 367.687 171.822 365.371C173.014 363.055 174.405 360.739 173.246 357.926C171.292 353.261 166.822 350.251 161.821 350.251ZM604.985 85.7925C607.999 77.6863 606.542 70.0434 602.667 62.599C602.071 61.4079 601.012 60.8124 599.952 60.1837C596.641 58.1986 593.528 55.9156 590.548 53.4342C587.071 50.5887 584.289 47.1478 582.766 42.8466C582.037 40.8283 581.375 38.7439 580.978 36.6264C580.547 34.4096 580.481 32.1266 581.541 29.976C584.786 23.4911 594.621 20.5796 600.912 24.2521C604.422 26.3035 605.714 29.8768 604.29 33.7148C603.495 35.8985 602.138 37.652 600.383 39.174C599.058 40.332 597.733 40.7291 596.243 39.3063C596.707 38.2145 597.469 37.2219 597.767 36.0308C598.131 34.6412 597.965 33.3839 597.071 32.2921C595.647 30.6047 593.727 30.1415 591.707 30.737C589.72 31.2995 588.23 32.5898 587.865 34.8066C587.501 37.0234 588.296 39.3063 589.422 40.8283C591.872 44.0046 595.581 45.7912 599.621 45.2288C606.608 44.2693 609.224 39.4056 609.588 33.7479C609.953 27.7262 603.959 21.4398 597.932 20.8442C597.204 20.7781 596.31 21.1089 595.78 20.4472C594.919 19.3884 593.826 19.7855 592.899 19.8847C586.905 20.5134 582.567 23.5573 580.017 29.0827C577.401 34.7735 577.004 44.17 582.534 49.6954C584.852 52.0445 587.104 54.4598 589.786 56.4119C594.422 59.7536 598.131 64.0217 601.475 68.5876C602.833 70.4405 603.727 72.4587 604.224 74.7086C605.052 78.3481 604.82 82.0868 604.952 85.7594L604.985 85.7925ZM517.896 471.71C518.26 477.004 520.379 479.915 524.386 481.007C526.174 481.503 528.029 481.801 529.949 481.735C535.777 481.47 540.513 475.713 539.354 470.023C537.93 462.975 535.347 456.325 532.035 449.939C531.77 449.476 531.605 448.914 530.909 448.781C529.055 448.417 526.77 449.542 525.843 451.296C524.154 454.571 522.399 457.781 520.777 461.089C519.022 464.663 518.227 468.534 517.863 471.743L517.896 471.71ZM529.055 358.754C530.015 358.754 530.976 358.621 531.87 358.754C533.923 359.118 534.949 358.092 535.777 356.405C538.128 351.607 539.585 346.611 539.883 341.284C540.049 338.373 539.387 335.66 537.334 333.476C534.055 329.902 530.049 329.075 525.512 330.597C520.147 332.384 516.836 338.108 518.194 343.567C519.32 348.1 521.373 352.203 522.863 356.537C523.624 358.787 523.691 358.787 526.207 358.754C527.168 358.754 528.095 358.754 529.055 358.754ZM41.7501 87.0166C41.3197 85.1638 41.4852 83.2779 41.5846 81.4582C41.8164 77.7194 41.9819 73.8814 44.2668 70.6721C47.1477 66.6025 50.0286 62.5329 54.1016 59.4558C57.413 56.9413 60.5258 54.1951 63.3736 51.1843C64.9961 49.4638 66.6187 47.7102 67.281 45.3942C68.9698 39.4387 68.738 33.6155 65.5591 28.1894C63.5722 24.8477 60.7907 22.4324 56.8832 21.4067C54.3997 20.745 52.0817 20.9766 49.4988 21.4067C45.4589 22.1346 42.2137 23.8551 39.664 26.899C35.6241 31.7958 36.2201 39.571 40.9554 43.5083C43.8363 45.8905 47.1146 46.6846 50.7571 45.692C54.8964 44.5671 57.3799 42.251 58.4065 38.2807C58.9032 36.3617 58.8701 34.3765 57.0488 32.8545C55.2606 31.3657 53.2738 31.1671 51.2207 31.8619C49.1014 32.5898 48.2074 34.6412 48.7372 36.858C48.969 37.7844 49.3663 38.6115 49.8631 39.4387C50.2604 40.1004 50.3267 40.4313 49.3332 40.8283C48.5385 41.1261 48.0418 41.2915 47.3133 40.8283C45.5914 39.7696 44.1675 38.4461 43.174 36.6595C42.1144 34.7404 41.2865 32.7884 41.717 30.5054C42.4455 26.6343 45.1278 24.7484 48.6047 23.9213C53.1413 22.8625 57.3468 23.7889 61.1218 26.6012C64.0689 28.7849 65.9564 31.498 65.824 35.4022C65.7578 37.7182 64.5988 39.7034 64.1683 41.9202C63.7047 44.4347 62.4795 46.6846 61.0225 48.8021C57.5455 53.7981 52.6446 57.206 47.5782 60.283C44.6973 62.0366 42.9754 64.2864 41.9819 67.3304C41.5846 68.5876 41.1872 69.8449 40.8229 71.1022C39.2666 76.4952 39.4322 81.8221 41.6839 87.0166H41.7501ZM144.668 433.098C143.542 434.852 143.741 436.175 144.668 437.73C145.761 439.583 146.39 441.668 147.019 443.752C148.443 448.55 150.231 453.149 153.145 457.317C155.728 461.056 159.172 462.81 163.742 462.479C167.981 462.181 172.55 457.847 172.683 453.744C172.749 451.693 172.153 449.741 171.159 447.921C168.941 443.884 165.1 441.767 161.159 440.013C155.761 437.631 149.967 436.109 144.701 433.131L144.668 433.098ZM116.819 359.316C117.382 359.316 117.78 359.25 118.144 359.316C120.296 359.846 121.323 358.886 122.217 356.967C123.542 354.155 124.535 351.21 125.727 348.365C126.919 345.519 127.25 342.541 126.985 339.531C126.721 336.685 125.429 334.27 122.879 332.814C115.859 328.844 108.309 331.855 106.157 339.531C105.097 343.402 105.826 347.14 107.349 350.813C108.508 353.592 110.263 356.074 111.124 358.985C111.389 359.846 111.753 359.978 112.515 359.68C113.972 359.085 115.495 359.415 116.786 359.316H116.819ZM75.0297 405.339C69.7645 402.295 64.0027 400.078 58.3402 397.63C55.36 396.34 52.2473 395.678 49.0021 396.009C46.2536 396.273 43.8363 397.365 42.4786 399.814C40.4587 403.42 39.9951 407.192 41.5846 411.162C42.3462 413.015 43.5052 414.338 45.3927 415.033C46.7172 415.53 48.0418 415.894 49.4657 416.059C54.5321 416.621 59.0687 414.669 63.5722 412.883C66.2876 411.824 68.8705 410.434 71.652 409.64C73.9038 409.012 75.129 407.854 74.9966 405.372L75.0297 405.339ZM83.8049 378.142C84.5334 376.389 85.0632 374.734 86.2222 373.51C86.9838 372.683 86.6858 372.087 86.2884 371.26C85.295 369.143 84.3678 366.959 83.4737 364.808C81.6525 360.441 79.202 356.438 76.0562 352.864C74.0694 350.614 71.4865 349.092 68.5724 349.787C64.0689 350.912 60.9562 353.758 60.0622 358.588C59.2674 362.956 60.6582 366.33 64.3007 368.845C65.1617 369.441 66.0227 370.003 66.9167 370.532C72.215 373.642 77.9768 375.661 83.7717 378.175L83.8049 378.142ZM314.609 437.003C315.437 437.069 315.801 437.135 316.165 437.102C321.497 436.969 326.265 435.117 330.769 432.404C337.093 428.599 340.008 422.775 340.703 415.662C340.802 414.702 340.802 413.412 339.147 413.18C338.484 413.081 337.855 412.419 337.259 411.956C334.974 410.269 332.722 408.581 330.504 406.927C329.179 407.721 327.822 408.383 326.596 409.243C323.914 411.129 321.695 413.379 320.967 416.721C320.603 418.276 320.205 419.831 319.907 421.386C319.212 425.058 318.781 428.83 317.093 432.238C316.364 433.727 315.536 435.183 314.609 436.969V437.003ZM566.706 371.194C569.818 371.194 572.898 371.095 575.978 371.723C577.137 371.955 578.296 371.723 579.488 371.161C583.958 369.176 585.746 365.404 586.541 361.004C586.905 358.952 586.74 356.835 585.547 355.015C583.693 352.203 577.335 349.787 573.991 350.449C569.587 351.309 566.573 353.89 564.62 357.794C562.864 361.334 561.143 364.875 559.421 368.415C558.427 370.433 558.825 371.095 561.076 371.194C562.964 371.26 564.851 371.194 566.739 371.194H566.706ZM499.286 370.929C498.822 368.514 497.796 366.297 496.901 364.081C495.014 359.515 492.365 355.478 488.325 352.434C486.173 350.813 483.888 350.052 481.272 349.986C477.066 349.887 472.066 354.816 471.934 359.018C471.834 362.327 473.026 365.139 475.212 367.488C478.788 371.293 479.417 371.426 484.285 371.26H485.146C489.815 370.599 494.517 370.83 499.319 370.996L499.286 370.929ZM289.277 395.016C289.277 393.461 288.747 392.105 288.085 390.715C286.595 387.605 283.714 386.447 280.734 385.487C279.21 384.991 277.654 384.759 276.462 383.535C275.733 382.807 274.674 383.072 273.746 383.204C268.879 383.899 266.163 387.042 264.541 391.344C263.713 393.593 264.508 395.347 266.66 396.836C268.216 397.895 269.309 399.218 269.673 401.104C269.839 402.03 270.005 402.957 270.203 403.85C270.932 406.828 273.581 408.085 275.998 406.265C278.614 404.28 281.462 403.089 284.442 401.931C287.489 400.74 289.31 398.457 289.277 395.016ZM341.829 406.729C342.193 406.166 342.392 405.868 342.59 405.538C355.041 383.932 367.161 362.162 380.042 340.821C380.274 340.424 380.539 340.027 380.671 339.564C380.804 339.134 380.837 338.538 380.373 338.306L379.314 338.406C378.055 339.134 377.095 340.159 376.334 341.35C374.843 343.633 373.386 345.949 371.996 348.298C364.28 361.268 355.505 373.477 346.365 385.454C342.392 390.649 338.252 395.744 335.769 401.898C335.405 402.791 335.405 403.188 336.266 403.652C338.087 404.611 339.875 405.637 341.829 406.729ZM342.888 442.032C340.008 443.09 336.928 442.991 334.014 443.785L333.252 444.149C332.16 444.679 331.067 445.241 329.941 445.737C328.318 446.432 327.126 447.59 326.133 448.98C324.013 451.957 324.576 454.671 327.722 456.557C328.385 456.954 329.014 457.317 329.676 457.681C331.332 458.641 332.292 460.064 332.557 461.95C332.656 462.512 332.722 463.074 332.888 463.604C333.782 466.085 335.703 466.582 337.69 464.861C338.186 464.431 338.683 463.968 339.08 463.472C340.703 461.387 342.955 460.527 345.471 460.295C346.597 460.196 347.69 459.964 348.783 459.667C350.869 459.137 352.525 457.913 353.849 456.259C354.478 455.432 355.041 454.472 354.379 453.413C353.783 452.421 352.723 452.652 351.796 452.785C351.167 452.884 350.538 453.182 349.875 453.248C347.226 453.546 344.975 451.56 345.041 448.947C345.041 447.789 345.802 446.862 346.2 445.803C346.862 444.083 346.498 443.19 344.743 442.561C344.147 442.362 343.551 441.999 342.822 442.065L342.888 442.032ZM584.819 406.596H585.018V411.989C585.018 415.794 585.481 416.522 589.058 417.581C591.111 418.176 593.197 418.474 595.449 417.945C600.118 416.82 603.131 414.14 604.224 409.475C605.317 404.843 603.694 401.038 600.085 398.259C595.747 394.917 590.945 395.446 586.177 397.464C585.018 397.961 584.72 398.656 584.786 399.847C584.885 402.097 584.786 404.38 584.786 406.629L584.819 406.596ZM299.443 328.248C315.867 326.428 331.63 328.347 346.928 334.137C347.69 332.649 347.392 331.458 346.034 330.465C345.438 330.002 344.975 329.373 344.412 328.877C336.299 321.631 327.192 316.9 315.867 317.793C310.337 318.223 305.768 320.572 301.96 324.476C300.966 325.502 299.84 326.594 299.41 328.281L299.443 328.248ZM331.431 350.648C330.57 350.813 329.775 350.879 328.947 351.21C327.656 351.706 326.398 352.434 326.166 353.758C325.901 355.313 327.557 355.511 328.55 356.074L328.782 356.239C330.603 357.298 331.166 358.588 330.934 360.706C330.703 362.525 329.577 363.717 328.351 364.941C327.49 365.801 326.365 366.397 325.735 367.488C324.676 369.275 324.941 370.731 326.629 371.823C328.749 373.179 330.338 373.279 332.292 371.657C334.411 369.904 336.564 369.043 339.312 369.97C340.272 370.301 341.365 370.135 342.359 369.738C343.783 369.176 344.643 368.084 344.047 366.727C342.491 363.286 343.484 360.97 346.697 359.316L347.359 358.82C348.154 357.926 348.385 357.033 347.988 355.743C346.961 352.6 344.478 351.574 341.696 351.475C338.286 351.309 334.809 352.103 331.464 350.648H331.431ZM534.651 398.821C528.757 398.854 523.459 403.552 523.823 408.78C524.287 415.397 529.419 419.235 534.651 419.334C539.85 419.434 544.519 414.074 544.685 408.416C544.85 403.023 539.221 398.358 534.651 398.788V398.821ZM283.648 436.705C283.416 438.491 284.21 439.881 285.899 440.774C287.621 441.668 288.813 440.609 289.84 439.517C291.264 437.995 292.919 437.499 294.906 437.532C296.827 437.565 298.615 437.069 300.039 435.613C301.827 433.727 301.761 432.536 299.708 431.014C299.112 430.551 298.416 430.22 297.853 429.724C296.43 428.433 296.132 426.547 297.125 424.86C297.39 424.364 297.787 423.933 298.085 423.47C299.145 421.783 298.946 421.088 297.092 420.195C295.569 419.467 293.88 419.07 292.555 417.945C292.224 417.68 291.661 417.581 291.231 417.614C287.257 417.912 283.614 419.004 281.197 422.478C279.74 424.562 279.839 425.257 281.528 427.176C282.025 427.738 282.455 428.367 283.018 428.896C284.376 430.22 284.608 431.808 284.144 433.562C283.879 434.554 283.548 435.547 283.648 436.738V436.705ZM292.621 350.648C287.423 350.714 282.025 355.114 281.065 359.713C280.734 361.367 281.164 362.36 282.654 363.22C283.217 363.551 283.879 363.75 284.409 364.114C287.091 365.834 287.82 367.654 287.025 370.731C286.926 371.095 286.76 371.426 286.727 371.823C286.595 373.014 287.456 374.701 288.482 375.131C289.774 375.694 290.337 374.569 291.098 373.973C291.529 373.609 292.025 373.212 292.224 372.716C293.648 368.746 296.33 366.893 300.635 367.257C302.059 367.389 302.986 366.231 303.748 365.106C304.278 364.312 304.311 363.485 303.748 362.757C303.152 362.029 302.523 361.301 301.364 361.897C300.966 362.128 300.469 362.195 300.006 362.261C298.449 362.459 296.959 362.228 295.999 360.904C295.138 359.746 295.403 358.39 295.999 357.132C296.396 356.272 296.992 355.544 297.853 355.048C298.483 354.651 299.145 354.254 299.708 353.758C300.701 352.831 300.469 351.607 299.178 351.508C296.827 351.342 294.476 351.442 292.721 350.681L292.621 350.648ZM468.092 405.504C468.092 402.924 468.026 400.773 468.092 398.589C468.159 397.101 467.463 396.406 466.072 396.042C463.986 395.446 461.999 395.645 459.979 396.207C455.31 397.564 451.767 402.824 452.363 407.457C453.29 414.769 458.887 418.904 466.172 417.68C468.357 417.316 468.622 417.184 468.39 414.934C468.026 411.658 468.092 408.35 468.059 405.471L468.092 405.504ZM548.096 426.216C547.466 425.654 546.837 425.29 546.572 424.761C545.778 423.239 545.016 423.437 543.725 424.297C537.102 428.632 527.929 427.408 522.234 421.518C516.538 415.629 515.478 406.53 519.75 400.211C520.313 399.383 521.571 398.788 521.273 397.729C521.008 396.803 520.147 396.009 519.518 395.182C519.154 394.685 518.823 394.09 518.094 394.057C509.187 405.339 511.538 418.276 519.684 425.985C526.969 432.867 539.453 433.727 548.029 426.216H548.096ZM582.932 445.175C582.501 445.373 582.17 445.671 581.971 446.101C580.878 448.285 578.858 449.079 576.64 449.211C574.223 449.344 571.772 449.377 569.322 449.112C566.739 448.847 564.156 448.814 561.143 448.682C562.5 452.156 563.891 455.068 565.547 457.913C567.832 461.85 571.441 463.405 575.845 463.637C578.461 463.769 580.349 462.611 582.004 460.858C582.766 460.031 583.494 459.104 583.958 458.112C586.177 453.513 587.005 449.41 582.932 445.175ZM69.1685 441.039C66.8836 441.932 64.7975 443.024 63.0755 444.612C60.4264 447.028 58.4727 449.939 58.7376 453.711C59.0356 458.509 64.2676 463.405 69.1023 463.802C73.8376 464.199 77.149 462.181 79.2682 458.178C74.1687 453.413 71.1553 447.557 69.1685 441.072V441.039ZM220.897 20.9766C221.857 29.4467 229.274 35.3029 237.52 34.1118C243.712 33.1854 248.679 26.899 247.686 20.9766H220.897ZM496.868 448.351C488.689 449.046 481.007 449.443 473.424 447.59C472.828 447.458 472.596 447.722 472.298 448.119C471.867 448.748 471.536 449.377 471.371 450.138C470.576 454.34 472.331 457.714 475.245 460.428C479.483 464.365 485.576 464.696 489.848 460.229C493.06 456.854 494.319 452.454 496.868 448.351ZM541.34 20.9766C542.301 29.4797 549.718 35.3029 557.964 34.1118C564.156 33.1854 569.123 26.899 568.13 20.9766H541.34ZM140.662 21.0428H113.641C114.866 29.5128 121.687 35.0051 129.833 34.178C136.092 33.5493 141.092 27.5607 140.662 21.0428ZM469.251 21.0097C470.675 29.8106 477.629 35.2367 485.808 34.1118C491.967 33.2847 496.868 27.2299 496.206 21.0097H469.218H469.251ZM390.175 20.9766H363.187C364.413 29.4797 371.234 35.1044 379.347 34.1449C386.566 33.2847 391.202 26.138 390.175 20.9766ZM326.961 20.8442C327.788 29.4797 335.603 35.5345 343.816 34.0787C348.783 33.2185 353.319 28.5202 354.015 23.5904C354.346 21.1751 354.247 21.0097 351.862 21.0097C345.273 20.9435 338.65 20.9104 332.06 20.8442C330.371 20.8442 328.683 20.8442 326.994 20.8442H326.961ZM184.968 21.0097C185.134 24.8477 187.352 28.8842 190.763 31.498C198.743 37.5528 210.101 33.2847 211.89 23.5904C212.353 21.142 212.254 21.0097 209.837 20.9766C202.485 20.9104 195.134 20.8442 187.75 20.8112C186.822 20.8112 185.862 20.6457 184.968 21.0097ZM77.7119 20.9766C78.4735 29.3805 86.2222 35.4683 94.3682 34.0456C99.4346 33.1523 104.104 29.0827 104.898 22.6309C105.031 21.4729 104.7 20.9104 103.375 20.9435C99.4015 21.0097 95.461 20.9435 91.4873 20.9435C86.9838 20.9435 82.4472 20.9435 77.7119 20.9435V20.9766ZM147.947 21.1089C148.377 25.344 150.529 28.6857 153.742 31.3326C161.59 37.7513 173.544 33.2185 175.133 23.2926C175.464 21.3074 175.232 21.0097 173.179 21.0097C165.431 20.9435 157.715 20.9104 149.967 20.8442C149.304 20.8442 148.642 20.7119 147.913 21.142L147.947 21.1089ZM433.786 20.8442C434.316 25.3771 436.402 28.6526 439.515 31.2664C447.33 37.7844 459.218 33.417 460.973 23.425C461.37 21.2082 461.205 21.0097 458.92 21.0097C451.37 20.9435 443.82 20.9104 436.27 20.8442C435.541 20.8442 434.78 20.8442 433.753 20.8442H433.786ZM256.825 20.9766C257.322 25.344 259.408 28.6195 262.554 31.2333C270.369 37.7513 282.224 33.417 284.012 23.425C284.409 21.2082 284.244 21.0097 281.992 20.9766C276.694 20.9766 271.429 20.9766 266.13 20.9766C263.117 20.9766 260.104 20.9766 256.825 20.9766ZM291.529 20.9766C291.893 24.9469 293.814 28.4541 297.092 31.2002C304.675 37.5197 316.695 33.7809 318.583 23.4581C318.98 21.2082 318.848 20.9766 316.629 20.9766C312.655 20.9766 308.715 20.9766 304.741 20.9766C300.403 20.9766 296.098 20.9766 291.529 20.9766ZM506.074 20.4472C506.306 24.3183 508.624 28.3548 511.737 30.9355C519.982 37.7182 531.207 32.8214 533.128 23.7889C533.691 21.142 533.459 20.9104 530.81 20.8773C524.684 20.7781 518.525 21.142 512.399 20.5134C510.346 20.3149 508.26 20.5134 506.074 20.5134V20.4472ZM398.983 20.9766C399.613 29.1489 406.964 35.5014 414.845 34.5088C420.441 33.814 424.912 29.7775 426.004 23.9874C426.468 21.5721 426.269 21.4067 423.885 21.3736C417.56 21.2744 411.236 21.6383 404.911 21.0097C402.957 20.8112 400.97 21.0097 398.983 21.0097V20.9766ZM552.765 420.493C558.46 411.658 557.401 399.152 548.758 391.906C541.672 385.984 530.115 385.421 523.657 390.549C524.121 391.708 525.181 392.435 525.843 393.428C526.207 393.957 526.572 393.957 527.234 393.593C529.519 392.369 532.035 392.237 534.618 392.071C545.082 391.476 555.281 402.13 550.943 415.133C550.612 416.158 549.453 417.184 550.016 418.176C550.513 419.07 551.705 419.632 552.732 420.426L552.765 420.493ZM369.545 408.615C370.34 408.548 370.936 408.251 371.466 407.887C372.525 407.159 373.055 406.034 373.353 404.843C373.883 402.659 375.307 401.501 377.526 401.269C378.254 401.17 378.983 401.005 379.744 400.872C380.936 400.674 381.764 399.979 382.36 398.92C383.321 397.2 383.023 396.538 381.003 396.009C380.539 395.876 380.109 395.744 379.645 395.612C376.267 394.785 375.241 393.593 375.075 390.252C375.075 389.722 375.307 389.061 374.777 388.664C373.817 387.936 372.625 387.572 371.598 386.91C371.102 386.579 369.943 386.91 369.247 387.241C366.697 388.465 364.28 389.888 362.657 392.369C360.969 394.983 361.101 395.843 363.883 397.431C366.333 398.854 367.591 400.773 367.26 403.685C367.161 404.611 367.194 405.571 367.393 406.497C367.625 407.688 368.353 408.515 369.578 408.648L369.545 408.615ZM105.66 469.626C106.157 471.644 106.488 473.166 106.918 474.688C108.673 480.941 115.594 483.82 121.389 480.776C123.575 479.618 125.065 477.996 125.628 475.515C126.423 472.008 126.356 468.666 124.568 465.258C118.873 468.831 112.614 470.089 105.66 469.626ZM394.215 372.915C398.785 366.992 393.222 345.519 385.705 342.508C383.519 346.379 381.897 350.581 379.314 354.221C387.758 359.316 391.467 362.79 394.215 372.915ZM277.356 336.057C267.024 336.387 257.388 342.244 252.454 350.217C250.567 353.261 248.712 356.371 248.547 360.077C248.381 363.088 248.315 366.099 248.646 369.11C248.745 370.069 248.878 370.996 249.441 372.087C251.063 359.945 264.077 343.005 277.389 336.023L277.356 336.057ZM24.2329 89.5643C24.0011 89.3658 23.6368 89.3989 23.2726 89.4981C17.875 90.5238 14.3649 95.5198 14.4642 100.417C14.5305 104.718 17.8088 108.523 21.6169 108.986C23.6699 109.217 23.9017 109.019 23.9679 107.067C23.9679 106.24 24.1666 105.379 24.1997 104.552C24.2991 99.5894 24.2329 94.6265 24.2329 89.5974V89.5643ZM24.4315 248.246C20.2923 248.312 16.8484 250.893 15.1927 255.028C13.7357 258.668 14.4974 262.837 17.2127 265.451C18.6697 266.84 20.3916 267.734 22.5109 267.734C23.6037 267.734 23.9679 267.303 23.9679 266.245C24.0673 263.333 24.3322 260.455 24.3984 257.543C24.4647 254.466 24.3984 251.356 24.3984 248.279L24.4315 248.246ZM24.1666 287.519C18.4379 287.453 13.0735 293.905 14.398 300.158C15.1596 303.731 18.0074 306.544 21.3188 307.139C23.2394 307.47 23.6699 307.139 23.7693 305.187C23.9017 302.077 24.1004 299 24.1666 295.89C24.2329 293.111 24.1666 290.298 24.1666 287.519ZM24.564 366.198C19.8949 366.397 15.7226 370.168 14.7292 374.867C13.7026 379.664 16.2855 384.329 20.9215 385.653C23.5044 386.381 23.8686 386.116 23.9679 383.535C23.9679 383.072 23.9679 382.576 24.0342 382.113C24.7627 376.885 24.2991 371.624 24.564 366.165V366.198ZM24.1997 327.156C17.8419 327.487 14.4642 333.542 14.4311 337.843C14.4311 342.144 17.6101 346.082 21.5837 346.776C23.4712 347.107 23.9017 346.776 23.9679 344.857C23.9679 344.03 24.1335 343.17 24.1666 342.343C24.266 337.281 24.1997 332.219 24.1997 327.156ZM24.2991 131.981C24.3984 129.599 24.2991 129.532 22.0142 130.26C17.875 131.551 15.4245 134.462 14.4311 138.598C13.2721 143.495 16.2855 148.392 20.9877 149.483C23.2063 150.013 23.703 149.682 23.8024 147.465C24.0011 142.304 24.1666 137.142 24.3322 131.981H24.2991ZM24.2991 170.625C24.4315 168.111 24.2991 168.012 21.8818 168.806C17.7756 170.162 15.3252 173.107 14.398 177.243C13.3384 182.073 16.2524 186.738 20.8552 187.93C23.2394 188.558 23.703 188.227 23.7693 185.812C23.9348 180.75 24.1335 175.688 24.2991 170.625ZM23.7693 217.806C24.0342 214.994 24.0673 212.182 24.3322 209.369C24.4315 208.245 24.0011 207.881 22.809 208.145C18.6697 209.105 15.0934 212.81 14.3318 217.045C13.4046 222.075 16.7491 227.137 21.4513 227.832C23.2063 228.096 23.703 227.765 23.7361 225.979C23.8024 223.266 23.7361 220.52 23.7361 217.806H23.7693ZM14.2324 20.4472C14.2324 24.9469 17.4445 28.9504 21.5506 29.4797C23.2063 29.7113 23.6699 29.3805 23.7361 27.8254C23.9017 24.4506 24.1997 21.0428 24.1335 17.668C24.0673 15.4843 24.3322 13.3668 24.2991 11.2162C24.2991 9.56185 24.1335 9.49567 22.4778 9.95888C17.5438 11.3154 14.2324 15.5504 14.1993 20.4472H14.2324ZM23.7693 59.125C23.9679 56.3127 24.1335 53.5003 24.3322 50.688C24.3984 49.5631 23.9679 49.1991 22.809 49.4638C18.6697 50.4233 15.0934 54.129 14.3318 58.364C13.4046 63.3931 16.7491 68.4553 21.4513 69.1501C23.2063 69.4148 23.703 69.0839 23.7361 67.2973C23.8024 64.5842 23.7361 61.8381 23.7361 59.125H23.7693ZM352.789 321.73C352.756 325.998 355.339 328.579 359.479 328.744C363.22 328.877 366.73 325.469 366.664 322.359C366.565 319.05 364.247 314.815 359.677 314.749C355.869 314.683 352.856 317.694 352.823 321.763L352.789 321.73ZM577.468 284.111C581.342 284.144 584.289 281.167 584.355 277.13C584.388 273.325 582.435 270.91 576.143 270.413C573.759 270.248 570.481 273.954 570.348 276.832C570.183 280.637 573.56 284.045 577.468 284.111ZM68.9036 284.111C72.7448 284.111 75.5926 281.001 75.5926 276.931C75.5926 275.244 74.9966 273.888 73.9038 272.63C72.0825 270.513 69.4996 270.777 67.1817 270.48C64.7643 270.182 61.6185 274.152 61.6185 276.998C61.6185 280.869 64.9299 284.111 68.9036 284.078V284.111ZM417.594 446.035C417.594 442.098 414.878 439.285 410.938 439.219C406.865 439.153 403.917 441.965 403.851 445.936C403.818 449.84 406.666 452.95 410.308 453.016C413.52 453.082 417.925 450.303 417.56 446.035H417.594ZM411.501 379.697C412.858 379.532 414.348 379.168 415.574 377.977C417.031 376.554 417.825 374.536 417.825 372.815C417.825 368.944 414.911 366.132 411.335 366C407.792 365.867 404.083 369.474 404.116 372.915C404.116 376.223 407.726 379.631 411.501 379.697ZM285.899 504.565C289.111 504.929 292.158 502.646 292.555 498.113C292.853 494.738 289.608 491.529 285.999 491.363C282.787 491.198 279.31 494.341 279.343 497.352C279.343 501.62 281.992 504.498 285.899 504.565ZM234.473 440.212C231.294 440.013 227.917 442.958 227.718 446.134C227.453 449.972 230.135 453.115 233.778 453.215C237.156 453.347 240.368 450.601 240.633 447.359C240.931 443.851 237.95 440.41 234.473 440.212ZM75.0297 299.794C75.0628 296.452 72.1156 293.441 68.8042 293.441C65.7578 293.441 62.3801 296.585 62.4795 299.562C62.6119 303.599 65.7246 306.147 68.8705 306.213C72.1819 306.279 74.9634 303.367 75.0297 299.794ZM583.792 299.695C583.792 296.386 580.746 293.375 577.468 293.475C574.355 293.574 571.209 296.717 571.242 299.695C571.242 303.103 574.421 306.246 577.799 306.213C581.11 306.213 583.826 303.268 583.826 299.662L583.792 299.695ZM366.002 497.848C366.002 494.407 363.121 491.363 359.909 491.363C356.465 491.363 353.419 494.407 353.419 497.815C353.419 501.024 356.531 503.903 359.876 503.87C363.353 503.804 366.002 501.19 365.969 497.881L366.002 497.848ZM285.138 327.752C288.449 327.785 291.363 324.906 291.496 321.432C291.628 318.289 288.714 315.543 285.237 315.51C281.926 315.477 278.846 318.256 278.78 321.366C278.747 324.443 281.959 327.719 285.138 327.752ZM622.436 367.455C623.132 373.709 622.668 379.763 622.834 385.851C627.867 384.362 631.212 380.392 631.112 375.396C631.046 371.326 629.291 368.746 624.986 367.819C624.258 367.654 623.496 367.621 622.403 367.488L622.436 367.455ZM228.215 373.444C228.248 376.719 230.93 379.234 234.242 379.135C238.083 379.035 240.103 374.9 240.036 372.021C239.97 368.977 237.719 366.43 234.97 366.761C230.731 367.224 228.182 369.308 228.182 373.444H228.215ZM622.834 249.304C622.834 252.117 622.834 254.532 622.834 256.98C622.834 259.594 622.834 262.241 622.999 264.855C623.099 266.509 623.662 266.774 625.218 266.377C628.43 265.583 631.145 262.076 631.41 258.436C631.675 254.664 629.755 251.422 626.377 250.165C625.35 249.768 624.225 249.635 622.801 249.304H622.834ZM622.966 289.041C622.966 294.103 622.9 299.066 622.999 304.029C623.032 306.18 623.595 306.378 625.682 305.584C629.655 304.062 632.006 299.893 631.377 295.691C630.814 291.853 626.841 288.611 622.966 289.041ZM622.933 209.7C622.933 214.696 622.867 219.56 622.933 224.424C622.999 226.839 623.496 227.071 625.682 226.243C629.655 224.721 632.006 220.553 631.344 216.318C630.781 212.48 626.807 209.237 622.9 209.7H622.933ZM622.834 170.129C622.834 173.107 622.834 176.118 622.834 179.096C622.834 181.147 622.834 183.231 622.999 185.283C623.132 187.102 623.595 187.301 625.384 186.705C628.96 185.481 630.881 182.801 631.377 179.228C632.106 173.967 628.298 169.964 622.834 170.129ZM622.834 131.485C622.834 134.562 622.834 137.539 622.834 140.55C622.834 142.601 622.834 144.686 622.999 146.737C623.132 148.557 623.595 148.756 625.384 148.127C629.423 146.737 631.874 142.701 631.377 138.4C630.947 134.396 626.907 131.021 622.801 131.451L622.834 131.485ZM622.834 92.4759C622.834 95.4536 622.834 98.4645 622.834 101.442C622.834 103.494 622.834 105.578 622.999 107.629C623.132 109.449 623.595 109.648 625.384 109.052C628.96 107.828 630.881 105.148 631.377 101.575C632.106 96.3139 628.298 92.3104 622.834 92.4759ZM622.933 51.5813C622.933 56.5773 622.867 61.441 622.933 66.3047C622.999 68.72 623.496 68.9516 625.682 68.1244C629.655 66.6025 632.006 62.4336 631.344 58.1986C630.781 54.3606 626.807 51.1181 622.9 51.5813H622.933ZM622.933 12.4734C622.933 17.4694 622.867 22.3331 622.933 27.1968C622.999 29.6121 623.496 29.8437 625.682 29.0165C629.655 27.4946 632.006 23.3257 631.344 19.0907C630.781 15.2527 626.807 12.0102 622.9 12.4734H622.933ZM622.834 328.778C622.834 332.318 622.834 335.891 622.834 339.431C622.834 340.854 622.9 342.244 622.966 343.666L623.066 344.494C623.264 345.552 623.893 345.817 624.887 345.585C628.96 344.626 631.94 340.093 631.41 335.659C630.914 331.458 627.503 328.678 622.834 328.778ZM587.865 283.218C587.601 286.262 590.316 289.372 593.396 289.603C596.475 289.835 599.157 287.453 599.488 284.21C599.853 280.703 597.8 278.751 593.064 278.156C590.945 277.891 588.097 280.67 587.865 283.218ZM90.7588 283.913C90.7257 282.325 90.3945 281.1 89.4342 280.042C87.9441 278.42 85.8248 278.652 84.0035 278.222C81.8511 277.726 79.1689 280.869 79.0696 283.449C78.9702 286.56 81.7518 289.504 84.8645 289.57C88.0103 289.67 90.7257 286.924 90.7588 283.88V283.913ZM367.856 345.023C369.81 342.078 372.062 339.464 374.38 336.751C371.4 335.792 368.486 335.858 365.605 335.56C363.651 335.362 361.664 335.461 359.743 335.924C358.154 336.288 358.286 337.612 357.922 338.703C357.525 339.828 358.253 340.192 359.048 340.589C361.995 342.045 364.876 343.534 367.889 345.023H367.856ZM137.681 453.678C135.165 454.737 134.105 457.02 134.999 459.336C136.489 463.074 137.946 466.846 139.37 470.618C140.595 473.827 140.065 473.695 143.443 472.504L143.94 472.239C145.198 472.008 145.364 471.379 144.867 470.221C142.417 464.729 140.065 459.203 137.681 453.678ZM122.681 381.583C122.912 380.16 122.416 379.102 121.058 378.672C119.7 378.274 118.707 378.969 117.978 380.094C117.614 380.657 117.283 381.219 117.051 381.848C116.124 384.693 115.098 387.472 114.501 390.45C114.237 391.741 114.601 392.832 114.601 394.024C114.601 395.016 115.462 395.182 116.157 395.347C117.051 395.546 119.27 394.387 119.634 393.527C121.157 389.689 121.985 385.653 122.614 381.616L122.681 381.583ZM549.089 299.596C548.625 301.978 551.275 305.22 554.453 305.452C557.136 305.65 559.884 302.673 559.984 299.728C559.984 298.437 559.586 297.379 558.692 296.419C557.467 295.096 555.712 294.699 554.189 294.335C551.837 293.805 549.089 296.949 549.056 299.629L549.089 299.596ZM40.3262 299.761C40.3594 302.673 43.1409 305.518 45.8563 305.452C48.6047 305.386 51.1876 302.474 51.1876 299.529C51.1876 298.206 50.6909 297.18 49.7637 296.287C48.5054 295.03 46.7503 294.5 45.2271 294.368C42.578 294.07 40.2269 297.015 40.26 299.794L40.3262 299.761ZM165.497 424.364C164.47 425.422 164.305 426.878 163.709 428.202C168.411 430.385 173.08 432.569 177.749 434.753C181.325 436.44 181.392 436.407 182.749 432.602C182.882 432.271 182.948 431.94 183.047 431.576C177.12 429.128 171.325 426.746 165.497 424.364ZM165.066 388.333C165.961 388.465 166.689 388.035 167.484 387.704C171.226 386.215 174.968 384.759 178.709 383.304C181.469 382.223 182.076 380.304 180.531 377.547C175.961 379.433 171.391 381.352 166.822 383.204C164.415 384.197 163.83 385.895 165.066 388.3V388.333ZM605.714 299.132C605.714 296.618 603.197 294.136 600.681 294.136C598.031 294.136 595.084 296.816 595.117 299.165C595.151 301.912 597.866 304.79 600.449 304.856C602.866 304.922 605.714 301.812 605.714 299.132ZM96.918 299.199C96.9511 296.651 94.5338 294.202 91.984 294.136C89.368 294.07 86.3215 296.75 86.3215 299.066C86.3215 301.779 88.9706 304.856 91.5866 304.79C94.1695 304.724 96.62 302.54 96.918 299.199ZM566.176 283.284C566.242 280.769 563.527 278.156 560.844 278.123C558.063 278.089 555.414 280.505 555.381 283.119C555.348 285.865 557.93 288.545 560.745 288.644C563.494 288.743 566.11 286.163 566.176 283.284ZM57.413 283.284C57.4793 280.803 54.7639 278.189 52.0486 278.123C49.267 278.089 46.6179 280.505 46.5848 283.152C46.5517 285.898 49.1677 288.578 51.9492 288.677C54.6977 288.743 57.3137 286.163 57.3799 283.284H57.413ZM566.176 315.411C566.176 313.988 565.249 312.367 564.057 311.672C562.699 310.878 558.924 310.58 558.03 311.143C555.877 312.532 555.05 314.947 555.977 317.23C556.97 319.778 559.619 321.333 562.003 320.804C564.189 320.341 566.209 317.727 566.209 315.411H566.176ZM57.3799 315.311C57.3468 312.995 55.7242 311.308 53.34 311.076C52.6115 311.01 51.8499 311.341 51.1876 310.779C50.5253 310.216 49.9624 310.779 49.4326 311.076C47.2139 312.367 46.3199 314.782 47.1477 317.098C48.0749 319.679 50.6247 321.3 53.042 320.87C55.36 320.473 57.4793 317.793 57.413 315.345L57.3799 315.311ZM66.7181 424.694C61.1549 427.308 55.3931 429.227 49.7637 431.576C50.0949 432.536 50.2935 433.363 50.6247 434.124C51.4525 436.076 51.5188 436.109 53.5056 435.216C57.3468 433.495 61.188 431.742 64.963 429.955C66.2214 429.36 67.6784 429.26 68.8042 428.202C68.1088 427.044 67.4466 425.919 66.7181 424.694ZM577.269 326.594C579.753 326.561 582.435 323.748 582.302 321.102C582.236 320.01 582.071 318.786 581.077 318.058C579.719 317.098 578.163 316.271 576.54 316.205C574.057 316.072 571.706 318.786 571.772 321.234C571.838 324.046 574.521 326.66 577.269 326.627V326.594ZM73.5395 321.102C73.2415 320.109 73.3077 318.885 72.3474 318.091C71.0229 317.032 69.4003 316.37 67.8439 316.172C65.4597 315.907 62.9762 318.686 63.0093 321.102C63.0093 323.881 65.6584 326.561 68.44 326.561C70.9566 326.561 73.5064 323.881 73.5726 321.068L73.5395 321.102ZM86.9176 342.045C89.368 347.537 91.7853 352.831 93.7391 358.324C94.1033 359.316 94.5338 359.448 95.3616 359.118C95.7921 358.952 96.2557 358.853 96.7193 358.721C97.6796 358.423 97.7127 357.96 97.3154 357.066C95.4279 352.765 94.1033 348.265 92.6132 343.799C91.388 340.093 91.4211 340.093 87.8448 341.615C87.5798 341.714 87.3481 341.88 86.9176 342.111V342.045ZM554.321 472.703C555.083 472.405 555.844 471.975 556.672 471.776C557.964 471.412 557.964 470.684 557.533 469.626C555.513 464.894 553.493 460.13 551.473 455.365C551.275 454.902 551.109 454.472 550.546 454.439C548.957 454.373 547.632 456.126 548.162 457.582C548.659 458.906 549.155 460.196 549.652 461.553C550.811 464.828 551.97 468.104 553.129 471.379C553.328 471.942 553.361 472.736 554.321 472.703ZM547.433 357.265C547.764 357.43 547.996 357.596 548.228 357.695C549.928 358.246 551.153 357.673 551.904 355.974C553.46 352.467 555.016 348.96 556.573 345.453C557.632 343.093 556.926 341.472 554.453 340.589C554.122 340.457 553.758 340.391 553.394 340.292C551.374 345.982 549.387 351.607 547.4 357.298L547.433 357.265ZM503.624 340.689C502.564 341.218 501.67 341.78 500.71 342.144C499.617 342.541 499.517 343.071 499.981 344.063C502.299 348.894 504.584 353.725 506.902 358.687C508.094 358.191 509.286 357.695 510.346 356.802C508.094 351.475 505.908 346.214 503.557 340.689H503.624ZM51.2207 377.381C50.6578 378.804 50.128 380.16 49.5319 381.649C55.5255 383.668 61.188 385.984 66.6518 388.333C67.4797 387.605 67.4135 386.778 67.6784 386.083C68.0095 385.223 67.8439 384.693 66.983 384.296C61.7841 382.013 56.5852 379.697 51.2207 377.348V377.381ZM89.2024 315.179C89.2687 313.359 86.752 310.15 85.0963 310.018C82.3147 309.819 79.4338 312.102 79.3014 314.683C79.1358 317.396 81.52 320.109 84.2022 320.208C86.8182 320.341 89.07 318.058 89.2024 315.179ZM597.965 315.179C598.065 313.392 595.482 310.117 593.892 310.018C591.144 309.786 588.23 312.102 588.064 314.65C587.899 317.363 590.25 320.076 592.932 320.208C595.548 320.341 597.8 318.091 597.932 315.179H597.965ZM138.178 357.86C139.999 353.625 141.82 349.39 143.642 345.188C144.569 343.027 143.984 341.527 141.887 340.689C141.556 340.556 141.191 340.325 140.628 340.788C138.608 345.949 136.589 351.342 134.8 356.835C136.026 357.331 137.019 357.827 138.211 357.893L138.178 357.86ZM503.491 472.868C505.644 467.111 507.73 461.519 509.816 455.862C509.385 455.696 509.021 455.531 508.69 455.398C506.538 454.637 506.571 454.671 505.644 456.788C504.617 459.203 503.557 461.586 502.465 464.001C501.438 466.284 500.378 468.534 499.319 470.85C500.743 471.611 501.869 472.471 503.458 472.835L503.491 472.868ZM585.183 385.818C586.541 385.289 587.468 384.925 588.428 384.594C590.117 384.032 591.839 383.568 593.495 382.907C595.084 382.245 595.349 382.973 593.892 379.433C592.998 377.282 592.998 377.282 591.508 378.01C590.25 378.638 589.024 379.333 587.766 379.962C586.706 380.524 585.084 380.888 584.72 381.749C584.289 382.741 584.951 384.23 585.216 385.851L585.183 385.818ZM592.402 435.844C593.296 434.885 593.462 433.727 593.992 432.734C594.521 431.709 594.455 431.113 593.197 430.65C591.177 429.922 589.256 428.896 587.236 428.135C586.342 427.771 585.514 427.011 584.256 427.341C584.256 428.466 584.256 429.591 584.256 430.716C584.256 431.411 584.388 431.973 585.084 432.337C587.534 433.495 589.985 434.686 592.402 435.844ZM464.317 435.944C469.318 433.694 468.755 434.852 468.059 429.492C468.026 429.161 468.125 428.764 467.662 428.566C467.264 428.731 466.834 428.896 466.404 429.062C461.9 430.882 461.801 431.179 464.317 435.944ZM89.4342 466.052C88.7057 466.648 88.6395 467.343 88.3746 467.905C87.1604 470.508 87.9993 472.25 90.8912 473.133C91.7853 471.346 92.4807 469.493 93.0437 467.574C91.7522 467.012 90.6263 466.515 89.4673 466.019L89.4342 466.052ZM468.092 384.362C468.004 380.414 466.602 378.032 463.887 377.216C463.589 378.672 462.032 379.929 462.397 381.285C462.794 382.741 464.88 382.609 466.072 383.403C466.602 383.767 467.231 383.965 468.092 384.362Z" fill="#1F1814"/>
</g>
<defs>
<filter id="filter0_d_2_40" x="0" y="0" width="647" height="548" filterUnits="userSpaceOnUse" color-interpolation-filters="sRGB">
<feFlood flood-opacity="0" result="BackgroundImageFix"/>
<feColorMatrix in="SourceAlpha" type="matrix" values="0 0 0 0 0 0 0 0 0 0 0 0 0 0 0 0 0 0 127 0" result="hardAlpha"/>
<feOffset dy="4"/>
<feGaussianBlur stdDeviation="2"/>
<feComposite in2="hardAlpha" operator="out"/>
<feColorMatrix type="matrix" values="0 0 0 0 0 0 0 0 0 0 0 0 0 0 0 0 0 0 0.25 0"/>
<feBlend mode="normal" in2="BackgroundImageFix" result="effect1_dropShadow_2_40"/>
<feBlend mode="normal" in="SourceGraphic" in2="effect1_dropShadow_2_40" result="shape"/>
</filter>
<clipPath id="clip0_2_40">
<rect width="639" height="540" fill="white" transform="translate(4)"/>
</clipPath>
</defs>
</svg>
