<svg width="379" height="322" viewBox="0 0 379 322" fill="none" xmlns="http://www.w3.org/2000/svg">
<g filter="url(#filter0_d_81_25)">
<path d="M260.647 263.621C258.751 269.477 256.067 274.912 252.666 279.998C245.729 290.37 236.712 298.451 225.792 304.428C217.246 309.11 208.117 312.016 198.469 313.29C194.172 313.855 189.843 314.142 185.518 313.931C167.418 313.043 151.294 307.02 137.488 295.141C127.992 286.971 121.014 277.016 116.632 265.262C116.461 264.8 116.273 264.347 116.089 263.89C116.071 263.845 116.009 263.823 115.829 263.679C115.628 264.029 115.431 264.374 115.229 264.72C110.367 273.069 103.649 279.54 95.2603 284.271C89.0806 287.756 82.4394 289.904 75.3768 290.617C65.155 291.648 55.3634 289.953 46.1991 285.321C29.7438 276.998 19.7595 263.612 15.7756 245.67C14.9421 241.917 14.7001 238.091 14.5656 234.262C14.5343 233.392 14.7001 232.517 14.7673 231.643C14.8032 231.204 14.6777 230.89 14.1534 230.885C9.10742 230.836 4.93085 225.495 4.20488 220.975C3.54613 216.872 4.45584 213.248 7.22528 210.145C7.99158 209.289 8.95954 208.638 9.98128 208.087C10.3084 207.912 10.7252 207.84 10.9089 207.445C2.3093 202.553 1.7088 189.221 11.5408 184.764C6.93848 182.275 4.35277 178.539 4.22729 173.248C4.10181 167.934 6.4769 164.149 11.2809 161.813C1.44441 156.342 2.35411 142.996 10.8417 139.135C6.28421 136.234 4.01219 132.194 4.20488 126.754C4.37517 121.844 7.45831 117.817 12.8717 116.005C7.69133 114.01 4.75608 110.323 4.26314 104.951C3.76124 99.5116 5.93915 95.3546 10.891 92.7492C2.381 88.1797 1.49818 74.8612 10.9761 70.2692C5.75093 67.1212 3.49684 62.453 4.36621 56.5157C5.06977 51.7219 8.00054 48.5919 12.8672 47.13C6.66512 44.5828 3.81949 40.0133 4.2497 33.5513C4.55443 29.0177 6.96536 25.7889 11.133 23.7799C10.3174 23.1925 9.4973 22.6723 8.76236 22.0535C3.83742 17.9324 2.56025 10.6901 6.42761 5.16093C8.00951 2.90082 10.3263 1.68107 13.042 1.24161C14.2878 1.03981 15.5336 0.990485 16.8063 1.09363C19.1635 1.28197 21.5161 0.92322 23.8778 0.918736C35.1303 0.878376 46.3873 0.932189 57.6399 0.766268C79.7058 0.43891 101.776 0.555503 123.842 0.443395C201.687 0.0398031 279.531 0.385098 357.376 0.277474C359.065 0.277474 360.737 0.183302 362.413 0.0936153C363.995 0.00841269 365.671 -0.112665 367.275 0.219177C369.462 0.672096 371.187 1.90081 372.536 3.64074C377.878 10.5511 374.06 21.1118 365.644 23.0086C365.227 23.1028 364.779 23.1207 364.425 23.5064C365.37 24.1432 366.468 24.3315 367.504 24.6454C371.685 25.9055 374.759 29.9325 374.951 34.2823C375.202 39.8339 372.85 43.8833 367.952 46.7308C373.343 49.1838 375.556 53.4932 374.848 59.0807C374.149 64.601 370.788 68.1212 365.196 69.7176C370.95 70.2019 374.83 74.489 374.951 80.0271C375.072 85.5429 372.59 89.4443 367.759 92.1528C373.249 94.5475 375.4 98.848 374.893 104.574C374.467 109.35 371.501 112.633 365.465 115.229C371.03 115.727 374.862 120.014 374.951 125.678C375.028 130.682 372.948 134.449 368.727 137.046C367.875 137.566 366.899 137.88 365.823 138.355C366.648 138.736 367.436 138.633 368.144 138.907C372.003 140.378 374.14 143.333 374.795 147.225C375.749 152.902 373.181 157.66 368.776 160.261C368.122 160.647 367.414 160.938 366.598 161.337C368.516 161.849 370.179 162.593 371.546 163.907C376.076 168.252 376.135 176.176 371.653 180.871C370.085 182.517 368.973 183.221 366.079 184.387C371.111 185.257 373.925 188.432 374.777 193.145C375.906 199.401 372.617 204.607 367.526 206.889C367.288 206.997 366.961 206.957 366.854 207.419C369.646 208.069 371.792 209.643 373.316 212.123C374.857 214.634 375.229 217.356 374.853 220.19C374.257 224.728 370.407 230.486 363.152 230.652C362.834 231.468 363.246 232.248 363.309 233.042C364.026 242.159 362.238 250.818 358.536 259.119C355.574 265.764 351.438 271.599 346.15 276.585C338.501 283.8 329.471 288.357 319.146 290.348C314.871 291.173 310.546 291.446 306.222 291.191C298.487 290.733 291.138 288.729 284.21 285.209C274.651 280.348 267.002 273.415 261.324 264.302C261.185 264.078 261.1 263.791 260.647 263.639V263.621ZM293.88 123.741C293.88 124.274 293.88 124.803 293.88 125.337C293.912 128.575 293.912 131.817 293.988 135.055C294.042 137.306 294.01 139.561 294.315 141.795C294.472 142.947 294.629 143.086 295.736 143.216C296.117 143.261 296.502 143.252 296.887 143.243C299.518 143.162 302.153 143.086 304.783 142.987C306.432 142.925 306.769 142.548 306.773 140.884C306.795 131.055 306.84 121.225 306.827 111.4C306.827 107.722 306.93 104.041 306.679 100.368C306.585 99.0094 306.406 98.7897 305.119 98.7807C302.045 98.7627 298.976 98.8166 295.901 98.8166C294.602 98.8166 293.818 99.3906 293.217 100.565C291.29 104.323 289.233 108.014 287.284 111.763C286.764 112.763 286.101 113.256 284.967 113.229C282.937 113.184 280.907 113.184 278.877 113.216C278.187 113.225 277.725 112.983 277.425 112.377C277.183 111.884 276.923 111.4 276.668 110.915C274.821 107.422 272.935 103.951 271.151 100.426C270.537 99.2157 269.829 98.5923 268.377 98.6731C265.805 98.8121 263.224 98.7448 260.647 98.7941C257.981 98.8435 257.958 98.8569 257.972 101.61C258.03 114.736 258.102 127.857 258.173 140.983C258.182 142.548 258.357 142.741 259.97 142.866C260.737 142.925 261.507 142.956 262.274 142.911C264.299 142.799 266.325 142.705 268.359 142.723C270.721 142.745 271.03 142.436 271.012 140.091C270.976 135.315 270.882 130.539 270.833 125.763C270.833 125.449 270.587 125.01 271.156 124.772C272.756 127.001 274.373 129.211 275.933 131.463C276.542 132.342 277.259 132.799 278.362 132.875C280.669 133.041 282.968 132.853 285.267 132.911C286.822 132.951 287.678 132.351 288.44 131.117C290.026 128.552 291.743 126.072 293.88 123.736V123.741ZM228.767 63.8745C226.168 63.8969 224.196 63.8655 222.229 64.0808C220.997 64.2153 220.374 64.9194 220.436 66.166C220.472 66.8207 220.593 67.471 220.705 68.1212C221.525 72.8925 223.385 77.1482 226.907 80.5742C232.034 85.5698 239.271 86.6236 245.576 83.2469C248.704 81.5742 251.12 79.1348 252.908 76.0899C256.036 70.767 256.901 65.0046 256.112 58.9417C255.426 53.695 253.239 49.1928 249.435 45.4977C244.071 40.2913 235.229 39.4617 229.067 44.1837C227.566 45.3317 226.441 46.8205 225.299 48.2959C223 51.2556 221.584 54.6188 220.822 58.2691C220.584 59.3991 220.853 59.7803 221.947 59.9956C222.157 60.0359 222.381 60.0135 222.596 60.0359C225.827 60.3364 229.067 60.0897 232.298 60.2691C233.71 60.3498 234.602 59.9507 235.364 58.6547C236.981 55.9103 240.15 55.8161 242.166 58.3005C244.026 60.592 244.16 64.4216 242.471 66.9597C240.526 69.8835 237.057 69.8208 235.22 66.8162C234.88 66.2557 234.588 65.6593 234.333 65.0539C233.97 64.1884 233.387 63.8073 232.424 63.8521C230.999 63.9149 229.574 63.87 228.767 63.87V63.8745ZM151.631 64.5561V64.6099C149.932 64.6099 148.229 64.5786 146.535 64.6234C145.818 64.6413 145.285 65.2378 145.361 65.9553C145.487 67.1481 145.679 68.3409 145.971 69.5069C147.257 74.6728 149.771 79.1258 154.306 82.3321C158.787 85.498 164.711 85.9375 169.583 83.4128C172.85 81.7177 175.341 79.2648 177.178 76.2289C180.365 70.9508 181.422 65.2153 180.683 59.139C180.029 53.7533 178.021 48.9596 174.091 45.1075C171.375 42.4483 168.14 40.7936 164.317 40.5155C160.176 40.2151 156.515 41.5559 153.36 44.1882C148.359 48.3631 146.038 53.9282 145.339 60.2646C145.213 61.3947 145.424 61.5606 146.652 61.5651C149.175 61.5651 151.698 61.5516 154.221 61.5426C154.933 61.5426 155.65 61.5023 156.358 61.5292C157.241 61.5651 157.81 61.2377 158.066 60.3453C158.326 59.4395 158.85 58.6502 159.446 57.9328C161.373 55.6188 164.487 55.6054 166.45 57.8745C168.924 60.7355 168.525 66.0494 165.648 68.5024C164.084 69.8387 162.005 69.9329 160.338 68.74C159.325 68.0136 158.568 67.0629 158.205 65.8835C157.886 64.8431 157.223 64.5337 156.237 64.5517C154.7 64.5741 153.163 64.5561 151.631 64.5561ZM138.935 84.9823C138.962 84.7312 138.998 84.5205 139.002 84.3052C139.105 80.081 139.253 75.8522 139.294 71.628C139.392 61.6368 139.934 51.6502 139.71 41.6546C139.692 40.9505 139.598 40.6276 138.872 40.6276C135.856 40.6232 132.84 40.6052 129.829 40.5828C129.296 40.5828 129 40.816 128.955 41.3407C128.897 42.0537 128.857 42.7622 128.821 43.4752C128.534 48.9596 128.449 54.4484 128.373 59.9417C128.355 61.2915 128.337 61.3095 127.001 61.3184C125.079 61.3319 123.161 61.3274 121.238 61.3139C120.002 61.305 119.979 61.2915 119.939 60.0269C119.804 55.8565 119.697 51.6861 119.558 47.5156C119.495 45.6501 119.41 43.7846 119.28 41.9236C119.19 40.6052 119.056 40.5021 117.81 40.5111C115.507 40.52 113.199 40.52 110.896 40.5738C108.225 40.6366 108.108 40.7577 108.104 43.39C108.099 52.7802 108.104 62.1705 108.108 71.5607C108.108 75.2962 108.117 79.0271 108.153 82.7626C108.166 84.2335 108.261 84.2962 109.704 84.5474C109.972 84.5922 110.25 84.6281 110.519 84.6326C113.208 84.664 115.897 84.7088 118.585 84.7088C119.625 84.7088 119.822 84.5115 119.885 83.4577C119.943 82.4173 119.916 81.3724 119.921 80.3276C119.934 77.3634 119.943 74.3993 119.952 71.4351C119.952 70.8746 119.876 70.314 120.754 70.3768C122.888 70.5248 125.03 70.5921 127.158 70.7625C128.31 70.8567 128.462 71.1078 128.4 72.3948C128.247 75.5742 128.126 78.7581 128.162 81.942C128.198 85.0406 128.18 85.0317 131.339 85.0496C133.853 85.0675 136.372 85.1752 138.931 84.9823H138.935ZM164.062 121.023H163.918C163.918 127.727 163.918 134.427 163.918 141.131C163.918 143.086 163.927 142.956 166.347 143.019C169.39 143.095 172.433 143.144 175.476 143.122C177.842 143.104 177.918 143.373 177.931 141.66C177.958 137.759 177.958 133.857 177.976 129.96C177.985 128.31 177.999 128.826 180.835 128.633C182.628 128.512 184.42 128.525 186.213 128.624C187.167 128.678 187.723 128.498 187.75 127.525C187.826 124.615 187.902 121.705 187.732 118.794C187.674 117.763 187.539 117.655 186.387 117.61C184.357 117.525 182.332 117.449 180.302 117.409C178.025 117.359 178.025 117.377 178.052 115.014C178.057 114.575 178.048 114.14 178.043 113.7C178.043 113.063 178.554 112.543 179.191 112.539C183.968 112.503 188.74 112.467 193.517 112.422C195.081 112.409 195.283 112.216 195.341 110.601C195.386 109.229 195.399 107.857 195.399 106.48C195.399 104.503 195.372 102.525 195.126 100.556C195.018 99.6985 194.515 99.2515 193.616 99.2157C193.508 99.2157 193.396 99.2157 193.289 99.2112C184.452 98.9556 175.619 98.8793 166.777 98.9959C164.317 99.0273 164.062 98.7627 164.062 101.745C164.062 108.171 164.062 114.601 164.062 121.028V121.023ZM221.391 120.575H221.364C221.364 121.4 221.373 122.22 221.364 123.046C221.283 129.032 221.185 135.014 221.131 141.001C221.118 142.651 221.297 142.812 222.91 142.853C226.092 142.938 229.273 143.028 232.46 143.019C238.716 143.001 244.976 142.916 251.232 142.866C252.747 142.853 253.065 142.579 253.051 141.046C253.029 137.696 252.984 134.346 252.926 130.996C252.912 130.283 252.791 129.575 252.724 128.866C252.67 128.283 252.321 127.978 251.774 127.902C251.398 127.848 251.012 127.844 250.627 127.839C246.401 127.803 242.175 127.759 237.949 127.754C237.147 127.754 236.703 127.597 236.807 126.669C236.883 126.019 236.829 125.35 236.833 124.691C236.86 116.507 236.892 108.323 236.91 100.139C236.91 98.6641 236.883 98.6237 235.462 98.6462C231.29 98.7089 227.122 98.7941 222.95 98.8928C221.812 98.9197 221.749 99.0139 221.727 100.305C221.61 107.059 221.503 113.817 221.391 120.57V120.575ZM199.966 41.0088C196.107 41.1299 191.393 40.6097 186.674 40.9595C185.437 41.0492 185.393 41.0133 185.402 42.2555C185.424 45.6053 185.455 48.9551 185.545 52.3004C185.603 54.4888 185.666 54.5157 187.934 54.574C189.798 54.6233 191.662 54.6457 193.531 54.6412C194.154 54.6412 194.449 54.852 194.4 55.4933C194.373 55.8744 194.391 56.2601 194.391 56.6457C194.373 64.7176 194.355 72.7894 194.342 80.8612C194.342 81.6281 194.391 82.3994 194.351 83.1662C194.31 83.9823 194.723 84.3949 195.453 84.5429C195.879 84.6281 196.323 84.6595 196.757 84.6729C199.885 84.7895 203.009 84.803 206.137 84.6909C207.822 84.6326 208.064 84.4218 208.095 82.776C208.14 80.6908 208.131 78.6056 208.126 76.5159C208.113 69.7086 208.086 62.9014 208.077 56.0897C208.077 54.7444 208.099 54.7444 209.448 54.7713C211.205 54.8072 212.957 54.8655 214.714 54.8744C216.367 54.8834 216.336 54.861 216.457 53.2735C216.708 49.9282 216.695 46.5829 216.677 43.2331C216.668 41.0716 216.618 40.955 214.485 41.0312C209.932 41.1882 205.379 40.9685 199.966 41.0088ZM83.488 70.9867C83.7613 70.6907 84.0481 70.7311 84.317 70.7132C86.347 70.5966 88.3636 70.3544 90.3175 69.767C94.9735 68.3678 98.935 65.9597 101.566 61.7265C103.457 58.6861 104.044 55.3946 103.076 51.9327C101.884 47.677 99.1053 44.6142 95.3052 42.5514C89.0627 39.1658 82.4931 38.65 75.7264 40.807C74.14 41.3138 73.5261 42.1747 73.5036 43.8429C73.4678 46.6412 73.4544 49.4439 73.4544 52.2421C73.4544 53.5964 73.5529 53.7847 74.9242 53.843C76.896 53.9237 78.8722 53.8924 80.844 53.8072C82.1615 53.7533 82.157 53.6726 82.1212 52.3139C82.0584 50.139 82.1481 50.0403 84.2274 49.3273C85.1864 48.9999 86.1588 48.9102 87.1492 49.0044C89.9186 49.278 91.8814 50.7309 92.8584 53.3139C93.8039 55.8161 93.414 58.2063 91.5767 60.2153C89.6901 62.2781 87.3105 62.8207 84.6666 62.1032C82.8382 61.6099 82.4394 61 82.3811 59.0852C82.3811 59.0314 82.3811 58.9776 82.3766 58.9193C82.3094 56.9193 82.0674 56.6592 80.015 56.713C78.3703 56.7534 76.7257 56.8744 75.0855 56.9866C73.4588 57.0942 73.4454 57.1076 73.4454 58.7085C73.4409 63.2646 73.4454 67.8252 73.4454 72.3813C73.4454 76.0047 73.4409 79.628 73.4588 83.2514C73.4678 84.7492 73.5171 84.7761 75.0363 84.8433C75.3096 84.8568 75.5875 84.8702 75.8563 84.8389C77.501 84.646 79.1411 84.7223 80.7858 84.8478C81.2787 84.8882 81.7716 84.8882 82.2646 84.8747C83.8151 84.8344 84.1109 84.5474 84.1333 83.0496C84.1378 82.7222 84.1154 82.3904 84.1109 82.063C84.0661 78.341 83.8062 74.628 83.488 70.9822V70.9867ZM216.627 236.495C216.596 240.195 216.332 243.033 215.664 245.823C215.314 247.284 215.283 247.289 216.627 247.805C222.462 250.051 228.315 252.24 234.118 254.562C235.588 255.15 236.6 254.89 237.636 253.805C240.02 251.307 241.861 248.477 243.018 245.226C246.244 236.177 243.13 226.697 235.198 221.284C234.216 220.616 233.302 220.41 232.137 220.912C226.804 223.217 221.44 225.459 216.076 227.692C215.373 227.984 215.05 228.19 215.368 229.087C216.309 231.742 216.735 234.5 216.632 236.491L216.627 236.495ZM200.441 121.023C200.365 121.023 200.288 121.023 200.212 121.023C200.212 127.772 200.212 134.521 200.212 141.27C200.212 142.27 201.019 143.086 202.018 143.095C206.432 143.122 210.846 143.073 215.265 143.095C215.977 143.095 216.264 142.732 216.408 142.176C216.502 141.812 216.475 141.418 216.479 141.032C216.551 133.077 216.632 125.122 216.686 117.167C216.726 111.624 216.748 106.081 216.739 100.543C216.739 98.9332 216.529 98.7403 214.929 98.7134C212.625 98.6731 210.322 98.691 208.019 98.691C206.155 98.691 204.295 98.6865 202.431 98.7134C200.952 98.7358 200.755 98.9556 200.692 100.453C200.687 100.561 200.692 100.673 200.692 100.781C200.611 107.53 200.53 114.279 200.45 121.028L200.441 121.023ZM233.401 263.899C233.307 262.751 233.213 261.603 233.109 260.455C232.997 259.181 232.307 258.325 231.16 257.823C230.658 257.603 230.147 257.406 229.632 257.213C224.945 255.495 220.257 253.778 215.57 252.065C213.939 251.468 213.952 251.477 213.051 252.894C210.165 257.45 206.334 260.975 201.503 263.383C200.499 263.881 200.324 263.639 200.831 265.083C200.902 265.289 200.983 265.495 201.086 265.688C203.977 271.047 206.912 276.388 209.744 281.778C210.582 283.374 211.877 283.792 213.419 283.608C215.485 283.365 217.537 283.038 219.545 282.424C226.782 280.208 233.593 273.684 233.392 263.894L233.401 263.899ZM134.7 238.419C134.66 240.302 134.933 242.15 135.422 243.957C136.39 247.536 138.169 250.643 140.907 253.168C142.968 255.069 143.672 255.154 146.181 253.93C150.568 251.787 154.951 249.643 159.334 247.5C161.189 246.594 161.176 246.594 160.853 244.585C160.011 239.32 159.939 234.091 161.727 228.979C161.973 228.271 161.785 227.934 161.171 227.719C160.445 227.468 159.715 227.239 158.98 227.015C153.947 225.481 148.901 223.979 143.882 222.396C142.359 221.916 141.203 222.298 140.212 223.45C139.961 223.742 139.715 224.033 139.482 224.342C136.327 228.504 134.727 233.195 134.705 238.419H134.7ZM213.916 193.849C213.71 193.862 213.159 193.876 212.617 193.939C210.34 194.199 208.736 195.122 207.808 197.481C205.957 202.172 203.793 206.737 201.749 211.356C201.18 212.647 201.171 212.643 202.336 213.356C202.475 213.441 202.619 213.522 202.762 213.602C206.939 215.93 210.179 219.221 212.554 223.347C213.056 224.217 213.486 224.145 214.248 223.827C220.055 221.369 225.872 218.939 231.698 216.526C232.549 216.172 233.15 215.602 233.683 214.876C234.566 213.665 234.261 212.338 234.077 211.06C232.626 201.082 224.496 194.042 213.916 193.853V193.849ZM164.21 282.769C165.258 282.76 166.293 282.643 167.333 282.545C169.076 282.379 170.094 281.469 170.685 279.845C172.2 275.724 173.786 271.63 175.341 267.522C175.691 266.599 176.022 265.666 176.39 264.751C176.65 264.11 176.488 263.773 175.825 263.504C170.636 261.379 166.885 257.643 164.111 252.854C163.739 252.213 163.443 252.006 162.704 252.289C157.268 254.361 151.814 256.374 146.378 258.437C144.886 259.002 144.456 259.666 144.635 261.213C145.245 266.415 146.683 271.338 149.896 275.576C153.481 280.303 158.281 282.675 164.205 282.769H164.21ZM189.556 293.303C195.274 293.213 199.979 290.926 203.905 286.904C205.639 285.128 205.85 283.989 204.833 281.715C203.089 277.809 201.377 273.886 199.531 270.029C198.94 268.791 198.832 267.424 198.115 266.204C197.6 265.329 197.259 265.19 196.376 265.428C191.59 266.706 186.764 267.011 181.911 265.823C181.351 265.688 181.122 265.805 180.92 266.303C178.644 271.948 176.349 277.585 174.073 283.231C173.513 284.612 173.858 285.832 174.897 286.836C178.993 290.801 183.802 293.155 189.556 293.303ZM187.911 183.858C184.124 183.885 180.625 184.629 177.438 186.571C175.628 187.674 174.131 189.1 173.051 190.943C172.581 191.741 172.455 192.526 172.809 193.445C174.552 197.948 176.251 202.468 177.954 206.988C178.362 208.069 178.854 209.1 179.356 210.141C179.683 210.818 179.997 210.827 180.62 210.656C185.5 209.356 190.394 209.445 195.265 210.697C196.094 210.912 196.444 210.616 196.538 209.934C196.694 208.813 197.268 207.871 197.748 206.894C199.849 202.607 201.942 198.315 204.102 194.055C204.68 192.916 204.577 191.974 203.82 191.01C202.829 189.75 201.687 188.652 200.369 187.737C196.596 185.113 192.366 183.979 187.916 183.853L187.911 183.858ZM143.864 211.629C143.847 212.71 144.026 213.898 144.34 215.078C144.738 216.58 145.63 217.513 147.14 218.011C152.455 219.764 157.748 221.576 163.031 223.414C163.856 223.701 164.29 223.562 164.743 222.809C167.261 218.625 170.524 215.23 175.072 213.23C175.592 213.002 175.749 212.732 175.386 212.239C173.647 209.889 172.491 207.203 171.044 204.688C169.345 201.737 167.718 198.746 166.092 195.759C165.518 194.71 164.707 194.131 163.51 193.979C162.251 193.818 160.996 193.723 159.742 193.921C153.293 194.939 148.736 198.575 145.688 204.217C144.469 206.468 143.851 208.912 143.869 211.629H143.864ZM345.805 244.8C350.237 244.778 353.885 241.513 354.297 237.186C354.692 233.06 351.725 229.235 347.423 228.477C345.344 228.109 343.26 228.266 341.292 229.141C337.533 230.809 333.777 232.486 330.018 234.163C329.767 234.275 329.516 234.387 329.283 234.535C328.073 235.307 327.907 236.513 328.848 237.607C329.215 238.033 329.699 238.293 330.188 238.544C331.559 239.239 332.948 239.899 334.297 240.63C337.098 242.154 340.024 243.383 343.049 244.374C343.936 244.666 344.86 244.818 345.801 244.8H345.805ZM317.412 199.907C317.394 197.84 316.869 195.965 315.65 194.32C312.63 190.23 307.02 189.992 303.726 193.867C301.584 196.387 300.988 199.333 301.848 202.508C303.201 207.504 305.612 212.087 307.553 216.858C307.593 216.961 307.647 217.055 307.71 217.15C308.579 218.495 310.017 218.535 310.909 217.194C311.241 216.701 311.452 216.118 311.676 215.562C313.343 211.445 314.965 207.311 316.681 203.217C317.138 202.123 317.358 201.028 317.412 199.912V199.907ZM336.027 202.705C332.729 202.853 330.013 204.221 328.485 207.176C326.186 211.602 324.156 216.167 322.014 220.679C321.826 221.073 321.638 221.481 321.552 221.907C321.297 223.257 322.216 224.154 323.573 223.881C324.053 223.786 324.519 223.603 324.981 223.428C329.646 221.665 334.297 219.849 338.989 218.159C340.679 217.549 341.902 216.616 342.821 215.046C344.389 212.365 344.716 209.67 343.219 206.916C341.691 204.114 339.173 202.867 336.027 202.705ZM61.31 200.145C61.3728 201.024 61.552 202.149 61.8344 203.275C62.9681 207.768 65.0474 211.903 66.6293 216.221C66.7772 216.629 66.9968 217.024 67.2612 217.374C68.1261 218.526 69.5287 218.58 70.5012 217.508C71.0569 216.894 71.4647 216.185 71.7515 215.401C73.3692 210.975 74.9601 206.535 76.2865 202.01C77.2276 198.8 76.4837 195.898 74.3103 193.418C72.2713 191.091 68.9551 190.548 66.1857 191.921C62.8964 193.553 61.3549 196.248 61.31 200.145ZM103.094 209.647C103.071 206.338 101.041 203.575 98.0253 202.746C94.7808 201.853 90.4026 203.584 88.6997 206.499C85.9392 211.23 83.2236 215.988 80.499 220.737C80.3107 221.069 80.118 221.414 80.0105 221.773C79.5803 223.226 80.5034 224.333 81.9912 224.123C82.5245 224.046 83.0443 223.827 83.5507 223.625C88.1396 221.822 92.6657 219.845 97.3262 218.266C100.167 217.302 103.165 213.41 103.094 209.643V209.647ZM281.543 270.863C285.635 270.863 288.709 269.15 290.371 266.101C292.222 262.711 293.32 259.038 294.23 255.302C294.414 254.558 294.584 253.805 294.691 253.051C294.911 251.549 293.939 250.616 292.442 250.872C292.065 250.935 291.698 251.06 291.335 251.181C288.001 252.262 284.662 253.32 281.342 254.432C279.298 255.114 277.358 255.989 275.978 257.76C273.93 260.392 273.235 263.271 274.665 266.374C276.103 269.495 278.81 270.729 281.539 270.868L281.543 270.863ZM105.375 228.378C104.537 228.365 103.748 228.562 102.959 228.809C97.8909 230.41 93.0645 232.67 87.9872 234.248C87.1582 234.504 86.7145 235.109 86.728 235.97C86.7414 236.764 87.1985 237.307 87.9469 237.558C92.0024 238.926 95.8743 240.737 99.8133 242.392C101.557 243.123 103.331 243.567 105.182 243.796C108.686 244.235 111.971 242.513 113.36 239.531C114.714 236.625 113.974 233.136 111.492 230.804C109.775 229.195 107.714 228.428 105.379 228.374L105.375 228.378ZM32.6477 243.944C33.7187 244.118 34.9466 243.683 36.1655 243.136C39.2217 241.769 42.2914 240.432 45.3521 239.078C45.7555 238.899 46.1857 238.76 46.5352 238.504C47.3822 237.885 48.2515 237.181 48.2829 236.047C48.3098 234.867 47.2925 234.437 46.4053 233.988C42.7351 232.127 39.0649 230.257 35.3857 228.41C31.9755 226.701 27.9333 227.544 25.5807 230.526C23.4072 233.28 23.0263 236.352 24.5679 239.495C26.1274 242.674 28.8296 244.092 32.6522 243.948L32.6477 243.944ZM275.776 209.338C275.749 213.41 278.075 216.979 281.844 218.441C285.469 219.845 289.135 221.15 292.787 222.49C293.352 222.697 293.925 222.899 294.508 223.033C295.875 223.347 296.775 222.504 296.565 221.118C296.515 220.8 296.399 220.481 296.273 220.181C294.674 216.396 293.127 212.585 291.438 208.836C290.34 206.396 288.704 204.338 286.271 203.055C281.145 200.356 275.816 203.553 275.776 209.338ZM42.6006 202.14C38.2538 202.14 35.0138 205.49 35.202 209.84C35.332 212.786 36.7481 215.055 39.1097 216.737C40.0418 217.401 41.0546 217.97 42.1256 218.396C45.4328 219.715 48.7355 221.042 52.0427 222.356C52.446 222.517 52.8673 222.665 53.2975 222.746C55.0362 223.064 55.9728 222.132 55.6233 220.423C55.5023 219.836 55.2917 219.266 55.09 218.697C53.9966 215.598 52.8673 212.508 51.8142 209.396C51.2002 207.58 50.1247 206.078 48.8072 204.75C47.1133 203.046 45.0161 202.194 42.6051 202.14H42.6006ZM59.8895 273.249C59.8536 275.222 60.4048 276.859 61.4983 278.312C63.6403 281.15 67.4136 282.365 70.779 281.182C74.7315 279.791 76.5868 276.912 76.8467 273.186C76.9005 272.451 76.645 271.796 76.3134 271.146C74.3775 267.383 72.464 263.616 70.5415 259.85C70.3174 259.41 70.1113 258.953 69.82 258.558C68.9865 257.428 67.8169 257.388 66.9161 258.446C66.7055 258.693 66.5352 258.984 66.3874 259.276C64.4156 263.137 62.4573 267.011 60.472 270.868C60.0598 271.67 59.8357 272.5 59.894 273.253L59.8895 273.249ZM42.5289 270.85C45.9437 270.684 48.2247 269.32 49.2957 266.137C49.6452 265.101 50.0441 264.078 50.425 263.051C51.5094 260.123 52.6432 257.213 53.6694 254.267C54.3416 252.329 53.3513 251.293 51.3392 251.706C48.1216 252.365 44.9085 253.042 41.6909 253.702C40.2211 254.002 38.8946 254.58 37.6622 255.45C34.476 257.697 33.1496 261.24 34.2341 264.791C35.3365 268.397 38.7333 270.881 42.5289 270.85ZM264.196 235.912C264.183 239.531 266.952 242.71 270.721 243.544C272.661 243.975 274.432 243.482 276.157 242.773C279.706 241.32 283.224 239.796 286.751 238.284C287.356 238.024 287.947 237.733 288.512 237.401C289.726 236.688 289.807 235.459 288.704 234.598C288.449 234.396 288.149 234.248 287.849 234.118C283.977 232.45 280.105 230.773 276.215 229.141C274.889 228.585 273.473 228.356 272.034 228.405C267.651 228.544 264.205 231.854 264.192 235.912H264.196ZM343.264 263.168C343.215 262.724 343.193 262.226 343.103 261.746C342.413 258.065 340.208 255.679 336.753 254.401C333.101 253.047 329.439 251.715 325.783 250.383C325.424 250.253 325.052 250.127 324.676 250.092C323.287 249.957 322.35 251.002 322.646 252.356C322.726 252.728 322.892 253.083 323.058 253.428C325.061 257.58 327.082 261.724 329.076 265.881C329.713 267.204 330.654 268.262 331.841 269.087C334.221 270.747 336.789 271.231 339.446 269.868C342.108 268.5 343.139 266.101 343.273 263.168H343.264ZM103.201 262.311C103.165 260.401 102.188 258.374 100.382 256.764C99.3563 255.854 98.2135 255.056 96.9408 254.54C93.2841 253.056 89.596 251.634 85.9213 250.199C85.6166 250.078 85.2984 249.971 84.9758 249.926C83.7569 249.742 82.7934 250.558 82.8158 251.791C82.8247 252.217 82.9323 252.67 83.1026 253.065C84.913 257.302 86.5353 261.621 88.5698 265.764C90.0172 268.72 93.311 270.482 96.5734 270.159C100.445 269.773 103.228 266.706 103.206 262.311H103.201ZM139.083 110.628V110.669C138.698 110.669 138.317 110.669 137.931 110.669C137.546 110.669 137.165 110.669 136.78 110.678C135.363 110.714 135.072 110.983 135.041 112.431C135.014 113.691 135.041 114.951 135.063 116.216C135.081 117.673 135.095 117.61 133.764 117.606C132.832 117.606 131.899 117.606 130.967 117.615C129.054 117.624 128.758 117.911 128.713 119.763C128.682 121.077 128.646 122.395 128.615 123.709C128.583 124.92 128.794 125.167 129.99 125.194C131.362 125.22 132.728 125.185 134.1 125.202C135.225 125.216 135.238 125.234 135.278 126.409C135.314 127.449 135.296 128.494 135.355 129.534C135.404 130.418 135.888 131.019 136.735 131.09C138.37 131.22 140.015 131.301 141.66 131.301C142.793 131.301 143.103 130.942 143.121 129.794C143.139 128.754 143.076 127.714 143.062 126.669C143.04 125.211 143.044 125.207 144.443 125.194C145.702 125.18 146.966 125.202 148.225 125.171C149.511 125.14 149.735 124.907 149.739 123.597C149.739 122.171 149.686 120.745 149.672 119.323C149.659 117.79 149.444 117.543 147.848 117.516C146.697 117.498 145.545 117.539 144.398 117.557C142.919 117.575 142.914 117.575 142.888 116.032C142.87 114.718 142.888 113.4 142.847 112.086C142.811 110.857 142.628 110.682 141.386 110.642C140.62 110.615 139.854 110.637 139.083 110.637V110.628ZM316.238 272.773C316.184 270.755 315.435 268.585 314.373 266.531C313.114 264.096 311.761 261.711 310.434 259.311C310.197 258.881 309.937 258.446 309.601 258.101C308.902 257.388 307.983 257.406 307.266 258.11C306.751 258.616 306.419 259.249 306.128 259.903C305.612 261.056 305.119 262.213 304.591 263.361C303.376 266.002 302.189 268.652 301.463 271.477C300.562 274.98 302.31 279.016 305.482 280.765C308.108 282.208 311.196 281.886 313.437 279.886C315.453 278.087 316.242 275.76 316.238 272.773ZM25.2311 121.395C25.3208 121.072 25.37 120.969 25.379 120.862C25.4014 120.534 25.3969 120.202 25.4193 119.875C25.6165 116.642 26.459 113.624 28.4173 110.996C30.6445 108.014 33.5305 105.754 36.654 103.812C37.7474 103.131 38.7781 102.431 39.4503 101.341C42.2063 96.8793 42.4035 92.247 40.0418 87.5967C38.9753 85.498 37.1738 84.229 34.727 83.9016C33.5215 83.7402 32.334 83.6684 31.1285 83.6595C28.8206 83.646 26.813 84.4801 25.1818 86.0496C23.703 87.4712 22.8784 89.3008 23.1608 91.386C23.6403 94.9331 26.1543 97.5968 29.6766 98.3681C30.5639 98.561 31.5005 98.8838 32.4236 98.6193C35.5829 97.7224 37.2052 93.5205 35.5023 90.6999C34.6105 89.2245 32.8404 88.9689 31.5722 90.1393C30.8596 90.7941 30.528 91.6461 30.2636 92.5564C29.9006 93.7896 30.0978 94.96 30.6983 96.1977C28.3187 95.3188 26.6383 93.2425 26.4052 91.0631C26.1677 88.8389 27.4718 86.8972 29.5914 86.3232C34.3999 85.0137 39.15 88.8972 38.8184 93.8703C38.805 94.0901 38.8139 94.3098 38.805 94.5295C38.7288 97.4488 37.6443 99.9152 35.6636 102.068C33.9248 103.956 31.7514 105.229 29.7214 106.714C27.9244 108.032 26.5217 109.646 25.6165 111.731C24.2766 114.835 24.1825 117.951 25.2266 121.4L25.2311 121.395ZM352.545 121.471C352.657 121.436 352.738 121.436 352.756 121.4C352.805 121.306 352.827 121.198 352.859 121.095C354.225 116.431 353.419 112.238 350.179 108.557C349.076 107.301 347.701 106.391 346.307 105.521C344.658 104.489 343.255 103.198 341.938 101.794C339.464 99.1574 338.859 95.821 339.128 92.4667C339.451 88.4487 343.511 86.3411 346.356 86.2828C347.961 86.2514 349.399 86.5698 350.537 87.794C351.819 89.1752 351.832 90.812 351.241 92.4129C350.578 94.2111 349.637 95.8748 347.351 96.1439C348.337 94.3681 347.947 92.6865 347.029 91.0676C346.446 90.0362 345.563 89.4488 344.322 89.5967C343.134 89.7402 342.516 90.5385 342.171 91.5923C341.629 93.2336 341.75 94.8389 342.561 96.3636C343.197 97.5565 344.093 98.3771 345.59 98.1215C345.792 98.0856 346.186 98.0228 346.132 98.2336C345.904 99.0677 346.468 98.8166 346.822 98.7852C348.893 98.5834 350.752 97.8659 352.316 96.4623C355.305 93.7717 355.704 89.4936 353.159 86.6057C351.604 84.8388 349.574 83.9734 347.212 83.8478C346.168 83.794 345.16 84.0541 344.129 84.0586C341.7 84.0631 339.8 85.0586 338.402 87.0407C335.422 91.2649 335.749 98.3502 339.106 102.274C339.576 102.821 340.109 103.314 340.741 103.637C342.758 104.673 344.465 106.135 346.182 107.575C348.879 109.835 350.932 112.543 351.922 116.001C352.437 117.803 352.532 119.628 352.54 121.489L352.545 121.471ZM24.6844 130.333C22.6051 130.351 21.9239 131.108 22.1077 133.176C22.1749 133.951 22.3855 134.691 22.7216 135.377C24.6979 139.382 27.7272 142.212 31.9844 143.709C32.9793 144.059 33.759 143.889 34.5836 143.319C37.3037 141.431 39.3293 138.956 40.7947 136.014C41.552 134.494 42.1659 132.911 42.1211 131.153C42.0763 129.494 41.198 128.799 39.5444 129.135C38.3882 129.373 37.4203 130.001 36.515 130.714C35.3947 131.597 34.3461 132.566 33.4946 133.718C33.1137 134.234 32.8 134.234 32.3026 133.83C31.496 133.176 30.649 132.561 29.7617 132.028C28.2022 131.095 26.5755 130.319 24.6889 130.337L24.6844 130.333ZM42.1077 62.7131C42.1211 60.2377 41.1352 59.4529 39.289 59.9552C38.6033 60.1435 37.9715 60.4709 37.371 60.87C35.9011 61.8566 34.615 63.0359 33.535 64.4306C33.1361 64.9463 32.8269 65.0853 32.2309 64.5651C30.6535 63.1839 28.8789 62.1166 26.8668 61.453C25.854 61.1211 24.8323 61.009 23.7881 61.1704C22.6768 61.3453 22.1794 61.9104 22.0763 63.027C21.9822 64.0943 22.2242 65.1077 22.6768 66.0539C24.6396 70.1481 27.7182 73.0002 32.0472 74.489C32.9748 74.8074 33.7053 74.6683 34.4984 74.1302C37.1962 72.2961 39.1814 69.8611 40.6737 67.0001C41.4624 65.4889 42.0539 63.9014 42.1032 62.7086L42.1077 62.7131ZM345.953 134.925C345.962 134.225 345.984 133.826 345.568 133.507C343.856 132.203 342.041 131.09 339.953 130.512C339.159 130.292 338.326 130.256 337.506 130.373C336.318 130.543 335.78 131.135 335.7 132.324C335.628 133.333 335.848 134.292 336.273 135.194C338.236 139.36 341.346 142.247 345.742 143.736C346.603 144.028 347.302 143.92 348.041 143.404C351.725 140.835 354.243 137.44 355.494 133.113C355.713 132.359 355.772 131.602 355.727 130.839C355.651 129.615 354.884 128.938 353.665 129.041C352.953 129.099 352.29 129.355 351.653 129.705C350.537 130.315 349.556 131.095 348.673 131.996C347.835 132.853 347.042 133.754 345.962 134.92L345.953 134.925ZM344.882 65.6593C344.846 64.9239 344.815 64.5561 344.389 64.2467C342.785 63.0853 341.14 62.027 339.231 61.4261C338.272 61.1211 337.3 61.0225 336.318 61.1615C335.158 61.3229 334.723 61.8072 334.588 62.9776C334.472 64.0359 334.656 65.0674 335.108 66.0046C337.071 70.0853 340.127 72.9553 344.438 74.4755C345.433 74.8253 346.222 74.6728 347.037 74.0899C350.43 71.6504 352.836 68.4889 354.158 64.5113C354.423 63.722 354.463 62.9104 354.539 62.0897C354.705 60.2243 353.5 59.4529 351.667 59.9776C350.658 60.2646 349.793 60.8521 348.955 61.4799C347.463 62.601 346.316 64.0673 344.878 65.6593H344.882ZM25.8092 50.5605C25.6344 49.4977 25.7061 48.4035 25.7644 47.3317C25.8809 45.0851 26.0378 42.7936 27.4046 40.9057C29.0716 38.6007 30.7118 36.2599 33.0375 34.5155C34.8794 33.1343 36.5016 31.4885 38.2269 29.9683C42.5334 26.1791 41.7402 18.8786 39.1769 15.4839C37.1783 12.8381 34.3864 11.6722 31.2809 11.9592C28.7355 12.1969 26.3201 13.3718 24.6396 15.5153C21.1173 20.0041 23.7792 26.1522 28.6504 26.7396C30.5549 26.9683 32.1771 26.2822 33.7097 25.2374C35.2244 24.206 35.8204 22.8024 35.6546 21.0041C35.5202 19.5512 34.6867 18.5781 33.2706 18.2821C32.1099 18.04 31.0837 18.2821 30.286 19.188C29.327 20.2822 29.1926 21.5378 29.6183 22.892C29.7214 23.2239 30.2054 23.475 29.7886 23.9459C28.2022 23.3988 27.185 22.2328 26.4456 20.7709C24.8278 17.5781 26.4769 14.9503 29.1971 14.0893C32.1861 13.1431 34.9779 13.7036 37.3799 15.6633C38.7691 16.7978 39.6295 18.3315 39.5578 20.2597C39.4503 23.1118 38.7243 25.7665 37.1379 28.1522C35.1393 31.1567 32.222 33.1567 29.2329 34.9774C27.5569 35.9998 26.5397 37.3092 25.9705 39.094C25.7061 39.9281 25.4193 40.7577 25.1953 41.6007C24.3931 44.6456 24.5679 47.6367 25.8092 50.565V50.5605ZM347.898 22.7979C348.117 22.4212 348.301 22.1476 348.445 21.8562C349.224 20.2508 349.009 19.0086 347.831 18.1924C346.616 17.3539 344.864 17.5646 343.771 18.6678C343.296 19.1521 343.004 19.6992 342.964 20.4032C342.888 21.6364 343.314 22.8382 343.927 23.7351C345.048 25.3629 348.059 26.8069 350.703 26.1297C355.391 24.9324 357.295 18.8472 353.8 14.735C351.909 12.5108 349.305 12.013 346.746 11.5108C345.214 11.2103 343.618 11.8023 342.184 12.5825C336.977 15.4166 335.521 24.5961 339.966 28.9549C340.867 29.8383 341.727 30.7531 342.691 31.5782C345.393 33.8877 348.189 36.0671 350.291 39.0357C351.671 40.9864 352.563 42.973 352.769 45.3407C352.904 46.8654 352.751 48.399 352.908 50.1165C353.759 48.3049 353.979 46.5425 353.983 44.8295C353.983 42.6501 353.41 40.5155 352.653 38.4483C352.03 36.7442 351.057 35.4617 349.426 34.4931C346.836 32.9594 344.411 31.1477 342.386 28.8652C340.378 26.5961 339.67 23.7575 338.985 20.9458C338.666 19.6274 338.823 18.2328 339.603 16.9727C341.579 13.7888 346.468 12.2417 349.91 13.7574C352.626 14.9547 353.531 17.4346 352.272 20.1387C351.797 21.1566 351.102 21.9817 350.268 22.7172C349.529 23.3719 348.781 23.5378 347.889 22.8024L347.898 22.7979ZM46.589 11.9592C47.4001 17.2059 51.7604 20.6499 56.2686 19.8382C59.4279 19.2687 63.0398 15.9861 62.3004 12.1206C57.1335 12.1565 51.9486 12.1117 46.589 11.9637V11.9592ZM150.667 11.9906C151.03 14.6229 152.173 16.5557 154.015 18.0759C156.251 19.9234 158.787 20.466 161.525 19.4929C164.322 18.4974 165.998 16.457 166.571 13.5377C166.818 12.291 166.674 12.1341 165.379 12.1251C161.386 12.1027 157.389 12.1834 153.396 11.9951C152.531 11.9547 151.657 11.9906 150.663 11.9906H150.667ZM170.761 11.9906C171.124 14.6229 172.267 16.5557 174.109 18.0759C176.345 19.9234 178.881 20.466 181.619 19.4929C184.416 18.4974 186.092 16.457 186.665 13.5377C186.912 12.291 186.768 12.1341 185.473 12.1251C181.48 12.1027 177.483 12.1834 173.49 11.9951C172.625 11.9547 171.752 11.9906 170.757 11.9906H170.761ZM108.852 11.9906C109.143 14.6722 110.394 16.6633 112.325 18.2104C116.901 21.8786 123.573 19.4077 124.707 13.6543C124.976 12.2776 124.873 12.1341 123.506 12.1251C119.567 12.0982 115.628 12.1879 111.689 11.9951C110.77 11.9502 109.847 11.9906 108.852 11.9906ZM87.445 12.1386C87.7676 14.6812 88.982 16.6409 90.8732 18.179C95.471 21.91 102.314 19.3584 103.327 13.5511C103.546 12.291 103.43 12.1296 102.148 12.1251C97.8236 12.1117 93.5037 12.1565 89.1837 11.9951C88.646 11.9771 88.0903 11.8964 87.445 12.1341V12.1386ZM253.522 11.9906C253.849 14.8292 255.238 17.1028 257.483 18.596C262.139 21.6902 268.252 19.1386 269.327 13.6498C269.596 12.2731 269.498 12.1341 268.117 12.1251C264.232 12.0937 260.347 12.1969 256.466 11.9996C255.494 11.9502 254.512 11.9906 253.522 11.9906ZM83.2729 12.0534H67.5749C68.0499 16.7306 72.2399 20.2777 76.7302 19.8248C80.602 19.4346 83.6269 15.9144 83.2774 12.0534H83.2729ZM129.883 11.9771C130.08 16.6274 134.597 20.4346 139.096 19.892C142.995 19.4256 146.096 15.6812 145.437 12.1117C140.266 12.1655 135.077 12.1072 129.883 11.9771ZM191.411 11.9458C191.94 16.8382 196.116 20.3584 200.598 19.901C204.474 19.5019 207.503 15.9682 207.131 12.1296C201.956 12.1206 196.766 12.1655 191.411 11.9502V11.9458ZM212.504 12.1475C213.092 16.8068 216.977 20.17 221.4 19.9055C224.859 19.6992 228.113 16.6184 228.332 13.3359C228.409 12.1789 228.386 12.1341 227.23 12.1251C222.789 12.0758 218.348 12.031 213.912 11.9951C213.481 11.9951 213.038 11.8964 212.509 12.1475H212.504ZM331.662 12.0534H315.964C316.43 16.7261 320.629 20.2777 325.115 19.8248C328.987 19.4346 332.012 15.9189 331.662 12.0534ZM274.122 12.0534C274.593 16.7306 278.787 20.2777 283.273 19.8248C287.145 19.4346 290.165 15.9189 289.82 12.0534H274.118H274.122ZM295.565 11.7933C295.749 16.7261 300.898 20.7037 305.536 19.5826C308.494 18.8651 310.927 16.3045 311.308 13.4973C311.501 12.0623 311.46 12.004 310.026 11.9906C306.352 11.9547 302.682 12.0848 299.007 11.8067C297.864 11.7215 296.713 11.7933 295.565 11.7933ZM233.271 12.1251C233.643 17.0175 238.146 20.6813 242.838 20.0176C245.899 19.5826 248.803 16.6095 249.076 13.6274C249.188 12.4121 249.13 12.3359 247.889 12.3269C244.107 12.2955 240.324 12.4076 236.542 12.1386C235.458 12.0623 234.364 12.1251 233.271 12.1251ZM74.0369 218.571C74.028 219.289 74.27 219.872 74.969 220.159C75.7309 220.468 76.421 220.262 76.8646 219.616C77.4203 218.804 77.9357 217.952 78.3345 217.055C80.8619 211.401 83.358 205.732 85.8407 200.055C86.4546 198.656 86.1409 197.441 85.1819 197.033C84.2005 196.616 83.116 197.19 82.5111 198.607C79.8536 204.804 76.9363 210.885 74.4402 217.154C74.2565 217.611 74.0459 218.06 74.0369 218.571ZM85.7421 231.087C86.2485 231.082 86.7056 230.899 87.1626 230.706C93.5709 228.002 99.9791 225.298 106.383 222.594C106.84 222.401 107.293 222.203 107.642 221.836C108.149 221.307 108.296 220.688 107.996 220.02C107.723 219.414 107.199 219.15 106.54 219.127C105.971 219.105 105.464 219.333 104.967 219.549C98.6079 222.23 92.2534 224.921 85.8989 227.607C85.4418 227.8 84.9847 227.984 84.6262 228.338C84.1154 228.84 83.8868 229.428 84.1781 230.123C84.4649 230.813 85.0251 231.091 85.7466 231.087H85.7421ZM107.315 253.719C107.866 253.666 108.494 253.388 108.758 252.607C109.018 251.84 108.762 251.208 108.162 250.701C107.691 250.307 107.104 250.127 106.544 249.912C101.126 247.836 95.704 245.764 90.2816 243.701C89.5646 243.428 88.8386 243.186 88.0992 242.984C86.9117 242.661 86.0513 242.979 85.7107 243.809C85.3656 244.648 85.7734 245.495 86.8489 246.051C87.4315 246.352 88.041 246.612 88.6504 246.845C94.27 249.011 99.894 251.168 105.518 253.32C106.024 253.513 106.535 253.737 107.315 253.715V253.719ZM314.929 217.782C314.902 218.562 315.131 219.159 315.816 219.468C316.565 219.804 317.21 219.571 317.743 218.993C318.196 218.499 318.474 217.898 318.738 217.293C321.292 211.405 323.847 205.517 326.383 199.625C326.939 198.333 326.692 197.36 325.769 196.916C324.837 196.468 323.945 196.934 323.322 198.199C323.3 198.248 323.273 198.297 323.251 198.347C320.683 204.167 318.111 209.993 315.547 215.813C315.261 216.468 314.992 217.127 314.929 217.786V217.782ZM327.647 230.553C327.925 230.468 328.355 230.369 328.758 230.204C334.781 227.692 340.8 225.168 346.818 222.643C347.324 222.432 347.822 222.194 348.198 221.768C348.678 221.221 348.826 220.607 348.512 219.943C348.225 219.342 347.696 219.091 347.042 219.064C346.415 219.042 345.859 219.271 345.303 219.504C340.091 221.683 334.875 223.854 329.672 226.06C328.615 226.508 327.589 227.038 326.594 227.607C325.917 227.993 325.635 228.656 325.85 229.446C326.038 230.127 326.719 230.571 327.651 230.553H327.647ZM62.9009 217.504C62.6544 216.809 62.3632 215.809 61.9554 214.858C59.6968 209.634 57.4113 204.419 55.1303 199.203C54.9108 198.701 54.7001 198.194 54.3058 197.791C53.8039 197.275 53.2034 197.078 52.5133 197.338C51.8814 197.58 51.5991 198.1 51.5498 198.746C51.487 199.531 51.6887 200.266 52.0024 200.975C54.4492 206.535 56.896 212.096 59.3562 217.652C59.5534 218.096 59.8043 218.54 60.1135 218.907C60.5751 219.459 61.2115 219.643 61.8971 219.369C62.5783 219.1 62.883 218.54 62.8964 217.499L62.9009 217.504ZM347.418 253.657C348.395 253.675 349.206 253.186 349.426 252.522C349.695 251.701 349.247 251.154 348.651 250.701C348.077 250.266 347.423 249.979 346.755 249.733C341.664 247.863 336.578 245.979 331.478 244.127C330.605 243.809 329.708 243.527 328.799 243.361C327.929 243.199 327.208 243.688 326.993 244.437C326.764 245.235 327.087 245.836 327.737 246.271C328.05 246.482 328.413 246.634 328.772 246.769C334.566 248.953 340.36 251.127 346.155 253.298C346.612 253.468 347.1 253.567 347.418 253.661V253.657ZM303.116 217.701C303.076 216.993 302.789 216.221 302.471 215.463C300.19 209.997 297.905 204.54 295.624 199.073C295.431 198.616 295.243 198.158 294.893 197.795C294.387 197.27 293.777 197.096 293.096 197.369C292.402 197.652 292.106 198.235 292.168 198.952C292.204 199.378 292.33 199.818 292.491 200.217C294.781 205.854 297.076 211.49 299.388 217.118C299.634 217.719 299.97 218.302 300.356 218.827C300.777 219.405 301.413 219.625 302.112 219.369C302.812 219.114 303.112 218.558 303.116 217.697V217.701ZM289.305 230.45C289.964 230.45 290.497 230.199 290.779 229.594C291.088 228.93 290.95 228.302 290.452 227.773C290.107 227.405 289.663 227.19 289.211 226.984C283.632 224.428 278.052 221.867 272.473 219.311C272.074 219.132 271.662 218.957 271.241 218.867C270.362 218.679 269.61 219.037 269.318 219.742C268.996 220.517 269.278 221.154 269.887 221.629C270.268 221.93 270.717 222.168 271.16 222.374C276.686 224.921 282.211 227.459 287.741 229.993C288.238 230.221 288.74 230.446 289.309 230.446L289.305 230.45ZM30.761 219.1C29.9499 219.073 29.3584 219.32 29.0626 220.006C28.74 220.755 28.9506 221.428 29.569 221.916C29.9499 222.217 30.4025 222.446 30.8507 222.643C36.3537 225.109 41.8612 227.567 47.3732 230.011C47.8706 230.23 48.3994 230.432 48.9327 230.499C49.6363 230.585 50.2278 230.284 50.537 229.603C50.8507 228.917 50.6759 228.284 50.1471 227.809C49.7886 227.486 49.3405 227.239 48.8969 227.038C43.2952 224.522 37.6847 222.02 32.0785 219.522C31.6304 219.32 31.1823 219.1 30.761 219.1ZM292.052 274.688C292.07 275.518 292.316 276.105 293.024 276.374C293.723 276.639 294.333 276.419 294.786 275.859C295.054 275.522 295.265 275.123 295.444 274.729C297.743 269.625 299.545 264.329 301.584 259.123C301.799 258.567 301.92 257.962 301.991 257.365C302.081 256.589 301.79 255.948 301.028 255.639C300.253 255.325 299.621 255.625 299.159 256.249C298.904 256.594 298.716 257.006 298.559 257.41C296.466 262.832 294.382 268.253 292.307 273.679C292.173 274.034 292.124 274.419 292.061 274.684L292.052 274.688ZM326.885 274.625C326.876 274.002 326.63 273.446 326.379 272.899C323.986 267.657 321.588 262.415 319.182 257.181C318.976 256.737 318.729 256.293 318.415 255.921C317.949 255.374 317.309 255.186 316.627 255.468C315.875 255.782 315.574 256.423 315.677 257.204C315.736 257.63 315.906 258.051 316.09 258.446C318.523 263.728 320.97 269.011 323.412 274.289C323.668 274.836 323.927 275.383 324.389 275.8C324.882 276.24 325.451 276.383 326.065 276.11C326.692 275.827 326.894 275.276 326.89 274.625H326.885ZM86.5666 274.648C86.5353 274.087 86.3246 273.585 86.0961 273.083C83.721 267.899 81.3504 262.72 78.9708 257.54C78.7423 257.042 78.5182 256.531 78.088 256.168C77.5906 255.751 77.026 255.58 76.4075 255.854C75.7353 256.15 75.4351 256.71 75.4485 257.437C75.4575 257.944 75.6726 258.397 75.8743 258.845C78.2673 264.078 80.6648 269.312 83.0757 274.536C83.2774 274.975 83.5418 275.415 83.8689 275.769C84.3574 276.303 85.0071 276.424 85.6749 276.114C86.2843 275.832 86.5218 275.294 86.5621 274.648H86.5666ZM61.4445 258.276C61.4445 257.58 61.2742 256.971 60.611 256.607C59.9343 256.24 59.3607 256.477 58.7736 256.854C58.2672 257.177 58.0656 257.666 57.8594 258.177C55.8339 263.159 53.8039 268.137 51.7873 273.119C51.626 273.522 51.4736 273.953 51.4377 274.379C51.366 275.164 51.6932 275.787 52.4595 276.074C53.1586 276.338 53.7815 276.11 54.2296 275.554C54.5343 275.177 54.7539 274.72 54.9511 274.271C57.1156 269.468 59.0515 264.567 61.0412 259.688C61.2294 259.231 61.4266 258.778 61.449 258.271L61.4445 258.276ZM271.357 254.204C271.958 254.168 272.415 253.993 272.863 253.787C277.9 251.504 282.941 249.222 287.978 246.944C288.427 246.742 288.875 246.531 289.22 246.159C289.717 245.625 289.856 245.006 289.542 244.343C289.256 243.742 288.727 243.491 288.068 243.482C287.499 243.473 287.002 243.706 286.504 243.93C281.566 246.163 276.627 248.405 271.689 250.643C271.192 250.867 270.681 251.087 270.282 251.477C269.766 251.984 269.583 252.594 269.861 253.275C270.143 253.975 270.739 254.208 271.353 254.204H271.357ZM31.4108 254.015C31.7649 253.885 32.2937 253.733 32.7866 253.509C34.9824 252.509 37.12 251.37 39.3651 250.504C42.0808 249.459 44.7248 248.253 47.4046 247.123C47.9065 246.908 48.4263 246.701 48.8207 246.302C49.3226 245.791 49.5422 245.19 49.233 244.504C48.9327 243.827 48.3591 243.5 47.6421 243.571C47.1626 243.621 46.6786 243.782 46.2305 243.979C41.2473 246.145 36.273 248.325 31.3033 250.513C30.8552 250.71 30.416 250.962 30.0485 251.28C29.5018 251.751 29.3405 252.392 29.6318 253.074C29.9275 253.76 30.5146 254.011 31.4108 254.02V254.015ZM210.766 183.033C208.158 183.024 206.06 185.145 206.092 187.755C206.123 190.302 208.198 192.347 210.739 192.338C213.248 192.329 215.283 190.226 215.386 187.714C215.467 185.786 213.074 182.817 210.766 183.033ZM244.837 259.285C245.128 257.289 242.202 254.751 240.392 254.872C237.972 255.033 236.022 256.899 236.004 259.311C235.991 261.809 237.999 263.773 240.517 263.724C242.959 263.675 244.855 261.728 244.833 259.28L244.837 259.285ZM172.016 289.922C171.976 287.487 170.004 285.59 167.566 285.639C165.285 285.688 163.309 287.751 163.372 290.025C163.434 292.46 165.42 294.357 167.844 294.298C170.197 294.24 172.052 292.294 172.016 289.922ZM141.422 259.993C141.44 257.482 139.553 255.773 136.797 255.805C134.758 255.827 132.988 257.755 132.984 259.957C132.984 262.262 134.812 264.155 137.098 264.208C139.437 264.267 141.404 262.352 141.418 259.993H141.422ZM240.468 212.616C238.227 212.616 236.314 214.558 236.314 216.836C236.314 219.127 238.2 221.015 240.486 221.015C242.758 221.015 244.658 219.118 244.676 216.836C244.694 214.741 242.574 212.616 240.463 212.616H240.468ZM15.6994 28.5782C13.0554 28.8921 11.2764 30.2329 10.2905 32.5693C9.36286 34.7666 9.6631 36.8563 11.2809 38.6635C12.074 39.5469 13.0913 40.0492 14.2968 40.1478C15.0093 40.2061 15.4171 40.0267 15.435 39.1882C15.4798 37.2778 15.6322 35.3675 15.686 33.4527C15.7308 31.8787 15.6949 30.3002 15.6949 28.5782H15.6994ZM15.4261 103.525C15.5336 103.525 15.6456 103.525 15.7532 103.525C15.7532 101.888 15.7353 100.252 15.7621 98.6148C15.7711 97.9421 15.5157 97.7538 14.8793 97.8793C11.7066 98.4847 9.32701 101.924 9.88717 105.126C10.2591 107.256 11.9934 109.059 13.9427 109.341C15.1572 109.521 15.3992 109.341 15.4216 108.113C15.4485 106.583 15.4261 105.054 15.4261 103.525ZM15.7846 75.5114C12.5222 75.3365 8.95954 79.054 9.97231 83.1303C10.5101 85.2962 12.446 86.9151 14.3685 86.9599C14.9958 86.9734 15.4126 86.8613 15.435 86.0945C15.5336 82.6056 15.6636 79.1168 15.789 75.5114H15.7846ZM15.6994 167.006C13.284 167.346 11.5587 168.472 10.4966 170.589C9.48385 172.607 9.5197 174.602 10.7745 176.49C11.599 177.728 12.7866 178.472 14.3102 178.598C15.0362 178.66 15.4171 178.454 15.4395 177.625C15.4843 175.714 15.6367 173.804 15.6904 171.889C15.7353 170.315 15.6994 168.737 15.6994 167.001V167.006ZM15.6994 5.4838C13.3333 5.79771 11.6394 6.89189 10.5594 8.9233C9.50178 10.9143 9.47937 12.9233 10.6848 14.8382C11.5049 16.1476 12.7238 16.9413 14.3192 17.0714C15.0541 17.1297 15.4171 16.901 15.435 16.0848C15.4798 14.1745 15.6322 12.2641 15.686 10.3493C15.7308 8.77532 15.6949 7.20131 15.6949 5.4838H15.6994ZM15.6904 121.028C12.2398 120.745 8.69963 125.198 10.1202 129.01C10.8327 130.92 12.1099 132.122 14.131 132.431C15.1841 132.593 15.3678 132.391 15.4216 131.328C15.5157 129.525 15.6322 127.723 15.677 125.92C15.7218 124.288 15.686 122.655 15.686 121.028H15.6904ZM15.8742 51.9058C12.4594 52.2421 9.98128 54.8879 9.93198 58.0538C9.89165 60.4619 11.478 62.6413 13.6963 63.2332C15.2782 63.6548 15.4574 63.5202 15.5336 61.8745C15.5426 61.6548 15.5336 61.435 15.565 61.2153C15.9997 58.1659 15.7173 55.1031 15.8742 51.9058ZM15.8607 148.947C15.8607 147.481 15.8518 146.221 15.8652 144.961C15.8697 144.449 15.7935 144.082 15.1437 144.221C12.6656 144.745 11.0657 146.283 10.2546 148.62C9.47489 150.857 10.0575 152.84 11.72 154.481C12.5222 155.275 13.5529 155.665 14.6866 155.718C15.1975 155.741 15.5067 155.557 15.5336 154.979C15.6322 152.902 15.7577 150.826 15.8607 148.956V148.947ZM45.5359 160.754C45.63 159.068 43.7837 157.261 41.8343 157.127C39.5399 156.965 37.4471 158.741 37.3261 160.952C37.2141 163.006 39.1411 165.122 41.2652 165.275C43.6806 165.45 45.379 163.651 45.5404 160.754H45.5359ZM15.7442 190.158C14.3102 190.172 13.1496 190.791 12.1726 191.669C9.87821 193.732 8.83855 197.414 11.5094 200.248C12.3608 201.154 13.4319 201.661 14.709 201.674C15.2289 201.679 15.5112 201.531 15.5426 200.948C15.6591 198.714 15.8921 196.49 15.8025 194.252C15.7487 192.898 16.0355 191.539 15.7442 190.158ZM15.8742 212.93C11.9262 213.163 9.90509 216.692 9.94543 219.181C9.98576 221.813 11.6483 223.768 13.7545 224.316C15.202 224.688 15.4753 224.486 15.5381 223.024C15.547 222.751 15.547 222.477 15.5829 222.208C15.9773 219.168 15.7308 216.114 15.8742 212.93ZM341.006 161.158C341.225 158.862 339.195 157.27 336.744 157.185C334.795 157.118 332.845 159.055 332.809 161.041C332.774 163.216 334.786 165.252 337.004 165.279C339.182 165.306 340.961 163.476 341.001 161.162L341.006 161.158ZM214.777 289.94C214.785 287.738 213.033 285.989 210.824 285.993C208.655 285.993 206.8 287.823 206.813 289.94C206.827 291.98 208.803 293.85 210.923 293.818C213.051 293.787 214.768 292.061 214.777 289.935V289.94ZM171.03 186.867C171.03 184.916 169.206 183.064 167.252 183.024C165.178 182.979 163.385 184.795 163.398 186.921C163.416 189.001 165.079 190.692 167.158 190.723C169.287 190.759 171.035 189.019 171.03 186.867ZM133.45 217.051C133.432 219.096 135.041 220.804 136.99 220.813C139.155 220.822 140.902 219.024 140.902 216.8C140.902 214.898 139.298 213.302 137.326 213.239C135.207 213.172 133.468 214.88 133.45 217.055V217.051ZM45.1819 174.198C45.1819 172.149 43.6627 170.526 41.7626 170.544C39.755 170.562 37.8191 172.382 37.8281 174.243C37.837 176.198 39.6788 178.1 41.5923 178.131C43.5238 178.163 45.1819 176.346 45.1819 174.198ZM340.674 174.194C340.665 172.127 339.141 170.508 337.25 170.553C335.202 170.602 333.307 172.382 333.32 174.248C333.334 176.203 335.18 178.104 337.089 178.127C339.02 178.154 340.683 176.324 340.674 174.189V174.194ZM363.273 224.504C366.231 223.58 367.701 221.67 368.091 218.777C368.409 216.419 367.109 214.392 364.815 213.876C364.29 213.759 363.753 213.71 363.085 213.611C363.43 217.217 363.273 220.746 363.278 224.504H363.273ZM363.376 144.983C363.376 148.064 363.336 151.01 363.399 153.956C363.421 155.077 363.789 155.225 364.909 154.844C367.553 153.947 369.027 150.848 368.068 148.171C367.306 146.05 365.639 145.212 363.376 144.983ZM363.385 53.6278C363.385 56.6188 363.349 59.6144 363.408 62.601C363.426 63.5651 363.847 63.7265 364.864 63.3812C367.221 62.5875 368.682 60.1032 368.306 57.5426C367.956 55.1973 366.132 53.7219 363.39 53.6278H363.385ZM363.296 76.3993C363.296 78.7356 363.287 81.0765 363.296 83.4128C363.296 84.0675 363.318 84.7267 363.394 85.3725C363.502 86.2738 363.824 86.4487 364.734 86.1842C367.118 85.4891 368.696 82.8657 368.297 80.2648C367.934 77.9105 366.07 76.4262 363.291 76.3993H363.296ZM363.385 29.8921C363.385 32.8832 363.349 35.8787 363.408 38.8653C363.426 39.8294 363.847 39.9909 364.864 39.6456C367.221 38.8518 368.682 36.3675 368.306 33.807C367.956 31.4616 366.132 29.9863 363.39 29.8921H363.385ZM363.376 98.7897C363.376 101.785 363.336 104.727 363.394 107.664C363.417 108.749 363.815 108.915 364.913 108.525C367.212 107.714 368.597 105.337 368.324 102.812C368.082 100.592 365.792 98.552 363.372 98.7941L363.376 98.7897ZM363.376 7.1475C363.376 10.1475 363.336 13.0848 363.394 16.0265C363.417 17.1117 363.815 17.2732 364.918 16.883C367.217 16.0669 368.601 13.6902 368.324 11.1655C368.082 8.94124 365.787 6.90983 363.376 7.15198V7.1475ZM363.421 121.915C363.381 122.014 363.314 122.117 363.309 122.216C363.296 123.965 363.282 125.709 363.296 127.458C363.305 128.606 363.314 129.754 363.403 130.893C363.47 131.727 363.806 131.911 364.609 131.723C366.961 131.162 368.646 128.516 368.319 125.893C368.014 123.458 366.07 121.875 363.421 121.915ZM363.363 168.019C363.363 170.965 363.323 173.853 363.381 176.737C363.403 177.979 363.775 178.154 364.927 177.746C367.226 176.925 368.606 174.548 368.324 172.024C368.077 169.79 365.765 167.768 363.363 168.019ZM363.376 191.127C363.376 194.064 363.34 197.001 363.394 199.939C363.412 200.988 363.784 201.181 364.748 200.898C367.132 200.194 368.705 197.575 368.297 194.97C367.929 192.616 366.047 191.127 363.376 191.127ZM54.3282 164.862C54.3237 163.113 52.7597 161.615 50.8776 161.553C49.2105 161.494 47.4718 163.23 47.4852 164.929C47.4987 166.781 49.1075 168.369 50.9717 168.378C52.8404 168.382 54.3371 166.817 54.3282 164.862ZM349.825 164.938C349.856 163.01 348.485 161.75 346.285 161.687C344.564 161.638 343.009 163.131 342.982 164.862C342.955 166.705 344.546 168.342 346.397 168.378C348.283 168.414 349.793 166.898 349.825 164.938ZM31.3436 174.207C31.5094 172.571 29.7796 171.266 28.1305 171.055C26.5979 170.858 25.0788 172.553 24.9488 174.176C24.7964 176.042 26.7727 177.66 28.2157 177.616C29.8648 177.566 31.3436 175.979 31.3436 174.207ZM320.468 174.306C320.49 176.037 322.018 177.611 323.676 177.607C325.384 177.607 326.903 175.907 326.84 174.077C326.791 172.611 324.972 170.867 323.502 171.059C321.835 171.279 320.315 172.436 320.468 174.306ZM38.1552 186.665C38.1283 188.306 39.764 190.001 41.3548 189.988C42.7844 189.974 44.2408 188.405 44.3214 186.795C44.4021 185.176 43.0891 183.683 41.5162 183.607C39.8222 183.526 38.1821 185.015 38.1552 186.665ZM34.9511 164.562C34.9018 162.974 33.3781 161.584 31.7604 161.651C30.0933 161.719 28.628 163.127 28.6235 164.656C28.6235 166.306 30.3084 167.965 31.9351 167.911C33.4857 167.862 34.9959 166.185 34.9466 164.562H34.9511ZM327.297 167.911C328.834 167.952 330.403 166.342 330.434 164.692C330.466 163.122 329 161.66 327.378 161.647C325.733 161.633 324.21 162.979 324.12 164.526C324.026 166.145 325.644 167.871 327.293 167.911H327.297ZM327.315 180.427C325.671 180.4 324.223 181.759 324.201 183.356C324.178 184.947 325.895 186.723 327.427 186.696C328.92 186.669 330.461 184.956 330.439 183.351C330.416 181.768 329.014 180.459 327.315 180.432V180.427ZM31.9755 186.692C33.4946 186.629 34.9959 184.898 34.9331 183.284C34.8704 181.678 33.3019 180.378 31.5049 180.436C30.0127 180.486 28.619 182.033 28.7086 183.53C28.8072 185.104 30.5056 186.75 31.971 186.692H31.9755ZM339.872 186.66C339.894 185.046 338.469 183.723 336.739 183.741C335.171 183.759 333.715 185.1 333.647 186.593C333.571 188.243 335.175 189.97 336.802 189.988C338.259 190.006 339.849 188.279 339.872 186.656V186.66ZM57.9177 173.898C57.8953 172.355 56.6092 170.997 55.1707 170.997C53.4364 170.997 51.729 172.409 51.7021 173.867C51.6708 175.526 53.3154 177.275 54.8839 177.261C56.3448 177.248 57.9401 175.481 57.9177 173.898ZM350.618 171.015C348.938 170.979 347.203 172.445 347.194 173.903C347.185 175.562 348.83 177.293 350.389 177.261C351.783 177.234 353.325 175.602 353.41 174.064C353.495 172.526 352.137 171.046 350.618 171.015ZM348.911 183.019C348.92 181.27 348.005 180.252 346.424 180.243C344.644 180.234 343.049 181.611 343.081 183.136C343.116 184.786 344.497 186.176 346.105 186.176C347.723 186.176 348.897 184.853 348.906 183.019H348.911ZM53.4185 183.324C53.5126 181.728 52.3564 180.293 50.9358 180.243C49.2822 180.185 47.66 181.517 47.5838 182.983C47.5032 184.571 48.8879 186.104 50.4653 186.176C52.0517 186.248 53.3154 185.024 53.4185 183.324Z" fill="#1F1814"/>
</g>
<defs>
<filter id="filter0_d_81_25" x="0" y="0" width="379" height="322" filterUnits="userSpaceOnUse" color-interpolation-filters="sRGB">
<feFlood flood-opacity="0" result="BackgroundImageFix"/>
<feColorMatrix in="SourceAlpha" type="matrix" values="0 0 0 0 0 0 0 0 0 0 0 0 0 0 0 0 0 0 127 0" result="hardAlpha"/>
<feOffset dy="4"/>
<feGaussianBlur stdDeviation="2"/>
<feComposite in2="hardAlpha" operator="out"/>
<feColorMatrix type="matrix" values="0 0 0 0 0 0 0 0 0 0 0 0 0 0 0 0 0 0 0.25 0"/>
<feBlend mode="normal" in2="BackgroundImageFix" result="effect1_dropShadow_81_25"/>
<feBlend mode="normal" in="SourceGraphic" in2="effect1_dropShadow_81_25" result="shape"/>
</filter>
</defs>
</svg>
