<svg width="89" height="85" viewBox="0 0 89 85" fill="none" xmlns="http://www.w3.org/2000/svg">
<g clip-path="url(#clip0_2_4)">
<path d="M53.9884 71.9515C51.3911 71.8552 48.816 71.5131 46.2353 71.2245C43.916 70.9679 41.669 70.4921 39.4944 69.7437C35.996 68.541 32.6367 67.0442 29.6333 64.906C27.3029 63.2435 24.9002 61.6452 22.9202 59.5764C21.3573 57.946 19.8612 56.2729 18.671 54.3431C17.7422 52.8357 16.6576 51.4084 15.8345 49.8475C14.6609 47.6291 13.9601 45.2343 13.2093 42.8608C12.6754 41.1877 12.4473 39.4664 12.2805 37.7291C12.0802 35.7138 11.9746 33.6985 12.0413 31.6779C12.1414 28.3743 12.8033 25.199 14.4718 22.2536C15.3339 20.7301 16.0458 19.1211 17.1804 17.7527C18.1593 16.5713 19.3161 15.5663 20.5175 14.6041C21.6577 13.6954 22.8535 12.8454 24.1382 12.1505C26.185 11.0386 28.3986 10.2849 30.64 9.606C33.3597 8.78278 36.135 8.41928 38.9604 8.62776C41.1295 8.78813 43.3042 8.59569 45.4622 8.85762C49.539 9.34941 53.499 10.2528 57.2254 11.9794C58.6882 12.6583 60.1676 13.2838 61.4524 14.262C61.5692 14.3529 61.6915 14.4437 61.7916 14.5453C62.0475 14.8072 62.5202 15.0852 62.2811 15.4434C61.9974 15.8603 61.4579 16.0047 60.9018 15.8336C59.9841 15.5503 59.1053 15.1654 58.271 14.7217C55.7293 13.3693 52.9539 12.6423 50.1953 11.8886C48.1875 11.3433 46.1185 11.0653 44.0328 10.8301C41.5578 10.5468 39.0772 10.3544 36.5967 10.3865C33.5321 10.4239 30.4843 10.8996 27.7312 12.22C25.5509 13.2624 23.4653 14.5186 21.5742 16.0474C19.8501 17.4426 18.3873 19.0249 17.2416 20.8745C16.1237 22.6759 15.1782 24.5576 14.6331 26.6103C14.4329 27.364 14.3717 28.1498 14.2883 28.9089C14.127 30.3736 13.949 31.8489 13.9879 33.3297C14.0491 35.7138 14.1715 38.0872 14.6275 40.4339C14.7332 40.9952 14.7165 41.5939 14.8723 42.1445C15.9791 45.9933 17.4418 49.7032 19.7611 53.0335C20.6232 54.2736 21.4352 55.5405 22.3028 56.7647C23.087 57.8766 24.1327 58.812 25.2061 59.6994C26.2573 60.5707 27.3085 61.4581 28.4931 62.137C31.8914 64.0988 34.867 66.7609 38.7658 67.9102C40.9961 68.5677 43.2597 69.0648 45.5623 69.4337C46.8582 69.6422 48.1708 69.6154 49.45 69.8987C49.9839 70.0163 50.5067 69.6849 51.0518 69.7865C52.4311 70.0377 53.8383 69.995 55.212 69.8827C58.0263 69.6475 60.8795 69.3909 63.399 68.0118C65.0286 67.1191 66.0075 65.7399 65.8907 64.1897C65.735 62.153 64.9229 60.3569 63.7105 58.7051C62.3812 56.893 61.4134 54.8991 60.9907 52.7288C60.6849 51.1518 60.7182 49.5 61.8083 48.1423C62.6204 47.1319 63.7883 46.5119 65.0731 46.1697C66.3523 45.833 67.6872 45.7902 68.9886 45.6085C71.5749 45.2556 73.8941 44.3202 74.9231 41.6901C75.2846 40.7654 75.4681 39.7978 75.5404 38.8303C75.5794 38.2743 75.6684 37.7184 75.7017 37.1624C75.9075 33.7145 74.8841 30.566 73.1655 27.5939C72.5704 26.5675 72.2423 25.4129 71.5192 24.4453C71.0854 23.868 70.6349 23.3014 70.2122 22.7187C69.9786 22.398 69.8229 22.0452 69.8118 21.6389C69.8006 21.0776 70.1455 20.8103 70.7239 20.9333C71.5637 21.115 72.1533 21.6763 72.5927 22.2911C74.7173 25.2792 76.5082 28.4117 77.1589 32.0521C77.3981 33.3831 77.704 34.7249 77.7373 36.0613C77.7707 37.4137 77.4593 38.7768 77.0922 40.1132C76.6027 41.8986 75.8074 43.5397 74.5337 44.9189C73.5382 45.9987 72.2145 46.6295 70.7851 47.0518C70.0287 47.2763 69.25 47.1213 68.4825 47.2709C67.2811 47.5061 66.0854 47.7413 64.9341 48.153C63.6604 48.6073 63.3934 49.7833 63.0486 50.815C62.637 52.0392 63.0987 53.2366 63.6382 54.3485C64.4001 55.9201 65.3345 57.4008 66.3245 58.8548C67.5926 60.715 68.21 62.7945 67.9597 65.0075C67.7205 67.1404 66.4302 68.6693 64.478 69.6368C62.32 70.7059 59.9841 71.2351 57.6092 71.6735C56.4078 71.8927 55.212 71.9247 53.9996 71.9301L53.9884 71.9515Z" fill="#1F1814"/>
<path d="M17.2305 55.8933C17.3973 55.9842 17.7422 55.9308 17.9758 56.3263C19.622 59.1648 21.8913 61.5115 24.3996 63.6605C26.1349 65.1519 28.0816 66.376 30.0059 67.6269C30.5176 67.9583 30.6734 68.2683 30.4731 68.8296C29.8224 70.6151 29.0048 72.3417 28.304 74.1057C28.0092 74.8488 27.353 74.8488 26.8079 74.9877C22.6644 76.0729 18.7989 75.5223 15.3895 72.9297C12.9479 71.0748 11.3906 68.6265 10.6008 65.7345C10.1503 64.0881 9.989 62.4043 10.0836 60.7044C10.1225 60.0255 10.256 59.3573 10.3338 58.6784C10.3561 58.4806 10.4729 58.4058 10.6453 58.3363C12.6587 57.5077 14.6164 56.5295 16.7299 55.9361C16.8523 55.8987 16.9635 55.8292 17.236 55.8933H17.2305Z" fill="#1F1814"/>
<path d="M44.4499 83.8774C41.0461 83.7705 38.0316 83.0115 35.4788 81.055C34.3275 80.173 33.4153 79.0557 32.6311 77.8102C31.8914 76.6395 32.3363 75.7147 32.8091 74.7205C33.3708 73.5391 33.9715 72.3684 34.5666 71.1977C34.9448 70.46 35.0839 70.4333 35.8514 70.7915C37.9371 71.759 40.1284 72.4272 42.3754 72.935C44.7336 73.4696 47.1196 73.801 49.5446 73.9881C51.3132 74.1218 53.0541 73.956 54.8116 73.94C55.2232 73.94 55.4957 74.1004 55.657 74.3944C56.3689 75.704 56.5858 76.9709 55.657 78.3448C53.8494 81.0122 51.2854 82.5624 48.1597 83.3696C46.886 83.701 45.5845 83.7812 44.4555 83.8774H44.4499Z" fill="#1F1814"/>
<path d="M79.8619 36.9433C79.9621 35.3075 79.5672 33.6878 79.2168 32.0628C79.2057 32.004 79.239 31.9077 79.2057 31.881C78.922 31.6351 78.783 31.2663 79.0388 31.0524C79.3002 30.8333 79.7618 30.9295 80.0677 31.1166C80.9465 31.6512 81.9421 31.9933 82.7596 32.6347C85.1623 34.5164 86.753 36.8684 87.3148 39.8245C88.0879 43.8925 86.8476 47.4527 84.2836 50.644C83.1156 52.0926 81.6473 53.2366 79.9343 54.0865C79.3836 54.3592 78.8775 54.4019 78.2935 54.1774C76.2635 53.4076 74.2835 52.5203 72.2923 51.6543C70.9909 51.0877 69.6505 50.6012 68.3935 49.9491C68.2267 49.8635 68.0375 49.7887 67.9096 49.6604C67.8373 49.5909 67.8373 49.4252 67.8484 49.3076C67.8596 49.1579 68.0042 49.2007 68.1043 49.2007C70.4236 49.2755 72.5259 48.6394 74.3613 47.303C76.6194 45.6566 78.4771 43.668 79.3948 41.038C79.8453 39.739 79.9009 38.3652 79.8564 36.9486L79.8619 36.9433Z" fill="#1F1814"/>
<path d="M64.0664 75.9499C63.4435 75.9339 62.8261 75.9499 62.2032 75.8484C60.9184 75.6292 60.3178 75.1053 60.201 73.8438C60.1732 73.5444 59.795 73.2397 60.1175 72.9564C60.4068 72.6998 60.7794 72.9457 61.1131 72.9404C64.4391 72.9297 66.9474 71.5559 68.5882 68.7601C69.5448 67.1351 70.062 65.3657 70.1844 63.5161C70.2734 62.1156 69.7951 60.822 69.1221 59.5818C68.3045 58.0636 66.9864 56.8983 66.052 55.4657C65.6793 54.8937 65.4958 54.279 65.379 53.6482C65.2845 53.1404 65.6627 53.3328 65.9185 53.429C67.2311 53.9422 68.5548 54.434 69.8507 54.9793C72.1755 55.9575 74.4559 57.0533 76.8252 57.9247C78.5049 58.5394 79.011 59.7956 79.2001 61.2389C79.645 64.5853 78.3436 67.4291 76.2134 69.9789C73.6717 73.0152 70.3958 74.9236 66.4524 75.7842C65.6738 75.9553 64.8729 76.0088 64.072 75.9446L64.0664 75.9499Z" fill="#1F1814"/>
<path d="M7.79765 31.015C8.6208 31.1807 9.38276 31.0471 10.128 31.1059C10.6119 31.1433 10.8622 31.4587 10.7454 31.8864C10.1447 34.1475 10.1114 36.4301 10.3005 38.7501C10.5007 41.1556 10.9568 43.5023 11.7577 45.7849C12.4362 47.7039 13.2037 49.5856 14.4829 51.2267C14.7332 51.5474 14.4162 51.5955 14.305 51.6757C13.7154 52.0819 13.0369 52.3225 12.3695 52.5898C11.335 53.0014 10.2838 53.3916 9.26597 53.8406C8.2704 54.2843 7.61411 53.6535 6.9745 53.1778C4.21585 51.1304 2.53062 48.3935 1.99113 45.122C1.2959 40.8937 2.34708 37.0288 5.12799 33.629C5.85658 32.7363 6.74091 31.9986 7.55293 31.1861C7.63636 31.1006 7.75316 31.0418 7.79209 31.015H7.79765Z" fill="#1F1814"/>
<path d="M51.7971 55.9842C52.9539 55.8773 54.0719 56.2461 55.1953 56.6791C56.9139 57.342 57.0196 58.7211 55.9184 59.956C55.7237 60.1751 55.4123 60.3676 55.5958 60.6937C55.7682 60.993 56.1297 61.0625 56.4523 60.993C57.053 60.8647 57.6537 60.8754 58.2599 60.8754C59.3611 60.8754 59.9284 61.2817 60.2677 62.3134C60.4568 62.896 60.1231 63.5322 59.5614 64.0774C58.4434 65.1626 57.0419 65.5207 55.5569 65.633C54.2554 65.7292 53.1708 66.205 52.2198 67.0282C51.836 67.3596 51.3855 67.5841 50.9183 67.7979C49.6614 68.3753 48.5712 67.7605 48.4934 66.4134V66.2905C48.6213 64.7563 48.1819 64.473 46.7358 63.9117C45.0284 63.2488 44.5111 61.8857 44.7447 60.5707C44.9839 59.2183 45.8015 58.1438 46.9917 57.4008C48.4211 56.5134 49.9561 55.8773 51.7971 55.9896V55.9842Z" fill="#1F1814"/>
<path d="M71.6416 11.7015C71.6249 12.5193 71.1021 13.1608 70.6905 13.7969C68.7606 16.7798 66.9196 19.8054 65.0342 22.8096C62.0753 27.5351 59.1331 32.2659 56.1687 36.9914C55.2398 38.4721 54.261 39.9261 53.3377 41.4068C53.1764 41.6634 53.004 41.5832 52.8705 41.5084C51.8471 40.9097 50.846 40.2682 49.9561 39.4878C49.6335 39.2045 49.8894 38.9906 50.0229 38.7822C51.2131 36.9272 52.4979 35.1418 53.7882 33.3511C57.9206 27.6259 62.0141 21.8741 66.1299 16.1383C67.2589 14.5667 68.4213 13.0218 69.567 11.4663C69.8618 11.0653 70.2678 10.8836 70.7684 10.8782C71.3579 10.8676 71.6305 11.1295 71.636 11.7068L71.6416 11.7015Z" fill="#1F1814"/>
<path d="M49.272 14.6308C51.4745 14.6469 53.5491 15.1173 55.3177 16.4376C56.1186 17.0364 56.8528 17.7473 57.4256 18.5705C58.0263 19.4312 57.7482 20.4789 56.7582 21.1899C56.4857 21.3823 56.202 21.5908 55.885 21.687C55.2176 21.8848 55.2065 22.3552 55.3121 22.847C55.7237 24.7928 53.677 26.776 51.6914 26.2789C50.6013 26.0062 49.6224 26.0223 48.6435 26.6156C47.7147 27.1823 46.7247 27.1448 45.7403 26.6744C44.8671 26.2575 44.3943 25.1777 44.589 24.1406C44.8003 23.0181 45.49 22.3017 46.5134 21.826C46.569 21.7993 46.6413 21.7939 46.6969 21.7672C47.8649 21.2112 47.9761 20.5377 47.0807 19.6183C46.7247 19.2548 46.3632 18.8913 46.0517 18.4957C45.4678 17.758 45.312 16.9134 45.6735 16.0635C45.9906 15.3151 46.6524 14.9355 47.4756 14.7591C48.0762 14.6308 48.6769 14.6522 49.2832 14.6362L49.272 14.6308Z" fill="#1F1814"/>
<path d="M42.9483 1.18137C47.648 1.29363 51.6191 2.97748 54.7949 6.32916C55.3844 6.94925 55.8683 7.66021 56.3633 8.35513C56.7082 8.84158 56.113 9.78775 55.5235 9.88397C54.3611 10.0764 53.499 9.33872 52.4923 9.07144C50.4122 8.52085 48.321 8.03975 46.1852 7.73505C44.0384 7.425 41.8748 7.19514 39.7002 7.25395C38.8214 7.28067 37.9426 7.19514 37.0694 7.23791C36.0238 7.29671 34.9726 7.30206 33.9326 7.47846C33.3208 7.58537 33.115 7.33413 33.2818 6.77284C33.838 4.91258 35.1729 3.67241 36.8358 2.71555C38.7102 1.64109 40.7402 1.10653 42.9427 1.18137H42.9483Z" fill="#1F1814"/>
<path d="M30.3118 35.8421C30.2673 37.2747 29.3775 38.2102 28.2707 39.0013C27.4809 39.5626 26.5743 39.9047 25.5954 40.0063C24.789 40.0865 24.2217 40.5141 23.6877 41.0487C23.304 41.4336 22.9424 41.8505 22.4474 42.1285C21.0626 42.9089 19.6943 41.92 19.4774 40.6585C19.3773 40.0811 19.1882 39.4931 19.4608 38.9051C19.5386 38.734 19.4051 38.6592 19.2494 38.6004C18.9213 38.4721 18.5931 38.3331 18.2761 38.1835C17.1526 37.6382 16.7077 36.7081 16.5909 35.5481C16.3517 33.2174 18.2316 30.8921 20.9179 30.5019C21.9024 30.3575 22.9258 30.3094 23.9102 30.6569C24.4163 30.8386 24.9614 30.7103 25.4897 30.8386C28.0092 31.4587 29.4108 33.1479 30.3063 35.3503C30.3675 35.4946 30.3118 35.6817 30.3118 35.8474V35.8421Z" fill="#1F1814"/>
<path d="M41.7302 55.2412C41.085 55.2145 40.5233 54.9365 39.9393 55.2251C39.7836 55.3 39.6779 55.1075 39.6279 54.9739C39.5667 54.8082 39.5667 54.6425 39.7502 54.5302C41.5189 53.4397 42.1307 51.6703 42.5923 49.8635C42.9872 48.2973 43.154 46.6829 43.5434 45.1167C43.9605 43.4328 45.0395 42.1338 46.4967 41.1396C47.3866 40.5302 49.6335 40.5088 50.7125 41.1609C51.9862 41.9307 52.6425 43.0907 53.1208 44.2881C53.41 45.0098 53.2765 45.972 53.143 46.8326C52.7982 49.0991 51.3076 50.5852 49.4778 51.8307C47.5256 53.1564 45.49 54.3431 43.1707 55.0006C42.6813 55.1396 42.164 55.1824 41.7302 55.2572V55.2412Z" fill="#1F1814"/>
<path d="M32.0304 55.8506C31.3686 55.7651 30.5176 55.6795 29.7779 56.2355C29.5888 56.3744 29.4108 56.5295 29.2495 56.6952C28.1149 57.8926 26.0682 57.5131 25.5287 55.8239C25.1727 54.712 25.0615 53.6161 25.8791 52.6219C26.0626 52.3973 26.0181 52.2049 25.779 52.0445C25.5009 51.8628 25.2172 51.681 24.9391 51.4886C23.9269 50.799 23.621 49.5695 24.1827 48.5485C25.1672 46.7578 26.6355 45.6192 28.7768 45.2663C29.8725 45.0846 30.8625 45.3091 31.808 45.694C32.62 46.0254 33.5544 46.0361 34.2774 46.5867C35.6345 47.6237 35.5511 48.3561 34.828 49.6658C34.6445 50.0025 34.3441 50.3072 34.0327 50.5478C33.6044 50.8792 33.7323 51.093 34.0883 51.355C35.3731 52.3065 35.5399 52.6967 35.1506 53.8086C34.7112 55.0648 33.6712 55.8345 32.4086 55.8399C32.3419 55.8399 32.2807 55.8399 32.0249 55.8399L32.0304 55.8506Z" fill="#1F1814"/>
<path d="M36.7302 22.3124C36.8358 23.3976 36.0294 23.8413 35.3286 24.3384C34.689 24.7981 33.8936 24.8035 33.1539 24.9264C32.1305 25.0975 31.5243 25.7122 31.1183 26.5461C30.7568 27.2838 30.3452 27.9413 29.5276 28.2995C28.66 28.679 27.5198 28.107 27.0637 27.0967C26.6188 26.1238 26.8135 25.2258 27.2473 24.3224C27.581 23.6328 27.5087 23.4136 26.7356 23.2105C25.4564 22.8737 24.7 22.1521 24.4108 20.8798C24.166 19.816 24.5109 18.9714 25.2172 18.2498C26.5465 16.8867 28.1094 16.0207 30.1339 15.855C31.2685 15.7641 32.3586 15.5556 33.4765 15.8871C33.8992 16.01 34.2885 16.2185 34.7168 16.3361C35.2841 16.4964 35.4676 17.3785 35.1784 17.9932C34.9281 18.5278 34.4943 18.8752 33.9826 19.1585C33.5989 19.3724 33.2095 19.5862 32.848 19.8321C32.6311 19.9818 32.4142 20.1582 32.5421 20.4949C32.6533 20.7836 32.8425 20.8531 33.1428 20.944C34.0382 21.2059 34.9448 20.9653 35.8403 21.1204C36.63 21.254 36.7858 21.7191 36.7302 22.3124Z" fill="#1F1814"/>
<path d="M64.0442 41.0647C63.9552 40.7761 64.0831 40.4126 64.2055 40.1025C64.4446 39.4985 64.1221 39.1403 63.7272 38.8303C63.3601 38.5416 63.0375 38.2102 62.6426 37.9482C61.7583 37.3602 61.5024 36.1628 61.914 34.9226C62.6982 32.5332 65.2678 31.0952 67.8985 32.1269C68.8496 32.5011 69.7617 33.0517 70.5515 33.6825C71.2578 34.2491 72.0587 34.618 72.8263 35.0563C73.299 35.3236 73.6995 35.6657 73.9831 36.104C74.556 36.9807 74.3725 38.0819 73.655 38.9211C72.8374 39.878 71.764 40.2201 70.5459 40.2736C69.7506 40.3056 69.1332 40.5355 68.7439 41.2999C68.4102 41.9574 67.8985 42.508 67.1866 42.8769C66.4469 43.2617 65.7072 43.5076 64.9508 43.0212C64.2778 42.5882 64.0331 41.9093 64.0553 41.0701L64.0442 41.0647Z" fill="#1F1814"/>
<path d="M21.9024 9.33872C22.4808 9.49909 23.0926 9.43494 23.6877 9.50978C24.255 9.57927 24.0937 10.1352 24.1716 10.4987C24.2328 10.7767 24.1716 10.9531 23.76 11.0172C22.77 11.1776 21.9358 11.7335 21.1849 12.3269C17.0859 15.5503 13.9601 19.4846 12.0135 24.2422C11.7187 24.9585 11.4962 25.6962 11.2404 26.4285C11.207 26.5194 11.2793 26.653 11.1347 26.6851C11.0068 26.7172 10.9234 26.6156 10.8789 26.5247C10.3839 25.5305 9.74984 24.6164 9.51069 23.4885C9.11024 21.5961 9.40501 19.8054 10.0891 18.052C11.3461 14.8072 13.5541 12.3109 16.7577 10.6965C18.1092 10.0123 19.5442 9.50443 21.1126 9.4777C21.3685 9.4777 21.6187 9.38683 21.8968 9.33337L21.9024 9.33872Z" fill="#1F1814"/>
<path d="M78.4214 22.9272C78.5549 24.007 78.3102 25.183 77.8152 26.3163C77.7262 26.5141 77.7485 26.8776 77.3814 26.8134C77.12 26.7653 76.9253 26.6263 76.8363 26.2949C76.4748 24.9531 75.9242 23.6756 75.0788 22.5423C73.9664 21.0455 72.626 19.7626 71.0465 18.7202C70.8185 18.5705 70.6405 18.3727 70.3846 18.2391C70.0732 18.0787 70.1455 17.7687 70.2956 17.48C71.1688 15.8015 72.0198 14.1123 73.1933 12.5995C73.3602 12.3804 73.4659 12.391 73.7106 12.4873C74.8063 12.9363 75.4459 13.8344 76.0354 14.7378C77.6372 17.186 78.5438 19.8428 78.4214 22.9272Z" fill="#1F1814"/>
<path d="M58.1654 3.79001C58.182 1.53953 59.6949 -0.0320741 61.6026 0.0160361C63.6771 0.0694919 65.6404 1.40054 65.6738 3.74725C65.7016 5.66096 63.4046 7.28067 61.4635 7.26464C60.0008 7.25395 57.9318 5.677 58.1598 3.79536L58.1654 3.79001Z" fill="#1F1814"/>
<path d="M27.3585 7.22715C25.4786 7.35545 23.6154 5.52191 23.671 3.45318C23.7267 1.53411 24.7723 -0.0535212 28.1984 -6.54695e-05C29.5054 0.0213168 31.1628 1.89227 31.0961 3.39972C31.0071 5.42035 29.4164 7.3501 27.3585 7.22715Z" fill="#1F1814"/>
<path d="M85.3737 62.3829C83.4882 62.5539 81.4916 60.405 81.5416 58.4218C81.5805 56.8609 83.0711 55.1663 85.1179 55.2198C87.4371 55.2786 88.9444 56.6845 88.9944 58.518C89.0334 59.9613 87.337 62.6983 85.3681 62.3829H85.3737Z" fill="#1F1814"/>
<path d="M88.8498 26.5568C88.7275 28.5935 87.2703 29.8443 85.179 29.7161C83.2324 29.5985 81.4471 27.9146 81.575 26.2575C81.7196 24.3812 83.377 22.5637 86.0244 22.8096C87.4761 22.9432 89.0667 24.3437 88.8498 26.5622V26.5568Z" fill="#1F1814"/>
<path d="M7.05237 59.3787C7.26372 61.0732 5.35602 62.3989 4.01006 62.5432C2.03006 62.7517 0.67854 61.6024 0.333708 60.3997C0.0834268 59.5337 0.166854 58.7158 0.645169 57.9354C1.14573 57.1228 1.58511 56.3424 2.71972 56.0644C3.87102 55.7811 5.6786 56.5295 6.30152 57.342C6.77428 57.9567 7.18029 58.6036 7.06349 59.3787H7.05237Z" fill="#1F1814"/>
<path d="M3.44832 23.1784C5.34489 23.0127 6.99675 24.9318 6.91888 26.8027C6.84102 28.6042 5.50619 29.8176 3.57624 29.7695C1.4127 29.7161 0.150167 28.3904 0.00556051 26.5301C-0.105676 25.1509 1.89101 23.0448 3.44832 23.1784Z" fill="#1F1814"/>
<path d="M61.5525 78.5907C63.4658 78.4784 64.9174 80.2852 64.9508 81.9637C64.9897 83.6315 63.4046 85.0535 61.6804 84.9947C59.7004 84.9305 58.2543 83.6743 58.31 81.937C58.3656 80.2424 59.4891 78.5105 61.5469 78.5907H61.5525Z" fill="#1F1814"/>
<path d="M30.5844 81.5842C30.7457 83.1344 29.0827 84.9786 27.3085 84.8931C25.512 84.8076 24.0715 83.375 24.0437 81.5254C24.0159 79.8576 25.5676 78.6441 27.4976 78.6121C29.294 78.5853 30.7401 79.9164 30.5844 81.5842Z" fill="#1F1814"/>
<path d="M63.5214 9.2425C65.1899 9.18904 66.6693 9.45098 68.121 9.9107C68.8941 10.1566 68.9052 10.1512 68.4102 10.766C67.765 11.5678 67.1032 12.3536 66.4524 13.1555C66.0687 13.6259 65.7628 14.1444 65.3846 14.6202C65.0842 14.9997 64.8784 14.9676 64.5614 14.7003C63.7383 14.0054 62.8818 13.3532 61.9585 12.7813C61.3745 12.4178 60.6403 12.3483 60.1175 11.8511C59.9173 11.664 59.845 11.5625 59.9229 11.3005C60.1398 10.5575 60.3456 9.76637 61.191 9.52047C61.9752 9.29061 62.8095 9.10351 63.5269 9.24785L63.5214 9.2425Z" fill="#1F1814"/>
</g>
<defs>
<clipPath id="clip0_2_4">
<rect width="89" height="85" fill="white"/>
</clipPath>
</defs>
</svg>
