<svg width="458" height="520" viewBox="0 0 458 520" fill="none" xmlns="http://www.w3.org/2000/svg">
<g clip-path="url(#clip0_82_214)">
<path d="M102.535 222.052C101.004 218.332 99.3871 214.804 98.212 211.113C97.4357 208.675 96.6309 206.245 95.9187 203.787C95.6481 202.846 95.2991 202.518 94.2949 202.853C90.6271 204.093 86.9379 205.262 83.263 206.459C82.8926 206.58 82.5294 206.716 82.1662 206.83C74.0186 209.338 65.8355 211.726 57.7449 214.412C53.8492 215.702 49.8324 216.643 46.015 218.196C45.1604 218.546 44.2345 218.766 43.3158 218.888C41.9555 219.066 41.108 218.546 40.6949 217.469C40.2391 216.272 40.6664 214.897 41.749 214.198C42.0695 213.992 42.4398 213.849 42.8101 213.728C45.0892 212.973 47.3682 212.203 49.6615 211.49C54.6967 209.937 59.7604 208.476 64.7743 206.865C73.9189 203.929 83.0707 201 92.2723 198.25C94.2949 197.644 94.2878 197.587 93.8747 195.477C92.9845 190.902 92.258 186.306 91.8378 181.666C91.6455 179.528 91.6384 179.5 89.5161 179.443C81.0623 179.208 72.6085 178.987 64.1547 178.759C57.4814 178.581 50.8152 178.395 44.142 178.196C42.9882 178.16 41.8202 178.217 41.0154 177.07C39.7976 175.338 40.5026 173.385 42.5822 173.001C43.1093 172.901 43.6648 172.929 44.2061 172.944C58.8631 173.364 73.5272 173.792 88.1843 174.219C88.6472 174.234 89.1172 174.255 89.5802 174.255C91.3179 174.255 91.3464 174.255 91.2966 172.438C90.9689 159.546 92.4646 146.868 95.6267 134.376C96.9016 129.33 98.5752 124.413 100.22 119.481C102.72 111.97 104.643 104.288 106.787 96.6697C111.786 78.8964 116.75 61.1017 121.764 43.3285C123.766 36.2306 125.689 29.1255 127.441 21.9635C128.459 17.8088 129.905 13.7752 132.205 10.1336C134.406 6.65595 137.069 3.66286 141.414 2.91459C144.512 2.38011 147.382 3.02861 150.117 4.61067C156.32 8.19526 160.779 13.5258 164.824 19.2341C173.741 31.8193 180.528 45.5804 186.824 59.5981C187.294 60.6528 187.799 61.6932 188.412 63.0187C190.107 61.5721 191.994 60.7098 193.753 59.6337C196.623 57.8735 199.75 56.6976 202.869 55.5859C208.866 53.448 215.062 52.1082 221.415 51.3386C232.397 50.0059 243.272 50.5404 254.027 52.9349C257.623 53.733 261.213 54.8162 264.56 56.5123C265.87 57.1751 267.295 57.5955 268.684 58.1015C270.193 58.6574 270.222 58.6503 270.984 57.2036C272.608 54.1179 274.153 50.9894 275.841 47.9393C280.755 39.0384 286.218 30.4938 292.578 22.5407C297.143 16.8325 302.086 11.4877 307.919 7.08354C312.519 3.60585 317.498 0.755285 323.416 0.113908C330.089 -0.612986 335.167 2.09505 338.978 7.42561C342.595 12.4854 344.162 18.3219 345.117 24.3366C347.887 41.8177 350.586 59.3059 353.286 76.7941C356.498 97.5818 359.66 118.384 362.893 139.164C364.631 150.31 365.585 161.506 365.521 172.787C365.507 174.754 365.535 174.797 367.423 174.697C383.618 173.827 399.835 173.599 416.044 172.944C417.127 172.901 418.224 172.83 419.299 172.951C420.852 173.129 421.621 174.02 421.628 175.367C421.628 176.607 420.731 177.754 419.42 177.961C418.274 178.139 417.106 178.174 415.945 178.217C400.198 178.73 384.458 179.236 368.712 179.742C368.014 179.764 367.316 179.821 366.618 179.799C365.664 179.764 365.236 180.134 365.179 181.139C364.795 187.503 364.011 193.817 362.786 200.074C362.58 201.129 362.857 201.642 363.933 201.884C366.426 202.454 368.861 203.231 371.311 203.944C376.895 205.568 382.528 206.979 388.126 208.54C395.889 210.699 403.638 212.916 411.387 215.111C411.835 215.239 412.277 215.389 412.704 215.574C414.164 216.237 414.777 217.441 414.335 218.731C413.929 219.921 412.868 220.463 411.301 220.242C410.845 220.177 410.397 220.035 409.948 219.907C400.241 217.206 390.533 214.491 380.826 211.804C374.922 210.172 369.011 208.59 363.1 207.008C361.454 206.566 361.39 206.595 360.999 208.134C359.638 213.479 357.922 218.709 355.878 223.833C355.251 225.408 355.28 225.465 356.925 226.064C361.077 227.575 365.229 229.078 369.403 230.532C376.204 232.898 383.055 235.15 389.828 237.594C395.006 239.454 400.191 241.286 405.397 243.06C407.007 243.609 408.595 244.243 410.162 244.92C411.18 245.362 411.679 246.232 411.643 247.351C411.607 248.398 410.981 249.039 410.076 249.474C409.464 249.773 408.887 249.645 408.274 249.453C402.655 247.685 397.121 245.662 391.58 243.673C387.934 242.362 384.266 241.108 380.598 239.846C376.425 238.414 372.23 237.024 368.057 235.578C363.669 234.053 359.311 232.442 354.916 230.917C352.922 230.226 352.951 230.297 351.932 232.157C350.779 234.266 349.603 236.362 348.322 238.385C347.716 239.348 347.681 239.889 348.628 240.673C351.249 242.847 353.82 245.077 356.291 247.443C362.195 253.102 367.337 259.394 371.71 266.278C377.237 274.972 381.389 284.301 383.867 294.335C387.863 310.512 387.492 326.496 381.61 342.196C378.561 350.334 374.153 357.682 368.277 364.117C367.807 364.63 367.458 365.314 366.896 365.677C364.83 367.017 364.702 368.913 364.837 371.151C365.685 385.026 366.426 398.901 367.202 412.776C367.273 414.101 367.394 415.434 366.29 416.474C365.849 416.888 365.97 417.472 365.877 418C365.55 419.881 364.852 420.48 362.907 420.601C362.288 420.636 361.668 420.615 361.049 420.615C352.509 420.615 343.977 420.622 335.438 420.629C334.897 420.629 334.348 420.658 333.807 420.629C332.938 420.579 332.532 420.928 332.568 421.841C332.61 422.924 332.596 424.014 332.561 425.105C332.454 427.912 332.041 430.663 330.972 433.286C328.757 438.716 324.791 441.709 318.872 441.823C315.432 441.887 312.135 441.182 308.909 439.87C300.376 436.414 293.126 431.077 286.382 424.941C285.235 423.9 283.967 422.995 282.97 421.791C282.087 420.729 280.891 420.636 279.602 420.636C263.848 420.665 248.094 420.665 232.347 420.665C220.632 420.665 208.916 420.665 197.193 420.665C194.893 420.665 195.021 420.358 194.052 422.803C192.037 427.855 188.818 432.088 184.78 435.723C178.861 441.046 171.903 444.296 164.176 445.871C157.132 447.31 150.224 446.662 143.75 443.448C139.284 441.232 135.716 437.939 133.587 433.293C132.127 430.107 132.576 428.725 135.553 426.993C138.75 425.126 141.912 423.202 145.167 421.256C144.562 420.366 143.807 420.7 143.202 420.7C129.235 420.672 115.269 420.679 101.296 420.672C100.292 420.672 99.266 420.679 98.2832 420.494C96.5098 420.159 95.7549 419.047 96.1324 417.315C96.346 416.318 96.4386 415.327 96.4671 414.315C96.9656 397.939 97.4357 381.562 98.0197 365.186C98.0909 363.176 97.5069 361.936 95.9258 360.696C89.338 355.508 84.0321 349.18 80.0153 341.811C69.7455 322.962 68.727 303.222 74.6739 282.926C78.2348 270.782 84.3384 259.971 92.5643 250.351C97.1651 244.97 102.222 240.089 107.976 235.955C109.564 234.815 109.536 234.815 108.489 233.034C107.585 231.494 106.737 229.926 105.84 228.387C104.942 226.834 104.914 226.791 103.333 227.397C99.6435 228.815 95.9116 230.147 92.315 231.779C89.1386 233.219 85.8198 234.295 82.6291 235.713C77.9642 237.794 73.1711 239.59 68.4279 241.5C68.143 241.614 67.8439 241.706 67.5448 241.778C65.8497 242.198 64.8099 241.742 64.3185 240.381C63.8627 239.12 64.3612 237.68 65.6931 237.06C67.794 236.077 69.952 235.214 72.11 234.352C80.8201 230.881 89.5445 227.432 98.2476 223.955C99.6079 223.413 100.911 222.75 102.514 222.016L102.535 222.052ZM279.139 340.35C280.535 337.229 282.985 335.326 286.211 334.578C293.375 332.91 300.113 334.136 306.202 338.227C307.769 339.281 309.087 339.474 310.86 339.139C319.698 337.471 326.635 332.953 331.656 325.513C337.539 316.805 339.312 307.163 337.938 296.865C337.069 290.358 334.654 284.451 330.752 279.163C330.239 278.464 329.847 277.709 329.797 276.825C329.747 275.828 329.99 274.923 330.972 274.495C331.962 274.06 332.959 274.174 333.778 274.958C334.056 275.222 334.249 275.571 334.484 275.878C339.797 282.79 342.553 290.7 343.165 299.302C343.977 310.683 341.321 321.209 334.327 330.373C328.444 338.084 320.873 343.108 311.031 344.206C310.49 344.27 309.941 344.27 309.521 344.69C308.382 345.83 307.313 345.474 306.245 344.569C302.456 341.355 298.062 339.609 293.133 339.174C290.669 338.953 288.298 339.303 285.84 340.386C286.902 341.654 287.756 342.652 288.874 343.379C289.758 343.956 290.327 344.783 290.804 345.666C291.431 346.828 291.289 348.346 290.285 348.795C288.604 349.55 287.265 350.798 285.406 351.375C279.758 353.121 275.984 356.919 274.623 362.784C273.84 366.162 276.005 368.998 279.431 369.355C280.506 369.469 281.596 369.447 282.664 369.127C283.704 368.813 284.737 368.457 285.798 368.264C287.614 367.929 289.074 369.369 288.668 371.158C288.347 372.59 287.87 373.944 286.439 374.806C282.849 376.959 281.062 380.287 280.606 384.37C280.207 387.94 282.379 391.945 285.392 392.822C288.882 393.841 292.635 392.501 294.301 389.273C294.942 388.04 295.811 387.114 296.965 386.451C297.82 385.959 298.753 385.966 299.6 386.572C300.384 387.135 300.554 387.969 300.426 388.853C300.291 389.779 300.056 390.741 299.451 391.439C297.613 393.57 297.741 396.093 298.176 398.516C298.959 402.884 301.21 405.429 305.312 405.999C308.36 406.426 310.881 404.873 313.025 402.863C316.558 399.549 318.174 395.387 318.124 390.563C318.11 389.458 318.139 388.361 318.787 387.427C320.759 384.584 323.444 382.446 326.756 381.726C330.858 380.828 334.868 379.745 338.814 378.334C343.892 376.517 348.621 373.994 353.022 370.965C359.304 366.639 364.802 361.437 369.217 355.123C373.298 349.294 376.589 343.065 378.611 336.274C382.429 323.439 382.621 310.441 379.63 297.406C377.571 288.413 374.096 279.975 369.445 272.022C365.678 265.573 361.113 259.693 355.999 254.285C352.709 250.807 349.226 247.493 345.316 244.678C344.098 243.802 343.201 242.619 342.439 241.357C341.534 239.861 341.641 238.072 342.823 237.067C345.095 235.143 346.043 232.378 347.595 229.998C348.236 229.014 347.83 228.501 346.776 228.138C341.506 226.328 336.293 224.325 330.972 222.65C326.543 221.254 322.319 219.287 317.811 218.082C316.187 217.648 314.599 216.949 312.989 216.386C312.185 216.101 311.394 215.766 310.903 214.989C310.333 214.077 310.069 213.151 310.661 212.146C311.195 211.227 312.049 210.92 313.032 211.02C313.716 211.084 314.414 211.248 315.062 211.476C320.688 213.464 326.329 215.403 331.955 217.384C337.653 219.386 343.358 221.353 349.055 223.342C350.294 223.776 350.779 223.384 351.163 222.387C351.975 220.292 352.858 218.218 353.57 216.087C354.546 213.144 355.436 210.172 356.27 207.186C356.704 205.625 356.433 205.276 354.945 204.834C352.645 204.15 350.351 203.438 348.044 202.803C342.966 201.399 337.881 200.038 332.796 198.656C332.126 198.47 331.435 198.328 330.787 198.086C328.757 197.323 327.718 195.905 328.152 194.551C328.615 193.097 329.982 192.662 332.276 193.119C336.926 194.038 341.349 195.77 345.957 196.824C349.425 197.622 352.837 198.684 356.27 199.653C357.231 199.924 357.986 199.881 358.171 198.699C359.047 193.111 360.087 187.539 360.201 181.859C360.229 180.384 360.087 180.248 358.648 180.213C357.409 180.184 356.163 180.184 354.924 180.277C349.589 180.69 344.255 180.968 338.906 181.096C336.114 181.168 333.323 181.025 330.545 181.424C329.94 181.51 329.299 181.46 328.693 181.367C327.048 181.111 326.065 180.042 326.094 178.616C326.122 177.205 327.176 176.165 328.871 176.072C332.432 175.887 335.993 175.759 339.561 175.645C345.993 175.445 352.431 175.274 358.862 175.074C360.493 175.025 360.621 174.939 360.614 173.35C360.607 169.081 360.678 164.798 360.436 160.544C359.916 151.322 358.114 142.264 356.754 133.15C356.149 129.088 355.743 125.004 355.173 120.935C354.247 114.336 353.214 107.758 352.21 101.166C351.035 93.4271 349.831 85.695 348.649 77.9557C347.666 71.5206 346.47 65.1139 345.793 58.6503C345.038 51.474 343.315 44.4616 342.538 37.2995C342.111 33.3657 340.872 29.5887 340.402 25.6478C339.889 21.3292 338.735 17.1389 336.763 13.198C333.173 6.01458 327.532 3.98355 320.375 6.14285C316.009 7.46124 312.263 9.98399 308.83 12.9058C301.822 18.8635 295.954 25.8545 290.669 33.3657C284.672 41.8818 279.566 50.9252 274.979 60.2537C273.854 62.5484 272.294 63.482 269.844 63.3038C268.869 63.2325 268.036 62.9047 267.273 62.3489C266.255 61.6077 265.115 61.1302 263.94 60.724C260.721 59.5981 257.495 58.4863 254.112 57.9234C248.008 56.8972 241.926 55.7142 235.687 55.707C230.56 55.707 225.482 56.042 220.404 56.7546C214.151 57.6383 208.068 59.142 202.214 61.4438C199.558 62.4843 196.972 63.7456 194.544 65.3063C192.977 66.3111 191.41 67.3017 189.915 68.4134C187.052 70.5371 184.865 69.6819 184.217 66.2399C184.089 65.5486 183.996 64.8716 183.697 64.2231C181.119 58.75 178.583 53.2556 175.963 47.8039C173.413 42.4947 170.65 37.2781 167.587 32.254C163.513 25.5766 159.14 19.0702 153.571 13.5116C151.221 11.167 148.636 9.02905 145.246 8.22376C142.618 7.59664 140.395 8.16675 138.48 10.1479C136.777 11.9081 135.602 13.9748 134.57 16.1483C132.59 20.3244 131.892 24.8782 130.674 29.2752C127.398 41.0765 124.043 52.8565 120.717 64.6436C117.577 75.7608 114.414 86.878 111.309 98.0094C108.859 106.825 106.609 115.697 103.788 124.406C101.474 131.568 99.3444 138.758 98.0624 146.184C96.5597 154.921 95.8404 163.722 96.0612 172.587C96.1039 174.426 96.2534 174.568 98.0696 174.64C102.485 174.811 106.901 174.975 111.316 175.11C117.206 175.295 123.096 175.452 128.986 175.652C129.905 175.68 130.838 175.851 131.735 176.058C133.195 176.393 133.993 177.248 133.993 178.331C133.993 179.3 133.195 180.12 131.87 180.498C131.571 180.583 131.251 180.562 130.959 180.662C129.114 181.253 127.263 180.726 125.418 180.676C118.054 180.469 110.69 180.27 103.326 180.042C101.467 179.985 99.615 179.849 97.7562 179.749C96.8659 179.699 96.4671 180.099 96.5668 181.004C97.0796 185.393 97.6778 189.776 98.5467 194.109C98.8957 195.841 99.2376 196.097 100.968 195.442C104.814 193.988 108.866 193.197 112.705 191.729C113.688 191.351 114.685 191.301 115.682 191.408C117.285 191.579 118.025 192.976 117.384 194.451C116.907 195.556 115.917 196.055 114.906 196.411C112.05 197.401 109.173 198.307 106.295 199.24C104.971 199.668 103.589 199.974 102.314 200.523C99.9142 201.57 100.135 200.943 100.84 203.445C102.243 208.455 104.073 213.315 106.167 218.082C107.079 220.17 107.05 220.192 109.251 219.429C110.205 219.101 111.153 218.766 112.086 218.382C117.605 216.115 123.096 213.792 128.63 211.562C135.31 208.868 142.019 206.245 148.721 203.587C150.01 203.074 151.171 203.438 151.897 204.592C152.581 205.668 152.311 207.065 151.207 207.899C150.779 208.219 150.267 208.447 149.768 208.654C144.042 211.013 138.316 213.379 132.583 215.716C125.624 218.553 118.688 221.439 111.68 224.161C109.408 225.045 109.835 225.458 110.747 227.211C111.751 229.135 113.004 230.917 114.115 232.784C115.689 235.435 115.433 237.003 112.926 238.699C110.091 240.616 107.485 242.79 104.885 245.006C100.377 248.84 96.4315 253.208 92.8776 257.898C88.9463 263.093 85.6203 268.687 82.9496 274.666C79.0824 283.318 76.7036 292.354 76.0626 301.803C75.5356 309.585 76.1624 317.303 78.2918 324.857C82.1662 338.59 89.6371 349.857 101.047 358.494C102.485 359.584 104.073 360.368 105.562 361.345C110.811 364.765 116.622 366.917 122.605 368.564C126.942 369.761 131.429 370.153 135.916 370.559C139.733 370.908 143.479 370.858 147.204 369.96C148.899 369.554 149.626 369.861 150.345 371.493C150.808 372.554 151.029 373.716 151.491 374.778C154.789 382.225 160.408 386.836 168.506 387.883C173.228 388.496 177.415 386.08 176.319 379.909C175.898 377.557 174.766 375.562 173.641 373.524C172.743 371.906 172.886 370.68 173.876 369.682C174.844 368.699 176.475 368.592 177.971 369.44C178.512 369.747 179.011 370.117 179.524 370.466C182.13 372.227 184.972 372.284 187.757 371.222C191.645 369.732 193.119 365.549 191.83 362.271C190.961 360.069 189.623 358.337 187.457 357.389C186.418 356.933 185.592 356.292 184.879 355.465C183.882 354.297 183.797 352.864 184.616 351.852C185.47 350.79 186.375 350.612 187.935 351.382C189.473 352.137 191.018 352.829 192.664 353.32C196.367 354.432 203.119 352.216 204.052 346.386C205.106 339.787 199.123 333.758 192.635 334.136C191.332 334.214 190.356 334.1 189.665 332.932C188.939 331.706 189.067 330.48 189.943 329.468C191.182 328.043 191.916 326.318 193.013 324.815C193.383 324.302 193.931 323.731 193.625 322.948C192.835 322.541 192.008 322.37 191.147 322.327C184.445 321.985 178.22 323.61 172.466 326.981C170.892 327.9 169.389 329.098 168.876 331.079C168.741 331.599 168.456 332.141 167.943 332.376C165.949 333.274 164.233 334.856 161.747 334.514C160.152 334.293 158.492 334.492 156.861 334.492C149.063 334.492 141.663 332.789 134.612 329.454C128.893 326.753 124.122 322.962 120.468 317.724C115.782 311.004 114.308 303.564 115.404 295.589C116.487 287.693 120.062 280.866 124.962 274.68C125.681 273.775 126.508 272.934 127.369 272.158C128.238 271.374 129.627 271.317 130.389 271.887C131.201 272.492 131.393 273.626 130.881 274.83C130.574 275.543 130.147 276.17 129.648 276.783C126.778 280.275 124.343 284.052 122.591 288.22C120.233 293.836 119.129 299.651 120.504 305.709C122.313 313.697 127.213 319.327 134.185 323.332C137.162 325.043 140.331 326.19 143.607 327.216C149.476 329.048 155.473 329.304 161.526 329.247C163.335 329.226 164.852 328.798 165.408 326.753C165.536 326.276 166.027 325.876 166.384 325.47C168.499 323.119 171.141 321.529 174.004 320.268C178.156 318.444 182.493 317.289 187.009 316.961C190.662 316.698 194.316 316.719 197.542 318.885C198.24 319.356 198.596 319.049 199.081 318.515C203.012 314.118 206.338 309.243 209.999 304.64C210.59 303.899 210.554 303.328 209.97 302.594C209.058 301.44 208.197 300.243 207.306 299.074C200.861 290.643 194.273 282.306 188.141 273.647C185.093 269.343 181.71 266.079 176.497 264.76C174.082 264.147 172.473 262.344 171.568 259.886C169.004 252.895 166.327 245.954 163.706 238.984C163.321 237.972 162.937 236.939 162.716 235.884C162.381 234.281 162.887 233.411 164.418 232.77C165.059 232.499 165.714 232.328 166.248 231.822C168.114 230.069 170.051 228.401 171.896 226.627C174.552 224.069 175.364 223.954 178.576 225.9C181.155 227.468 183.74 229.029 186.332 230.575C189.459 232.435 192.592 234.295 195.755 236.098C197.015 236.811 197.685 237.83 197.891 239.219C198.397 242.59 198.938 245.961 199.387 249.339C199.515 250.294 199.771 251.12 200.327 251.911C203.489 256.415 206.616 260.941 209.756 265.452C214.143 271.744 218.545 278.023 222.911 284.329C223.972 285.855 224.292 285.897 225.403 284.436C228.679 280.118 231.891 275.749 235.274 271.516C236.321 270.205 236.35 269.172 235.723 267.732C234.448 264.789 233.9 261.675 233.793 258.453C233.551 251.242 235.417 244.628 239.241 238.564C244.797 229.748 252.438 223.762 262.858 222.023C270.77 220.705 277.992 222.458 283.846 228.294C286.111 230.554 288.013 233.112 288.988 236.226C289.572 238.086 289.202 238.92 287.592 239.939C286.681 240.516 285.812 241.179 284.879 241.721C279.132 245.084 273.377 248.434 267.601 251.748C266.376 252.446 265.614 253.408 265.18 254.726C264.425 257.014 264.425 259.323 265.066 261.603C265.956 264.782 267.195 267.768 270.179 269.649C271.069 270.205 271.988 270.718 272.992 270.39C275.279 269.649 277.686 269.499 279.979 268.765C284.402 267.347 288.91 266.178 293.304 264.675C295.334 263.984 297.528 263.713 299.386 262.558C301.025 261.546 302.385 261.896 303.09 263.656C303.375 264.368 303.524 265.152 303.596 265.915C304.365 273.704 302.634 280.895 298.169 287.337C294.251 292.988 289.01 297.043 282.486 299.181C277.593 300.784 272.572 300.727 267.587 299.266C265.422 298.632 265.208 298.711 263.876 300.485C262.245 302.651 260.7 304.889 259.012 307.013C258.129 308.125 258.036 309.137 258.563 310.419C260.678 315.572 261.668 321.002 261.676 326.532C261.676 328.848 262.68 330.06 264.382 331.157C268.741 333.972 273.071 336.83 277.422 339.666C277.928 339.994 278.405 340.436 279.082 340.372L279.139 340.35ZM278.462 374.878C278.32 374.756 278.27 374.685 278.199 374.664C277.907 374.578 277.6 374.521 277.308 374.429C273.192 373.11 270.514 370.374 269.809 366.105C269.317 363.091 269.766 360.083 271.141 357.268C272.914 353.62 275.535 350.748 278.889 348.503C280.207 347.619 280.186 347.498 278.861 346.65C276.39 345.068 273.911 343.493 271.447 341.889C267.694 339.445 264.097 336.766 260.208 334.535C258.449 333.53 257.395 332.019 257.217 330.088C256.932 327.01 256.626 323.938 256.284 320.874C255.828 316.812 254.696 312.971 252.595 309.486C251.256 307.262 249.461 305.359 246.648 305.089C243.515 304.789 240.673 305.737 238.145 307.569C235.004 309.849 232.44 312.764 229.691 315.472C226.429 318.686 224.072 322.47 222.604 326.774C221.963 328.656 221.586 330.594 221.999 332.689C223.025 337.899 226.586 340.821 231.08 342.702C233.829 343.849 236.692 344.861 239.719 345.232C241.1 345.403 241.876 346.322 242.197 347.669C242.988 350.997 244.334 354.133 245.544 357.311C248.179 364.195 251.349 370.837 255.024 377.229C256.797 380.315 258.585 383.408 260.565 386.358C263.527 390.784 266.568 395.159 269.78 399.421C273.284 404.06 277.145 408.379 281.09 412.626C284.466 416.261 287.977 419.774 291.809 422.931C294.665 425.283 297.535 427.627 300.647 429.665C302.983 431.191 305.355 432.573 307.883 433.777C311.515 435.509 315.183 436.728 319.235 436.485C322.832 436.272 325.09 434.711 326.571 431.084C328.501 426.359 328.031 421.477 327.248 416.674C326.45 411.792 325.04 407.025 323.323 402.371C322.896 401.21 322.554 399.991 321.685 398.922C319.997 402.507 317.676 406.113 314.243 408.436C311.423 410.346 308.296 411.636 304.856 411.194C299.137 410.453 295.227 406.79 293.746 401.131C292.841 397.661 292.856 397.696 289.238 398.345C284.85 399.136 281.225 397.547 278.669 394.105C274.865 388.967 274.908 383.315 277.301 377.571C277.679 376.659 278.327 375.854 278.455 374.885L278.462 374.878ZM276.297 415.484C275.578 414.479 275.2 413.802 274.695 413.253C272.131 410.453 269.752 407.502 267.38 404.545C261.156 396.791 255.672 388.546 250.793 379.895C245.644 370.766 240.979 361.416 238.259 351.218C238.066 350.498 237.71 350.256 237.012 350.113C234.662 349.622 232.305 349.123 230.097 348.125C229.05 347.655 228.373 348.011 227.739 348.909C226.358 350.869 224.905 352.786 223.466 354.71C220.126 359.171 216.779 363.632 213.431 368.086C210.127 372.483 206.808 376.866 203.518 381.27C199.622 386.479 195.726 391.689 191.873 396.934C190.641 398.609 190.691 398.658 191.944 400.34C194.679 404.003 195.997 408.151 196.089 412.697C196.146 415.662 195.726 415.527 199.038 415.527C223.858 415.52 248.685 415.505 273.505 415.498C274.274 415.498 275.044 415.498 276.297 415.498V415.484ZM180.563 376.73C181.233 378.904 181.368 380.679 181.29 382.467C181.076 387.47 177.736 392.01 172.359 392.893C166.106 393.919 160.743 391.803 155.872 388.147C152.289 385.46 149.469 382.097 147.517 378.02C146.834 376.595 146.755 376.631 145.203 377.229C141.207 378.769 137.86 381.277 135.097 384.491C130.852 389.43 129.015 395.224 129.527 401.744C129.691 403.811 129.741 403.861 131.771 403.134C132.939 402.721 134.057 402.186 135.218 401.751C140.153 399.906 145.096 398.067 150.039 396.243C151.278 395.787 152.503 395.295 153.771 394.946C155.409 394.49 156.491 395.052 157.096 396.62C159.205 402.122 161.526 407.545 163.898 412.933C164.211 413.652 164.461 414.386 164.439 415.178C164.411 416.717 163.634 417.672 162.082 417.786C161.099 417.857 160.28 418.185 159.475 418.662C158.143 419.453 156.833 420.273 155.501 421.057C151.563 423.38 147.589 425.632 143.693 428.026C142.24 428.917 140.744 429.737 139.284 430.62C138.081 431.354 138.01 431.668 138.843 432.822C139.519 433.763 140.153 434.732 141.029 435.523C144.797 438.923 149.234 440.726 154.248 441.182C161.754 441.859 168.691 440.113 175.215 436.4C180.592 433.35 185.015 429.331 188.12 423.979C190.99 419.033 192.144 413.766 190.541 408.101C189.758 405.336 187.871 403.227 186.354 400.896C185.022 398.851 184.951 397.761 186.382 395.844C192.172 388.076 197.984 380.329 203.788 372.576C210.34 363.825 216.893 355.08 223.438 346.329C224.449 344.975 224.442 344.954 223.196 343.913C218.004 339.581 216.209 334.043 217.42 327.466C217.961 324.53 219.072 321.814 220.646 319.285C221.273 318.28 221.458 317.482 220.546 316.405C218.851 314.403 217.356 312.215 215.817 310.084C214.008 307.583 213.873 307.619 211.986 310.106C208.517 314.667 205.163 319.32 201.509 323.746C200.106 325.449 198.682 327.195 197.713 329.14C197.898 329.561 198.205 329.639 198.489 329.767C203.318 331.948 206.808 335.347 208.368 340.543C210.782 348.603 205.953 356.898 198.026 358.387C197.364 358.508 196.616 358.444 195.954 359.064C197.713 363.817 197.663 368.464 194.188 372.562C190.712 376.666 186.14 377.778 180.542 376.745L180.563 376.73ZM298.938 268.58C297.556 268.673 296.388 269.079 295.227 269.471C288.91 271.595 282.571 273.661 276.105 275.265C272.601 276.134 269.218 275.642 266.454 273.241C260.401 267.989 258.015 258.518 261.512 250.201C261.825 249.46 262.302 248.89 263.007 248.484C264.546 247.593 266.077 246.673 267.608 245.768C272.544 242.861 277.493 239.968 282.422 237.053C283.647 236.326 283.761 236.062 282.935 234.886C281.866 233.368 280.649 231.965 279.167 230.803C274.816 227.382 269.852 226.47 264.482 227.062C259.397 227.625 254.988 229.691 251 232.841C244.034 238.343 239.882 245.448 238.75 254.256C238.18 258.66 238.515 263.093 240.879 266.877C242.382 269.278 242.254 270.953 240.516 272.856C240.31 273.084 240.146 273.355 239.961 273.597C236.001 278.757 232.048 283.938 228.06 289.076C227.39 289.931 227.255 290.579 227.946 291.534C230.382 294.934 232.739 298.39 235.103 301.839C235.623 302.594 236.136 302.88 237.019 302.345C238.009 301.746 239.028 301.148 240.11 300.763C244.96 299.031 249.533 299.245 253.614 302.808C255.024 304.034 255.116 303.998 256.263 302.516C257.965 300.307 259.646 298.083 261.262 295.817C263.399 292.824 264.339 292.446 267.672 293.665C272.131 295.29 276.667 295.468 281.147 294.036C288.946 291.549 294.18 286.189 297.257 278.707C298.553 275.543 299.28 272.222 298.952 268.58H298.938ZM136.414 375.989C133.751 375.726 131.514 375.597 129.321 375.262C120.839 373.958 112.727 371.507 105.27 367.138C104.736 366.825 104.166 366.568 103.596 366.34C103.148 366.162 102.827 366.426 102.742 366.846C102.649 367.295 102.642 367.773 102.635 368.236C102.499 373.274 102.435 378.313 102.215 383.351C101.83 392.102 101.744 400.875 101.517 409.633C101.481 411.101 101.339 412.569 101.232 414.037C101.153 415.099 101.552 415.641 102.685 415.577C103.61 415.527 104.543 415.562 105.476 415.555C121.216 415.548 136.963 415.52 152.702 415.555C154.597 415.555 156.185 415.042 157.631 413.88C158.329 413.318 158.514 412.776 158.129 411.885C156.748 408.685 155.473 405.436 154.134 402.222C153.564 400.861 153.258 400.682 151.798 401.174C149.967 401.794 148.208 402.592 146.392 403.255C140.659 405.357 134.84 407.253 129.285 409.818C128.01 410.403 126.821 410.032 126.109 408.828C125.803 408.308 125.596 407.688 125.489 407.089C124.855 403.504 124.364 399.934 124.87 396.243C125.717 390.043 128.196 384.698 132.34 380.044C133.516 378.726 135.104 377.849 136.436 375.996L136.414 375.989ZM224.52 313.384C226.885 311.053 228.943 308.951 231.094 306.942C231.891 306.193 231.941 305.645 231.258 304.811C230.474 303.856 229.812 302.801 229.1 301.782C223.395 293.58 217.697 285.384 211.993 277.182C206.601 269.428 201.21 261.667 195.804 253.914C195.213 253.066 194.879 252.147 194.75 251.12C194.387 248.277 193.924 245.441 193.632 242.59C193.476 241.037 192.877 240.01 191.403 239.412C190.556 239.07 189.801 238.478 189.003 238.008C184.943 235.606 180.863 233.226 176.824 230.789C175.842 230.197 175.122 230.354 174.346 231.095C172.665 232.699 171.006 234.323 169.239 235.827C168.378 236.554 168.221 237.195 168.62 238.222C171.148 244.721 173.627 251.242 176.098 257.762C176.418 258.61 176.817 259.273 177.757 259.522C180.079 260.135 182.087 261.596 184.509 261.974C185.385 262.109 186.062 262.672 186.589 263.371C188.184 265.459 189.772 267.561 191.36 269.656C195.427 275.022 199.501 280.396 203.567 285.762C208.289 291.997 212.997 298.24 217.726 304.469C219.962 307.419 222.22 310.355 224.527 313.377L224.52 313.384ZM347.161 415.47C349.568 415.47 351.968 415.47 354.375 415.47C356.547 415.47 358.72 415.427 360.892 415.484C362.117 415.52 362.558 415.035 362.452 413.831C362.345 412.598 362.38 411.351 362.309 410.111C361.903 403.148 361.462 396.186 361.07 389.223C360.835 385.118 360.685 381.013 360.465 376.909C360.408 375.825 360.272 374.749 360.144 373.673C360.016 372.554 359.589 372.391 358.634 373.103C358.015 373.566 357.473 374.136 356.839 374.571C350.622 378.868 343.97 382.289 336.763 384.627C333.807 385.581 330.809 386.365 327.782 387.007C326.172 387.349 324.947 388.247 323.772 389.23C322.547 390.256 322.625 391.304 323.964 392.145C324.826 392.679 325.261 393.442 325.617 394.311C328.181 400.561 330.339 406.939 331.635 413.588C331.991 415.427 331.998 415.463 333.892 415.47C338.315 415.491 342.738 415.47 347.161 415.47Z" fill="#261E1A"/>
<path d="M115.789 495.82C116.558 495.599 116.651 495.008 116.936 494.566C117.748 493.283 118.88 492.335 120.212 491.672C121.707 490.931 123.196 490.995 124.57 492.079C125.496 492.813 126.237 493.675 126.757 494.744C127.711 496.697 128.552 498.692 129.15 500.787C129.299 501.3 129.364 501.863 129.869 502.205C130.489 501.706 130.396 500.958 130.56 500.295C131.308 497.345 132.312 494.559 134.427 492.221C136.25 490.197 138.337 489.264 141.029 489.677C141.257 489.713 141.485 489.713 141.72 489.72C141.791 489.72 141.87 489.691 142.041 489.656C142.333 487.689 142.155 485.679 142.212 483.677C142.24 482.586 142.297 481.503 142.653 480.463C143.109 479.123 143.935 478.375 144.875 478.424C145.858 478.474 146.563 479.294 146.755 480.733C146.869 481.574 146.876 482.437 146.891 483.285C146.983 491.893 147.09 500.502 146.193 509.089C146.036 510.622 145.858 512.254 146.706 513.807C147.204 514.712 146.876 515.802 146.057 516.572C145.246 517.335 144.17 517.634 143.273 517.05C142.09 516.287 140.958 516.437 139.726 516.636C139.199 516.722 138.643 516.686 138.102 516.693C132.889 516.8 132.255 515.753 130.311 512.546C129.606 512.311 129.477 513.059 129.064 513.315C127.583 514.235 126.116 513.722 125.589 512.04C125.211 510.835 125.325 509.574 125.368 508.341C125.496 504.678 124.492 501.293 122.911 498.043C122.662 497.53 122.612 496.697 121.807 496.754C121.102 496.803 120.888 497.516 120.611 498.058C119.329 500.552 118.381 503.174 117.94 505.947C117.513 508.626 117.149 511.313 116.729 513.992C116.637 514.598 116.515 515.225 116.259 515.774C115.796 516.772 114.97 517.313 113.838 517.221C112.691 517.128 111.986 516.444 111.708 515.375C111.551 514.783 111.516 514.149 111.516 513.536C111.516 507.8 111.651 502.056 111.11 496.326C110.91 494.231 111.53 493.14 112.705 492.848C113.923 492.549 114.721 493.247 115.518 495.3C115.575 495.442 115.661 495.571 115.782 495.792L115.789 495.82ZM142.183 499.312C142.183 498.45 142.14 497.823 142.19 497.21C142.283 496.141 141.841 495.514 140.866 495.029C139.847 494.53 139.085 494.822 138.316 495.435C137.589 496.02 137.027 496.739 136.585 497.58C134.847 500.915 134.605 504.543 134.548 508.191C134.506 511.014 135.09 511.505 137.974 511.47C138.594 511.47 139.213 511.427 139.826 511.363C140.809 511.256 141.264 510.771 141.328 509.702C141.556 506.153 141.898 502.611 142.176 499.305L142.183 499.312Z" fill="#29211E"/>
<path d="M21.4229 500.68C21.4229 502.982 21.8075 505.255 21.8075 507.572C21.8075 510.358 20.7677 512.439 18.6667 514.228C16.7438 515.86 14.5787 517.007 12.3353 518.047C11.0961 518.625 9.71439 518.653 8.44668 518.368C4.66491 517.513 2.04402 515.111 0.284894 511.719C0.149576 511.448 0.0997225 511.128 0.0498687 510.821C-0.149547 509.453 0.256406 508.391 1.11104 507.978C1.96568 507.564 3.09095 507.878 3.95271 508.976C4.6293 509.831 5.37711 510.607 6.13916 511.377C8.35409 513.636 10.569 513.829 13.1472 511.976C13.3965 511.798 13.6315 511.591 13.8736 511.398C14.9562 510.558 16.523 510.137 16.8221 508.598C17.1782 506.766 17.05 504.892 16.7367 503.046C16.5871 502.191 15.9746 501.742 15.1769 501.493C14.2796 501.208 13.3537 501.151 12.4207 501.151C10.4052 501.151 8.3897 501.193 6.37418 501.129C2.41436 501.008 0.16382 498.571 0.0641127 494.609C-0.0783268 488.694 4.55096 483.976 10.4266 483.613C11.737 483.534 13.0688 483.456 14.3508 483.841C15.5473 484.197 16.4304 484.874 16.6085 486.207C16.8008 487.66 16.0173 488.601 14.536 488.637C13.3751 488.665 12.2071 488.523 11.0533 488.594C8.31136 488.758 5.71896 490.703 5.05662 492.998C4.42276 495.179 4.88569 495.82 7.17897 495.863C8.95946 495.899 10.7471 495.877 12.5276 495.877C16.3307 495.877 19.4929 497.01 21.2377 500.716C21.2449 500.737 21.3802 500.702 21.4585 500.687L21.4087 500.673L21.4229 500.68Z" fill="#29211E"/>
<path d="M280.827 501.621C280.848 503.225 280.941 504.835 280.884 506.431C280.634 513.28 275.378 517.869 270.201 518.781C265.607 519.594 261.49 516.145 259.945 512.738C259.553 511.869 259.489 510.928 259.988 510.044C260.707 508.762 261.583 508.584 262.844 509.417C263.698 509.987 264.339 510.764 264.987 511.534C266.967 513.886 269.901 514.335 272.43 512.532C274.744 510.871 276.162 508.655 276.14 505.683C276.126 503.588 275.998 503.403 273.933 503.374C271.454 503.346 268.976 503.353 266.49 503.367C264.596 503.374 262.801 502.989 261.077 502.22C258.691 501.158 257.509 499.276 257.545 496.718C257.58 494.053 257.951 491.452 260.045 489.449C262.623 486.983 265.721 486.456 269.09 486.941C269.951 487.062 270.671 487.568 271.134 488.352C272.095 489.955 271.568 491.245 269.752 491.644C269.075 491.794 268.37 491.822 267.679 491.829C266.412 491.844 265.222 492.164 264.104 492.727C262.879 493.347 262.181 494.815 262.359 496.248C262.488 497.288 263.285 498.015 264.937 498.122C267.33 498.279 269.738 498.229 272.138 498.257C273.071 498.272 273.997 498.293 274.93 498.257C277.301 498.172 279.174 498.963 280.25 501.222C280.364 501.464 280.485 501.813 280.898 501.664L280.848 501.614L280.827 501.621Z" fill="#29211E"/>
<path d="M383.611 507.529C383.889 503.182 384.402 498.849 386.289 494.886C387.393 492.57 388.44 490.048 391.039 488.822C391.894 488.423 392.741 488.074 393.696 488.088C394.422 488.102 395.127 488.28 395.49 488.957C396.779 491.345 398.852 493.162 400.091 495.613C402.278 499.925 402.983 504.479 402.306 509.146C401.665 513.55 398.966 516.636 394.764 518.083C390.548 519.537 384.722 516.579 383.832 511.69C383.582 510.308 383.518 508.925 383.604 507.522L383.611 507.529ZM388.361 507.643C388.361 508.184 388.34 508.726 388.361 509.267C388.482 511.762 389.843 512.973 392.328 513.194C394.792 513.415 397.563 510.258 397.727 507.742C397.983 503.766 397.271 500.025 395.056 496.654C394.422 495.692 393.703 494.758 392.691 494.145C391.965 493.703 391.41 493.803 391.096 494.73C389.693 498.927 388.525 503.174 388.361 507.643Z" fill="#29221E"/>
<path d="M237.468 505.79C236.706 507.728 236.165 509.738 234.833 511.441C233.651 512.952 232.184 513.764 230.332 514.014C228.274 514.299 226.315 513.921 224.413 513.166C222.854 512.546 222.142 511.12 221.308 509.823C221.144 509.567 221.03 509.26 220.952 508.968C219.457 503.103 219.435 497.352 221.942 491.694C223.701 487.724 229.285 486.477 232.226 487.204C234.69 487.81 236.136 489.584 237.19 491.751C237.497 492.378 237.639 493.083 237.981 493.682C238.28 494.224 238.6 493.696 238.892 493.547C238.921 493.846 239.035 494.167 238.971 494.445C238.636 496.077 238.33 497.673 238.949 499.326C239.163 499.889 238.978 500.538 238.351 500.894C238.351 502.576 237.539 504.108 237.461 505.783L237.468 505.79ZM224.791 501.129C224.791 503.096 224.72 504.571 225.04 506.025C225.453 507.899 226.287 508.605 228.238 508.804C230.225 509.004 231.229 508.505 231.97 506.795C233.558 503.139 233.886 499.319 233.323 495.407C233.181 494.395 232.803 493.454 231.941 492.806C230.894 492.022 229.377 491.993 228.929 492.962C228.459 493.981 228.202 493.953 227.568 493.183C227.212 492.748 226.835 493.098 226.628 493.397C226.279 493.903 225.98 494.445 225.724 495.008C224.77 497.117 224.827 499.383 224.798 501.129H224.791Z" fill="#2B2420"/>
<path d="M280.884 501.671C281.24 501.336 280.99 500.958 280.969 500.595C280.891 499.227 281.582 498.393 282.821 497.98C284.224 497.516 285.655 497.174 287.137 497.089C287.984 497.039 288.376 496.64 288.433 495.799C288.533 494.331 288.711 492.87 288.796 491.395C288.853 490.518 289.038 489.699 289.565 489C290.427 487.853 291.83 487.86 292.685 489.022C293.311 489.87 293.418 490.853 293.461 491.886C293.511 493.191 293.076 494.488 293.411 495.863C294.885 495.863 296.189 495.385 297.399 494.744C298.781 494.01 300.262 493.568 301.737 493.112C303.425 492.599 304.6 492.998 305.134 494.167C305.725 495.464 305.105 497.117 303.66 497.915C303.19 498.172 302.655 498.314 302.136 498.464C299.237 499.305 296.602 500.901 293.589 501.407C292.841 501.536 292.649 502.077 292.599 502.768C292.393 505.712 292.314 508.655 292.407 511.598C292.428 512.225 292.535 512.831 292.927 513.351C293.739 514.42 294.949 514.52 295.89 513.551C296.317 513.109 296.659 512.574 297.072 512.118C298.04 511.042 299.201 510.707 300.141 511.199C301.06 511.676 301.516 512.938 301.025 514.27C300.02 516.979 298.033 519.487 295.206 519.53C292.022 519.58 289.964 518.61 288.198 514.876C287.699 513.822 287.592 512.639 287.6 511.463C287.614 509.061 287.536 506.659 287.728 504.258C287.884 502.369 287.828 502.277 285.848 502.533C284.039 502.776 282.379 502.562 280.812 501.621L280.862 501.671H280.884Z" fill="#2B2420"/>
<path d="M409.393 496.739C410.197 496.404 410.461 495.706 410.746 495.115C411.565 493.418 412.989 492.342 414.478 491.373C416.379 490.14 418.615 490.568 420.161 492.221C420.98 493.098 421.5 494.11 421.792 495.257C423.138 500.459 423.636 505.797 424.078 511.128C424.249 513.208 423.195 514.52 421.742 514.555C420.36 514.584 419.556 513.551 419.356 511.413C418.943 507.009 418.423 502.619 417.583 498.279C417.447 497.566 417.583 496.454 416.693 496.298C415.774 496.141 415.311 497.074 414.855 497.815C412.633 501.429 411.501 505.462 410.318 509.474C409.984 510.614 410.219 511.783 410.276 512.945C410.375 515.04 409.699 516.173 408.289 516.394C406.8 516.622 405.511 515.589 405.319 513.529C404.799 507.892 404.236 502.248 404.699 496.568C404.785 495.485 405.077 494.416 405.789 493.547C406.743 492.385 407.84 492.556 408.488 493.932C408.908 494.822 408.766 495.906 409.378 496.746L409.393 496.739Z" fill="#29211E"/>
<path d="M92.3293 498.585C92.2296 502.854 92.4148 507.13 93.8677 511.192C94.8861 514.028 97.6922 514.805 99.9213 512.824C102.905 510.18 104.914 506.902 105.049 502.768C105.12 500.523 105.184 498.272 104.871 496.027C104.814 495.649 104.814 495.25 104.835 494.865C104.892 493.825 105.398 493.091 106.417 492.813C107.414 492.542 108.247 492.884 108.895 493.682C109.358 494.245 109.536 494.929 109.607 495.62C110.191 501.322 110.27 506.93 107.036 512.054C105.519 514.456 103.682 516.529 101.331 518.083C97.6494 520.527 92.1869 518.895 90.15 514.919C88.519 511.733 88.1558 508.256 87.7 504.806C87.2656 501.486 87.3724 498.15 87.6715 494.822C87.7712 493.718 88.0989 492.692 88.5974 491.722C88.982 490.974 89.6087 490.518 90.4705 490.596C91.3536 490.675 91.7809 491.281 92.0302 492.1C92.2581 492.855 92.3435 493.611 92.3364 494.395C92.3293 495.792 92.3364 497.181 92.3364 498.578L92.3293 498.585Z" fill="#2B2420"/>
<path d="M363.207 496.754C364.709 496.283 365.728 495.92 366.775 495.656C368.626 495.193 369.873 495.656 370.329 496.91C370.799 498.193 370.286 499.497 368.655 500.324C367.216 501.051 365.657 501.614 364.09 501.977C362.68 502.305 362.167 502.982 362.202 504.372C362.231 505.605 362.053 506.845 362.01 508.085C361.982 508.854 361.925 509.653 362.067 510.401C362.238 511.284 362.323 512.361 363.342 512.717C364.31 513.059 364.83 512.189 365.486 511.662C366.817 510.607 368.171 509.567 369.609 508.662C370.799 507.914 372.515 507.123 373.484 508.056C374.509 509.047 373.533 510.643 372.8 511.84C372.565 512.232 372.308 512.653 371.967 512.938C370.236 514.363 368.598 515.909 366.675 517.085C363.598 518.967 360.108 517.933 358.456 514.705C357.623 513.08 357.16 511.398 357.231 509.567C357.281 508.249 357.267 506.93 357.388 505.619C357.495 504.464 357.238 503.859 355.914 504.023C354.888 504.151 354.14 503.581 353.635 502.718C352.908 501.486 353.314 500.01 354.589 499.348C354.995 499.134 355.465 498.941 355.907 498.934C357.801 498.906 358.278 497.73 358.556 496.112C358.976 493.675 359.581 491.266 360.158 488.858C360.372 487.96 360.721 487.083 361.056 486.221C361.419 485.28 362.046 484.596 363.15 484.76C364.282 484.931 364.574 485.843 364.681 486.812C364.816 488.052 364.759 489.278 364.481 490.504C364.047 492.449 363.684 494.409 363.214 496.747L363.207 496.754Z" fill="#29221E"/>
<path d="M21.4727 500.694C21.8787 500.723 21.9428 500.488 21.9784 500.139C22.1991 497.901 22.6906 497.295 24.7488 496.746C25.3471 496.59 25.9596 496.44 26.572 496.383C27.854 496.269 28.4522 495.692 28.5662 494.338C28.7229 492.485 29.1003 490.653 29.4422 488.822C29.7769 487.012 30.8951 485.907 32.0631 486.114C33.2952 486.335 34.1712 487.703 34.0216 489.413C33.9006 490.803 33.5658 492.171 33.402 493.554C33.2382 494.908 33.4376 495.086 34.7552 494.872C35.9018 494.687 37.0271 494.373 38.2022 494.366C39.0854 494.359 39.8688 494.537 40.5952 495.079C41.5139 495.763 41.8629 496.625 41.6137 497.723C41.3786 498.749 40.6664 499.326 39.6622 499.469C38.4373 499.647 37.1909 499.711 35.9588 499.854C35.268 499.932 34.5771 500.053 33.8934 500.181C32.8465 500.381 32.3195 500.987 32.2625 502.098C32.1272 504.657 31.8637 507.208 31.7426 509.766C31.6714 511.27 32.0488 511.455 33.345 510.693C34.0786 510.258 34.8193 509.823 35.4959 509.31C35.9374 508.975 36.3719 508.69 36.9203 508.569C38.0313 508.313 39.1566 508.284 39.9115 509.253C40.6023 510.13 40.0967 511.128 39.5625 511.847C37.9672 513.992 35.9161 515.724 33.3664 516.501C30.3752 517.413 27.5549 515.125 27.0278 511.669C26.7002 509.496 27.2201 507.336 27.1988 505.163C27.1988 504.7 27.2771 504.236 27.3198 503.773C27.505 501.642 27.4979 501.621 25.3471 501.842C24.1292 501.963 23.0182 501.899 22.1991 500.83C21.9926 500.559 21.7362 500.452 21.4229 500.694L21.4656 500.709L21.4727 500.694Z" fill="#29221E"/>
<path d="M218.089 505.084C219.136 508.918 215.098 513.829 211.466 514.762C210.946 514.898 210.383 515.012 209.863 514.94C204.401 514.171 199.066 510.422 198.725 504.279C198.44 499.148 199.138 494.053 201.153 489.257C202.407 486.271 204.629 484.161 207.677 483.007C209.664 482.251 211.494 482.679 213.09 484.033C214.343 485.095 214.614 486.791 213.745 488.002C213.282 488.644 212.748 489.25 211.822 488.701C210.796 488.102 209.707 487.518 208.546 488.181C207.121 489 205.989 490.183 205.341 491.722C204.273 494.252 204.03 496.967 203.632 499.654C203.567 500.11 203.56 500.581 203.525 501.044C203.183 505.633 203.988 507.087 208.069 509.189C209.621 509.987 210.483 509.866 211.822 508.726C213.524 507.279 215.105 505.626 217.413 505.127C217.633 505.077 217.861 505.099 218.082 505.084H218.089Z" fill="#2B2420"/>
<path d="M166.07 509.859C168.036 514.541 164.724 519.401 159.782 518.952C155.316 518.546 152.175 516.095 150.466 511.94C148.458 507.065 148.685 502.048 150.032 497.103C151.107 493.148 154.533 491.337 158.542 492.228C160.914 492.756 162.139 494.231 162.132 496.675C162.132 498.713 161.313 500.452 159.846 501.842C158.435 503.174 156.933 504.407 154.974 504.878C154.433 505.006 153.977 505.163 153.877 505.861C153.493 508.555 155.836 512.375 158.407 513.344C160.074 513.971 161.441 513.814 162.495 512.303C163.385 511.028 164.667 510.372 166.063 509.852L166.07 509.859ZM157.025 497.295C155.209 497.188 155.124 497.252 154.454 499.633C155.615 498.948 156.698 498.621 157.025 497.295Z" fill="#29211E"/>
<path d="M238.351 500.901C238.978 500.538 239.163 499.889 238.949 499.333C238.33 497.68 238.636 496.077 238.971 494.452C239.028 494.167 238.921 493.853 238.892 493.554C238.907 493.183 239.021 492.891 239.441 492.834C239.954 492.82 240.466 492.813 240.986 492.798C241.99 493.782 242.653 492.941 243.365 492.364C243.465 492.243 243.572 492.121 243.671 492C243.792 491.822 243.921 491.644 244.042 491.466C244.341 491.416 244.533 491.259 244.547 490.938L244.533 490.953C244.782 490.91 244.946 490.767 245.039 490.532L245.06 490.518C245.459 490.525 245.801 490.433 245.936 489.991H245.922C246.385 490.062 246.855 490.083 247.282 489.855C248.763 489.078 250.231 489.164 251.712 489.87C251.975 489.998 252.31 489.962 252.616 490.005C253.022 490.062 253.279 490.297 253.414 490.675C253.464 490.817 253.557 490.917 253.699 490.967C254.105 491.202 254.34 491.537 254.333 492.022C254.397 493.269 254.945 494.295 255.786 495.193C256.056 495.464 256.163 495.784 256.099 496.162C255.679 496.554 255.821 496.839 256.27 497.067C256.598 497.652 256.704 498.279 256.612 498.941C256.156 499.312 256.27 499.604 256.726 499.861C257.082 500.93 257.203 502.02 257.061 503.139C256.448 504.671 256.448 506.203 257.061 507.735C257.174 508.548 257.146 509.346 256.733 510.087C256.22 510.329 256.085 510.622 256.612 510.999C256.697 511.498 256.69 511.99 256.355 512.41C255.771 512.603 255.743 513.059 255.828 513.558C255.85 513.736 255.779 513.829 255.601 513.836C255.451 513.878 255.344 513.971 255.273 514.114L255.223 514.249L255.081 514.228C254.247 514.406 253.578 513.707 252.759 513.8C252.481 513.7 252.36 513.501 252.381 513.216C252.438 512.325 252.787 511.406 252.132 510.586C252.032 509.93 252.082 509.289 252.417 508.697C252.794 508.498 252.965 508.184 252.965 507.757C252.965 506.054 252.965 504.35 252.965 502.647C252.965 502.227 252.809 501.906 252.438 501.692C252.082 500.944 252.047 500.153 252.104 499.348C252.645 498.949 252.467 498.663 251.954 498.435C251.534 497.823 251.541 497.103 251.47 496.404C251.534 495.428 251.363 494.58 250.288 494.217L250.174 494.11C249.554 493.183 248.934 493.19 248.301 494.095L248.215 494.224L248.065 494.188C247.211 494.174 246.833 494.616 246.855 495.442L246.841 495.599L246.684 495.628C246.584 495.678 246.513 495.756 246.47 495.856C246.207 496.248 245.943 496.64 245.687 497.032C245.01 497.267 245.039 497.766 245.195 498.314C243.807 502.006 243.543 505.847 243.721 509.745C243.778 510.978 243.835 512.232 243.187 513.372C242.916 513.394 242.767 513.543 242.738 513.807L242.703 513.836C241.784 514.092 240.865 514.092 239.946 513.829L239.918 513.807C239.889 513.536 239.733 513.394 239.462 513.365C238.786 512.104 238.721 510.729 238.686 509.346C238.664 508.505 238.6 507.664 238.558 506.83C238.864 504.842 238.415 502.875 238.344 500.901H238.351Z" fill="#261E1A"/>
<path d="M348.877 495.628C348.628 497.338 348.485 497.438 347.154 496.846C344.597 495.706 344.191 495.82 342.653 498.2C340.794 501.094 340.06 504.308 339.989 507.7C339.946 509.802 340.993 511.427 342.524 512.717C344.789 514.627 347.132 514.335 348.977 512.004C349.746 511.035 350.423 509.988 351.185 509.011C352.039 507.921 354.133 506.945 354.56 507.465C355.337 508.413 355.315 509.588 355.095 510.779C354.788 512.453 353.898 513.843 352.873 515.076C351.598 516.608 350.237 518.254 348.25 518.846C345.245 519.736 342.425 519.238 340.053 517.007C339.989 516.736 339.818 516.615 339.54 516.615C338.97 516.351 338.543 515.938 338.194 515.425L338.151 515.24L337.973 515.19C337.881 515.047 337.781 514.905 337.688 514.762C337.738 514.491 337.632 514.32 337.361 514.256C336.25 513.073 335.808 511.591 335.481 510.059C335.901 509.688 335.751 509.403 335.345 509.161C335.103 508.227 335.11 507.294 335.324 506.353C335.986 505.697 335.837 504.956 335.538 504.201C335.595 503.873 335.659 503.552 335.716 503.225C335.944 502.875 335.986 502.498 335.929 502.099C336.022 501.821 336.115 501.55 336.207 501.272C336.734 500.965 336.805 500.545 336.492 500.046C337.048 498.493 337.446 496.868 338.586 495.585C339.262 495.371 339.547 494.908 339.448 494.202L339.497 494.146C339.768 494.117 339.911 493.974 339.903 493.697C340.067 493.533 340.231 493.369 340.395 493.205C340.673 493.219 340.815 493.077 340.844 492.806L340.915 492.749C341.185 492.784 341.321 492.656 341.356 492.4L341.449 492.335C341.997 492.385 342.304 492.143 342.36 491.594L342.41 491.487H342.524C343.108 491.487 343.728 491.594 344.141 491.01C344.49 491.01 344.839 490.996 345.188 490.996C345.829 491.566 346.641 491.73 347.446 491.879C347.617 492.057 347.787 492.229 347.958 492.407C347.937 492.656 348.051 492.806 348.307 492.834C348.678 493.248 348.856 493.725 348.785 494.288C348.265 494.765 348.35 495.207 348.849 495.635L348.877 495.628Z" fill="#29211E"/>
<path d="M333.608 493.205C333.942 493.39 334.078 493.704 334.142 494.067C333.949 494.53 334.014 494.922 334.462 495.207C334.747 495.799 334.89 496.419 334.818 497.082C334.256 499.077 334.298 501.079 334.79 503.075C334.747 503.545 334.697 504.023 334.655 504.493C334.256 504.878 333.793 505.248 334.327 505.861C334.07 507.921 333.415 509.824 332.112 511.477C331.82 511.612 331.699 511.833 331.777 512.154C331.165 513.451 330.018 514.313 328.936 515.076C327.347 516.202 325.51 516.23 323.765 515.161C323.729 514.605 323.466 514.27 322.882 514.242L322.846 514.206C322.825 513.957 322.697 513.821 322.455 513.793C322.163 513.586 321.928 513.337 321.842 512.973C321.871 512.688 321.749 512.503 321.479 512.41C320.703 510.95 320.346 509.36 320.119 507.736C320.546 507.372 320.411 507.087 320.005 506.838C319.72 504.194 319.784 501.55 319.976 498.906C320.51 498.5 320.617 498.058 320.111 497.545C320.09 496.697 320.297 495.913 320.76 495.2C321.287 495.086 321.422 494.723 321.351 494.238L321.422 494.181C322.832 493.953 323.936 494.438 324.734 495.628C325.004 496.255 324.89 496.882 324.705 497.502C324.278 497.759 324.164 498.058 324.605 498.414C324.605 501.072 324.605 503.731 324.605 506.389C324.078 506.788 324.299 507.073 324.748 507.322C325.332 508.334 325.14 509.688 326.137 510.515C326.222 510.8 326.336 510.836 326.471 510.543L326.6 510.508C327.013 510.593 327.276 510.444 327.354 510.009L327.411 509.959C327.696 509.945 327.839 509.795 327.839 509.51C327.839 509.353 327.91 509.218 328.031 509.118C328.287 509.054 328.387 508.89 328.33 508.633C329.548 506.645 329.804 504.372 330.246 502.148C330.958 500.759 330.944 499.369 330.26 497.972C330.139 497.181 330.018 496.39 329.89 495.606C330.367 495.165 330.388 494.723 329.897 494.274C329.854 493.868 330.032 493.554 330.324 493.29C330.574 493.269 330.702 493.141 330.709 492.891L330.802 492.82C331.556 492.791 332.318 492.756 333.081 492.727L333.166 492.784C333.187 493.062 333.33 493.205 333.608 493.198V493.205Z" fill="#29221E"/>
<path d="M311.401 497.773C312.341 496.632 313.011 495.706 313.474 494.63C313.944 493.547 314.67 492.634 315.525 491.843C316.793 490.66 318.245 491.124 318.63 492.834C318.872 493.939 318.559 494.986 318.096 495.984C317.063 498.236 315.981 500.495 314.364 502.376C311.515 505.69 311.18 509.239 312.833 513.144C313.331 514.32 313.353 515.567 313.089 516.8C312.776 518.261 311.999 519.024 310.853 519.109C309.663 519.195 308.859 518.632 308.296 517.192C307.619 515.446 307.356 513.608 307.228 511.748C306.907 507.115 306.943 502.462 306.437 497.844C306.402 497.537 306.394 497.224 306.423 496.917C306.508 495.77 307.306 494.616 308.182 494.43C309.407 494.167 310.02 495.05 310.575 495.884C310.91 496.39 311.074 497.01 311.408 497.787L311.401 497.773Z" fill="#29221E"/>
<path d="M171.262 495.934C172.48 494.886 173.007 493.304 173.933 492.014C174.695 490.96 175.614 490.24 176.86 489.884C177.779 489.627 178.149 489.976 178.249 490.86C178.448 492.713 177.829 494.388 177.038 495.984C176.012 498.065 174.773 500.039 173.349 501.87C172.651 502.761 172.473 503.574 172.772 504.65C173.377 506.866 173.52 509.196 174.837 511.227C175.514 512.268 175.165 513.465 174.325 514.448C173.384 515.539 172.145 515.66 171.12 514.684C170.258 513.864 169.71 512.859 169.46 511.683C168.769 508.427 168.036 505.177 167.359 501.92C166.889 499.647 166.448 497.374 165.308 495.3C165.059 494.844 164.945 494.274 164.902 493.746C164.817 492.72 165.322 491.915 166.184 491.444C167.138 490.924 167.958 491.323 168.67 492.064C169.432 492.855 170.08 493.711 170.443 494.758C170.593 495.193 170.642 495.677 171.248 495.934H171.262Z" fill="#29221E"/>
<path d="M66.7685 502.519C66.7685 507.016 66.7756 511.52 66.7613 516.016C66.7613 516.786 66.7542 517.584 66.5548 518.318C66.2628 519.387 65.5079 520.028 64.3328 519.993C63.2716 519.957 62.5807 519.344 62.2887 518.375C62.0964 517.72 62.0537 517 62.0466 516.308C61.8828 507.073 62.246 497.844 62.3671 488.615C62.3885 486.969 62.6733 485.359 63.5921 483.947C64.3328 482.814 64.9381 482.8 65.6788 483.89C66.6759 485.358 66.9251 487.055 66.9465 488.779C66.9892 492.578 67.1531 496.383 66.8682 500.181C66.8112 500.951 66.8611 501.735 66.8611 502.505H66.7756L66.7685 502.519Z" fill="#29221E"/>
<path d="M56.926 503.175C57.1539 506.495 56.4203 510.108 56.5414 513.764C56.5984 515.446 55.7224 516.472 54.3977 516.601C53.0018 516.736 51.9335 515.731 51.7412 513.992C51.6557 513.23 51.6771 512.439 51.7341 511.669C52.1828 505.712 52.4534 499.747 52.4463 493.768C52.4463 491.893 52.6884 490.055 53.1727 488.245C53.3579 487.568 53.5715 486.905 54.0914 486.392C54.5615 485.921 55.0315 485.921 55.5016 486.392C56.1283 487.033 56.3349 487.86 56.5272 488.694C57.5029 492.834 57.0613 497.032 57.0613 501.208C57.0613 501.749 56.9901 502.291 56.9331 503.167L56.926 503.175Z" fill="#2B2420"/>
<path d="M381.189 508.448C381.125 510.144 380.99 512.311 380.591 514.456C380.299 516.052 379.459 516.857 378.205 516.807C376.973 516.765 375.983 515.824 375.998 514.277C376.019 512.189 376.297 510.108 376.489 508.02C376.646 506.324 376.788 504.614 377.322 502.982C377.443 502.611 377.572 502.248 377.721 501.892C378.027 501.165 378.412 500.303 379.245 500.352C380.05 500.402 380.406 501.272 380.705 502.006C381.496 503.944 381.417 505.954 381.189 508.455V508.448Z" fill="#2B2420"/>
<path d="M48.5648 508.911C48.5648 510.073 48.5577 511.227 48.5648 512.389C48.5719 513.173 48.4152 513.921 48.1161 514.641C47.7458 515.539 47.0407 515.952 46.122 515.924C45.2032 515.895 44.5409 515.439 44.2062 514.52C43.9925 513.928 43.8358 513.337 43.8358 512.717C43.8572 509.938 43.8785 507.158 43.9213 504.379C43.9213 503.916 44.0067 503.453 44.0993 503.004C44.4412 501.407 45.1605 500.545 46.1362 500.509C47.119 500.467 47.9025 501.322 48.223 502.911C48.3939 503.738 48.4224 504.593 48.515 505.441C48.5292 505.59 48.5221 505.747 48.5221 505.904C48.5221 506.909 48.5221 507.914 48.5221 508.918H48.5577L48.5648 508.911Z" fill="#2B2420"/>
<path d="M382.087 494.352C382.122 495.849 381.232 496.96 380.121 497.787C378.683 498.863 376.653 497.595 376.617 495.628C376.589 494.088 377.294 492.791 378.376 491.751C379.231 490.931 380.328 491.088 381.225 492.015C381.845 492.656 382.158 493.411 382.087 494.359V494.352Z" fill="#2B2420"/>
<path d="M458 513.123C458.014 514.734 456.875 516.031 455.393 516.095C453.891 516.159 452.694 514.947 452.651 513.301C452.601 511.634 453.684 510.408 455.244 510.365C456.839 510.322 457.993 511.477 458.007 513.123H458Z" fill="#2B2420"/>
<path d="M443.585 516.18C442.061 516.23 440.971 515.183 440.907 513.608C440.836 511.947 442.061 510.593 443.692 510.522C445.223 510.458 446.299 511.491 446.348 513.094C446.405 514.783 445.195 516.13 443.585 516.187V516.18Z" fill="#2B2420"/>
<path d="M435.295 513.03C435.295 514.62 434.106 515.974 432.681 516.002C431.25 516.031 430.189 514.883 430.167 513.28C430.146 511.591 431.243 510.344 432.745 510.329C434.213 510.315 435.288 511.463 435.295 513.023V513.03Z" fill="#2B2420"/>
<path d="M48.0733 494.658C48.0306 495.941 47.062 496.889 45.8513 496.825C44.6477 496.761 43.7645 495.713 43.8571 494.438C43.9426 493.276 44.8471 492.399 45.9724 492.392C47.2045 492.378 48.1161 493.369 48.0733 494.666V494.658Z" fill="#3F594D"/>
<path d="M334.79 503.082C334.298 501.079 334.263 499.084 334.818 497.089C335.224 498.343 334.925 499.64 335.032 500.908C335.082 501.507 335.032 502.177 335.951 502.098C336.008 502.498 335.965 502.882 335.737 503.224C335.452 502.982 335.181 502.612 334.79 503.082Z" fill="#3F594D"/>
<path d="M252.446 501.692C252.816 501.906 252.973 502.227 252.973 502.647C252.973 504.351 252.973 506.054 252.973 507.757C252.973 508.185 252.802 508.498 252.424 508.698C252.431 506.36 252.438 504.03 252.446 501.692Z" fill="#2B2420"/>
<path d="M252.624 489.998C252.317 489.955 251.983 489.991 251.719 489.863C250.238 489.157 248.771 489.071 247.289 489.848C246.862 490.076 246.392 490.048 245.929 489.991C248.165 488.444 250.394 487.881 252.624 489.991V489.998Z" fill="#2B2420"/>
<path d="M238.351 500.901C238.415 502.875 238.871 504.842 238.565 506.83C238.202 506.481 237.831 506.132 237.468 505.79C237.546 504.122 238.358 502.59 238.358 500.901H238.351Z" fill="#D6CECA"/>
<path d="M257.075 507.735C256.462 506.203 256.462 504.671 257.075 503.139C257.317 504.671 257.324 506.203 257.075 507.735Z" fill="#2B2420"/>
<path d="M330.253 497.987C330.937 499.383 330.951 500.773 330.239 502.163C330.054 500.773 330.047 499.376 330.253 497.987Z" fill="#3F594D"/>
<path d="M324.734 495.635C323.936 494.445 322.832 493.96 321.422 494.188C323.359 493.048 324.192 493.411 324.734 495.635Z" fill="#3F594D"/>
<path d="M255.793 495.186C254.96 494.288 254.404 493.269 254.34 492.015C255.095 492.948 255.807 493.896 255.793 495.186Z" fill="#2B2420"/>
<path d="M334.334 505.861C333.793 505.248 334.263 504.885 334.662 504.493C335.117 504.863 335.317 504.45 335.566 504.194C335.858 504.949 336.015 505.69 335.352 506.346C335.11 505.989 335.011 505.327 334.334 505.854V505.861Z" fill="#3F594D"/>
<path d="M252.139 510.586C252.794 511.405 252.446 512.325 252.389 513.216C251.698 512.396 251.876 511.491 252.139 510.586Z" fill="#2B2420"/>
<path d="M239.954 513.829C240.872 514.092 241.791 514.099 242.71 513.836C241.442 515.026 241.207 515.026 239.954 513.829Z" fill="#D6CECA"/>
<path d="M347.474 491.879C346.662 491.729 345.857 491.566 345.216 490.995C346.149 490.839 346.968 490.953 347.474 491.879Z" fill="#3F594D"/>
<path d="M333.081 492.741C332.318 492.77 331.564 492.806 330.802 492.834C331.528 492.036 332.29 492.036 333.081 492.741Z" fill="#3F594D"/>
<path d="M252.766 513.807C253.585 513.707 254.254 514.406 255.088 514.235C254.162 514.947 253.421 514.612 252.766 513.807Z" fill="#2B2420"/>
<path d="M250.302 494.217C251.377 494.58 251.548 495.428 251.484 496.404C250.886 495.784 250.565 495.022 250.302 494.217Z" fill="#2B2420"/>
<path d="M320.104 497.545C320.61 498.051 320.503 498.5 319.969 498.906C319.748 498.428 319.819 497.979 320.104 497.545Z" fill="#3F594D"/>
<path d="M246.869 495.45C246.848 494.623 247.225 494.174 248.08 494.195C247.724 494.659 247.467 495.222 246.869 495.45Z" fill="#2B2420"/>
<path d="M248.315 494.095C248.949 493.19 249.568 493.183 250.188 494.11C249.568 493.832 248.942 494.003 248.315 494.095Z" fill="#2B2420"/>
<path d="M348.877 495.628C348.379 495.2 348.286 494.758 348.813 494.281C349.091 494.715 349.062 495.164 348.877 495.628Z" fill="#3F594D"/>
<path d="M329.89 494.288C330.381 494.737 330.36 495.179 329.883 495.62C329.591 495.179 329.562 494.73 329.89 494.288Z" fill="#3F594D"/>
<path d="M339.469 494.202C339.569 494.901 339.284 495.364 338.607 495.585C338.742 495.029 338.885 494.48 339.469 494.202Z" fill="#3F594D"/>
<path d="M319.997 506.83C320.41 507.08 320.546 507.372 320.111 507.728C319.834 507.457 319.791 507.158 319.997 506.83Z" fill="#3F594D"/>
<path d="M245.203 498.322C245.053 497.773 245.024 497.267 245.694 497.039C245.68 497.523 245.644 498.001 245.203 498.322Z" fill="#2B2420"/>
<path d="M324.605 498.421C324.164 498.065 324.278 497.773 324.705 497.509C324.926 497.844 324.869 498.143 324.605 498.421Z" fill="#3F594D"/>
<path d="M251.961 498.436C252.481 498.664 252.652 498.949 252.111 499.348C251.897 499.07 251.826 498.77 251.961 498.436Z" fill="#2B2420"/>
<path d="M335.367 509.161C335.773 509.41 335.922 509.688 335.502 510.059C335.21 509.795 335.153 509.496 335.367 509.161Z" fill="#3F594D"/>
<path d="M256.733 499.854C256.27 499.604 256.163 499.305 256.619 498.934C256.861 499.212 256.925 499.519 256.733 499.854Z" fill="#2B2420"/>
<path d="M256.619 510.999C256.092 510.622 256.227 510.329 256.74 510.087C256.882 510.415 256.833 510.721 256.619 510.999Z" fill="#2B2420"/>
<path d="M336.513 500.039C336.827 500.545 336.748 500.958 336.228 501.265C336.129 500.808 336.214 500.395 336.513 500.039Z" fill="#3F594D"/>
<path d="M344.169 491.01C343.756 491.594 343.137 491.487 342.553 491.494C342.973 490.938 343.536 490.86 344.169 491.01Z" fill="#3F594D"/>
<path d="M342.389 491.594C342.325 492.143 342.019 492.385 341.477 492.335C341.627 491.901 341.905 491.616 342.389 491.594Z" fill="#3F594D"/>
<path d="M321.351 494.245C321.422 494.73 321.279 495.086 320.759 495.207C320.738 494.751 320.781 494.331 321.351 494.245Z" fill="#3F594D"/>
<path d="M334.469 495.207C334.021 494.922 333.957 494.53 334.149 494.067C334.598 494.352 334.598 494.765 334.469 495.207Z" fill="#3F594D"/>
<path d="M255.836 513.558C255.75 513.059 255.779 512.61 256.363 512.41C256.434 512.909 256.284 513.301 255.836 513.558Z" fill="#2B2420"/>
<path d="M256.277 497.06C255.828 496.832 255.686 496.547 256.106 496.155C256.363 496.419 256.441 496.718 256.277 497.06Z" fill="#2B2420"/>
<path d="M324.741 507.329C324.299 507.08 324.071 506.795 324.598 506.396C324.819 506.681 324.876 506.987 324.741 507.329Z" fill="#3F594D"/>
<path d="M322.889 514.242C323.473 514.27 323.736 514.605 323.772 515.161C323.188 515.133 323.038 514.691 322.889 514.242Z" fill="#3F594D"/>
<path d="M240.986 492.799C240.473 492.813 239.961 492.82 239.441 492.834C239.939 492.2 240.459 492.221 240.986 492.799Z" fill="#2B2420"/>
<path d="M245.943 489.984C245.808 490.418 245.466 490.518 245.067 490.511C245.231 490.119 245.537 489.977 245.943 489.984Z" fill="#2B2420"/>
<path d="M327.347 510.016C327.269 510.451 327.013 510.6 326.592 510.515C326.77 510.244 326.991 510.023 327.347 510.016Z" fill="#3F594D"/>
<path d="M244.554 490.931C244.533 491.252 244.348 491.409 244.049 491.459C244.035 491.102 244.213 490.946 244.554 490.931Z" fill="#2B2420"/>
<path d="M253.706 490.96C253.564 490.903 253.471 490.81 253.421 490.668C253.635 490.646 253.742 490.739 253.706 490.96Z" fill="#2B2420"/>
<path d="M328.323 508.648C328.373 508.904 328.273 509.068 328.024 509.132C327.924 508.847 328.06 508.705 328.323 508.648Z" fill="#3F594D"/>
<path d="M339.925 493.697C339.932 493.974 339.789 494.124 339.519 494.146C339.519 493.875 339.654 493.718 339.925 493.697Z" fill="#3F594D"/>
<path d="M245.039 490.525C244.953 490.76 244.789 490.903 244.533 490.946C244.583 490.661 244.747 490.518 245.039 490.525Z" fill="#2B2420"/>
<path d="M327.832 509.517C327.832 509.802 327.689 509.952 327.404 509.966C327.419 509.695 327.568 509.553 327.832 509.517Z" fill="#3F594D"/>
<path d="M348.336 492.834C348.08 492.806 347.966 492.656 347.987 492.406C348.272 492.406 348.4 492.549 348.336 492.834Z" fill="#3F594D"/>
<path d="M340.865 492.806C340.836 493.076 340.694 493.219 340.416 493.205C340.43 492.92 340.587 492.791 340.865 492.806Z" fill="#3F594D"/>
<path d="M341.378 492.407C341.342 492.663 341.207 492.791 340.936 492.756C340.957 492.478 341.107 492.371 341.378 492.407Z" fill="#3F594D"/>
<path d="M326.471 510.55C326.336 510.85 326.222 510.807 326.137 510.522C326.258 510.444 326.365 510.451 326.471 510.55Z" fill="#3F594D"/>
<path d="M333.608 493.205C333.323 493.219 333.18 493.069 333.166 492.791C333.451 492.784 333.593 492.92 333.608 493.205Z" fill="#3F594D"/>
<path d="M331.784 512.154C331.706 511.833 331.82 511.612 332.119 511.477C332.14 511.769 332.062 512.011 331.784 512.154Z" fill="#3F594D"/>
<path d="M243.671 492C243.572 492.121 243.465 492.243 243.365 492.364C243.344 492.143 243.443 492.014 243.671 492Z" fill="#2B2420"/>
<path d="M321.479 512.41C321.749 512.503 321.871 512.688 321.842 512.973C321.571 512.881 321.436 512.703 321.479 512.41Z" fill="#3F594D"/>
<path d="M239.469 513.365C239.74 513.387 239.889 513.536 239.925 513.807C239.633 513.807 239.483 513.657 239.469 513.365Z" fill="#D6CECA"/>
<path d="M242.745 513.814C242.774 513.544 242.923 513.401 243.194 513.38C243.18 513.665 243.037 513.814 242.745 513.814Z" fill="#D6CECA"/>
<path d="M330.709 492.905C330.702 493.155 330.566 493.29 330.324 493.304C330.289 493.012 330.424 492.884 330.709 492.905Z" fill="#3F594D"/>
<path d="M246.484 495.863C246.527 495.763 246.605 495.685 246.698 495.635L246.67 495.827L246.484 495.863Z" fill="#2B2420"/>
<path d="M255.28 514.114C255.351 513.971 255.458 513.878 255.608 513.836C255.622 514.078 255.515 514.163 255.28 514.114Z" fill="#2B2420"/>
<path d="M322.455 513.793C322.704 513.821 322.832 513.957 322.846 514.206C322.583 514.199 322.447 514.064 322.455 513.793Z" fill="#3F594D"/>
<path d="M337.375 514.263C337.646 514.327 337.753 514.498 337.703 514.769C337.446 514.698 337.347 514.52 337.375 514.263Z" fill="#3F594D"/>
<path d="M337.995 515.197L338.173 515.247L338.215 515.432L338.016 515.396L337.995 515.197Z" fill="#3F594D"/>
<path d="M339.554 516.615C339.825 516.615 340.003 516.736 340.067 517.007C339.782 517.028 339.619 516.886 339.554 516.615Z" fill="#3F594D"/>
<path d="M279.139 340.35C278.462 340.414 277.985 339.973 277.479 339.645C273.128 336.815 268.798 333.958 264.439 331.136C262.737 330.038 261.733 328.827 261.733 326.511C261.718 320.981 260.728 315.557 258.62 310.398C258.093 309.115 258.186 308.103 259.069 306.991C260.757 304.868 262.302 302.637 263.933 300.464C265.265 298.689 265.486 298.604 267.644 299.245C272.622 300.713 277.643 300.77 282.543 299.16C289.074 297.022 294.316 292.967 298.226 287.315C302.691 280.873 304.422 273.683 303.653 265.893C303.574 265.131 303.432 264.34 303.147 263.634C302.442 261.874 301.074 261.525 299.443 262.537C297.578 263.684 295.391 263.962 293.361 264.653C288.967 266.157 284.459 267.326 280.036 268.744C277.743 269.478 275.336 269.628 273.049 270.369C272.038 270.697 271.119 270.184 270.236 269.628C267.252 267.746 266.013 264.76 265.123 261.582C264.482 259.302 264.482 256.993 265.237 254.705C265.671 253.387 266.44 252.432 267.658 251.726C273.434 248.412 279.189 245.056 284.936 241.699C285.869 241.151 286.738 240.495 287.65 239.918C289.259 238.899 289.629 238.065 289.045 236.205C288.07 233.091 286.168 230.532 283.903 228.273C278.049 222.444 270.827 220.683 262.915 222.002C252.495 223.741 244.846 229.727 239.298 238.542C235.474 244.607 233.608 251.22 233.85 258.432C233.957 261.66 234.505 264.767 235.78 267.711C236.407 269.157 236.378 270.191 235.331 271.495C231.949 275.728 228.737 280.096 225.46 284.415C224.349 285.876 224.022 285.833 222.968 284.308C218.595 278.008 214.193 271.723 209.813 265.43C206.666 260.919 203.546 256.387 200.384 251.89C199.828 251.099 199.572 250.272 199.444 249.317C198.995 245.939 198.454 242.569 197.948 239.198C197.742 237.808 197.065 236.796 195.812 236.077C192.649 234.281 189.523 232.414 186.389 230.554C183.797 229.014 181.212 227.446 178.633 225.879C175.421 223.933 174.61 224.047 171.953 226.606C170.108 228.38 168.171 230.048 166.305 231.801C165.764 232.307 165.116 232.485 164.475 232.749C162.944 233.39 162.438 234.259 162.773 235.863C162.994 236.917 163.378 237.951 163.763 238.963C166.384 245.932 169.061 252.881 171.625 259.865C172.53 262.33 174.132 264.126 176.554 264.739C181.767 266.057 185.15 269.321 188.198 273.626C194.33 282.284 200.918 290.615 207.363 299.053C208.261 300.221 209.115 301.426 210.027 302.573C210.611 303.314 210.64 303.884 210.056 304.618C206.388 309.222 203.069 314.096 199.138 318.493C198.653 319.028 198.297 319.334 197.599 318.864C194.373 316.691 190.712 316.669 187.066 316.94C182.551 317.268 178.213 318.422 174.061 320.247C171.198 321.508 168.556 323.097 166.441 325.449C166.077 325.848 165.593 326.247 165.465 326.732C164.909 328.784 163.392 329.212 161.583 329.226C155.53 329.29 149.533 329.033 143.665 327.195C140.388 326.176 137.219 325.021 134.242 323.311C127.27 319.306 122.37 313.676 120.561 305.687C119.186 299.63 120.29 293.815 122.648 288.199C124.4 284.023 126.835 280.253 129.705 276.761C130.204 276.148 130.631 275.521 130.938 274.809C131.45 273.604 131.258 272.478 130.446 271.865C129.691 271.295 128.295 271.352 127.426 272.136C126.565 272.913 125.739 273.754 125.019 274.659C120.119 280.838 116.544 287.672 115.462 295.568C114.365 303.542 115.832 310.982 120.525 317.702C124.179 322.94 128.943 326.724 134.669 329.433C141.72 332.761 149.12 334.471 156.919 334.471C158.549 334.471 160.202 334.279 161.804 334.492C164.29 334.834 166.006 333.252 168 332.354C168.513 332.126 168.798 331.585 168.933 331.057C169.446 329.083 170.949 327.886 172.523 326.96C178.27 323.589 184.502 321.957 191.204 322.306C192.065 322.349 192.892 322.52 193.682 322.926C193.988 323.71 193.44 324.273 193.07 324.793C191.98 326.297 191.239 328.029 190 329.447C189.124 330.459 188.996 331.684 189.722 332.91C190.413 334.079 191.396 334.193 192.692 334.115C199.18 333.73 205.163 339.766 204.109 346.365C203.176 352.194 196.417 354.411 192.721 353.299C191.076 352.807 189.53 352.116 187.992 351.361C186.432 350.591 185.527 350.769 184.673 351.831C183.861 352.836 183.939 354.275 184.936 355.444C185.641 356.271 186.475 356.912 187.515 357.368C189.68 358.316 191.019 360.048 191.887 362.25C193.176 365.535 191.702 369.718 187.814 371.2C185.029 372.262 182.187 372.212 179.581 370.445C179.068 370.096 178.569 369.725 178.028 369.419C176.532 368.571 174.902 368.685 173.933 369.661C172.943 370.659 172.808 371.885 173.698 373.502C174.823 375.54 175.956 377.536 176.376 379.888C177.48 386.066 173.285 388.475 168.563 387.862C160.465 386.814 154.839 382.204 151.549 374.757C151.078 373.702 150.865 372.533 150.402 371.471C149.69 369.839 148.956 369.533 147.261 369.939C143.536 370.837 139.79 370.88 135.973 370.538C131.486 370.131 126.999 369.732 122.662 368.542C116.679 366.896 110.868 364.744 105.619 361.323C104.13 360.354 102.542 359.563 101.104 358.473C89.7013 349.835 82.2232 338.561 78.3489 324.836C76.2194 317.282 75.5927 309.571 76.1197 301.782C76.7607 292.34 79.1394 283.303 83.0067 274.645C85.6774 268.666 89.0034 263.071 92.9347 257.876C96.4886 253.187 100.427 248.819 104.942 244.985C107.542 242.775 110.156 240.602 112.983 238.678C115.49 236.982 115.746 235.414 114.172 232.763C113.061 230.896 111.808 229.107 110.804 227.19C109.892 225.437 109.458 225.023 111.737 224.14C118.738 221.418 125.682 218.531 132.64 215.695C138.373 213.358 144.099 210.999 149.825 208.633C150.324 208.426 150.836 208.198 151.264 207.877C152.375 207.044 152.638 205.647 151.955 204.571C151.228 203.423 150.067 203.053 148.778 203.566C142.083 206.224 135.367 208.847 128.687 211.54C123.153 213.771 117.655 216.094 112.143 218.36C111.21 218.745 110.255 219.08 109.308 219.408C107.107 220.17 107.136 220.149 106.224 218.061C104.13 213.293 102.307 208.44 100.897 203.423C100.199 200.922 99.9712 201.549 102.371 200.501C103.646 199.946 105.021 199.646 106.353 199.219C109.23 198.285 112.107 197.38 114.963 196.39C115.974 196.04 116.964 195.534 117.441 194.43C118.082 192.955 117.342 191.558 115.739 191.387C114.742 191.28 113.745 191.33 112.762 191.708C108.931 193.176 104.878 193.967 101.025 195.42C99.2875 196.076 98.9528 195.819 98.6038 194.088C97.7278 189.755 97.1295 185.372 96.6239 180.982C96.517 180.077 96.923 179.678 97.8132 179.728C99.6721 179.828 101.524 179.963 103.383 180.02C110.747 180.241 118.111 180.448 125.475 180.654C127.32 180.704 129.171 181.232 131.016 180.64C131.308 180.548 131.636 180.562 131.928 180.476C133.259 180.091 134.05 179.279 134.05 178.31C134.05 177.227 133.259 176.371 131.792 176.037C130.888 175.83 129.962 175.666 129.043 175.63C123.153 175.424 117.263 175.274 111.373 175.089C106.958 174.946 102.542 174.789 98.1266 174.618C96.3105 174.547 96.1681 174.405 96.1182 172.566C95.8974 163.701 96.6168 154.9 98.1195 146.163C99.3943 138.737 101.531 131.546 103.846 124.384C106.659 115.676 108.909 106.803 111.366 97.9881C114.464 86.8566 117.634 75.7465 120.774 64.6222C124.1 52.8351 127.455 41.0552 130.731 29.2538C131.956 24.8497 132.654 20.3031 134.627 16.127C135.659 13.9463 136.835 11.8868 138.537 10.1265C140.453 8.1454 142.675 7.57528 145.303 8.20241C148.693 9.00769 151.278 11.1527 153.628 13.4902C159.198 19.0488 163.57 25.5552 167.644 32.2327C170.707 37.2568 173.47 42.4733 176.02 47.7825C178.641 53.2342 181.176 58.7287 183.754 64.2017C184.06 64.8431 184.146 65.5273 184.274 66.2185C184.922 69.6606 187.109 70.5157 189.972 68.3921C191.467 67.2804 193.034 66.2969 194.601 65.285C197.029 63.7172 199.615 62.4629 202.271 61.4225C208.133 59.1206 214.215 57.6169 220.461 56.7333C225.539 56.0206 230.617 55.6786 235.745 55.6857C241.991 55.6928 248.066 56.8758 254.169 57.902C257.552 58.4721 260.771 59.5838 263.997 60.7027C265.173 61.116 266.312 61.5864 267.33 62.3275C268.093 62.8834 268.926 63.2112 269.902 63.2824C272.352 63.4606 273.904 62.527 275.036 60.2323C279.623 50.9039 284.729 41.8605 290.726 33.3444C296.011 25.8332 301.879 18.8421 308.887 12.8845C312.32 9.96976 316.059 7.44701 320.432 6.1215C327.582 3.96219 333.223 5.99322 336.82 13.1766C338.785 17.1104 339.946 21.3079 340.459 25.6265C340.929 29.5674 342.168 33.3444 342.596 37.2782C343.372 44.4402 345.088 51.4526 345.85 58.6289C346.534 65.0925 347.73 71.5063 348.706 77.9343C349.888 85.6736 351.085 93.4058 352.267 101.145C353.271 107.73 354.304 114.315 355.23 120.914C355.8 124.976 356.199 129.059 356.811 133.128C358.171 142.243 359.973 151.301 360.493 160.522C360.735 164.784 360.664 169.06 360.671 173.328C360.671 174.918 360.55 175.003 358.919 175.053C352.488 175.253 346.05 175.424 339.619 175.623C336.058 175.737 332.489 175.858 328.928 176.051C327.226 176.143 326.172 177.184 326.151 178.595C326.122 180.02 327.105 181.089 328.75 181.346C329.356 181.438 329.997 181.488 330.602 181.403C333.38 181.004 336.179 181.139 338.963 181.075C344.312 180.947 349.646 180.669 354.981 180.255C356.213 180.163 357.466 180.163 358.705 180.191C360.144 180.22 360.287 180.355 360.258 181.837C360.137 187.517 359.104 193.09 358.228 198.677C358.043 199.86 357.295 199.903 356.327 199.632C352.894 198.663 349.49 197.601 346.014 196.803C341.399 195.748 336.976 194.009 332.333 193.097C330.04 192.648 328.672 193.076 328.209 194.53C327.782 195.884 328.815 197.302 330.844 198.064C331.492 198.307 332.183 198.449 332.853 198.634C337.938 200.017 343.023 201.378 348.101 202.782C350.415 203.423 352.702 204.136 355.002 204.813C356.491 205.255 356.761 205.604 356.327 207.165C355.493 210.151 354.603 213.13 353.627 216.066C352.922 218.196 352.039 220.27 351.22 222.365C350.836 223.363 350.351 223.755 349.112 223.32C343.415 221.325 337.71 219.365 332.012 217.363C326.386 215.381 320.738 213.443 315.119 211.455C314.471 211.227 313.773 211.063 313.089 210.999C312.106 210.906 311.252 211.205 310.718 212.125C310.126 213.13 310.39 214.056 310.96 214.968C311.451 215.745 312.235 216.087 313.046 216.365C314.656 216.928 316.244 217.626 317.868 218.061C322.369 219.265 326.6 221.232 331.029 222.629C336.342 224.311 341.556 226.306 346.833 228.116C347.887 228.48 348.293 228.993 347.652 229.976C346.107 232.357 345.152 235.122 342.88 237.046C341.691 238.051 341.591 239.832 342.496 241.336C343.258 242.597 344.155 243.78 345.373 244.657C349.283 247.472 352.773 250.785 356.056 254.263C361.177 259.672 365.735 265.551 369.502 272.001C374.153 279.954 377.621 288.392 379.687 297.385C382.678 310.426 382.486 323.425 378.668 336.253C376.646 343.044 373.355 349.272 369.274 355.102C364.859 361.416 359.361 366.625 353.079 370.944C348.685 373.973 343.949 376.495 338.871 378.313C334.925 379.724 330.915 380.814 326.813 381.705C323.502 382.425 320.817 384.562 318.844 387.406C318.196 388.339 318.167 389.437 318.181 390.542C318.238 395.366 316.622 399.528 313.082 402.842C310.938 404.851 308.417 406.405 305.369 405.977C301.267 405.407 299.016 402.87 298.233 398.495C297.798 396.072 297.67 393.549 299.508 391.418C300.106 390.72 300.348 389.758 300.483 388.831C300.611 387.948 300.441 387.114 299.657 386.551C298.81 385.945 297.877 385.938 297.022 386.43C295.868 387.092 294.992 388.012 294.358 389.252C292.692 392.48 288.939 393.82 285.449 392.801C282.436 391.924 280.264 387.919 280.663 384.349C281.119 380.272 282.906 376.937 286.496 374.785C287.927 373.923 288.404 372.569 288.725 371.136C289.124 369.348 287.671 367.901 285.855 368.243C284.794 368.443 283.754 368.792 282.721 369.105C281.66 369.433 280.57 369.447 279.488 369.333C276.062 368.977 273.904 366.134 274.68 362.763C276.034 356.898 279.808 353.099 285.463 351.353C287.315 350.783 288.661 349.529 290.342 348.774C291.346 348.325 291.488 346.814 290.862 345.645C290.384 344.761 289.815 343.928 288.931 343.358C287.82 342.631 286.966 341.633 285.897 340.364C288.355 339.281 290.726 338.932 293.19 339.153C298.112 339.588 302.513 341.334 306.302 344.548C307.37 345.453 308.439 345.809 309.578 344.669C309.998 344.248 310.547 344.248 311.088 344.184C320.93 343.087 328.501 338.063 334.384 330.352C341.378 321.18 344.034 310.662 343.222 299.281C342.61 290.679 339.854 282.769 334.541 275.856C334.306 275.55 334.113 275.201 333.836 274.937C333.016 274.16 332.027 274.046 331.029 274.474C330.047 274.901 329.797 275.806 329.854 276.804C329.904 277.688 330.296 278.443 330.809 279.141C334.712 284.429 337.126 290.337 337.995 296.843C339.369 307.141 337.596 316.783 331.713 325.492C326.692 332.932 319.755 337.45 310.917 339.117C309.144 339.452 307.826 339.26 306.259 338.205C300.17 334.115 293.433 332.889 286.268 334.556C283.042 335.305 280.592 337.207 279.196 340.329L279.139 340.35ZM176.618 116.274C172.309 116.118 168.399 117.472 164.945 119.738C157.659 124.52 154.205 131.667 153.977 140.191C153.763 147.901 156.534 154.55 162.452 159.781C166.54 163.401 171.284 165.254 176.654 165.14C184.716 164.969 190.919 161.149 195.007 154.315C200.156 145.707 200.263 136.749 195.441 127.969C191.41 120.629 184.972 116.809 176.632 116.274H176.618ZM264.93 141.659C264.994 142.977 265.016 144.296 265.144 145.607C265.23 146.448 265.443 147.281 265.657 148.108C268.306 158.349 277.009 166.174 288.184 165.354C294.18 164.912 299.009 162.29 302.791 157.772C307.057 152.669 308.809 146.683 308.417 140.055C308.061 133.919 305.761 128.603 301.473 124.249C297.82 120.543 293.397 118.441 288.077 118.077C282.685 117.707 277.871 119.146 273.819 122.517C267.9 127.434 264.895 133.877 264.93 141.666V141.659ZM229.52 195.313C230.083 197.195 230.56 198.962 231.137 200.701C232.561 205.005 234.463 209.075 237.696 212.338C239.512 214.17 241.599 215.674 244.255 216.066C250.38 216.978 254.611 213.749 258.286 209.481C259.226 208.39 258.891 206.367 257.929 205.682C257.046 205.048 255.601 205.269 254.604 206.359C253.599 207.464 252.417 208.341 251.256 209.238C247.553 212.11 243.258 211.091 241.136 208.725C239.825 207.264 238.622 205.754 237.781 204.008C233.33 194.75 232.49 184.823 232.426 174.754C232.426 174.084 232.789 173.599 233.124 173.072C235.039 170.065 236.92 167.043 238.843 164.036C240.06 162.133 241.05 160.116 241.677 157.95C242.226 156.068 241.57 155.021 239.676 154.458C238.757 154.187 237.824 154.166 236.905 154.265C232.497 154.729 228.074 154.522 223.659 154.629C222.555 154.657 221.493 154.864 220.461 155.163C218.524 155.733 217.868 156.966 218.381 158.89C218.623 159.795 218.979 160.636 219.506 161.427C221.572 164.527 223.623 167.627 225.631 170.763C226.244 171.718 227.034 172.573 226.956 173.899C226.7 178.231 226.664 182.579 225.987 186.876C225.062 192.734 223.495 198.399 220.568 203.601C218.524 207.236 216.024 210.443 212.028 212.175C209.899 213.094 207.841 213.144 205.761 212.096C204.23 211.319 202.827 210.393 201.58 209.189C200.477 208.127 199.551 208.055 198.675 208.704C197.606 209.495 197.314 210.699 197.884 212.032C198.005 212.317 198.133 212.616 198.333 212.837C200.961 215.795 204.18 217.705 208.168 217.975C213.04 218.31 216.871 215.973 220.076 212.645C224.072 208.49 226.536 203.402 228.323 197.964C228.608 197.102 228.672 196.133 229.513 195.306L229.52 195.313Z" fill="#9E805B"/>
<path d="M278.462 374.878C278.334 375.847 277.693 376.652 277.308 377.564C274.915 383.315 274.866 388.967 278.676 394.098C281.233 397.547 284.858 399.129 289.245 398.338C292.87 397.682 292.849 397.654 293.753 401.124C295.234 406.79 299.144 410.446 304.863 411.187C308.296 411.629 311.43 410.339 314.25 408.429C317.69 406.106 320.012 402.5 321.693 398.915C322.561 399.977 322.903 401.196 323.331 402.364C325.04 407.018 326.45 411.785 327.255 416.667C328.038 421.47 328.508 426.352 326.578 431.077C325.097 434.704 322.839 436.265 319.243 436.478C315.19 436.721 311.522 435.502 307.89 433.77C305.362 432.566 302.99 431.191 300.654 429.659C297.542 427.62 294.672 425.283 291.816 422.924C287.977 419.767 284.466 416.254 281.097 412.619C277.152 408.372 273.292 404.053 269.788 399.414C266.576 395.152 263.535 390.784 260.572 386.351C258.592 383.394 256.811 380.308 255.031 377.222C251.356 370.83 248.187 364.188 245.552 357.304C244.334 354.126 242.988 350.99 242.204 347.662C241.884 346.315 241.107 345.396 239.726 345.225C236.699 344.854 233.836 343.842 231.087 342.695C226.593 340.821 223.032 337.899 222.006 332.682C221.593 330.587 221.971 328.649 222.612 326.767C224.079 322.463 226.436 318.679 229.698 315.465C232.447 312.757 235.004 309.842 238.152 307.562C240.68 305.723 243.522 304.775 246.655 305.082C249.469 305.353 251.256 307.255 252.602 309.479C254.703 312.964 255.836 316.805 256.291 320.867C256.633 323.938 256.947 327.01 257.224 330.081C257.403 332.012 258.464 333.516 260.216 334.528C264.104 336.759 267.701 339.438 271.454 341.883C273.918 343.486 276.397 345.061 278.868 346.643C280.193 347.491 280.214 347.612 278.897 348.496C275.542 350.741 272.921 353.613 271.148 357.261C269.78 360.076 269.325 363.084 269.816 366.098C270.514 370.374 273.199 373.11 277.316 374.422C277.608 374.514 277.914 374.571 278.206 374.657C278.27 374.678 278.327 374.75 278.469 374.871L278.462 374.878Z" fill="#3F594D"/>
<path d="M276.297 415.484C275.044 415.484 274.274 415.484 273.505 415.484C248.685 415.491 223.858 415.505 199.038 415.513C195.733 415.513 196.153 415.648 196.089 412.683C195.997 408.144 194.679 403.996 191.944 400.326C190.684 398.644 190.641 398.594 191.873 396.92C195.726 391.682 199.622 386.465 203.518 381.256C206.808 376.852 210.127 372.469 213.431 368.072C216.779 363.618 220.126 359.157 223.466 354.696C224.905 352.772 226.358 350.855 227.739 348.895C228.366 348.004 229.05 347.641 230.097 348.111C232.305 349.109 234.662 349.608 237.012 350.099C237.71 350.242 238.066 350.484 238.259 351.204C240.979 361.395 245.644 370.744 250.793 379.881C255.672 388.532 261.156 396.777 267.38 404.531C269.759 407.488 272.131 410.439 274.695 413.239C275.2 413.795 275.585 414.465 276.297 415.47V415.484Z" fill="#9E805A"/>
<path d="M180.563 376.731C186.161 377.764 190.734 376.652 194.209 372.548C197.678 368.45 197.734 363.803 195.975 359.05C196.638 358.43 197.385 358.501 198.048 358.373C205.982 356.884 210.803 348.581 208.389 340.529C206.836 335.341 203.339 331.934 198.511 329.753C198.233 329.625 197.92 329.554 197.734 329.126C198.703 327.174 200.127 325.428 201.53 323.732C205.184 319.306 208.539 314.66 212.007 310.092C213.894 307.605 214.03 307.569 215.839 310.07C217.377 312.208 218.873 314.389 220.568 316.391C221.479 317.467 221.294 318.266 220.667 319.27C219.093 321.8 217.982 324.515 217.441 327.452C216.23 334.029 218.025 339.566 223.217 343.899C224.463 344.94 224.47 344.961 223.459 346.315C216.914 355.066 210.362 363.811 203.81 372.562C198.005 380.315 192.186 388.069 186.403 395.829C184.972 397.746 185.043 398.837 186.375 400.882C187.892 403.212 189.779 405.322 190.563 408.087C192.172 413.752 191.011 419.019 188.141 423.965C185.036 429.316 180.606 433.336 175.236 436.386C168.712 440.092 161.776 441.845 154.269 441.168C149.255 440.719 144.811 438.909 141.051 435.509C140.175 434.718 139.534 433.742 138.864 432.808C138.031 431.654 138.102 431.34 139.306 430.606C140.759 429.723 142.254 428.903 143.714 428.012C147.61 425.618 151.584 423.366 155.523 421.043C156.854 420.259 158.172 419.439 159.497 418.648C160.301 418.171 161.12 417.843 162.103 417.772C163.656 417.658 164.432 416.71 164.461 415.163C164.475 414.372 164.233 413.638 163.919 412.919C161.548 407.524 159.226 402.108 157.118 396.606C156.52 395.038 155.43 394.475 153.792 394.932C152.524 395.281 151.292 395.772 150.06 396.229C145.117 398.06 140.175 399.892 135.239 401.737C134.078 402.172 132.96 402.706 131.792 403.12C129.762 403.84 129.705 403.79 129.549 401.73C129.036 395.217 130.873 389.416 135.118 384.477C137.874 381.27 141.222 378.762 145.224 377.215C146.777 376.617 146.855 376.581 147.539 378.006C149.49 382.083 152.311 385.446 155.893 388.133C160.764 391.789 166.127 393.912 172.38 392.879C177.757 391.995 181.098 387.463 181.311 382.453C181.39 380.664 181.247 378.89 180.585 376.716L180.563 376.731Z" fill="#EBB6CA"/>
<path d="M298.938 268.58C299.265 272.222 298.546 275.55 297.243 278.707C294.166 286.19 288.931 291.549 281.133 294.036C276.653 295.468 272.116 295.29 267.658 293.665C264.325 292.447 263.378 292.824 261.248 295.817C259.632 298.084 257.951 300.314 256.249 302.516C255.109 303.999 255.009 304.041 253.599 302.808C249.511 299.245 244.946 299.031 240.096 300.763C239.013 301.148 237.995 301.747 237.005 302.345C236.122 302.88 235.609 302.595 235.089 301.839C232.725 298.39 230.375 294.934 227.932 291.534C227.248 290.58 227.383 289.938 228.046 289.076C232.041 283.938 235.987 278.764 239.946 273.597C240.132 273.355 240.295 273.084 240.502 272.856C242.24 270.953 242.368 269.279 240.865 266.877C238.501 263.093 238.166 258.653 238.736 254.256C239.875 245.448 244.02 238.343 250.986 232.841C254.974 229.691 259.382 227.625 264.467 227.062C269.837 226.47 274.801 227.383 279.153 230.803C280.634 231.965 281.852 233.369 282.92 234.887C283.747 236.062 283.64 236.326 282.408 237.053C277.472 239.968 272.53 242.861 267.594 245.769C266.056 246.674 264.532 247.593 262.993 248.484C262.295 248.89 261.811 249.46 261.498 250.201C258.001 258.518 260.387 267.989 266.44 273.241C269.204 275.635 272.586 276.134 276.091 275.265C282.564 273.661 288.896 271.595 295.213 269.471C296.374 269.079 297.542 268.673 298.924 268.58H298.938Z" fill="#ECB7CB"/>
<path d="M136.414 375.99C135.09 377.85 133.494 378.719 132.319 380.037C128.174 384.691 125.696 390.036 124.848 396.236C124.343 399.927 124.834 403.49 125.468 407.082C125.575 407.681 125.781 408.301 126.087 408.821C126.8 410.032 127.996 410.403 129.264 409.812C134.826 407.253 140.638 405.35 146.371 403.248C148.187 402.585 149.946 401.787 151.776 401.167C153.236 400.676 153.543 400.854 154.112 402.215C155.451 405.429 156.726 408.678 158.108 411.878C158.492 412.769 158.314 413.311 157.609 413.874C156.164 415.035 154.568 415.555 152.681 415.548C136.941 415.513 121.195 415.541 105.455 415.548C104.522 415.548 103.589 415.513 102.663 415.57C101.531 415.634 101.132 415.092 101.21 414.03C101.324 412.562 101.46 411.094 101.495 409.626C101.723 400.868 101.809 392.095 102.193 383.344C102.414 378.306 102.478 373.267 102.613 368.229C102.628 367.766 102.628 367.295 102.72 366.839C102.806 366.419 103.126 366.155 103.575 366.333C104.152 366.561 104.722 366.818 105.249 367.131C112.705 371.507 120.817 373.951 129.3 375.256C131.493 375.591 133.729 375.719 136.393 375.983L136.414 375.99Z" fill="#9D7F5A"/>
<path d="M224.52 313.384C222.213 310.362 219.955 307.426 217.719 304.476C212.997 298.248 208.282 292.005 203.56 285.769C199.494 280.396 195.427 275.03 191.353 269.664C189.765 267.568 188.184 265.466 186.582 263.378C186.047 262.687 185.378 262.117 184.502 261.981C182.088 261.611 180.072 260.143 177.75 259.53C176.81 259.28 176.411 258.618 176.091 257.77C173.62 251.249 171.134 244.728 168.613 238.229C168.214 237.203 168.378 236.568 169.232 235.834C170.999 234.338 172.665 232.706 174.339 231.103C175.115 230.361 175.834 230.205 176.817 230.796C180.855 233.233 184.929 235.614 188.996 238.015C189.794 238.485 190.541 239.077 191.396 239.419C192.87 240.018 193.468 241.044 193.625 242.597C193.91 245.448 194.38 248.284 194.743 251.128C194.872 252.154 195.206 253.066 195.797 253.921C201.203 261.675 206.594 269.428 211.986 277.189C217.69 285.392 223.388 293.594 229.093 301.789C229.798 302.808 230.46 303.863 231.251 304.818C231.934 305.652 231.884 306.194 231.087 306.949C228.943 308.959 226.878 311.061 224.513 313.391L224.52 313.384Z" fill="#E3DAD5"/>
<path d="M347.161 415.47C342.738 415.47 338.315 415.484 333.893 415.47C331.998 415.463 331.998 415.427 331.635 413.589C330.339 406.94 328.181 400.561 325.617 394.312C325.261 393.442 324.826 392.68 323.964 392.145C322.626 391.311 322.54 390.264 323.772 389.23C324.947 388.247 326.172 387.349 327.782 387.007C330.809 386.366 333.8 385.582 336.763 384.627C343.977 382.289 350.622 378.862 356.84 374.571C357.473 374.137 358.015 373.567 358.634 373.103C359.589 372.391 360.009 372.562 360.144 373.673C360.272 374.75 360.408 375.833 360.465 376.909C360.678 381.014 360.835 385.119 361.07 389.223C361.462 396.186 361.903 403.148 362.309 410.111C362.38 411.351 362.345 412.598 362.452 413.831C362.558 415.035 362.117 415.513 360.892 415.484C358.72 415.427 356.547 415.47 354.375 415.47C351.968 415.47 349.568 415.47 347.161 415.47Z" fill="#9D7F5A"/>
<path d="M157.025 497.295C156.698 498.621 155.615 498.949 154.454 499.633C155.124 497.252 155.209 497.188 157.025 497.295Z" fill="#D6CECA"/>
<path d="M176.618 116.274C184.965 116.816 191.396 120.629 195.427 127.969C200.249 136.749 200.142 145.707 194.993 154.315C190.905 161.149 184.701 164.962 176.639 165.14C171.269 165.254 166.526 163.401 162.438 159.781C156.527 154.55 153.756 147.902 153.963 140.191C154.198 131.668 157.645 124.52 164.931 119.738C168.385 117.472 172.295 116.118 176.604 116.274H176.618ZM169.503 128.354C169.524 126.7 168.242 125.161 166.79 125.09C165.273 125.011 163.805 126.594 163.784 128.332C163.763 130.057 165.166 131.76 166.612 131.76C168.043 131.76 169.475 130.071 169.503 128.354ZM158.471 134.846C158.507 136.079 159.668 137.333 160.772 137.333C161.954 137.333 163.136 135.929 163.072 134.604C163.008 133.25 161.954 132.252 160.658 132.33C159.376 132.409 158.435 133.499 158.471 134.853V134.846Z" fill="#211915"/>
<path d="M264.93 141.659C264.888 133.877 267.9 127.427 273.819 122.51C277.878 119.139 282.685 117.7 288.077 118.07C293.39 118.434 297.82 120.536 301.473 124.242C305.761 128.596 308.061 133.912 308.417 140.048C308.802 146.676 307.057 152.662 302.791 157.765C299.009 162.29 294.187 164.912 288.184 165.347C277.009 166.167 268.306 158.342 265.657 148.101C265.443 147.274 265.23 146.441 265.144 145.6C265.016 144.289 264.994 142.97 264.93 141.652V141.659ZM279.595 128.603C279.595 127.05 278.398 125.881 276.788 125.881C275.115 125.881 273.883 127.142 273.925 128.824C273.961 130.342 275.222 131.746 276.589 131.789C278.085 131.839 279.58 130.249 279.587 128.603H279.595ZM273.306 134.589C273.306 133.314 272.366 132.345 271.162 132.387C270.044 132.43 269.196 133.321 269.154 134.49C269.111 135.744 270.037 136.834 271.169 136.856C272.302 136.877 273.299 135.822 273.306 134.589Z" fill="#211915"/>
<path d="M229.52 195.314C228.687 196.14 228.615 197.116 228.33 197.972C226.536 203.409 224.072 208.497 220.083 212.652C216.878 215.987 213.04 218.318 208.175 217.983C204.194 217.712 200.968 215.795 198.34 212.845C198.14 212.616 198.012 212.317 197.891 212.039C197.321 210.707 197.613 209.502 198.682 208.711C199.558 208.063 200.491 208.134 201.587 209.196C202.834 210.4 204.244 211.327 205.768 212.103C207.848 213.158 209.906 213.108 212.035 212.182C216.031 210.45 218.538 207.243 220.575 203.609C223.495 198.406 225.069 192.741 225.994 186.883C226.671 182.586 226.7 178.232 226.963 173.906C227.041 172.587 226.251 171.725 225.638 170.77C223.63 167.635 221.579 164.535 219.513 161.435C218.986 160.644 218.63 159.795 218.388 158.898C217.875 156.966 218.531 155.733 220.468 155.17C221.501 154.864 222.562 154.664 223.666 154.636C228.081 154.529 232.504 154.736 236.912 154.273C237.824 154.173 238.764 154.194 239.683 154.465C241.577 155.028 242.233 156.075 241.684 157.957C241.05 160.123 240.068 162.14 238.85 164.043C236.927 167.043 235.047 170.072 233.131 173.079C232.796 173.606 232.433 174.098 232.433 174.761C232.49 184.831 233.337 194.758 237.788 204.015C238.629 205.761 239.825 207.272 241.143 208.733C243.265 211.099 247.56 212.118 251.263 209.246C252.417 208.348 253.606 207.471 254.611 206.367C255.608 205.269 257.053 205.055 257.937 205.69C258.898 206.381 259.233 208.398 258.293 209.488C254.618 213.757 250.387 216.985 244.262 216.073C241.606 215.681 239.519 214.17 237.703 212.346C234.463 209.082 232.568 205.013 231.144 200.708C230.567 198.969 230.09 197.202 229.527 195.321L229.52 195.314Z" fill="#231B16"/>
<path d="M169.503 128.354C169.482 130.064 168.043 131.76 166.611 131.76C165.166 131.76 163.763 130.057 163.784 128.332C163.805 126.594 165.273 125.019 166.79 125.09C168.242 125.161 169.524 126.701 169.503 128.354Z" fill="#D6CECA"/>
<path d="M158.471 134.846C158.435 133.492 159.376 132.402 160.658 132.323C161.947 132.245 163.001 133.242 163.072 134.596C163.136 135.922 161.961 137.319 160.771 137.326C159.668 137.326 158.507 136.079 158.471 134.839V134.846Z" fill="#D6CECA"/>
<path d="M279.594 128.603C279.594 130.249 278.092 131.839 276.596 131.789C275.229 131.746 273.968 130.342 273.932 128.824C273.89 127.142 275.122 125.881 276.796 125.881C278.405 125.881 279.602 127.05 279.602 128.603H279.594Z" fill="#D6CECA"/>
<path d="M273.306 134.589C273.306 135.822 272.309 136.877 271.169 136.856C270.037 136.834 269.104 135.744 269.154 134.49C269.196 133.321 270.051 132.423 271.162 132.387C272.366 132.345 273.306 133.314 273.306 134.589Z" fill="#D6CECA"/>
</g>
<defs>
<clipPath id="clip0_82_214">
<rect width="458" height="520" fill="white"/>
</clipPath>
</defs>
</svg>
